<svg xmlns="http://www.w3.org/2000/svg" xmlns:xlink="http://www.w3.org/1999/xlink" width="5316" zoomAndPan="magnify" viewBox="0 0 3987 1234.499963" height="1646" preserveAspectRatio="xMidYMid meet" version="1.0"><defs><g/><clipPath id="567fe2efe4"><path d="M 51.585938 535.53125 L 175.226562 535.53125 L 175.226562 677 L 51.585938 677 Z M 51.585938 535.53125 " clip-rule="nonzero"/></clipPath><clipPath id="a876e70e79"><path d="M 175.226562 606.183594 L 51.585938 676.835938 L 51.585938 535.53125 Z M 175.226562 606.183594 " clip-rule="nonzero"/></clipPath><clipPath id="eddb98d2bb"><path d="M 0.585938 0.53125 L 124.226562 0.53125 L 124.226562 142 L 0.585938 142 Z M 0.585938 0.53125 " clip-rule="nonzero"/></clipPath><clipPath id="bac46216ec"><path d="M 124.226562 71.183594 L 0.585938 141.835938 L 0.585938 0.53125 Z M 124.226562 71.183594 " clip-rule="nonzero"/></clipPath><clipPath id="e7affe72e2"><rect x="0" width="125" y="0" height="142"/></clipPath><clipPath id="96f6a5c12b"><path d="M 0.882812 490.023438 L 3985.441406 490.023438 L 3985.441406 732.175781 L 0.882812 732.175781 Z M 0.882812 490.023438 " clip-rule="nonzero"/></clipPath><clipPath id="9bc9640571"><path d="M 1789.027344 372.09375 L 2197.484375 372.09375 L 2197.484375 839.582031 L 1789.027344 839.582031 Z M 1789.027344 372.09375 " clip-rule="nonzero"/></clipPath><clipPath id="e7b894edc2"><path d="M 2197.484375 606.179688 L 1789.027344 372.777344 L 1789.027344 839.582031 Z M 2197.484375 606.179688 " clip-rule="nonzero"/></clipPath><clipPath id="8b25ad2539"><path d="M 0.0273438 0.570312 L 408.484375 0.570312 L 408.484375 467.582031 L 0.0273438 467.582031 Z M 0.0273438 0.570312 " clip-rule="nonzero"/></clipPath><clipPath id="e5e34f477a"><path d="M 408.484375 234.179688 L 0.0273438 0.777344 L 0.0273438 467.582031 Z M 408.484375 234.179688 " clip-rule="nonzero"/></clipPath><clipPath id="0efa9d0691"><rect x="0" width="409" y="0" height="468"/></clipPath><clipPath id="9715f3434a"><rect x="0" width="612" y="0" height="262"/></clipPath><clipPath id="e229995050"><rect x="0" width="588" y="0" height="261"/></clipPath><clipPath id="87daad3de5"><rect x="0" width="828" y="0" height="262"/></clipPath><clipPath id="5abc952833"><rect x="0" width="894" y="0" height="261"/></clipPath><clipPath id="e977ef09bd"><rect x="0" width="1349" y="0" height="261"/></clipPath><clipPath id="2c750d61e7"><rect x="0" width="1233" y="0" height="262"/></clipPath></defs><g clip-path="url(#567fe2efe4)"><g clip-path="url(#a876e70e79)"><g transform="matrix(1, 0, 0, 1, 51, 535)"><g clip-path="url(#e7affe72e2)"><g clip-path="url(#eddb98d2bb)"><g clip-path="url(#bac46216ec)"><path fill="#de5c1e" d="M 124.226562 0.53125 L 124.226562 142.042969 L 0.585938 142.042969 L 0.585938 0.53125 Z M 124.226562 0.53125 " fill-opacity="1" fill-rule="nonzero"/></g></g></g></g></g></g><g clip-path="url(#96f6a5c12b)"><path stroke-linecap="butt" transform="matrix(0.749696, 0, 0, 0.749696, 0.884284, 490.023023)" fill="none" stroke-linejoin="miter" d="M -0.00196254 0.00055321 L 5315.124248 0.00055321 L 5315.124248 323.079294 L -0.00196254 323.079294 Z M -0.00196254 0.00055321 " stroke="#de5c1e" stroke-width="36" stroke-opacity="1" stroke-miterlimit="4"/></g><g clip-path="url(#9bc9640571)"><g clip-path="url(#e7b894edc2)"><g transform="matrix(1, 0, 0, 1, 1789, 372)"><g clip-path="url(#0efa9d0691)"><g clip-path="url(#8b25ad2539)"><g clip-path="url(#e5e34f477a)"><path fill="#de5c1e" d="M 0.0273438 467.582031 L 0.0273438 0.09375 L 408.480469 0.09375 L 408.480469 467.582031 Z M 0.0273438 467.582031 " fill-opacity="1" fill-rule="nonzero"/></g></g></g></g></g></g><g transform="matrix(1, 0, 0, 1, 238, 485)"><g clip-path="url(#9715f3434a)"><g fill="#de5c1e" fill-opacity="1"><g transform="translate(0.36451, 189.243045)"><g><path d="M 9.65625 -17.96875 C 9.65625 -27.238281 11.648438 -35.15625 15.640625 -41.71875 L 17.375 -41.71875 C 17.25 -40.6875 17.1875 -39.65625 17.1875 -38.625 C 17.1875 -29.738281 20.375 -21.976562 26.75 -15.34375 C 33.125 -8.71875 41.847656 -5.40625 52.921875 -5.40625 C 61.546875 -5.40625 68.269531 -7.460938 73.09375 -11.578125 C 77.925781 -15.703125 80.34375 -20.921875 80.34375 -27.234375 C 80.34375 -30.960938 79.148438 -34.304688 76.765625 -37.265625 C 74.390625 -40.234375 70.429688 -43.519531 64.890625 -47.125 L 31.28125 -69.34375 C 18.789062 -77.707031 12.546875 -88.003906 12.546875 -100.234375 C 12.546875 -101.523438 12.675781 -102.816406 12.9375 -104.109375 C 13.707031 -114.273438 17.664062 -122.445312 24.8125 -128.625 C 31.957031 -134.8125 41.519531 -137.90625 53.5 -137.90625 C 60.582031 -137.90625 69.335938 -137.257812 79.765625 -135.96875 L 91.9375 -135.96875 L 89.421875 -107.578125 L 87.5 -107.578125 C 87.5 -114.273438 85.019531 -119.648438 80.0625 -123.703125 C 75.101562 -127.765625 68.503906 -129.796875 60.265625 -129.796875 C 50.210938 -129.796875 42.9375 -126.703125 38.4375 -120.515625 C 36.113281 -117.554688 34.953125 -114.59375 34.953125 -111.625 C 34.953125 -108.664062 35.535156 -106.160156 36.703125 -104.109375 C 38.503906 -100.753906 42.429688 -97.144531 48.484375 -93.28125 L 85.375 -69.34375 C 96.957031 -61.738281 102.75 -51.820312 102.75 -39.59375 C 102.75 -25.945312 98.082031 -15.484375 88.75 -8.203125 C 79.414062 -0.929688 67.019531 2.703125 51.5625 2.703125 C 42.8125 2.703125 34.734375 1.640625 27.328125 -0.484375 C 19.921875 -2.609375 14.484375 -5.472656 11.015625 -9.078125 C 10.109375 -11.523438 9.65625 -14.488281 9.65625 -17.96875 Z M 9.65625 -17.96875 "/></g></g></g><g fill="#de5c1e" fill-opacity="1"><g transform="translate(111.992155, 189.243045)"><g><path d="M 104.109375 -63.921875 C 97.671875 -52.722656 87.5625 -47.125 73.78125 -47.125 C 66.957031 -47.125 60.195312 -49.378906 53.5 -53.890625 L 53.5 -55.4375 C 66.375 -55.4375 74.613281 -62 78.21875 -75.125 C 78.988281 -78.09375 79.375 -80.476562 79.375 -82.28125 C 79.375 -91.164062 77.25 -97.734375 73 -101.984375 C 68.757812 -106.234375 63.097656 -108.359375 56.015625 -108.359375 L 47.3125 -108.359375 L 47.3125 -12.171875 C 47.445312 -8.046875 49.1875 -5.082031 52.53125 -3.28125 C 54.082031 -2.382812 55.820312 -1.9375 57.75 -1.9375 L 60.0625 -1.9375 L 60.0625 0 L 6.765625 0 L 6.765625 -1.9375 L 9.078125 -1.9375 C 11.910156 -1.9375 14.320312 -2.898438 16.3125 -4.828125 C 18.3125 -6.753906 19.3125 -9.132812 19.3125 -11.96875 L 19.3125 -103.71875 C 19.3125 -106.675781 18.3125 -109.117188 16.3125 -111.046875 C 14.320312 -112.984375 11.847656 -113.953125 8.890625 -113.953125 L 6.5625 -113.953125 L 6.5625 -115.890625 L 63.734375 -115.890625 C 78.546875 -115.890625 89.617188 -112.925781 96.953125 -107 C 104.804688 -100.945312 108.734375 -92.640625 108.734375 -82.078125 C 108.734375 -75.390625 107.191406 -69.335938 104.109375 -63.921875 Z M 104.109375 -63.921875 "/></g></g></g><g fill="#de5c1e" fill-opacity="1"><g transform="translate(224.971697, 189.243045)"><g><path d="M 128.625 -1.9375 L 130.171875 -1.9375 L 130.171875 0 L 73.390625 0 L 73.390625 -1.9375 L 74.9375 -1.9375 C 77.507812 -1.9375 79.375 -2.707031 80.53125 -4.25 C 81.6875 -5.789062 82.265625 -7.203125 82.265625 -8.484375 C 82.265625 -9.773438 82.007812 -11.128906 81.5 -12.546875 L 73.96875 -30.328125 L 33.015625 -30.328125 L 25.296875 -12.359375 C 24.773438 -11.066406 24.515625 -9.742188 24.515625 -8.390625 C 24.515625 -7.046875 25.125 -5.632812 26.34375 -4.15625 C 27.570312 -2.675781 29.476562 -1.9375 32.0625 -1.9375 L 33.59375 -1.9375 L 33.59375 0 L -5.03125 0 L -5.03125 -1.9375 L -3.484375 -1.9375 C -0.773438 -1.9375 1.925781 -2.769531 4.625 -4.4375 C 7.332031 -6.113281 9.523438 -8.625 11.203125 -11.96875 L 51.171875 -97.734375 C 56.835938 -110.472656 59.800781 -118.328125 60.0625 -121.296875 L 61.796875 -121.296875 L 113.5625 -12.75 C 115.238281 -9.007812 117.457031 -6.269531 120.21875 -4.53125 C 122.988281 -2.800781 125.789062 -1.9375 128.625 -1.9375 Z M 36.3125 -37.859375 L 70.6875 -37.859375 L 53.6875 -78.21875 Z M 36.3125 -37.859375 "/></g></g></g><g fill="#de5c1e" fill-opacity="1"><g transform="translate(349.34577, 189.243045)"><g><path d="M 54.65625 -107.96875 L 48.484375 -107.96875 L 48.484375 -12.171875 C 48.484375 -9.078125 49.546875 -6.597656 51.671875 -4.734375 C 53.796875 -2.867188 56.207031 -1.9375 58.90625 -1.9375 L 61.03125 -1.9375 L 61.03125 0 L 7.921875 0 L 7.921875 -1.9375 L 10.234375 -1.9375 C 13.066406 -1.9375 15.476562 -2.898438 17.46875 -4.828125 C 19.46875 -6.753906 20.46875 -9.132812 20.46875 -11.96875 L 20.46875 -103.90625 C 20.46875 -106.738281 19.46875 -109.117188 17.46875 -111.046875 C 15.476562 -112.984375 13.128906 -113.953125 10.421875 -113.953125 L 7.921875 -113.953125 L 7.921875 -115.890625 L 67.21875 -115.890625 C 78.800781 -115.890625 88.519531 -113.632812 96.375 -109.125 C 105.132812 -104.101562 109.515625 -95.796875 109.515625 -84.203125 C 109.515625 -76.734375 107.257812 -70.003906 102.75 -64.015625 C 98.238281 -58.035156 91.546875 -54.398438 82.671875 -53.109375 C 86.140625 -51.953125 89.578125 -49.765625 92.984375 -46.546875 C 96.398438 -43.328125 99.140625 -40.046875 101.203125 -36.703125 C 105.328125 -29.359375 109.640625 -22.628906 114.140625 -16.515625 C 118.648438 -10.398438 122.289062 -6.441406 125.0625 -4.640625 C 127.832031 -2.835938 131.210938 -1.9375 135.203125 -1.9375 L 135.203125 0 L 118.96875 0 C 108.28125 0 100.070312 -1.285156 94.34375 -3.859375 C 88.613281 -6.429688 83.5 -11.328125 79 -18.546875 C 72.039062 -29.617188 67.722656 -38.375 66.046875 -44.8125 C 64.503906 -48.675781 62.671875 -51.570312 60.546875 -53.5 C 58.421875 -55.425781 56.394531 -56.519531 54.46875 -56.78125 L 54.46875 -58.328125 L 59.296875 -58.328125 C 70.242188 -58.453125 76.9375 -64.890625 79.375 -77.640625 C 79.894531 -79.578125 80.15625 -81.25 80.15625 -82.65625 C 80.15625 -84.070312 80.085938 -86.035156 79.953125 -88.546875 C 79.828125 -91.066406 79.023438 -93.898438 77.546875 -97.046875 C 76.066406 -100.203125 74.164062 -102.488281 71.84375 -103.90625 C 67.851562 -106.351562 63.734375 -107.640625 59.484375 -107.765625 C 58.066406 -107.898438 56.457031 -107.96875 54.65625 -107.96875 Z M 54.65625 -107.96875 "/></g></g></g><g fill="#de5c1e" fill-opacity="1"><g transform="translate(476.230501, 189.243045)"><g><path d="M 6.953125 0 L 6.953125 -1.9375 L 8.890625 -1.9375 C 13.003906 -1.9375 16.09375 -3.609375 18.15625 -6.953125 C 19.050781 -8.492188 19.566406 -10.234375 19.703125 -12.171875 L 19.703125 -103.71875 C 19.566406 -107.707031 17.765625 -110.664062 14.296875 -112.59375 C 12.617188 -113.5 10.816406 -113.953125 8.890625 -113.953125 L 6.765625 -113.953125 L 6.765625 -115.890625 L 60.265625 -115.890625 L 60.265625 -113.953125 L 58.140625 -113.953125 C 55.304688 -113.953125 52.828125 -112.984375 50.703125 -111.046875 C 48.578125 -109.117188 47.445312 -106.738281 47.3125 -103.90625 L 47.3125 -12.171875 C 47.445312 -9.335938 48.539062 -6.921875 50.59375 -4.921875 C 52.65625 -2.929688 55.171875 -1.9375 58.140625 -1.9375 L 60.0625 -1.9375 L 60.265625 0 Z M 134.234375 0 L 119.359375 0 C 101.460938 0 88.71875 -4.957031 81.125 -14.875 C 80.476562 -15.90625 77.644531 -19.832031 72.625 -26.65625 C 59.613281 -44.8125 53.109375 -53.953125 53.109375 -54.078125 L 92.703125 -106.609375 C 94.117188 -108.410156 94.375 -110.113281 93.46875 -111.71875 C 92.570312 -113.332031 91.03125 -114.140625 88.84375 -114.140625 L 87.109375 -114.140625 L 87.109375 -115.890625 L 126.5 -115.890625 L 126.5 -114.140625 L 125.734375 -114.140625 C 118.785156 -114.140625 112.992188 -111.820312 108.359375 -107.1875 L 76.296875 -69.34375 L 116.84375 -12.9375 C 122 -5.601562 127.796875 -1.867188 134.234375 -1.734375 Z M 134.234375 0 "/></g></g></g></g></g><g transform="matrix(1, 0, 0, 1, 238, 255)"><g clip-path="url(#e229995050)"><g fill="#de5c1e" fill-opacity="1"><g transform="translate(0.36451, 188.779666)"><g><path d="M 9.65625 -17.96875 C 9.65625 -27.238281 11.648438 -35.15625 15.640625 -41.71875 L 17.375 -41.71875 C 17.25 -40.6875 17.1875 -39.65625 17.1875 -38.625 C 17.1875 -29.738281 20.375 -21.976562 26.75 -15.34375 C 33.125 -8.71875 41.847656 -5.40625 52.921875 -5.40625 C 61.546875 -5.40625 68.269531 -7.460938 73.09375 -11.578125 C 77.925781 -15.703125 80.34375 -20.921875 80.34375 -27.234375 C 80.34375 -30.960938 79.148438 -34.304688 76.765625 -37.265625 C 74.390625 -40.234375 70.429688 -43.519531 64.890625 -47.125 L 31.28125 -69.34375 C 18.789062 -77.707031 12.546875 -88.003906 12.546875 -100.234375 C 12.546875 -101.523438 12.675781 -102.816406 12.9375 -104.109375 C 13.707031 -114.273438 17.664062 -122.445312 24.8125 -128.625 C 31.957031 -134.8125 41.519531 -137.90625 53.5 -137.90625 C 60.582031 -137.90625 69.335938 -137.257812 79.765625 -135.96875 L 91.9375 -135.96875 L 89.421875 -107.578125 L 87.5 -107.578125 C 87.5 -114.273438 85.019531 -119.648438 80.0625 -123.703125 C 75.101562 -127.765625 68.503906 -129.796875 60.265625 -129.796875 C 50.210938 -129.796875 42.9375 -126.703125 38.4375 -120.515625 C 36.113281 -117.554688 34.953125 -114.59375 34.953125 -111.625 C 34.953125 -108.664062 35.535156 -106.160156 36.703125 -104.109375 C 38.503906 -100.753906 42.429688 -97.144531 48.484375 -93.28125 L 85.375 -69.34375 C 96.957031 -61.738281 102.75 -51.820312 102.75 -39.59375 C 102.75 -25.945312 98.082031 -15.484375 88.75 -8.203125 C 79.414062 -0.929688 67.019531 2.703125 51.5625 2.703125 C 42.8125 2.703125 34.734375 1.640625 27.328125 -0.484375 C 19.921875 -2.609375 14.484375 -5.472656 11.015625 -9.078125 C 10.109375 -11.523438 9.65625 -14.488281 9.65625 -17.96875 Z M 9.65625 -17.96875 "/></g></g></g><g fill="#de5c1e" fill-opacity="1"><g transform="translate(111.992155, 188.779666)"><g><path d="M 104.109375 -63.921875 C 97.671875 -52.722656 87.5625 -47.125 73.78125 -47.125 C 66.957031 -47.125 60.195312 -49.378906 53.5 -53.890625 L 53.5 -55.4375 C 66.375 -55.4375 74.613281 -62 78.21875 -75.125 C 78.988281 -78.09375 79.375 -80.476562 79.375 -82.28125 C 79.375 -91.164062 77.25 -97.734375 73 -101.984375 C 68.757812 -106.234375 63.097656 -108.359375 56.015625 -108.359375 L 47.3125 -108.359375 L 47.3125 -12.171875 C 47.445312 -8.046875 49.1875 -5.082031 52.53125 -3.28125 C 54.082031 -2.382812 55.820312 -1.9375 57.75 -1.9375 L 60.0625 -1.9375 L 60.0625 0 L 6.765625 0 L 6.765625 -1.9375 L 9.078125 -1.9375 C 11.910156 -1.9375 14.320312 -2.898438 16.3125 -4.828125 C 18.3125 -6.753906 19.3125 -9.132812 19.3125 -11.96875 L 19.3125 -103.71875 C 19.3125 -106.675781 18.3125 -109.117188 16.3125 -111.046875 C 14.320312 -112.984375 11.847656 -113.953125 8.890625 -113.953125 L 6.5625 -113.953125 L 6.5625 -115.890625 L 63.734375 -115.890625 C 78.546875 -115.890625 89.617188 -112.925781 96.953125 -107 C 104.804688 -100.945312 108.734375 -92.640625 108.734375 -82.078125 C 108.734375 -75.390625 107.191406 -69.335938 104.109375 -63.921875 Z M 104.109375 -63.921875 "/></g></g></g><g fill="#de5c1e" fill-opacity="1"><g transform="translate(224.971697, 188.779666)"><g><path d="M 97.53125 0 L 6.5625 0 L 6.5625 -1.9375 L 8.890625 -1.9375 C 11.847656 -1.9375 14.320312 -2.898438 16.3125 -4.828125 C 18.3125 -6.753906 19.375 -9.132812 19.5 -11.96875 L 19.5 -103.90625 C 19.375 -106.738281 18.3125 -109.117188 16.3125 -111.046875 C 14.320312 -112.984375 11.847656 -113.953125 8.890625 -113.953125 L 6.5625 -113.953125 L 6.5625 -115.890625 L 74.546875 -115.890625 C 78.023438 -115.890625 81.820312 -116.207031 85.9375 -116.84375 C 90.0625 -117.488281 92.960938 -118.132812 94.640625 -118.78125 L 94.640625 -88.078125 L 92.703125 -88.078125 L 92.703125 -89.8125 C 92.703125 -95.476562 91.15625 -99.921875 88.0625 -103.140625 C 84.976562 -106.359375 80.664062 -108.03125 75.125 -108.15625 L 47.3125 -108.15625 L 47.3125 -61.21875 L 69.34375 -61.21875 C 73.71875 -61.351562 77.253906 -62.835938 79.953125 -65.671875 C 82.660156 -68.503906 84.015625 -72.109375 84.015625 -76.484375 L 84.015625 -77.828125 L 85.953125 -77.828125 L 85.953125 -36.890625 L 84.015625 -36.890625 L 84.015625 -38.234375 C 84.015625 -44.285156 81.757812 -48.664062 77.25 -51.375 C 74.9375 -52.789062 72.363281 -53.5 69.53125 -53.5 L 47.3125 -53.5 L 47.3125 -7.71875 L 70.5 -7.71875 C 78.476562 -7.851562 85.269531 -10.332031 90.875 -15.15625 C 96.476562 -19.988281 100.566406 -26.78125 103.140625 -35.53125 L 104.875 -35.53125 Z M 97.53125 0 "/></g></g></g><g fill="#de5c1e" fill-opacity="1"><g transform="translate(333.70244, 188.779666)"><g><path d="M 97.53125 0 L 6.5625 0 L 6.5625 -1.9375 L 8.890625 -1.9375 C 11.847656 -1.9375 14.320312 -2.898438 16.3125 -4.828125 C 18.3125 -6.753906 19.375 -9.132812 19.5 -11.96875 L 19.5 -103.90625 C 19.375 -106.738281 18.3125 -109.117188 16.3125 -111.046875 C 14.320312 -112.984375 11.847656 -113.953125 8.890625 -113.953125 L 6.5625 -113.953125 L 6.5625 -115.890625 L 74.546875 -115.890625 C 78.023438 -115.890625 81.820312 -116.207031 85.9375 -116.84375 C 90.0625 -117.488281 92.960938 -118.132812 94.640625 -118.78125 L 94.640625 -88.078125 L 92.703125 -88.078125 L 92.703125 -89.8125 C 92.703125 -95.476562 91.15625 -99.921875 88.0625 -103.140625 C 84.976562 -106.359375 80.664062 -108.03125 75.125 -108.15625 L 47.3125 -108.15625 L 47.3125 -61.21875 L 69.34375 -61.21875 C 73.71875 -61.351562 77.253906 -62.835938 79.953125 -65.671875 C 82.660156 -68.503906 84.015625 -72.109375 84.015625 -76.484375 L 84.015625 -77.828125 L 85.953125 -77.828125 L 85.953125 -36.890625 L 84.015625 -36.890625 L 84.015625 -38.234375 C 84.015625 -44.285156 81.757812 -48.664062 77.25 -51.375 C 74.9375 -52.789062 72.363281 -53.5 69.53125 -53.5 L 47.3125 -53.5 L 47.3125 -7.71875 L 70.5 -7.71875 C 78.476562 -7.851562 85.269531 -10.332031 90.875 -15.15625 C 96.476562 -19.988281 100.566406 -26.78125 103.140625 -35.53125 L 104.875 -35.53125 Z M 97.53125 0 "/></g></g></g><g fill="#de5c1e" fill-opacity="1"><g transform="translate(442.433183, 188.779666)"><g><path d="M 120.328125 -100.53125 C 132.046875 -90.289062 137.90625 -76.09375 137.90625 -57.9375 C 137.90625 -39.78125 132.046875 -25.582031 120.328125 -15.34375 C 108.609375 -5.113281 92.382812 0 71.65625 0 L 6.375 0 L 6.375 -1.9375 L 8.890625 -1.9375 C 11.847656 -1.9375 14.351562 -2.960938 16.40625 -5.015625 C 18.46875 -7.078125 19.566406 -9.523438 19.703125 -12.359375 L 19.703125 -103.90625 C 19.441406 -106.738281 18.28125 -109.117188 16.21875 -111.046875 C 14.164062 -112.984375 11.65625 -113.953125 8.6875 -113.953125 L 6.375 -113.953125 L 6.375 -115.890625 L 71.65625 -115.890625 C 92.382812 -115.890625 108.609375 -110.769531 120.328125 -100.53125 Z M 69.34375 -7.71875 C 81.445312 -7.71875 91.003906 -12.160156 98.015625 -21.046875 C 105.035156 -29.929688 108.546875 -42.226562 108.546875 -57.9375 C 108.546875 -73.644531 105.035156 -85.972656 98.015625 -94.921875 C 91.003906 -103.878906 81.445312 -108.359375 69.34375 -108.359375 L 47.515625 -108.359375 L 47.515625 -7.71875 Z M 69.34375 -7.71875 "/></g></g></g></g></g><g transform="matrix(1, 0, 0, 1, 238, 24)"><g clip-path="url(#87daad3de5)"><g fill="#de5c1e" fill-opacity="1"><g transform="translate(0.36451, 189.316375)"><g><path d="M 9.65625 -17.96875 C 9.65625 -27.238281 11.648438 -35.15625 15.640625 -41.71875 L 17.375 -41.71875 C 17.25 -40.6875 17.1875 -39.65625 17.1875 -38.625 C 17.1875 -29.738281 20.375 -21.976562 26.75 -15.34375 C 33.125 -8.71875 41.847656 -5.40625 52.921875 -5.40625 C 61.546875 -5.40625 68.269531 -7.460938 73.09375 -11.578125 C 77.925781 -15.703125 80.34375 -20.921875 80.34375 -27.234375 C 80.34375 -30.960938 79.148438 -34.304688 76.765625 -37.265625 C 74.390625 -40.234375 70.429688 -43.519531 64.890625 -47.125 L 31.28125 -69.34375 C 18.789062 -77.707031 12.546875 -88.003906 12.546875 -100.234375 C 12.546875 -101.523438 12.675781 -102.816406 12.9375 -104.109375 C 13.707031 -114.273438 17.664062 -122.445312 24.8125 -128.625 C 31.957031 -134.8125 41.519531 -137.90625 53.5 -137.90625 C 60.582031 -137.90625 69.335938 -137.257812 79.765625 -135.96875 L 91.9375 -135.96875 L 89.421875 -107.578125 L 87.5 -107.578125 C 87.5 -114.273438 85.019531 -119.648438 80.0625 -123.703125 C 75.101562 -127.765625 68.503906 -129.796875 60.265625 -129.796875 C 50.210938 -129.796875 42.9375 -126.703125 38.4375 -120.515625 C 36.113281 -117.554688 34.953125 -114.59375 34.953125 -111.625 C 34.953125 -108.664062 35.535156 -106.160156 36.703125 -104.109375 C 38.503906 -100.753906 42.429688 -97.144531 48.484375 -93.28125 L 85.375 -69.34375 C 96.957031 -61.738281 102.75 -51.820312 102.75 -39.59375 C 102.75 -25.945312 98.082031 -15.484375 88.75 -8.203125 C 79.414062 -0.929688 67.019531 2.703125 51.5625 2.703125 C 42.8125 2.703125 34.734375 1.640625 27.328125 -0.484375 C 19.921875 -2.609375 14.484375 -5.472656 11.015625 -9.078125 C 10.109375 -11.523438 9.65625 -14.488281 9.65625 -17.96875 Z M 9.65625 -17.96875 "/></g></g></g><g fill="#de5c1e" fill-opacity="1"><g transform="translate(111.992155, 189.316375)"><g><path d="M 111.828125 -88.453125 L 111.828125 -90.203125 C 111.828125 -95.734375 110.28125 -100.109375 107.1875 -103.328125 C 104.101562 -106.546875 99.789062 -108.222656 94.25 -108.359375 L 71.84375 -108.359375 L 71.84375 -11.96875 C 71.976562 -9.132812 73.070312 -6.753906 75.125 -4.828125 C 77.1875 -2.898438 79.632812 -1.9375 82.46875 -1.9375 L 84.59375 -1.9375 L 84.59375 0 L 31.28125 0 L 31.28125 -1.9375 L 33.21875 -1.9375 C 36.175781 -1.9375 38.6875 -2.898438 40.75 -4.828125 C 42.8125 -6.753906 43.84375 -9.203125 43.84375 -12.171875 L 43.84375 -108.359375 L 21.625 -108.359375 C 15.96875 -108.222656 11.59375 -106.546875 8.5 -103.328125 C 5.40625 -100.109375 3.859375 -95.734375 3.859375 -90.203125 L 3.859375 -88.453125 L 1.9375 -88.453125 L 1.9375 -118.96875 C 3.738281 -118.332031 6.726562 -117.691406 10.90625 -117.046875 C 15.09375 -116.398438 18.863281 -116.078125 22.21875 -116.078125 L 93.484375 -116.078125 C 99.148438 -116.078125 103.816406 -116.492188 107.484375 -117.328125 C 111.148438 -118.171875 113.242188 -118.71875 113.765625 -118.96875 L 113.765625 -88.453125 Z M 111.828125 -88.453125 "/></g></g></g><g fill="#de5c1e" fill-opacity="1"><g transform="translate(227.675492, 189.316375)"><g><path d="M 97.53125 0 L 6.5625 0 L 6.5625 -1.9375 L 8.890625 -1.9375 C 11.847656 -1.9375 14.320312 -2.898438 16.3125 -4.828125 C 18.3125 -6.753906 19.375 -9.132812 19.5 -11.96875 L 19.5 -103.90625 C 19.375 -106.738281 18.3125 -109.117188 16.3125 -111.046875 C 14.320312 -112.984375 11.847656 -113.953125 8.890625 -113.953125 L 6.5625 -113.953125 L 6.5625 -115.890625 L 74.546875 -115.890625 C 78.023438 -115.890625 81.820312 -116.207031 85.9375 -116.84375 C 90.0625 -117.488281 92.960938 -118.132812 94.640625 -118.78125 L 94.640625 -88.078125 L 92.703125 -88.078125 L 92.703125 -89.8125 C 92.703125 -95.476562 91.15625 -99.921875 88.0625 -103.140625 C 84.976562 -106.359375 80.664062 -108.03125 75.125 -108.15625 L 47.3125 -108.15625 L 47.3125 -61.21875 L 69.34375 -61.21875 C 73.71875 -61.351562 77.253906 -62.835938 79.953125 -65.671875 C 82.660156 -68.503906 84.015625 -72.109375 84.015625 -76.484375 L 84.015625 -77.828125 L 85.953125 -77.828125 L 85.953125 -36.890625 L 84.015625 -36.890625 L 84.015625 -38.234375 C 84.015625 -44.285156 81.757812 -48.664062 77.25 -51.375 C 74.9375 -52.789062 72.363281 -53.5 69.53125 -53.5 L 47.3125 -53.5 L 47.3125 -7.71875 L 70.5 -7.71875 C 78.476562 -7.851562 85.269531 -10.332031 90.875 -15.15625 C 96.476562 -19.988281 100.566406 -26.78125 103.140625 -35.53125 L 104.875 -35.53125 Z M 97.53125 0 "/></g></g></g><g fill="#de5c1e" fill-opacity="1"><g transform="translate(336.406235, 189.316375)"><g><path d="M 128.625 -1.9375 L 130.171875 -1.9375 L 130.171875 0 L 73.390625 0 L 73.390625 -1.9375 L 74.9375 -1.9375 C 77.507812 -1.9375 79.375 -2.707031 80.53125 -4.25 C 81.6875 -5.789062 82.265625 -7.203125 82.265625 -8.484375 C 82.265625 -9.773438 82.007812 -11.128906 81.5 -12.546875 L 73.96875 -30.328125 L 33.015625 -30.328125 L 25.296875 -12.359375 C 24.773438 -11.066406 24.515625 -9.742188 24.515625 -8.390625 C 24.515625 -7.046875 25.125 -5.632812 26.34375 -4.15625 C 27.570312 -2.675781 29.476562 -1.9375 32.0625 -1.9375 L 33.59375 -1.9375 L 33.59375 0 L -5.03125 0 L -5.03125 -1.9375 L -3.484375 -1.9375 C -0.773438 -1.9375 1.925781 -2.769531 4.625 -4.4375 C 7.332031 -6.113281 9.523438 -8.625 11.203125 -11.96875 L 51.171875 -97.734375 C 56.835938 -110.472656 59.800781 -118.328125 60.0625 -121.296875 L 61.796875 -121.296875 L 113.5625 -12.75 C 115.238281 -9.007812 117.457031 -6.269531 120.21875 -4.53125 C 122.988281 -2.800781 125.789062 -1.9375 128.625 -1.9375 Z M 36.3125 -37.859375 L 70.6875 -37.859375 L 53.6875 -78.21875 Z M 36.3125 -37.859375 "/></g></g></g><g fill="#de5c1e" fill-opacity="1"><g transform="translate(460.780309, 189.316375)"><g><path d="M 6.5625 0 L 6.5625 -1.9375 L 8.890625 -1.9375 C 11.847656 -1.9375 14.320312 -2.898438 16.3125 -4.828125 C 18.3125 -6.753906 19.3125 -9.132812 19.3125 -11.96875 L 19.3125 -103.71875 C 19.3125 -106.550781 18.28125 -108.960938 16.21875 -110.953125 C 14.164062 -112.953125 11.722656 -113.953125 8.890625 -113.953125 L 6.5625 -113.953125 L 6.5625 -115.890625 L 60.265625 -115.890625 L 60.265625 -113.953125 L 57.9375 -113.953125 C 54.976562 -113.953125 52.46875 -112.984375 50.40625 -111.046875 C 48.34375 -109.117188 47.3125 -106.675781 47.3125 -103.71875 L 47.3125 -7.71875 L 70.5 -7.71875 C 78.476562 -7.851562 85.234375 -10.332031 90.765625 -15.15625 C 96.304688 -19.988281 100.363281 -26.78125 102.9375 -35.53125 L 105.0625 -35.53125 L 97.53125 0 Z M 6.5625 0 "/></g></g></g><g fill="#de5c1e" fill-opacity="1"><g transform="translate(566.614149, 189.316375)"><g><path d="M 111.828125 -88.453125 L 111.828125 -90.203125 C 111.828125 -95.734375 110.28125 -100.109375 107.1875 -103.328125 C 104.101562 -106.546875 99.789062 -108.222656 94.25 -108.359375 L 71.84375 -108.359375 L 71.84375 -11.96875 C 71.976562 -9.132812 73.070312 -6.753906 75.125 -4.828125 C 77.1875 -2.898438 79.632812 -1.9375 82.46875 -1.9375 L 84.59375 -1.9375 L 84.59375 0 L 31.28125 0 L 31.28125 -1.9375 L 33.21875 -1.9375 C 36.175781 -1.9375 38.6875 -2.898438 40.75 -4.828125 C 42.8125 -6.753906 43.84375 -9.203125 43.84375 -12.171875 L 43.84375 -108.359375 L 21.625 -108.359375 C 15.96875 -108.222656 11.59375 -106.546875 8.5 -103.328125 C 5.40625 -100.109375 3.859375 -95.734375 3.859375 -90.203125 L 3.859375 -88.453125 L 1.9375 -88.453125 L 1.9375 -118.96875 C 3.738281 -118.332031 6.726562 -117.691406 10.90625 -117.046875 C 15.09375 -116.398438 18.863281 -116.078125 22.21875 -116.078125 L 93.484375 -116.078125 C 99.148438 -116.078125 103.816406 -116.492188 107.484375 -117.328125 C 111.148438 -118.171875 113.242188 -118.71875 113.765625 -118.96875 L 113.765625 -88.453125 Z M 111.828125 -88.453125 "/></g></g></g><g fill="#de5c1e" fill-opacity="1"><g transform="translate(682.297458, 189.316375)"><g><path d="M 136.359375 -1.9375 L 138.484375 -1.9375 L 138.484375 0 L 85.375 0 L 85.375 -1.9375 L 87.296875 -1.9375 C 90.253906 -1.9375 92.765625 -2.898438 94.828125 -4.828125 C 96.890625 -6.753906 97.921875 -9.203125 97.921875 -12.171875 L 97.921875 -53.890625 L 47.125 -53.890625 L 47.125 -12.171875 C 47.25 -9.203125 48.34375 -6.753906 50.40625 -4.828125 C 52.46875 -2.898438 54.914062 -1.9375 57.75 -1.9375 L 59.875 -1.9375 L 59.875 0 L 6.5625 0 L 6.5625 -1.9375 L 8.6875 -1.9375 C 11.65625 -1.9375 14.164062 -2.929688 16.21875 -4.921875 C 18.28125 -6.921875 19.3125 -9.335938 19.3125 -12.171875 L 19.3125 -103.71875 C 19.3125 -106.550781 18.28125 -108.960938 16.21875 -110.953125 C 14.164062 -112.953125 11.65625 -113.953125 8.6875 -113.953125 L 6.5625 -113.953125 L 6.5625 -115.890625 L 59.875 -115.890625 L 59.875 -113.953125 L 57.75 -113.953125 C 54.914062 -113.953125 52.46875 -112.984375 50.40625 -111.046875 C 48.34375 -109.117188 47.25 -106.738281 47.125 -103.90625 L 47.125 -61.609375 L 97.921875 -61.609375 L 97.921875 -103.71875 C 97.921875 -107.707031 96.179688 -110.664062 92.703125 -112.59375 C 91.035156 -113.5 89.234375 -113.953125 87.296875 -113.953125 L 85.375 -113.953125 L 85.375 -115.890625 L 138.484375 -115.890625 L 138.484375 -113.953125 L 136.359375 -113.953125 C 133.523438 -113.953125 131.078125 -112.984375 129.015625 -111.046875 C 126.953125 -109.117188 125.859375 -106.675781 125.734375 -103.71875 L 125.734375 -11.96875 C 125.859375 -7.976562 127.597656 -5.082031 130.953125 -3.28125 C 132.617188 -2.382812 134.421875 -1.9375 136.359375 -1.9375 Z M 136.359375 -1.9375 "/></g></g></g></g></g><g transform="matrix(1, 0, 0, 1, 238, 716)"><g clip-path="url(#5abc952833)"><g fill="#de5c1e" fill-opacity="1"><g transform="translate(0.36451, 188.706365)"><g><path d="M 9.65625 -17.96875 C 9.65625 -27.238281 11.648438 -35.15625 15.640625 -41.71875 L 17.375 -41.71875 C 17.25 -40.6875 17.1875 -39.65625 17.1875 -38.625 C 17.1875 -29.738281 20.375 -21.976562 26.75 -15.34375 C 33.125 -8.71875 41.847656 -5.40625 52.921875 -5.40625 C 61.546875 -5.40625 68.269531 -7.460938 73.09375 -11.578125 C 77.925781 -15.703125 80.34375 -20.921875 80.34375 -27.234375 C 80.34375 -30.960938 79.148438 -34.304688 76.765625 -37.265625 C 74.390625 -40.234375 70.429688 -43.519531 64.890625 -47.125 L 31.28125 -69.34375 C 18.789062 -77.707031 12.546875 -88.003906 12.546875 -100.234375 C 12.546875 -101.523438 12.675781 -102.816406 12.9375 -104.109375 C 13.707031 -114.273438 17.664062 -122.445312 24.8125 -128.625 C 31.957031 -134.8125 41.519531 -137.90625 53.5 -137.90625 C 60.582031 -137.90625 69.335938 -137.257812 79.765625 -135.96875 L 91.9375 -135.96875 L 89.421875 -107.578125 L 87.5 -107.578125 C 87.5 -114.273438 85.019531 -119.648438 80.0625 -123.703125 C 75.101562 -127.765625 68.503906 -129.796875 60.265625 -129.796875 C 50.210938 -129.796875 42.9375 -126.703125 38.4375 -120.515625 C 36.113281 -117.554688 34.953125 -114.59375 34.953125 -111.625 C 34.953125 -108.664062 35.535156 -106.160156 36.703125 -104.109375 C 38.503906 -100.753906 42.429688 -97.144531 48.484375 -93.28125 L 85.375 -69.34375 C 96.957031 -61.738281 102.75 -51.820312 102.75 -39.59375 C 102.75 -25.945312 98.082031 -15.484375 88.75 -8.203125 C 79.414062 -0.929688 67.019531 2.703125 51.5625 2.703125 C 42.8125 2.703125 34.734375 1.640625 27.328125 -0.484375 C 19.921875 -2.609375 14.484375 -5.472656 11.015625 -9.078125 C 10.109375 -11.523438 9.65625 -14.488281 9.65625 -17.96875 Z M 9.65625 -17.96875 "/></g></g></g><g fill="#de5c1e" fill-opacity="1"><g transform="translate(111.992155, 188.706365)"><g><path d="M 129.40625 -113.953125 L 126.890625 -113.953125 C 123.535156 -113.953125 120.34375 -113.050781 117.3125 -111.25 C 114.289062 -109.445312 111.816406 -107.191406 109.890625 -104.484375 L 75.515625 -51.5625 L 75.515625 -12.171875 C 75.640625 -9.335938 76.734375 -6.921875 78.796875 -4.921875 C 80.859375 -2.929688 83.429688 -1.9375 86.515625 -1.9375 L 88.640625 -1.9375 L 88.640625 0 L 34.5625 0 L 34.5625 -1.9375 L 36.890625 -1.9375 C 39.847656 -1.9375 42.351562 -2.929688 44.40625 -4.921875 C 46.46875 -6.921875 47.566406 -9.335938 47.703125 -12.171875 L 47.703125 -51.5625 L 13.515625 -104.484375 C 11.710938 -107.316406 9.296875 -109.601562 6.265625 -111.34375 C 3.242188 -113.082031 -0.00390625 -113.953125 -3.484375 -113.953125 L -5.796875 -113.953125 L -5.796875 -115.890625 L 52.921875 -115.890625 L 52.921875 -113.953125 L 50.796875 -113.953125 C 48.347656 -113.953125 46.578125 -113.144531 45.484375 -111.53125 C 44.390625 -109.925781 43.84375 -108.578125 43.84375 -107.484375 C 43.84375 -106.390625 44.097656 -105.390625 44.609375 -104.484375 L 70.296875 -60.0625 L 96.375 -104.484375 C 96.757812 -105.390625 96.953125 -106.390625 96.953125 -107.484375 C 96.953125 -108.578125 96.40625 -109.925781 95.3125 -111.53125 C 94.21875 -113.144531 92.445312 -113.953125 90 -113.953125 L 88.0625 -113.953125 L 88.0625 -115.890625 L 129.40625 -115.890625 Z M 129.40625 -113.953125 "/></g></g></g><g fill="#de5c1e" fill-opacity="1"><g transform="translate(234.628086, 188.706365)"><g><path d="M 92.328125 -115.890625 L 146.59375 -115.890625 L 146.59375 -113.953125 L 143.3125 -113.953125 C 140.351562 -113.953125 137.875 -113.050781 135.875 -111.25 C 133.875 -109.445312 132.8125 -107.128906 132.6875 -104.296875 L 132.6875 -19.890625 C 132.6875 -11.910156 133.203125 -5.34375 134.234375 -0.1875 L 134.625 2.515625 L 132.875 2.515625 L 44.234375 -75.71875 L 44.234375 -11.78125 C 44.359375 -8.945312 45.414062 -6.597656 47.40625 -4.734375 C 49.40625 -2.867188 51.890625 -1.9375 54.859375 -1.9375 L 58.140625 -1.9375 L 58.140625 0 L 4.0625 0 L 4.0625 -1.9375 L 7.140625 -1.9375 C 10.109375 -1.9375 12.617188 -2.867188 14.671875 -4.734375 C 16.734375 -6.597656 17.765625 -8.945312 17.765625 -11.78125 L 17.765625 -96.765625 C 17.765625 -104.492188 17.25 -110.867188 16.21875 -115.890625 L 15.84375 -118.59375 L 17.578125 -118.390625 L 106.03125 -40.5625 L 106.03125 -104.109375 C 106.03125 -106.941406 105.03125 -109.289062 103.03125 -111.15625 C 101.039062 -113.019531 98.566406 -113.953125 95.609375 -113.953125 L 92.328125 -113.953125 Z M 92.328125 -115.890625 "/></g></g></g><g fill="#de5c1e" fill-opacity="1"><g transform="translate(385.074368, 188.706365)"><g><path d="M 97.53125 0 L 6.5625 0 L 6.5625 -1.9375 L 8.890625 -1.9375 C 11.847656 -1.9375 14.320312 -2.898438 16.3125 -4.828125 C 18.3125 -6.753906 19.375 -9.132812 19.5 -11.96875 L 19.5 -103.90625 C 19.375 -106.738281 18.3125 -109.117188 16.3125 -111.046875 C 14.320312 -112.984375 11.847656 -113.953125 8.890625 -113.953125 L 6.5625 -113.953125 L 6.5625 -115.890625 L 74.546875 -115.890625 C 78.023438 -115.890625 81.820312 -116.207031 85.9375 -116.84375 C 90.0625 -117.488281 92.960938 -118.132812 94.640625 -118.78125 L 94.640625 -88.078125 L 92.703125 -88.078125 L 92.703125 -89.8125 C 92.703125 -95.476562 91.15625 -99.921875 88.0625 -103.140625 C 84.976562 -106.359375 80.664062 -108.03125 75.125 -108.15625 L 47.3125 -108.15625 L 47.3125 -61.21875 L 69.34375 -61.21875 C 73.71875 -61.351562 77.253906 -62.835938 79.953125 -65.671875 C 82.660156 -68.503906 84.015625 -72.109375 84.015625 -76.484375 L 84.015625 -77.828125 L 85.953125 -77.828125 L 85.953125 -36.890625 L 84.015625 -36.890625 L 84.015625 -38.234375 C 84.015625 -44.285156 81.757812 -48.664062 77.25 -51.375 C 74.9375 -52.789062 72.363281 -53.5 69.53125 -53.5 L 47.3125 -53.5 L 47.3125 -7.71875 L 70.5 -7.71875 C 78.476562 -7.851562 85.269531 -10.332031 90.875 -15.15625 C 96.476562 -19.988281 100.566406 -26.78125 103.140625 -35.53125 L 104.875 -35.53125 Z M 97.53125 0 "/></g></g></g><g fill="#de5c1e" fill-opacity="1"><g transform="translate(493.805111, 188.706365)"><g><path d="M 54.65625 -107.96875 L 48.484375 -107.96875 L 48.484375 -12.171875 C 48.484375 -9.078125 49.546875 -6.597656 51.671875 -4.734375 C 53.796875 -2.867188 56.207031 -1.9375 58.90625 -1.9375 L 61.03125 -1.9375 L 61.03125 0 L 7.921875 0 L 7.921875 -1.9375 L 10.234375 -1.9375 C 13.066406 -1.9375 15.476562 -2.898438 17.46875 -4.828125 C 19.46875 -6.753906 20.46875 -9.132812 20.46875 -11.96875 L 20.46875 -103.90625 C 20.46875 -106.738281 19.46875 -109.117188 17.46875 -111.046875 C 15.476562 -112.984375 13.128906 -113.953125 10.421875 -113.953125 L 7.921875 -113.953125 L 7.921875 -115.890625 L 67.21875 -115.890625 C 78.800781 -115.890625 88.519531 -113.632812 96.375 -109.125 C 105.132812 -104.101562 109.515625 -95.796875 109.515625 -84.203125 C 109.515625 -76.734375 107.257812 -70.003906 102.75 -64.015625 C 98.238281 -58.035156 91.546875 -54.398438 82.671875 -53.109375 C 86.140625 -51.953125 89.578125 -49.765625 92.984375 -46.546875 C 96.398438 -43.328125 99.140625 -40.046875 101.203125 -36.703125 C 105.328125 -29.359375 109.640625 -22.628906 114.140625 -16.515625 C 118.648438 -10.398438 122.289062 -6.441406 125.0625 -4.640625 C 127.832031 -2.835938 131.210938 -1.9375 135.203125 -1.9375 L 135.203125 0 L 118.96875 0 C 108.28125 0 100.070312 -1.285156 94.34375 -3.859375 C 88.613281 -6.429688 83.5 -11.328125 79 -18.546875 C 72.039062 -29.617188 67.722656 -38.375 66.046875 -44.8125 C 64.503906 -48.675781 62.671875 -51.570312 60.546875 -53.5 C 58.421875 -55.425781 56.394531 -56.519531 54.46875 -56.78125 L 54.46875 -58.328125 L 59.296875 -58.328125 C 70.242188 -58.453125 76.9375 -64.890625 79.375 -77.640625 C 79.894531 -79.578125 80.15625 -81.25 80.15625 -82.65625 C 80.15625 -84.070312 80.085938 -86.035156 79.953125 -88.546875 C 79.828125 -91.066406 79.023438 -93.898438 77.546875 -97.046875 C 76.066406 -100.203125 74.164062 -102.488281 71.84375 -103.90625 C 67.851562 -106.351562 63.734375 -107.640625 59.484375 -107.765625 C 58.066406 -107.898438 56.457031 -107.96875 54.65625 -107.96875 Z M 54.65625 -107.96875 "/></g></g></g><g fill="#de5c1e" fill-opacity="1"><g transform="translate(620.689815, 188.706365)"><g><path d="M 23.84375 -13.8125 C 12.320312 -24.5625 6.5625 -39.332031 6.5625 -58.125 C 6.5625 -76.925781 12.320312 -91.671875 23.84375 -102.359375 C 35.375 -113.046875 51.25 -118.390625 71.46875 -118.390625 C 80.476562 -118.390625 89.359375 -117.582031 98.109375 -115.96875 C 106.867188 -114.363281 113.953125 -112.210938 119.359375 -109.515625 L 119.359375 -78.796875 L 117.8125 -78.796875 C 112.144531 -100.046875 98.625 -110.671875 77.25 -110.671875 C 63.863281 -110.671875 53.660156 -106.003906 46.640625 -96.671875 C 39.628906 -87.335938 36.125 -74.332031 36.125 -57.65625 C 36.125 -40.976562 39.304688 -28.066406 45.671875 -18.921875 C 52.046875 -9.785156 61.09375 -5.21875 72.8125 -5.21875 C 79.25 -5.21875 85.039062 -6.726562 90.1875 -9.75 C 95.34375 -12.78125 98.757812 -17.128906 100.4375 -22.796875 L 100.625 -45.96875 C 100.625 -48.414062 99.882812 -50.3125 98.40625 -51.65625 C 96.925781 -53.007812 94.832031 -53.6875 92.125 -53.6875 L 89.421875 -53.6875 L 89.421875 -55.234375 L 139.0625 -55.234375 L 139.0625 -53.6875 L 136.75 -53.6875 C 131.082031 -53.6875 128.25 -51.113281 128.25 -45.96875 L 128.25 -20.09375 C 123.738281 -14.289062 116.140625 -9.070312 105.453125 -4.4375 C 94.765625 0.195312 83.046875 2.515625 70.296875 2.515625 C 50.859375 2.378906 35.375 -3.0625 23.84375 -13.8125 Z M 23.84375 -13.8125 "/></g></g></g><g fill="#de5c1e" fill-opacity="1"><g transform="translate(761.672844, 188.706365)"><g><path d="M 129.40625 -113.953125 L 126.890625 -113.953125 C 123.535156 -113.953125 120.34375 -113.050781 117.3125 -111.25 C 114.289062 -109.445312 111.816406 -107.191406 109.890625 -104.484375 L 75.515625 -51.5625 L 75.515625 -12.171875 C 75.640625 -9.335938 76.734375 -6.921875 78.796875 -4.921875 C 80.859375 -2.929688 83.429688 -1.9375 86.515625 -1.9375 L 88.640625 -1.9375 L 88.640625 0 L 34.5625 0 L 34.5625 -1.9375 L 36.890625 -1.9375 C 39.847656 -1.9375 42.351562 -2.929688 44.40625 -4.921875 C 46.46875 -6.921875 47.566406 -9.335938 47.703125 -12.171875 L 47.703125 -51.5625 L 13.515625 -104.484375 C 11.710938 -107.316406 9.296875 -109.601562 6.265625 -111.34375 C 3.242188 -113.082031 -0.00390625 -113.953125 -3.484375 -113.953125 L -5.796875 -113.953125 L -5.796875 -115.890625 L 52.921875 -115.890625 L 52.921875 -113.953125 L 50.796875 -113.953125 C 48.347656 -113.953125 46.578125 -113.144531 45.484375 -111.53125 C 44.390625 -109.925781 43.84375 -108.578125 43.84375 -107.484375 C 43.84375 -106.390625 44.097656 -105.390625 44.609375 -104.484375 L 70.296875 -60.0625 L 96.375 -104.484375 C 96.757812 -105.390625 96.953125 -106.390625 96.953125 -107.484375 C 96.953125 -108.578125 96.40625 -109.925781 95.3125 -111.53125 C 94.21875 -113.144531 92.445312 -113.953125 90 -113.953125 L 88.0625 -113.953125 L 88.0625 -115.890625 L 129.40625 -115.890625 Z M 129.40625 -113.953125 "/></g></g></g></g></g><g transform="matrix(1, 0, 0, 1, 238, 946)"><g clip-path="url(#e977ef09bd)"><g fill="#de5c1e" fill-opacity="1"><g transform="translate(0.36451, 188.86313)"><g><path d="M 9.65625 -17.96875 C 9.65625 -27.238281 11.648438 -35.15625 15.640625 -41.71875 L 17.375 -41.71875 C 17.25 -40.6875 17.1875 -39.65625 17.1875 -38.625 C 17.1875 -29.738281 20.375 -21.976562 26.75 -15.34375 C 33.125 -8.71875 41.847656 -5.40625 52.921875 -5.40625 C 61.546875 -5.40625 68.269531 -7.460938 73.09375 -11.578125 C 77.925781 -15.703125 80.34375 -20.921875 80.34375 -27.234375 C 80.34375 -30.960938 79.148438 -34.304688 76.765625 -37.265625 C 74.390625 -40.234375 70.429688 -43.519531 64.890625 -47.125 L 31.28125 -69.34375 C 18.789062 -77.707031 12.546875 -88.003906 12.546875 -100.234375 C 12.546875 -101.523438 12.675781 -102.816406 12.9375 -104.109375 C 13.707031 -114.273438 17.664062 -122.445312 24.8125 -128.625 C 31.957031 -134.8125 41.519531 -137.90625 53.5 -137.90625 C 60.582031 -137.90625 69.335938 -137.257812 79.765625 -135.96875 L 91.9375 -135.96875 L 89.421875 -107.578125 L 87.5 -107.578125 C 87.5 -114.273438 85.019531 -119.648438 80.0625 -123.703125 C 75.101562 -127.765625 68.503906 -129.796875 60.265625 -129.796875 C 50.210938 -129.796875 42.9375 -126.703125 38.4375 -120.515625 C 36.113281 -117.554688 34.953125 -114.59375 34.953125 -111.625 C 34.953125 -108.664062 35.535156 -106.160156 36.703125 -104.109375 C 38.503906 -100.753906 42.429688 -97.144531 48.484375 -93.28125 L 85.375 -69.34375 C 96.957031 -61.738281 102.75 -51.820312 102.75 -39.59375 C 102.75 -25.945312 98.082031 -15.484375 88.75 -8.203125 C 79.414062 -0.929688 67.019531 2.703125 51.5625 2.703125 C 42.8125 2.703125 34.734375 1.640625 27.328125 -0.484375 C 19.921875 -2.609375 14.484375 -5.472656 11.015625 -9.078125 C 10.109375 -11.523438 9.65625 -14.488281 9.65625 -17.96875 Z M 9.65625 -17.96875 "/></g></g></g><g fill="#de5c1e" fill-opacity="1"><g transform="translate(111.992155, 188.86313)"><g><path d="M 132.296875 -113.953125 L 129.59375 -113.953125 C 127.144531 -113.953125 125.082031 -113.210938 123.40625 -111.734375 C 121.738281 -110.253906 120.84375 -108.351562 120.71875 -106.03125 L 120.71875 -42.109375 C 120.71875 -28.203125 116.46875 -17.285156 107.96875 -9.359375 C 99.46875 -1.441406 86.816406 2.515625 70.015625 2.515625 C 53.210938 2.515625 40.140625 -1.347656 30.796875 -9.078125 C 21.460938 -16.804688 16.796875 -27.6875 16.796875 -41.71875 L 16.796875 -105.84375 C 16.796875 -108.15625 15.925781 -110.082031 14.1875 -111.625 C 12.457031 -113.175781 10.367188 -113.953125 7.921875 -113.953125 L 5.21875 -113.953125 L 5.21875 -115.890625 L 56.015625 -115.890625 L 56.015625 -113.953125 L 53.3125 -113.953125 C 50.863281 -113.953125 48.800781 -113.175781 47.125 -111.625 C 45.445312 -110.082031 44.609375 -108.15625 44.609375 -105.84375 L 44.609375 -43.078125 C 44.609375 -31.222656 47.34375 -21.945312 52.8125 -15.25 C 58.289062 -8.5625 65.988281 -5.21875 75.90625 -5.21875 C 85.820312 -5.21875 93.644531 -8.367188 99.375 -14.671875 C 105.101562 -20.984375 107.96875 -29.742188 107.96875 -40.953125 L 107.96875 -105.84375 C 107.832031 -108.289062 106.925781 -110.253906 105.25 -111.734375 C 103.582031 -113.210938 101.523438 -113.953125 99.078125 -113.953125 L 96.5625 -113.953125 L 96.5625 -115.890625 L 132.296875 -115.890625 Z M 132.296875 -113.953125 "/></g></g></g><g fill="#de5c1e" fill-opacity="1"><g transform="translate(247.953868, 188.86313)"><g><path d="M 102.359375 -87.109375 C 102.359375 -82.335938 101.332031 -78.148438 99.28125 -74.546875 C 95.28125 -67.597656 89.226562 -63.800781 81.125 -63.15625 C 89.75 -62.507812 96.957031 -59.453125 102.75 -53.984375 C 108.539062 -48.515625 111.4375 -41.53125 111.4375 -33.03125 C 111.4375 -16.414062 101.457031 -5.984375 81.5 -1.734375 C 75.832031 -0.578125 69.65625 0 62.96875 0 L 6.953125 0 L 6.953125 -1.9375 L 9.078125 -1.9375 C 12.035156 -1.9375 14.507812 -2.898438 16.5 -4.828125 C 18.5 -6.753906 19.566406 -9.203125 19.703125 -12.171875 L 19.703125 -103.71875 C 19.566406 -108.351562 17.378906 -111.507812 13.140625 -113.1875 C 11.847656 -113.695312 10.492188 -113.953125 9.078125 -113.953125 L 6.953125 -113.953125 L 6.953125 -115.890625 L 58.71875 -115.890625 C 87.8125 -115.890625 102.359375 -106.296875 102.359375 -87.109375 Z M 80.15625 -34.765625 C 80.15625 -40.691406 78.929688 -45.648438 76.484375 -49.640625 C 71.972656 -57.359375 64.179688 -61.21875 53.109375 -61.21875 C 52.984375 -61.21875 52.859375 -61.21875 52.734375 -61.21875 L 52.734375 -62.96875 C 58.910156 -62.96875 63.929688 -64.769531 67.796875 -68.375 C 71.660156 -71.976562 73.59375 -77.578125 73.59375 -85.171875 C 73.59375 -100.628906 66.570312 -108.359375 52.53125 -108.359375 L 47.125 -108.359375 L 47.125 -7.71875 L 54.859375 -7.71875 C 62.316406 -7.71875 68.394531 -9.90625 73.09375 -14.28125 C 77.800781 -18.664062 80.15625 -25.492188 80.15625 -34.765625 Z M 80.15625 -34.765625 "/></g></g></g><g fill="#de5c1e" fill-opacity="1"><g transform="translate(364.602831, 188.86313)"><g><path d="M 111.828125 -88.453125 L 111.828125 -90.203125 C 111.828125 -95.734375 110.28125 -100.109375 107.1875 -103.328125 C 104.101562 -106.546875 99.789062 -108.222656 94.25 -108.359375 L 71.84375 -108.359375 L 71.84375 -11.96875 C 71.976562 -9.132812 73.070312 -6.753906 75.125 -4.828125 C 77.1875 -2.898438 79.632812 -1.9375 82.46875 -1.9375 L 84.59375 -1.9375 L 84.59375 0 L 31.28125 0 L 31.28125 -1.9375 L 33.21875 -1.9375 C 36.175781 -1.9375 38.6875 -2.898438 40.75 -4.828125 C 42.8125 -6.753906 43.84375 -9.203125 43.84375 -12.171875 L 43.84375 -108.359375 L 21.625 -108.359375 C 15.96875 -108.222656 11.59375 -106.546875 8.5 -103.328125 C 5.40625 -100.109375 3.859375 -95.734375 3.859375 -90.203125 L 3.859375 -88.453125 L 1.9375 -88.453125 L 1.9375 -118.96875 C 3.738281 -118.332031 6.726562 -117.691406 10.90625 -117.046875 C 15.09375 -116.398438 18.863281 -116.078125 22.21875 -116.078125 L 93.484375 -116.078125 C 99.148438 -116.078125 103.816406 -116.492188 107.484375 -117.328125 C 111.148438 -118.171875 113.242188 -118.71875 113.765625 -118.96875 L 113.765625 -88.453125 Z M 111.828125 -88.453125 "/></g></g></g><g fill="#de5c1e" fill-opacity="1"><g transform="translate(480.286195, 188.86313)"><g><path d="M 54.65625 -107.96875 L 48.484375 -107.96875 L 48.484375 -12.171875 C 48.484375 -9.078125 49.546875 -6.597656 51.671875 -4.734375 C 53.796875 -2.867188 56.207031 -1.9375 58.90625 -1.9375 L 61.03125 -1.9375 L 61.03125 0 L 7.921875 0 L 7.921875 -1.9375 L 10.234375 -1.9375 C 13.066406 -1.9375 15.476562 -2.898438 17.46875 -4.828125 C 19.46875 -6.753906 20.46875 -9.132812 20.46875 -11.96875 L 20.46875 -103.90625 C 20.46875 -106.738281 19.46875 -109.117188 17.46875 -111.046875 C 15.476562 -112.984375 13.128906 -113.953125 10.421875 -113.953125 L 7.921875 -113.953125 L 7.921875 -115.890625 L 67.21875 -115.890625 C 78.800781 -115.890625 88.519531 -113.632812 96.375 -109.125 C 105.132812 -104.101562 109.515625 -95.796875 109.515625 -84.203125 C 109.515625 -76.734375 107.257812 -70.003906 102.75 -64.015625 C 98.238281 -58.035156 91.546875 -54.398438 82.671875 -53.109375 C 86.140625 -51.953125 89.578125 -49.765625 92.984375 -46.546875 C 96.398438 -43.328125 99.140625 -40.046875 101.203125 -36.703125 C 105.328125 -29.359375 109.640625 -22.628906 114.140625 -16.515625 C 118.648438 -10.398438 122.289062 -6.441406 125.0625 -4.640625 C 127.832031 -2.835938 131.210938 -1.9375 135.203125 -1.9375 L 135.203125 0 L 118.96875 0 C 108.28125 0 100.070312 -1.285156 94.34375 -3.859375 C 88.613281 -6.429688 83.5 -11.328125 79 -18.546875 C 72.039062 -29.617188 67.722656 -38.375 66.046875 -44.8125 C 64.503906 -48.675781 62.671875 -51.570312 60.546875 -53.5 C 58.421875 -55.425781 56.394531 -56.519531 54.46875 -56.78125 L 54.46875 -58.328125 L 59.296875 -58.328125 C 70.242188 -58.453125 76.9375 -64.890625 79.375 -77.640625 C 79.894531 -79.578125 80.15625 -81.25 80.15625 -82.65625 C 80.15625 -84.070312 80.085938 -86.035156 79.953125 -88.546875 C 79.828125 -91.066406 79.023438 -93.898438 77.546875 -97.046875 C 76.066406 -100.203125 74.164062 -102.488281 71.84375 -103.90625 C 67.851562 -106.351562 63.734375 -107.640625 59.484375 -107.765625 C 58.066406 -107.898438 56.457031 -107.96875 54.65625 -107.96875 Z M 54.65625 -107.96875 "/></g></g></g><g fill="#de5c1e" fill-opacity="1"><g transform="translate(607.170899, 188.86313)"><g><path d="M 128.625 -1.9375 L 130.171875 -1.9375 L 130.171875 0 L 73.390625 0 L 73.390625 -1.9375 L 74.9375 -1.9375 C 77.507812 -1.9375 79.375 -2.707031 80.53125 -4.25 C 81.6875 -5.789062 82.265625 -7.203125 82.265625 -8.484375 C 82.265625 -9.773438 82.007812 -11.128906 81.5 -12.546875 L 73.96875 -30.328125 L 33.015625 -30.328125 L 25.296875 -12.359375 C 24.773438 -11.066406 24.515625 -9.742188 24.515625 -8.390625 C 24.515625 -7.046875 25.125 -5.632812 26.34375 -4.15625 C 27.570312 -2.675781 29.476562 -1.9375 32.0625 -1.9375 L 33.59375 -1.9375 L 33.59375 0 L -5.03125 0 L -5.03125 -1.9375 L -3.484375 -1.9375 C -0.773438 -1.9375 1.925781 -2.769531 4.625 -4.4375 C 7.332031 -6.113281 9.523438 -8.625 11.203125 -11.96875 L 51.171875 -97.734375 C 56.835938 -110.472656 59.800781 -118.328125 60.0625 -121.296875 L 61.796875 -121.296875 L 113.5625 -12.75 C 115.238281 -9.007812 117.457031 -6.269531 120.21875 -4.53125 C 122.988281 -2.800781 125.789062 -1.9375 128.625 -1.9375 Z M 36.3125 -37.859375 L 70.6875 -37.859375 L 53.6875 -78.21875 Z M 36.3125 -37.859375 "/></g></g></g><g fill="#de5c1e" fill-opacity="1"><g transform="translate(731.544945, 188.86313)"><g><path d="M 76.09375 2.515625 C 54.46875 2.378906 37.472656 -2.992188 25.109375 -13.609375 C 12.742188 -24.234375 6.5625 -39.007812 6.5625 -57.9375 C 6.5625 -76.863281 12.707031 -91.671875 25 -102.359375 C 37.300781 -113.046875 54.332031 -118.390625 76.09375 -118.390625 C 93.09375 -118.390625 107.578125 -115.429688 119.546875 -109.515625 L 119.546875 -78.796875 L 118.203125 -78.796875 C 114.984375 -90.253906 110.023438 -98.429688 103.328125 -103.328125 C 96.628906 -108.222656 88.195312 -110.671875 78.03125 -110.671875 C 64.382812 -110.671875 53.953125 -106.003906 46.734375 -96.671875 C 39.523438 -87.335938 35.921875 -74.585938 35.921875 -58.421875 C 35.921875 -42.265625 39.460938 -29.421875 46.546875 -19.890625 C 53.890625 -10.109375 63.867188 -5.21875 76.484375 -5.21875 C 85.628906 -5.21875 93.160156 -6.632812 99.078125 -9.46875 C 105.003906 -12.300781 109.703125 -16.835938 113.171875 -23.078125 C 116.648438 -29.328125 119.226562 -37.796875 120.90625 -48.484375 L 122.265625 -48.484375 L 124.578125 -19.3125 C 120.585938 -12.75 114.503906 -7.46875 106.328125 -3.46875 C 98.148438 0.519531 88.070312 2.515625 76.09375 2.515625 Z M 76.09375 2.515625 "/></g></g></g><g fill="#de5c1e" fill-opacity="1"><g transform="translate(863.257885, 188.86313)"><g><path d="M 111.828125 -88.453125 L 111.828125 -90.203125 C 111.828125 -95.734375 110.28125 -100.109375 107.1875 -103.328125 C 104.101562 -106.546875 99.789062 -108.222656 94.25 -108.359375 L 71.84375 -108.359375 L 71.84375 -11.96875 C 71.976562 -9.132812 73.070312 -6.753906 75.125 -4.828125 C 77.1875 -2.898438 79.632812 -1.9375 82.46875 -1.9375 L 84.59375 -1.9375 L 84.59375 0 L 31.28125 0 L 31.28125 -1.9375 L 33.21875 -1.9375 C 36.175781 -1.9375 38.6875 -2.898438 40.75 -4.828125 C 42.8125 -6.753906 43.84375 -9.203125 43.84375 -12.171875 L 43.84375 -108.359375 L 21.625 -108.359375 C 15.96875 -108.222656 11.59375 -106.546875 8.5 -103.328125 C 5.40625 -100.109375 3.859375 -95.734375 3.859375 -90.203125 L 3.859375 -88.453125 L 1.9375 -88.453125 L 1.9375 -118.96875 C 3.738281 -118.332031 6.726562 -117.691406 10.90625 -117.046875 C 15.09375 -116.398438 18.863281 -116.078125 22.21875 -116.078125 L 93.484375 -116.078125 C 99.148438 -116.078125 103.816406 -116.492188 107.484375 -117.328125 C 111.148438 -118.171875 113.242188 -118.71875 113.765625 -118.96875 L 113.765625 -88.453125 Z M 111.828125 -88.453125 "/></g></g></g><g fill="#de5c1e" fill-opacity="1"><g transform="translate(978.941195, 188.86313)"><g><path d="M 6.5625 -1.9375 L 8.890625 -1.9375 C 11.972656 -1.9375 14.609375 -2.929688 16.796875 -4.921875 C 18.992188 -6.921875 20.09375 -9.335938 20.09375 -12.171875 L 20.09375 -103.71875 C 20.09375 -106.550781 18.992188 -108.960938 16.796875 -110.953125 C 14.609375 -112.953125 11.972656 -113.953125 8.890625 -113.953125 L 6.5625 -113.953125 L 6.5625 -115.890625 L 61.421875 -115.890625 L 61.421875 -113.953125 L 59.09375 -113.953125 C 56.132812 -113.953125 53.5625 -112.984375 51.375 -111.046875 C 49.1875 -109.117188 48.03125 -106.738281 47.90625 -103.90625 L 47.90625 -12.171875 C 48.03125 -9.203125 49.1875 -6.753906 51.375 -4.828125 C 53.5625 -2.898438 56.132812 -1.9375 59.09375 -1.9375 L 61.421875 -1.9375 L 61.421875 0 L 6.5625 0 Z M 6.5625 -1.9375 "/></g></g></g><g fill="#de5c1e" fill-opacity="1"><g transform="translate(1046.922108, 188.86313)"><g><path d="M 6.765625 -57.9375 C 6.765625 -76.476562 12.972656 -91.1875 25.390625 -102.0625 C 37.816406 -112.945312 54.363281 -118.390625 75.03125 -118.390625 C 95.695312 -118.390625 112.273438 -112.945312 124.765625 -102.0625 C 137.253906 -91.1875 143.5 -76.476562 143.5 -57.9375 C 143.5 -39.394531 137.253906 -24.679688 124.765625 -13.796875 C 112.273438 -2.921875 95.726562 2.515625 75.125 2.515625 C 54.53125 2.515625 37.988281 -2.921875 25.5 -13.796875 C 13.007812 -24.679688 6.765625 -39.394531 6.765625 -57.9375 Z M 36.3125 -57.9375 C 36.3125 -41.71875 39.816406 -28.875 46.828125 -19.40625 C 53.847656 -9.945312 63.25 -5.21875 75.03125 -5.21875 C 86.8125 -5.21875 96.210938 -9.945312 103.234375 -19.40625 C 110.253906 -28.875 113.765625 -41.71875 113.765625 -57.9375 C 113.765625 -74.164062 110.253906 -87.007812 103.234375 -96.46875 C 96.210938 -105.9375 86.8125 -110.671875 75.03125 -110.671875 C 63.25 -110.671875 53.847656 -105.9375 46.828125 -96.46875 C 39.816406 -87.007812 36.3125 -74.164062 36.3125 -57.9375 Z M 36.3125 -57.9375 "/></g></g></g><g fill="#de5c1e" fill-opacity="1"><g transform="translate(1196.982089, 188.86313)"><g><path d="M 92.328125 -115.890625 L 146.59375 -115.890625 L 146.59375 -113.953125 L 143.3125 -113.953125 C 140.351562 -113.953125 137.875 -113.050781 135.875 -111.25 C 133.875 -109.445312 132.8125 -107.128906 132.6875 -104.296875 L 132.6875 -19.890625 C 132.6875 -11.910156 133.203125 -5.34375 134.234375 -0.1875 L 134.625 2.515625 L 132.875 2.515625 L 44.234375 -75.71875 L 44.234375 -11.78125 C 44.359375 -8.945312 45.414062 -6.597656 47.40625 -4.734375 C 49.40625 -2.867188 51.890625 -1.9375 54.859375 -1.9375 L 58.140625 -1.9375 L 58.140625 0 L 4.0625 0 L 4.0625 -1.9375 L 7.140625 -1.9375 C 10.109375 -1.9375 12.617188 -2.867188 14.671875 -4.734375 C 16.734375 -6.597656 17.765625 -8.945312 17.765625 -11.78125 L 17.765625 -96.765625 C 17.765625 -104.492188 17.25 -110.867188 16.21875 -115.890625 L 15.84375 -118.59375 L 17.578125 -118.390625 L 106.03125 -40.5625 L 106.03125 -104.109375 C 106.03125 -106.941406 105.03125 -109.289062 103.03125 -111.15625 C 101.039062 -113.019531 98.566406 -113.953125 95.609375 -113.953125 L 92.328125 -113.953125 Z M 92.328125 -115.890625 "/></g></g></g></g></g><g transform="matrix(1, 0, 0, 1, 2685, 485)"><g clip-path="url(#2c750d61e7)"><g fill="#de5c1e" fill-opacity="1"><g transform="translate(0.755426, 189.243045)"><g><path d="M 6.5625 -1.9375 L 8.890625 -1.9375 C 11.972656 -1.9375 14.609375 -2.929688 16.796875 -4.921875 C 18.992188 -6.921875 20.09375 -9.335938 20.09375 -12.171875 L 20.09375 -103.71875 C 20.09375 -106.550781 18.992188 -108.960938 16.796875 -110.953125 C 14.609375 -112.953125 11.972656 -113.953125 8.890625 -113.953125 L 6.5625 -113.953125 L 6.5625 -115.890625 L 61.421875 -115.890625 L 61.421875 -113.953125 L 59.09375 -113.953125 C 56.132812 -113.953125 53.5625 -112.984375 51.375 -111.046875 C 49.1875 -109.117188 48.03125 -106.738281 47.90625 -103.90625 L 47.90625 -12.171875 C 48.03125 -9.203125 49.1875 -6.753906 51.375 -4.828125 C 53.5625 -2.898438 56.132812 -1.9375 59.09375 -1.9375 L 61.421875 -1.9375 L 61.421875 0 L 6.5625 0 Z M 6.5625 -1.9375 "/></g></g></g><g fill="#de5c1e" fill-opacity="1"><g transform="translate(68.736282, 189.243045)"><g><path d="M 111.828125 -88.453125 L 111.828125 -90.203125 C 111.828125 -95.734375 110.28125 -100.109375 107.1875 -103.328125 C 104.101562 -106.546875 99.789062 -108.222656 94.25 -108.359375 L 71.84375 -108.359375 L 71.84375 -11.96875 C 71.976562 -9.132812 73.070312 -6.753906 75.125 -4.828125 C 77.1875 -2.898438 79.632812 -1.9375 82.46875 -1.9375 L 84.59375 -1.9375 L 84.59375 0 L 31.28125 0 L 31.28125 -1.9375 L 33.21875 -1.9375 C 36.175781 -1.9375 38.6875 -2.898438 40.75 -4.828125 C 42.8125 -6.753906 43.84375 -9.203125 43.84375 -12.171875 L 43.84375 -108.359375 L 21.625 -108.359375 C 15.96875 -108.222656 11.59375 -106.546875 8.5 -103.328125 C 5.40625 -100.109375 3.859375 -95.734375 3.859375 -90.203125 L 3.859375 -88.453125 L 1.9375 -88.453125 L 1.9375 -118.96875 C 3.738281 -118.332031 6.726562 -117.691406 10.90625 -117.046875 C 15.09375 -116.398438 18.863281 -116.078125 22.21875 -116.078125 L 93.484375 -116.078125 C 99.148438 -116.078125 103.816406 -116.492188 107.484375 -117.328125 C 111.148438 -118.171875 113.242188 -118.71875 113.765625 -118.96875 L 113.765625 -88.453125 Z M 111.828125 -88.453125 "/></g></g></g><g fill="#de5c1e" fill-opacity="1"><g transform="translate(184.419619, 189.243045)"><g/></g></g><g fill="#de5c1e" fill-opacity="1"><g transform="translate(232.70148, 189.243045)"><g><path d="M 51.953125 -126.890625 L 51.953125 -70.6875 L 77.453125 -70.6875 C 82.210938 -70.8125 86.132812 -72.421875 89.21875 -75.515625 C 92.3125 -78.609375 93.859375 -82.535156 93.859375 -87.296875 L 93.859375 -89.03125 L 95.796875 -89.03125 L 95.796875 -44.421875 L 93.859375 -44.421875 L 93.859375 -45.96875 C 93.859375 -50.726562 92.34375 -54.65625 89.3125 -57.75 C 86.289062 -60.84375 82.460938 -62.453125 77.828125 -62.578125 L 51.953125 -62.578125 L 51.953125 -14.09375 C 51.953125 -10.75 53.175781 -7.882812 55.625 -5.5 C 58.070312 -3.125 60.96875 -1.9375 64.3125 -1.9375 L 66.640625 -1.9375 L 66.828125 0 L 8.109375 0 L 8.109375 -1.9375 L 10.625 -1.9375 C 13.96875 -1.9375 16.832031 -3.125 19.21875 -5.5 C 21.601562 -7.882812 22.859375 -10.75 22.984375 -14.09375 L 22.984375 -121.671875 C 22.984375 -126.179688 20.859375 -129.53125 16.609375 -131.71875 C 14.804688 -132.75 12.8125 -133.265625 10.625 -133.265625 L 8.109375 -133.265625 L 8.109375 -135.203125 L 82.078125 -135.203125 C 86.078125 -135.203125 90.457031 -135.585938 95.21875 -136.359375 C 99.976562 -137.128906 103.328125 -137.898438 105.265625 -138.671875 L 105.265625 -106.03125 L 103.328125 -106.03125 L 103.328125 -107.96875 C 103.328125 -113.632812 101.6875 -118.171875 98.40625 -121.578125 C 95.125 -124.992188 90.648438 -126.765625 84.984375 -126.890625 Z M 51.953125 -126.890625 "/></g></g></g><g fill="#de5c1e" fill-opacity="1"><g transform="translate(347.6123, 189.243045)"><g><path d="M 6.765625 -57.9375 C 6.765625 -76.476562 12.972656 -91.1875 25.390625 -102.0625 C 37.816406 -112.945312 54.363281 -118.390625 75.03125 -118.390625 C 95.695312 -118.390625 112.273438 -112.945312 124.765625 -102.0625 C 137.253906 -91.1875 143.5 -76.476562 143.5 -57.9375 C 143.5 -39.394531 137.253906 -24.679688 124.765625 -13.796875 C 112.273438 -2.921875 95.726562 2.515625 75.125 2.515625 C 54.53125 2.515625 37.988281 -2.921875 25.5 -13.796875 C 13.007812 -24.679688 6.765625 -39.394531 6.765625 -57.9375 Z M 36.3125 -57.9375 C 36.3125 -41.71875 39.816406 -28.875 46.828125 -19.40625 C 53.847656 -9.945312 63.25 -5.21875 75.03125 -5.21875 C 86.8125 -5.21875 96.210938 -9.945312 103.234375 -19.40625 C 110.253906 -28.875 113.765625 -41.71875 113.765625 -57.9375 C 113.765625 -74.164062 110.253906 -87.007812 103.234375 -96.46875 C 96.210938 -105.9375 86.8125 -110.671875 75.03125 -110.671875 C 63.25 -110.671875 53.847656 -105.9375 46.828125 -96.46875 C 39.816406 -87.007812 36.3125 -74.164062 36.3125 -57.9375 Z M 36.3125 -57.9375 "/></g></g></g><g fill="#de5c1e" fill-opacity="1"><g transform="translate(497.672309, 189.243045)"><g><path d="M 54.65625 -107.96875 L 48.484375 -107.96875 L 48.484375 -12.171875 C 48.484375 -9.078125 49.546875 -6.597656 51.671875 -4.734375 C 53.796875 -2.867188 56.207031 -1.9375 58.90625 -1.9375 L 61.03125 -1.9375 L 61.03125 0 L 7.921875 0 L 7.921875 -1.9375 L 10.234375 -1.9375 C 13.066406 -1.9375 15.476562 -2.898438 17.46875 -4.828125 C 19.46875 -6.753906 20.46875 -9.132812 20.46875 -11.96875 L 20.46875 -103.90625 C 20.46875 -106.738281 19.46875 -109.117188 17.46875 -111.046875 C 15.476562 -112.984375 13.128906 -113.953125 10.421875 -113.953125 L 7.921875 -113.953125 L 7.921875 -115.890625 L 67.21875 -115.890625 C 78.800781 -115.890625 88.519531 -113.632812 96.375 -109.125 C 105.132812 -104.101562 109.515625 -95.796875 109.515625 -84.203125 C 109.515625 -76.734375 107.257812 -70.003906 102.75 -64.015625 C 98.238281 -58.035156 91.546875 -54.398438 82.671875 -53.109375 C 86.140625 -51.953125 89.578125 -49.765625 92.984375 -46.546875 C 96.398438 -43.328125 99.140625 -40.046875 101.203125 -36.703125 C 105.328125 -29.359375 109.640625 -22.628906 114.140625 -16.515625 C 118.648438 -10.398438 122.289062 -6.441406 125.0625 -4.640625 C 127.832031 -2.835938 131.210938 -1.9375 135.203125 -1.9375 L 135.203125 0 L 118.96875 0 C 108.28125 0 100.070312 -1.285156 94.34375 -3.859375 C 88.613281 -6.429688 83.5 -11.328125 79 -18.546875 C 72.039062 -29.617188 67.722656 -38.375 66.046875 -44.8125 C 64.503906 -48.675781 62.671875 -51.570312 60.546875 -53.5 C 58.421875 -55.425781 56.394531 -56.519531 54.46875 -56.78125 L 54.46875 -58.328125 L 59.296875 -58.328125 C 70.242188 -58.453125 76.9375 -64.890625 79.375 -77.640625 C 79.894531 -79.578125 80.15625 -81.25 80.15625 -82.65625 C 80.15625 -84.070312 80.085938 -86.035156 79.953125 -88.546875 C 79.828125 -91.066406 79.023438 -93.898438 77.546875 -97.046875 C 76.066406 -100.203125 74.164062 -102.488281 71.84375 -103.90625 C 67.851562 -106.351562 63.734375 -107.640625 59.484375 -107.765625 C 58.066406 -107.898438 56.457031 -107.96875 54.65625 -107.96875 Z M 54.65625 -107.96875 "/></g></g></g><g fill="#de5c1e" fill-opacity="1"><g transform="translate(624.55707, 189.243045)"><g><path d="M 172.28125 -113.953125 L 170.921875 -113.953125 C 167.960938 -113.953125 165.128906 -113.175781 162.421875 -111.625 C 159.722656 -110.082031 157.726562 -107.832031 156.4375 -104.875 L 127.859375 -17.375 C 125.796875 -11.195312 124.765625 -5.34375 124.765625 0.1875 C 124.765625 0.832031 124.765625 1.476562 124.765625 2.125 L 123.03125 2.125 L 85.359375 -73.96875 L 59.28125 -17.375 C 56.320312 -10.550781 54.84375 -4.050781 54.84375 2.125 L 53.109375 2.125 L 11.96875 -104.109375 C 10.550781 -107.328125 8.519531 -109.769531 5.875 -111.4375 C 3.238281 -113.113281 0.378906 -113.953125 -2.703125 -113.953125 L -4.25 -113.953125 L -4.25 -115.890625 L 50.015625 -115.890625 L 50.015625 -113.953125 L 48.46875 -113.953125 C 46.019531 -113.953125 44.21875 -113.210938 43.0625 -111.734375 C 41.90625 -110.253906 41.328125 -108.867188 41.328125 -107.578125 C 41.328125 -106.285156 41.582031 -104.867188 42.09375 -103.328125 L 62.1875 -50.796875 L 92.703125 -118.59375 L 94.25 -118.59375 L 128.046875 -50.40625 L 143.6875 -103.328125 C 144.976562 -108.484375 143.945312 -111.832031 140.59375 -113.375 C 139.695312 -113.757812 138.671875 -113.953125 137.515625 -113.953125 L 135.96875 -113.953125 L 135.96875 -115.890625 L 172.28125 -115.890625 Z M 172.28125 -113.953125 "/></g></g></g><g fill="#de5c1e" fill-opacity="1"><g transform="translate(792.384797, 189.243045)"><g><path d="M 128.625 -1.9375 L 130.171875 -1.9375 L 130.171875 0 L 73.390625 0 L 73.390625 -1.9375 L 74.9375 -1.9375 C 77.507812 -1.9375 79.375 -2.707031 80.53125 -4.25 C 81.6875 -5.789062 82.265625 -7.203125 82.265625 -8.484375 C 82.265625 -9.773438 82.007812 -11.128906 81.5 -12.546875 L 73.96875 -30.328125 L 33.015625 -30.328125 L 25.296875 -12.359375 C 24.773438 -11.066406 24.515625 -9.742188 24.515625 -8.390625 C 24.515625 -7.046875 25.125 -5.632812 26.34375 -4.15625 C 27.570312 -2.675781 29.476562 -1.9375 32.0625 -1.9375 L 33.59375 -1.9375 L 33.59375 0 L -5.03125 0 L -5.03125 -1.9375 L -3.484375 -1.9375 C -0.773438 -1.9375 1.925781 -2.769531 4.625 -4.4375 C 7.332031 -6.113281 9.523438 -8.625 11.203125 -11.96875 L 51.171875 -97.734375 C 56.835938 -110.472656 59.800781 -118.328125 60.0625 -121.296875 L 61.796875 -121.296875 L 113.5625 -12.75 C 115.238281 -9.007812 117.457031 -6.269531 120.21875 -4.53125 C 122.988281 -2.800781 125.789062 -1.9375 128.625 -1.9375 Z M 36.3125 -37.859375 L 70.6875 -37.859375 L 53.6875 -78.21875 Z M 36.3125 -37.859375 "/></g></g></g><g fill="#de5c1e" fill-opacity="1"><g transform="translate(916.758842, 189.243045)"><g><path d="M 54.65625 -107.96875 L 48.484375 -107.96875 L 48.484375 -12.171875 C 48.484375 -9.078125 49.546875 -6.597656 51.671875 -4.734375 C 53.796875 -2.867188 56.207031 -1.9375 58.90625 -1.9375 L 61.03125 -1.9375 L 61.03125 0 L 7.921875 0 L 7.921875 -1.9375 L 10.234375 -1.9375 C 13.066406 -1.9375 15.476562 -2.898438 17.46875 -4.828125 C 19.46875 -6.753906 20.46875 -9.132812 20.46875 -11.96875 L 20.46875 -103.90625 C 20.46875 -106.738281 19.46875 -109.117188 17.46875 -111.046875 C 15.476562 -112.984375 13.128906 -113.953125 10.421875 -113.953125 L 7.921875 -113.953125 L 7.921875 -115.890625 L 67.21875 -115.890625 C 78.800781 -115.890625 88.519531 -113.632812 96.375 -109.125 C 105.132812 -104.101562 109.515625 -95.796875 109.515625 -84.203125 C 109.515625 -76.734375 107.257812 -70.003906 102.75 -64.015625 C 98.238281 -58.035156 91.546875 -54.398438 82.671875 -53.109375 C 86.140625 -51.953125 89.578125 -49.765625 92.984375 -46.546875 C 96.398438 -43.328125 99.140625 -40.046875 101.203125 -36.703125 C 105.328125 -29.359375 109.640625 -22.628906 114.140625 -16.515625 C 118.648438 -10.398438 122.289062 -6.441406 125.0625 -4.640625 C 127.832031 -2.835938 131.210938 -1.9375 135.203125 -1.9375 L 135.203125 0 L 118.96875 0 C 108.28125 0 100.070312 -1.285156 94.34375 -3.859375 C 88.613281 -6.429688 83.5 -11.328125 79 -18.546875 C 72.039062 -29.617188 67.722656 -38.375 66.046875 -44.8125 C 64.503906 -48.675781 62.671875 -51.570312 60.546875 -53.5 C 58.421875 -55.425781 56.394531 -56.519531 54.46875 -56.78125 L 54.46875 -58.328125 L 59.296875 -58.328125 C 70.242188 -58.453125 76.9375 -64.890625 79.375 -77.640625 C 79.894531 -79.578125 80.15625 -81.25 80.15625 -82.65625 C 80.15625 -84.070312 80.085938 -86.035156 79.953125 -88.546875 C 79.828125 -91.066406 79.023438 -93.898438 77.546875 -97.046875 C 76.066406 -100.203125 74.164062 -102.488281 71.84375 -103.90625 C 67.851562 -106.351562 63.734375 -107.640625 59.484375 -107.765625 C 58.066406 -107.898438 56.457031 -107.96875 54.65625 -107.96875 Z M 54.65625 -107.96875 "/></g></g></g><g fill="#de5c1e" fill-opacity="1"><g transform="translate(1043.643546, 189.243045)"><g><path d="M 120.328125 -100.53125 C 132.046875 -90.289062 137.90625 -76.09375 137.90625 -57.9375 C 137.90625 -39.78125 132.046875 -25.582031 120.328125 -15.34375 C 108.609375 -5.113281 92.382812 0 71.65625 0 L 6.375 0 L 6.375 -1.9375 L 8.890625 -1.9375 C 11.847656 -1.9375 14.351562 -2.960938 16.40625 -5.015625 C 18.46875 -7.078125 19.566406 -9.523438 19.703125 -12.359375 L 19.703125 -103.90625 C 19.441406 -106.738281 18.28125 -109.117188 16.21875 -111.046875 C 14.164062 -112.984375 11.65625 -113.953125 8.6875 -113.953125 L 6.375 -113.953125 L 6.375 -115.890625 L 71.65625 -115.890625 C 92.382812 -115.890625 108.609375 -110.769531 120.328125 -100.53125 Z M 69.34375 -7.71875 C 81.445312 -7.71875 91.003906 -12.160156 98.015625 -21.046875 C 105.035156 -29.929688 108.546875 -42.226562 108.546875 -57.9375 C 108.546875 -73.644531 105.035156 -85.972656 98.015625 -94.921875 C 91.003906 -103.878906 81.445312 -108.359375 69.34375 -108.359375 L 47.515625 -108.359375 L 47.515625 -7.71875 Z M 69.34375 -7.71875 "/></g></g></g><g fill="#de5c1e" fill-opacity="1"><g transform="translate(1188.102915, 189.243045)"><g><path d="M 31.375 -2.125 C 28.613281 0.582031 25.300781 1.9375 21.4375 1.9375 C 17.570312 1.9375 14.285156 0.582031 11.578125 -2.125 C 8.878906 -4.832031 7.53125 -8.113281 7.53125 -11.96875 C 7.53125 -15.832031 8.878906 -19.148438 11.578125 -21.921875 C 14.285156 -24.691406 17.570312 -26.078125 21.4375 -26.078125 C 25.300781 -26.078125 28.613281 -24.691406 31.375 -21.921875 C 34.144531 -19.148438 35.53125 -15.832031 35.53125 -11.96875 C 35.53125 -8.113281 34.144531 -4.832031 31.375 -2.125 Z M 31.375 -2.125 "/></g></g></g></g></g></svg>