<svg xmlns="http://www.w3.org/2000/svg" xmlns:xlink="http://www.w3.org/1999/xlink" width="3043" zoomAndPan="magnify" viewBox="0 0 2282.25 404.250001" height="539" preserveAspectRatio="xMidYMid meet" version="1.0"><defs><clipPath id="a50262d8a4"><path d="M 2 18 L 519 18 L 519 403.5 L 2 403.5 Z M 2 18 " clip-rule="nonzero"/></clipPath><clipPath id="cef437f1ba"><path d="M 1722 88.046875 L 1863 88.046875 L 1863 314.878906 L 1722 314.878906 Z M 1722 88.046875 " clip-rule="nonzero"/></clipPath><clipPath id="42a84f1c50"><path d="M 837 88.046875 L 1016 88.046875 L 1016 314.878906 L 837 314.878906 Z M 837 88.046875 " clip-rule="nonzero"/></clipPath><clipPath id="c288efd26e"><path d="M 1892 88.046875 L 2065 88.046875 L 2065 191 L 1892 191 Z M 1892 88.046875 " clip-rule="nonzero"/></clipPath><clipPath id="a8b6363d11"><path d="M 631 88.046875 L 811 88.046875 L 811 314.878906 L 631 314.878906 Z M 631 88.046875 " clip-rule="nonzero"/></clipPath><clipPath id="974cee6308"><path d="M 1444 88.046875 L 1598 88.046875 L 1598 314.878906 L 1444 314.878906 Z M 1444 88.046875 " clip-rule="nonzero"/></clipPath><clipPath id="54f65506f7"><path d="M 1887 187 L 2061 187 L 2061 314.878906 L 1887 314.878906 Z M 1887 187 " clip-rule="nonzero"/></clipPath><clipPath id="765da74221"><path d="M 1037 88.046875 L 1210 88.046875 L 1210 191 L 1037 191 Z M 1037 88.046875 " clip-rule="nonzero"/></clipPath><clipPath id="1dc8662953"><path d="M 1032 187 L 1206 187 L 1206 314.878906 L 1032 314.878906 Z M 1032 187 " clip-rule="nonzero"/></clipPath><clipPath id="2647428815"><path d="M 1241 88.046875 L 2276 88.046875 L 2276 314.878906 L 1241 314.878906 Z M 1241 88.046875 " clip-rule="nonzero"/></clipPath><clipPath id="4e6e9ffe8f"><path d="M 2130 210 L 2270 210 L 2270 314.878906 L 2130 314.878906 Z M 2130 210 " clip-rule="nonzero"/></clipPath></defs><path fill="#fa5c21" d="M 393.96875 390.472656 C 380.5 388.484375 367.199219 385.695312 354.066406 382.113281 C 336.15625 362.203125 316.972656 343.605469 296.519531 326.320312 C 276.0625 309.035156 254.527344 293.226562 231.90625 278.886719 C 207.789062 263.730469 182.703125 250.390625 156.648438 238.871094 C 130.597656 227.351562 103.847656 217.773438 76.40625 210.132812 C 69.085938 202.058594 62.242188 193.84375 55.914062 185.578125 C 89.734375 179.582031 122.996094 171.324219 155.699219 160.808594 C 188.398438 150.292969 220.238281 137.613281 251.21875 122.773438 C 268.738281 114.371094 286.210938 105.066406 303.164062 95.246094 L 306.847656 93.074219 C 364.503906 59.308594 403.839844 36.597656 441.617188 0 C 415.597656 46.464844 405.632812 91.46875 392.457031 157.578125 C 389.671875 173.300781 386.933594 189.308594 384.949219 205.175781 C 381.589844 236.101562 380.652344 267.097656 382.132812 298.167969 C 383.613281 329.238281 387.496094 360.007812 393.78125 390.472656 " fill-opacity="1" fill-rule="nonzero"/><g clip-path="url(#a50262d8a4)"><path fill="#fa5c21" d="M 427.164062 403.128906 C 417.683594 403.085938 408.238281 402.472656 398.832031 401.285156 C 382.414062 399.214844 366.230469 395.957031 350.289062 391.511719 C 322.199219 383.394531 294.863281 373.25 268.28125 361.070312 C 241.699219 348.890625 216.164062 334.8125 191.671875 318.835938 C 169.253906 304.726562 147.847656 289.226562 127.445312 272.328125 C 107.046875 255.429688 87.832031 237.28125 69.796875 217.878906 C 60.480469 207.699219 51.730469 197.058594 43.539062 185.957031 C 3.167969 131.179688 -7.882812 83.535156 12.328125 51.941406 C 47.933594 -3.964844 173.257812 10.859375 303.777344 86.273438 C 312.796875 91.46875 321.625 96.851562 330.03125 102.234375 C 354.683594 118.007812 378.199219 135.320312 400.582031 154.175781 C 496.296875 234.878906 540.023438 321.386719 509.1875 369.410156 C 495.023438 391.605469 466.3125 403.316406 427.023438 403.316406 M 94.113281 29.558594 C 60.070312 29.558594 34.378906 39.003906 22.054688 57.894531 C 4.820312 85 16.058594 129.148438 52.84375 179.109375 C 60.792969 189.890625 69.292969 200.214844 78.34375 210.085938 C 96.027344 229.144531 114.875 246.976562 134.886719 263.574219 C 154.898438 280.171875 175.90625 295.398438 197.90625 309.25 C 221.886719 324.886719 246.890625 338.660156 272.921875 350.578125 C 298.949219 362.496094 325.714844 372.425781 353.21875 380.367188 C 368.632812 384.65625 384.28125 387.804688 400.15625 389.8125 C 449.40625 395.855469 484.726562 386.316406 499.601562 362.988281 C 526.613281 320.488281 482.792969 238.417969 393.121094 162.820312 C 371.148438 144.316406 348.042969 127.363281 323.796875 111.960938 C 315.535156 106.671875 306.894531 101.382812 298.015625 96.285156 C 222.460938 52.746094 147.945312 29.558594 94.113281 29.558594 " fill-opacity="1" fill-rule="nonzero"/></g><g clip-path="url(#cef437f1ba)"><path fill="#fa5c21" d="M 1862.054688 313.988281 C 1861.921875 314.328125 1861.703125 314.601562 1861.40625 314.808594 C 1861.105469 315.015625 1860.773438 315.125 1860.410156 315.132812 L 1749.949219 315.132812 C 1749.527344 315.113281 1749.152344 314.964844 1748.835938 314.6875 L 1722.726562 290 L 1722.53125 289.832031 L 1722.308594 289.554688 C 1722.296875 289.46875 1722.296875 289.386719 1722.308594 289.300781 C 1722.207031 289.070312 1722.164062 288.828125 1722.167969 288.578125 L 1730.953125 120.796875 C 1731.078125 118.570312 1731.621094 116.457031 1732.589844 114.449219 C 1733.554688 112.445312 1734.871094 110.703125 1736.53125 109.21875 L 1760.660156 88.496094 C 1761.011719 88.21875 1761.414062 88.078125 1761.859375 88.078125 C 1762.09375 88.023438 1762.324219 88.023438 1762.558594 88.078125 C 1762.859375 88.222656 1763.09375 88.441406 1763.261719 88.730469 C 1763.429688 89.019531 1763.5 89.332031 1763.476562 89.667969 L 1753.269531 286.707031 L 1834.160156 286.707031 C 1834.597656 286.695312 1834.980469 286.835938 1835.304688 287.125 L 1861.582031 311.980469 C 1861.890625 312.214844 1862.089844 312.519531 1862.179688 312.898438 C 1862.269531 313.277344 1862.226562 313.640625 1862.054688 313.988281 " fill-opacity="1" fill-rule="nonzero"/></g><g clip-path="url(#42a84f1c50)"><path fill="#fa5c21" d="M 1010.761719 134.015625 L 988.976562 113.320312 L 962.5625 88.496094 C 962.234375 88.210938 961.851562 88.070312 961.417969 88.078125 L 892.550781 88.078125 C 891.777344 88.125 891.105469 88.414062 890.539062 88.941406 C 889.730469 89.609375 854.082031 120.042969 847.777344 126.652344 C 847.164062 127.296875 847.222656 127.714844 847.222656 127.824219 L 842.757812 213.933594 C 842.714844 214.4375 842.882812 214.855469 843.261719 215.1875 L 866.382812 237.03125 L 843.261719 237.03125 C 843.027344 237.03125 842.804688 237.078125 842.589844 237.164062 C 842.375 237.253906 842.183594 237.378906 842.015625 237.539062 C 841.847656 237.699219 841.714844 237.882812 841.617188 238.09375 C 841.515625 238.304688 841.460938 238.527344 841.449219 238.757812 L 837.542969 313.261719 C 837.53125 313.488281 837.5625 313.703125 837.644531 313.914062 C 837.722656 314.125 837.839844 314.3125 837.996094 314.472656 C 838.152344 314.632812 838.332031 314.757812 838.539062 314.84375 C 838.746094 314.929688 838.964844 314.96875 839.1875 314.964844 L 866.773438 314.964844 C 867.007812 314.964844 867.230469 314.921875 867.445312 314.839844 C 867.660156 314.753906 867.851562 314.632812 868.019531 314.472656 C 868.1875 314.316406 868.320312 314.132812 868.417969 313.921875 C 868.515625 313.714844 868.574219 313.492188 868.589844 313.261719 L 874.890625 192.957031 L 898.433594 215.273438 C 898.738281 215.585938 899.113281 215.746094 899.550781 215.746094 L 954.753906 215.746094 C 955.203125 215.738281 955.59375 215.582031 955.921875 215.273438 L 984.820312 190.476562 L 1008.921875 169.75 C 1010.617188 168.28125 1011.960938 166.546875 1012.957031 164.539062 C 1013.953125 162.53125 1014.523438 160.410156 1014.667969 158.171875 L 1015.308594 145.648438 C 1015.371094 144.578125 1015.316406 143.515625 1015.148438 142.457031 C 1014.976562 141.398438 1014.695312 140.371094 1014.304688 139.375 C 1013.910156 138.378906 1013.417969 137.4375 1012.820312 136.546875 C 1012.222656 135.65625 1011.535156 134.84375 1010.761719 134.101562 M 979.214844 183.25 C 978.144531 184.464844 976.886719 185.433594 975.4375 186.160156 C 973.992188 186.882812 972.460938 187.308594 970.847656 187.433594 L 875.171875 187.433594 L 878.910156 116.386719 L 974.613281 116.386719 C 976.164062 116.503906 977.625 116.929688 978.996094 117.65625 C 980.371094 118.382812 981.539062 119.355469 982.507812 120.574219 C 983.507812 121.609375 984.253906 122.804688 984.738281 124.164062 C 985.226562 125.519531 985.410156 126.917969 985.296875 128.355469 L 982.839844 175.578125 C 982.792969 177.058594 982.46875 178.472656 981.859375 179.820312 C 981.25 181.167969 980.40625 182.347656 979.328125 183.363281 " fill-opacity="1" fill-rule="nonzero"/></g><g clip-path="url(#c288efd26e)"><path fill="#fa5c21" d="M 2064.339844 139.429688 L 2061.746094 189.109375 C 2061.734375 189.339844 2061.675781 189.5625 2061.578125 189.773438 C 2061.480469 189.984375 2061.347656 190.167969 2061.179688 190.328125 C 2061.011719 190.488281 2060.820312 190.613281 2060.605469 190.699219 C 2060.390625 190.789062 2060.167969 190.835938 2059.933594 190.835938 L 2032.347656 190.835938 C 2032.121094 190.835938 2031.90625 190.792969 2031.699219 190.703125 C 2031.488281 190.617188 2031.308594 190.488281 2031.152344 190.324219 C 2030.996094 190.164062 2030.878906 189.976562 2030.800781 189.761719 C 2030.722656 189.550781 2030.691406 189.332031 2030.703125 189.109375 L 2033.882812 128.410156 C 2033.894531 128.355469 2033.894531 128.300781 2033.882812 128.242188 C 2033.996094 126.804688 2033.808594 125.410156 2033.324219 124.054688 C 2032.835938 122.695312 2032.09375 121.5 2031.09375 120.460938 C 2030.121094 119.246094 2028.945312 118.277344 2027.566406 117.554688 C 2026.1875 116.832031 2024.722656 116.414062 2023.171875 116.304688 L 1938.847656 116.304688 C 1937.234375 116.425781 1935.703125 116.847656 1934.257812 117.566406 C 1932.808594 118.285156 1931.550781 119.25 1930.480469 120.460938 C 1929.398438 121.472656 1928.554688 122.65625 1927.949219 124.003906 C 1927.339844 125.351562 1927.011719 126.765625 1926.964844 128.242188 L 1926.964844 128.410156 L 1923.785156 189.109375 C 1923.769531 189.339844 1923.714844 189.5625 1923.617188 189.773438 C 1923.519531 189.984375 1923.386719 190.167969 1923.21875 190.328125 C 1923.050781 190.488281 1922.859375 190.613281 1922.640625 190.699219 C 1922.425781 190.789062 1922.203125 190.835938 1921.972656 190.835938 L 1894.414062 190.835938 C 1894.1875 190.84375 1893.96875 190.800781 1893.761719 190.714844 C 1893.550781 190.625 1893.371094 190.5 1893.21875 190.332031 C 1893.0625 190.167969 1892.949219 189.980469 1892.875 189.765625 C 1892.800781 189.550781 1892.773438 189.332031 1892.792969 189.109375 L 1895.527344 139.429688 C 1895.554688 138.914062 1895.769531 138.496094 1896.167969 138.171875 L 1949.667969 92.066406 C 1951.121094 90.796875 1952.746094 89.816406 1954.542969 89.128906 C 1956.339844 88.4375 1958.203125 88.078125 1960.128906 88.046875 L 2004.984375 88.046875 C 2006.851562 88.058594 2008.652344 88.40625 2010.386719 89.101562 C 2012.121094 89.796875 2013.667969 90.785156 2015.023438 92.066406 L 2037.5625 113.347656 L 2063.839844 138.171875 C 2064.21875 138.507812 2064.382812 138.925781 2064.339844 139.429688 " fill-opacity="1" fill-rule="nonzero"/></g><g clip-path="url(#a8b6363d11)"><path fill="#fa5c21" d="M 803.203125 244.894531 L 802.535156 257.417969 C 802.40625 259.65625 801.84375 261.777344 800.847656 263.785156 C 799.847656 265.789062 798.496094 267.515625 796.789062 268.96875 L 772.6875 289.691406 L 747.917969 310.976562 C 746.46875 312.238281 744.84375 313.214844 743.042969 313.902344 C 741.246094 314.585938 739.382812 314.941406 737.460938 314.964844 L 659.832031 314.964844 C 659.394531 314.976562 659.023438 314.828125 658.714844 314.519531 L 632.4375 289.691406 C 632.1875 289.445312 632.027344 289.148438 631.960938 288.800781 C 631.894531 288.453125 631.933594 288.121094 632.074219 287.796875 C 632.222656 287.464844 632.449219 287.203125 632.753906 287.007812 C 633.054688 286.808594 633.386719 286.710938 633.75 286.707031 L 758.769531 286.707031 C 760.382812 286.585938 761.910156 286.164062 763.359375 285.445312 C 764.804688 284.726562 766.066406 283.761719 767.136719 282.550781 C 768.1875 281.554688 769.011719 280.398438 769.609375 279.082031 C 770.207031 277.765625 770.535156 276.382812 770.597656 274.9375 L 773.078125 227.519531 C 773.195312 226.085938 773.007812 224.691406 772.523438 223.339844 C 772.035156 221.988281 771.292969 220.792969 770.289062 219.761719 C 769.320312 218.542969 768.144531 217.570312 766.765625 216.839844 C 765.390625 216.113281 763.921875 215.691406 762.367188 215.578125 C 762.136719 215.550781 761.902344 215.550781 761.671875 215.578125 L 692.660156 215.578125 C 692.214844 215.582031 691.832031 215.425781 691.519531 215.105469 L 665.242188 190.308594 L 643.316406 169.664062 C 642.542969 168.929688 641.859375 168.117188 641.261719 167.226562 C 640.664062 166.339844 640.167969 165.402344 639.777344 164.40625 C 639.382812 163.410156 639.101562 162.386719 638.933594 161.332031 C 638.765625 160.273438 638.710938 159.214844 638.769531 158.144531 L 639.414062 145.621094 C 639.554688 143.386719 640.125 141.261719 641.121094 139.257812 C 642.121094 137.25 643.464844 135.511719 645.160156 134.046875 L 669.285156 113.320312 L 694.027344 92.066406 C 695.476562 90.800781 697.09375 89.824219 698.886719 89.132812 C 700.683594 88.441406 702.539062 88.082031 704.460938 88.046875 L 782.117188 88.046875 C 782.542969 88.042969 782.914062 88.183594 783.234375 88.46875 L 809.507812 113.292969 C 809.765625 113.539062 809.925781 113.835938 809.992188 114.183594 C 810.058594 114.53125 810.019531 114.867188 809.871094 115.1875 C 809.726562 115.523438 809.503906 115.792969 809.199219 115.996094 C 808.898438 116.199219 808.5625 116.300781 808.199219 116.304688 L 683.207031 116.304688 C 681.59375 116.433594 680.0625 116.859375 678.613281 117.585938 C 677.167969 118.308594 675.910156 119.277344 674.835938 120.488281 C 673.769531 121.507812 672.933594 122.691406 672.332031 124.039062 C 671.726562 125.386719 671.402344 126.796875 671.351562 128.269531 C 671.351562 128.269531 671.351562 128.269531 671.351562 128.4375 L 668.867188 175.328125 L 668.867188 175.496094 C 668.738281 176.921875 668.90625 178.3125 669.367188 179.667969 C 669.828125 181.023438 670.546875 182.226562 671.519531 183.277344 C 672.492188 184.5 673.667969 185.476562 675.054688 186.207031 C 676.4375 186.933594 677.90625 187.351562 679.46875 187.460938 L 749.3125 187.460938 C 749.75 187.453125 750.121094 187.601562 750.429688 187.910156 L 776.734375 212.734375 L 798.65625 233.429688 C 799.429688 234.171875 800.113281 234.988281 800.710938 235.878906 C 801.304688 236.769531 801.800781 237.710938 802.191406 238.710938 C 802.582031 239.707031 802.867188 240.730469 803.035156 241.789062 C 803.207031 242.847656 803.261719 243.910156 803.203125 244.980469 " fill-opacity="1" fill-rule="nonzero"/></g><g clip-path="url(#974cee6308)"><path fill="#fa5c21" d="M 1537.121094 190.808594 L 1536.003906 212.203125 L 1556.703125 212.203125 C 1558.566406 212.210938 1560.367188 212.558594 1562.101562 213.246094 C 1563.835938 213.933594 1565.382812 214.917969 1566.742188 216.191406 L 1584.929688 233.347656 C 1585.703125 234.089844 1586.386719 234.90625 1586.980469 235.792969 C 1587.574219 236.683594 1588.070312 237.628906 1588.457031 238.625 C 1588.847656 239.621094 1589.128906 240.648438 1589.292969 241.707031 C 1589.460938 242.765625 1589.511719 243.828125 1589.449219 244.894531 L 1585.90625 313.261719 C 1585.890625 313.492188 1585.835938 313.714844 1585.738281 313.921875 C 1585.640625 314.132812 1585.503906 314.316406 1585.335938 314.472656 C 1585.167969 314.632812 1584.976562 314.753906 1584.761719 314.839844 C 1584.546875 314.921875 1584.324219 314.964844 1584.09375 314.964844 L 1556.507812 314.964844 C 1556.28125 314.96875 1556.066406 314.929688 1555.863281 314.84375 C 1555.65625 314.757812 1555.476562 314.632812 1555.320312 314.472656 C 1555.167969 314.308594 1555.054688 314.121094 1554.976562 313.914062 C 1554.902344 313.703125 1554.871094 313.484375 1554.886719 313.261719 L 1558.738281 239.539062 L 1533.464844 215.664062 L 1480.636719 215.664062 L 1475.53125 313.292969 C 1475.515625 313.523438 1475.460938 313.742188 1475.363281 313.949219 C 1475.261719 314.160156 1475.128906 314.34375 1474.960938 314.5 C 1474.792969 314.660156 1474.601562 314.78125 1474.386719 314.867188 C 1474.171875 314.949219 1473.949219 314.992188 1473.71875 314.992188 L 1446.128906 314.992188 C 1445.90625 314.996094 1445.691406 314.957031 1445.484375 314.871094 C 1445.28125 314.785156 1445.101562 314.660156 1444.945312 314.5 C 1444.792969 314.335938 1444.675781 314.152344 1444.601562 313.941406 C 1444.527344 313.730469 1444.496094 313.515625 1444.511719 313.292969 L 1454.582031 120.824219 C 1454.730469 118.578125 1455.304688 116.449219 1456.3125 114.4375 C 1457.320312 112.425781 1458.675781 110.683594 1460.382812 109.21875 L 1484.429688 88.496094 C 1484.734375 88.234375 1485.085938 88.085938 1485.488281 88.046875 C 1485.722656 87.996094 1485.953125 87.996094 1486.1875 88.046875 C 1486.492188 88.183594 1486.734375 88.394531 1486.90625 88.679688 C 1487.082031 88.964844 1487.15625 89.277344 1487.132812 89.609375 L 1482.03125 187.238281 L 1534.804688 187.238281 L 1562.699219 163.363281 L 1564.929688 120.65625 C 1565.074219 118.421875 1565.644531 116.296875 1566.640625 114.292969 C 1567.636719 112.285156 1568.980469 110.546875 1570.675781 109.082031 L 1594.777344 88.496094 C 1595.113281 88.210938 1595.503906 88.058594 1595.949219 88.046875 C 1596.179688 87.988281 1596.414062 87.988281 1596.644531 88.046875 C 1596.953125 88.183594 1597.191406 88.394531 1597.367188 88.679688 C 1597.539062 88.964844 1597.617188 89.277344 1597.59375 89.609375 L 1594.023438 157.921875 C 1593.878906 160.160156 1593.308594 162.28125 1592.3125 164.289062 C 1591.316406 166.292969 1589.972656 168.03125 1588.277344 169.5 L 1568.304688 186.652344 C 1566.847656 187.914062 1565.214844 188.886719 1563.414062 189.574219 C 1561.609375 190.257812 1559.746094 190.617188 1557.816406 190.640625 Z M 1537.121094 190.808594 " fill-opacity="1" fill-rule="nonzero"/></g><g clip-path="url(#54f65506f7)"><path fill="#fa5c21" d="M 2060.519531 239.457031 L 2056.53125 313.261719 C 2056.515625 313.496094 2056.460938 313.714844 2056.363281 313.925781 C 2056.265625 314.136719 2056.132812 314.324219 2055.964844 314.484375 C 2055.796875 314.644531 2055.605469 314.769531 2055.390625 314.855469 C 2055.175781 314.945312 2054.949219 314.988281 2054.71875 314.992188 L 2027.1875 314.992188 C 2026.960938 314.992188 2026.746094 314.949219 2026.539062 314.859375 C 2026.328125 314.769531 2026.148438 314.644531 2025.992188 314.480469 C 2025.835938 314.316406 2025.71875 314.128906 2025.640625 313.917969 C 2025.5625 313.707031 2025.53125 313.488281 2025.542969 313.261719 L 2030.117188 228.355469 C 2030.105469 228.289062 2030.105469 228.222656 2030.117188 228.160156 C 2030.222656 226.722656 2030.03125 225.328125 2029.546875 223.972656 C 2029.0625 222.617188 2028.320312 221.417969 2027.328125 220.375 C 2026.371094 219.144531 2025.203125 218.164062 2023.828125 217.429688 C 2022.453125 216.695312 2020.988281 216.273438 2019.433594 216.164062 L 1935.164062 216.164062 C 1933.546875 216.292969 1932.015625 216.71875 1930.566406 217.449219 C 1929.117188 218.179688 1927.863281 219.152344 1926.796875 220.375 C 1925.75 221.40625 1924.933594 222.59375 1924.351562 223.9375 C 1923.765625 225.285156 1923.457031 226.691406 1923.421875 228.160156 L 1923.421875 228.355469 L 1918.625 313.097656 C 1918.609375 313.328125 1918.554688 313.550781 1918.457031 313.761719 C 1918.359375 313.972656 1918.226562 314.15625 1918.058594 314.316406 C 1917.890625 314.476562 1917.699219 314.601562 1917.480469 314.6875 C 1917.265625 314.777344 1917.042969 314.824219 1916.8125 314.824219 L 1889.25 314.824219 C 1889.027344 314.824219 1888.8125 314.78125 1888.605469 314.691406 C 1888.398438 314.601562 1888.21875 314.476562 1888.066406 314.3125 C 1887.914062 314.148438 1887.796875 313.960938 1887.722656 313.75 C 1887.648438 313.539062 1887.617188 313.320312 1887.632812 313.097656 L 1891.847656 239.457031 C 1891.878906 238.9375 1892.09375 238.511719 1892.488281 238.171875 L 1921.328125 213.070312 L 1946.070312 191.703125 C 1947.515625 190.425781 1949.140625 189.4375 1950.9375 188.742188 C 1952.738281 188.046875 1954.601562 187.683594 1956.53125 187.65625 L 2001.300781 187.65625 C 2003.167969 187.664062 2004.96875 188.015625 2006.703125 188.710938 C 2008.4375 189.40625 2009.984375 190.390625 2011.34375 191.675781 L 2033.855469 213.070312 L 2060.101562 238.171875 C 2060.46875 238.523438 2060.636719 238.949219 2060.605469 239.457031 " fill-opacity="1" fill-rule="nonzero"/></g><g clip-path="url(#765da74221)"><path fill="#fa5c21" d="M 1209.589844 139.429688 L 1206.96875 189.109375 C 1206.957031 189.335938 1206.90625 189.554688 1206.808594 189.765625 C 1206.714844 189.972656 1206.582031 190.15625 1206.417969 190.316406 C 1206.25 190.476562 1206.0625 190.597656 1205.847656 190.683594 C 1205.632812 190.765625 1205.414062 190.808594 1205.183594 190.808594 L 1177.597656 190.808594 C 1177.371094 190.8125 1177.15625 190.773438 1176.949219 190.6875 C 1176.742188 190.601562 1176.558594 190.476562 1176.402344 190.316406 C 1176.246094 190.15625 1176.128906 189.96875 1176.050781 189.757812 C 1175.972656 189.550781 1175.9375 189.332031 1175.949219 189.109375 L 1179.128906 128.382812 C 1179.121094 128.328125 1179.121094 128.269531 1179.128906 128.214844 C 1179.230469 126.785156 1179.035156 125.394531 1178.550781 124.046875 C 1178.066406 122.695312 1177.328125 121.5 1176.339844 120.460938 C 1175.371094 119.242188 1174.195312 118.265625 1172.816406 117.539062 C 1171.441406 116.8125 1169.972656 116.390625 1168.417969 116.277344 L 1084.066406 116.277344 C 1082.453125 116.402344 1080.921875 116.828125 1079.476562 117.550781 C 1078.027344 118.277344 1076.769531 119.246094 1075.699219 120.460938 C 1074.625 121.46875 1073.78125 122.648438 1073.171875 123.988281 C 1072.566406 125.332031 1072.234375 126.742188 1072.183594 128.214844 C 1072.195312 128.269531 1072.195312 128.328125 1072.183594 128.382812 L 1069.003906 189.109375 C 1068.992188 189.339844 1068.933594 189.558594 1068.835938 189.765625 C 1068.738281 189.976562 1068.605469 190.160156 1068.4375 190.320312 C 1068.269531 190.476562 1068.078125 190.597656 1067.859375 190.683594 C 1067.644531 190.769531 1067.421875 190.808594 1067.191406 190.808594 L 1039.605469 190.808594 C 1039.378906 190.816406 1039.160156 190.78125 1038.953125 190.695312 C 1038.742188 190.613281 1038.558594 190.488281 1038.402344 190.324219 C 1038.246094 190.164062 1038.128906 189.976562 1038.050781 189.765625 C 1037.972656 189.550781 1037.945312 189.332031 1037.960938 189.109375 L 1040.554688 139.429688 C 1040.597656 138.917969 1040.8125 138.488281 1041.195312 138.144531 L 1070.09375 113.320312 L 1094.972656 92.066406 C 1096.421875 90.808594 1098.039062 89.835938 1099.824219 89.144531 C 1101.613281 88.457031 1103.464844 88.089844 1105.378906 88.046875 L 1150.203125 88.046875 C 1152.074219 88.054688 1153.878906 88.402344 1155.617188 89.089844 C 1157.355469 89.78125 1158.90625 90.761719 1160.273438 92.039062 L 1182.8125 113.320312 L 1209.089844 138.144531 C 1209.445312 138.5 1209.613281 138.925781 1209.589844 139.429688 " fill-opacity="1" fill-rule="nonzero"/></g><g clip-path="url(#1dc8662953)"><path fill="#fa5c21" d="M 1205.742188 239.429688 L 1201.78125 313.234375 C 1201.765625 313.46875 1201.710938 313.6875 1201.613281 313.898438 C 1201.515625 314.109375 1201.382812 314.296875 1201.214844 314.457031 C 1201.046875 314.617188 1200.851562 314.742188 1200.636719 314.828125 C 1200.421875 314.917969 1200.199219 314.960938 1199.96875 314.964844 L 1172.40625 314.964844 C 1172.183594 314.964844 1171.96875 314.921875 1171.761719 314.832031 C 1171.554688 314.742188 1171.375 314.617188 1171.222656 314.453125 C 1171.070312 314.289062 1170.953125 314.101562 1170.878906 313.890625 C 1170.804688 313.675781 1170.773438 313.460938 1170.789062 313.234375 L 1175.335938 228.328125 C 1175.328125 228.269531 1175.328125 228.214844 1175.335938 228.160156 C 1175.4375 226.71875 1175.242188 225.320312 1174.757812 223.960938 C 1174.273438 222.605469 1173.535156 221.398438 1172.546875 220.347656 C 1171.578125 219.128906 1170.402344 218.15625 1169.023438 217.425781 C 1167.644531 216.699219 1166.179688 216.277344 1164.625 216.164062 L 1080.414062 216.164062 C 1078.800781 216.292969 1077.269531 216.714844 1075.820312 217.441406 C 1074.375 218.164062 1073.113281 219.132812 1072.046875 220.347656 C 1070.972656 221.371094 1070.128906 222.558594 1069.523438 223.910156 C 1068.914062 225.261719 1068.582031 226.675781 1068.53125 228.160156 C 1068.539062 228.214844 1068.539062 228.269531 1068.53125 228.328125 L 1063.707031 313.097656 C 1063.691406 313.328125 1063.636719 313.550781 1063.539062 313.761719 C 1063.441406 313.972656 1063.308594 314.15625 1063.136719 314.316406 C 1062.96875 314.476562 1062.777344 314.601562 1062.5625 314.6875 C 1062.347656 314.777344 1062.125 314.824219 1061.890625 314.824219 L 1034.359375 314.824219 C 1034.132812 314.828125 1033.917969 314.789062 1033.707031 314.699219 C 1033.496094 314.613281 1033.3125 314.488281 1033.15625 314.324219 C 1033 314.160156 1032.882812 313.96875 1032.808594 313.757812 C 1032.730469 313.542969 1032.699219 313.324219 1032.714844 313.097656 L 1036.957031 239.429688 C 1036.988281 238.910156 1037.203125 238.484375 1037.597656 238.144531 L 1066.4375 213.039062 L 1091.152344 191.675781 C 1092.601562 190.398438 1094.222656 189.414062 1096.023438 188.71875 C 1097.820312 188.023438 1099.683594 187.660156 1101.613281 187.628906 L 1146.410156 187.628906 C 1148.277344 187.636719 1150.078125 187.988281 1151.8125 188.683594 C 1153.546875 189.375 1155.09375 190.363281 1156.453125 191.644531 L 1178.933594 213.039062 L 1205.183594 238.144531 C 1205.550781 238.496094 1205.71875 238.921875 1205.683594 239.429688 " fill-opacity="1" fill-rule="nonzero"/></g><g clip-path="url(#2647428815)"><path fill="#fa5c21" d="M 1414.414062 134.128906 L 1392.519531 113.433594 L 1366.242188 88.605469 C 1365.914062 88.316406 1365.535156 88.167969 1365.097656 88.160156 L 1296.199219 88.160156 C 1295.429688 88.226562 1294.757812 88.523438 1294.191406 89.050781 C 1293.410156 89.722656 1257.734375 120.152344 1251.429688 126.765625 C 1251.085938 127.078125 1250.898438 127.46875 1250.875 127.9375 L 1246.410156 214.046875 C 1246.382812 214.542969 1246.546875 214.960938 1246.914062 215.300781 L 1270.035156 237.140625 L 1246.941406 237.140625 C 1246.707031 237.144531 1246.484375 237.191406 1246.269531 237.277344 C 1246.054688 237.367188 1245.863281 237.488281 1245.695312 237.648438 C 1245.527344 237.808594 1245.394531 237.996094 1245.292969 238.207031 C 1245.195312 238.417969 1245.140625 238.636719 1245.128906 238.871094 L 1241.222656 313.347656 C 1241.207031 313.570312 1241.234375 313.789062 1241.3125 314 C 1241.386719 314.210938 1241.5 314.398438 1241.65625 314.5625 C 1241.808594 314.726562 1241.988281 314.855469 1242.195312 314.945312 C 1242.398438 315.03125 1242.613281 315.078125 1242.839844 315.078125 L 1270.425781 315.078125 C 1270.660156 315.074219 1270.882812 315.027344 1271.097656 314.941406 C 1271.3125 314.851562 1271.503906 314.726562 1271.671875 314.566406 C 1271.839844 314.40625 1271.972656 314.222656 1272.070312 314.011719 C 1272.167969 313.800781 1272.226562 313.578125 1272.238281 313.347656 L 1278.542969 193.070312 L 1302.113281 215.382812 C 1302.421875 215.691406 1302.792969 215.839844 1303.230469 215.832031 L 1358.402344 215.832031 C 1358.859375 215.828125 1359.257812 215.679688 1359.601562 215.382812 L 1388.472656 190.585938 L 1412.601562 169.832031 C 1414.296875 168.375 1415.640625 166.644531 1416.632812 164.640625 C 1417.625 162.636719 1418.1875 160.519531 1418.320312 158.285156 L 1418.988281 145.761719 C 1419.046875 144.691406 1418.992188 143.625 1418.820312 142.566406 C 1418.648438 141.507812 1418.363281 140.480469 1417.96875 139.484375 C 1417.574219 138.488281 1417.078125 137.546875 1416.476562 136.65625 C 1415.878906 135.765625 1415.191406 134.953125 1414.414062 134.210938 M 1382.894531 183.445312 C 1381.824219 184.660156 1380.5625 185.625 1379.117188 186.351562 C 1377.667969 187.074219 1376.140625 187.5 1374.527344 187.628906 L 1278.851562 187.628906 L 1282.5625 116.582031 L 1378.265625 116.582031 C 1379.820312 116.699219 1381.285156 117.117188 1382.664062 117.847656 C 1384.042969 118.574219 1385.214844 119.546875 1386.1875 120.769531 C 1387.191406 121.804688 1387.933594 123 1388.421875 124.359375 C 1388.90625 125.714844 1389.09375 127.113281 1388.976562 128.550781 L 1386.492188 175.773438 C 1386.449219 177.25 1386.125 178.664062 1385.523438 180.011719 C 1384.917969 181.359375 1384.078125 182.542969 1383.007812 183.558594 M 2270.839844 134.015625 L 2248.941406 113.320312 L 2222.640625 88.46875 C 2222.316406 88.195312 2221.945312 88.054688 2221.523438 88.046875 L 2152.625 88.046875 C 2151.84375 88.097656 2151.175781 88.394531 2150.617188 88.941406 C 2149.835938 89.609375 2114.160156 120.015625 2107.855469 126.652344 C 2107.488281 126.957031 2107.300781 127.347656 2107.296875 127.824219 L 2102.835938 213.90625 C 2102.808594 214.410156 2102.976562 214.835938 2103.335938 215.1875 L 2126.460938 237.03125 L 2103.335938 237.03125 C 2103.105469 237.027344 2102.882812 237.070312 2102.667969 237.15625 C 2102.453125 237.242188 2102.261719 237.363281 2102.09375 237.519531 C 2101.925781 237.679688 2101.789062 237.863281 2101.691406 238.070312 C 2101.59375 238.28125 2101.539062 238.5 2101.523438 238.730469 L 2097.617188 313.234375 C 2097.605469 313.460938 2097.640625 313.679688 2097.71875 313.890625 C 2097.796875 314.101562 2097.914062 314.289062 2098.070312 314.453125 C 2098.226562 314.617188 2098.40625 314.742188 2098.613281 314.832031 C 2098.820312 314.921875 2099.039062 314.964844 2099.265625 314.964844 L 2126.851562 314.964844 C 2127.082031 314.960938 2127.308594 314.917969 2127.523438 314.828125 C 2127.738281 314.742188 2127.929688 314.617188 2128.097656 314.457031 C 2128.265625 314.296875 2128.398438 314.109375 2128.496094 313.898438 C 2128.59375 313.6875 2128.652344 313.46875 2128.664062 313.234375 L 2134.96875 192.957031 L 2158.511719 215.273438 C 2158.828125 215.5625 2159.199219 215.710938 2159.625 215.71875 L 2214.828125 215.71875 C 2215.273438 215.707031 2215.664062 215.558594 2216 215.273438 L 2244.898438 190.445312 L 2269 169.722656 C 2270.726562 168.261719 2272.097656 166.519531 2273.121094 164.503906 C 2274.140625 162.484375 2274.730469 160.347656 2274.882812 158.089844 L 2275.527344 145.566406 C 2275.585938 144.496094 2275.53125 143.433594 2275.363281 142.375 C 2275.195312 141.316406 2274.914062 140.289062 2274.519531 139.292969 C 2274.128906 138.296875 2273.632812 137.351562 2273.035156 136.460938 C 2272.4375 135.574219 2271.753906 134.757812 2270.980469 134.015625 M 2239.457031 183.25 C 2238.382812 184.457031 2237.125 185.417969 2235.675781 186.136719 C 2234.230469 186.855469 2232.703125 187.28125 2231.089844 187.40625 L 2135.246094 187.40625 L 2138.984375 116.386719 L 2234.6875 116.386719 C 2236.242188 116.5 2237.707031 116.914062 2239.085938 117.636719 C 2240.464844 118.359375 2241.636719 119.328125 2242.609375 120.542969 C 2243.597656 121.589844 2244.335938 122.789062 2244.820312 124.144531 C 2245.308594 125.496094 2245.5 126.890625 2245.402344 128.328125 L 2242.917969 175.578125 C 2242.875 177.054688 2242.550781 178.46875 2241.949219 179.816406 C 2241.34375 181.164062 2240.503906 182.347656 2239.429688 183.363281 " fill-opacity="1" fill-rule="nonzero"/></g><path fill="#fa5c21" d="M 1386.019531 211.675781 C 1385.695312 211.375 1385.316406 211.226562 1384.875 211.226562 L 1361.777344 211.226562 L 1356.453125 214.660156 L 1381.722656 238.675781 L 1377.875 312.398438 C 1377.875 312.613281 1377.914062 312.816406 1377.996094 313.015625 C 1378.078125 313.210938 1378.195312 313.382812 1378.347656 313.53125 C 1378.5 313.683594 1378.675781 313.796875 1378.875 313.875 C 1379.074219 313.953125 1379.277344 313.992188 1379.492188 313.988281 L 1407.078125 313.988281 C 1407.308594 313.988281 1407.53125 313.945312 1407.746094 313.863281 C 1407.960938 313.777344 1408.15625 313.65625 1408.324219 313.496094 C 1408.492188 313.339844 1408.625 313.15625 1408.722656 312.945312 C 1408.820312 312.738281 1408.878906 312.519531 1408.890625 312.285156 L 1412.796875 237.78125 C 1412.832031 237.277344 1412.664062 236.847656 1412.292969 236.5 Z M 1386.019531 211.675781 " fill-opacity="1" fill-rule="nonzero"/><g clip-path="url(#4e6e9ffe8f)"><path fill="#fa5c21" d="M 2269.585938 237.085938 C 2269.605469 236.582031 2269.4375 236.15625 2269.082031 235.800781 L 2242.804688 210.976562 C 2242.484375 210.675781 2242.101562 210.527344 2241.664062 210.53125 L 2218.566406 210.53125 L 2213.238281 213.960938 L 2238.621094 237.867188 L 2236.472656 276.917969 C 2235.867188 279.066406 2234.769531 280.925781 2233.183594 282.496094 C 2232.109375 283.707031 2230.851562 284.667969 2229.402344 285.386719 C 2227.957031 286.105469 2226.425781 286.527344 2224.816406 286.652344 L 2130.421875 286.652344 C 2130.03125 286.652344 2130.085938 287.125 2130.226562 287.292969 L 2152.289062 314.492188 C 2152.613281 314.789062 2152.996094 314.9375 2153.433594 314.9375 L 2236.195312 314.9375 C 2236.640625 314.925781 2237.027344 314.777344 2237.367188 314.492188 L 2261.46875 293.765625 C 2263.171875 292.308594 2264.523438 290.574219 2265.523438 288.5625 C 2266.519531 286.554688 2267.082031 284.429688 2267.214844 282.191406 L 2269.445312 240.097656 C 2269.457031 240.003906 2269.457031 239.910156 2269.445312 239.820312 Z M 2269.585938 237.085938 " fill-opacity="1" fill-rule="nonzero"/></g></svg>