<svg width="1920" height="1080" viewBox="0 0 1920 1080" fill="none" xmlns="http://www.w3.org/2000/svg">
<g filter="url(#filter0_dd_1_133)">
<rect width="1920" height="1080" fill="url(#paint0_radial_1_133)"/>
<path d="M119.189 929.963L114.241 930.27C114.216 929.835 114.097 929.447 113.884 929.107C113.679 928.757 113.376 928.48 112.976 928.276C112.584 928.071 112.089 927.969 111.493 927.969C110.598 927.969 109.801 928.173 109.102 928.582C108.403 928.991 108.007 929.516 107.913 930.155C107.837 930.564 107.943 930.909 108.233 931.19C108.523 931.472 109.107 931.71 109.984 931.906L113.436 932.622C115.277 933.014 116.607 933.666 117.425 934.578C118.251 935.49 118.545 936.683 118.307 938.158C118.094 939.411 117.544 940.506 116.658 941.443C115.771 942.372 114.646 943.097 113.283 943.616C111.919 944.128 110.406 944.384 108.744 944.384C106.077 944.384 104.048 943.838 102.659 942.747C101.27 941.656 100.601 940.178 100.652 938.311L105.97 938.03C106.013 938.831 106.294 939.436 106.814 939.845C107.334 940.246 108.045 940.45 108.949 940.459C109.963 940.476 110.824 940.267 111.531 939.832C112.247 939.389 112.652 938.852 112.746 938.222C112.814 937.778 112.686 937.42 112.362 937.148C112.047 936.875 111.467 936.649 110.624 936.47L107.351 935.793C105.493 935.409 104.159 934.723 103.349 933.734C102.54 932.746 102.263 931.489 102.518 929.963C102.723 928.744 103.23 927.7 104.04 926.831C104.858 925.953 105.911 925.28 107.197 924.811C108.493 924.342 109.955 924.108 111.582 924.108C114.131 924.108 116.048 924.632 117.335 925.68C118.631 926.729 119.249 928.156 119.189 929.963ZM118.843 951.364L123.368 924.364H128.738L128.188 927.662H128.431C128.755 927.134 129.185 926.597 129.722 926.051C130.268 925.497 130.945 925.037 131.755 924.67C132.564 924.295 133.515 924.108 134.606 924.108C136.046 924.108 137.303 924.483 138.377 925.233C139.451 925.974 140.226 927.095 140.704 928.595C141.189 930.087 141.245 931.957 140.87 934.207C140.512 936.398 139.851 938.247 138.888 939.756C137.934 941.256 136.787 942.393 135.449 943.169C134.12 943.936 132.709 944.32 131.218 944.32C130.161 944.32 129.292 944.145 128.61 943.795C127.937 943.446 127.412 943.007 127.037 942.479C126.662 941.942 126.398 941.401 126.245 940.855H126.04L124.302 951.364H118.843ZM127.063 934.182C126.876 935.349 126.867 936.368 127.037 937.237C127.216 938.107 127.574 938.784 128.111 939.27C128.648 939.747 129.356 939.986 130.233 939.986C131.12 939.986 131.908 939.743 132.599 939.257C133.289 938.763 133.864 938.081 134.324 937.212C134.785 936.334 135.113 935.324 135.309 934.182C135.488 933.048 135.492 932.051 135.322 931.19C135.151 930.33 134.802 929.656 134.273 929.17C133.745 928.685 133.029 928.442 132.126 928.442C131.248 928.442 130.459 928.676 129.76 929.145C129.07 929.614 128.495 930.278 128.035 931.139C127.574 932 127.251 933.014 127.063 934.182ZM147.676 944.371C146.432 944.371 145.354 944.153 144.442 943.719C143.539 943.276 142.874 942.619 142.448 941.75C142.022 940.881 141.915 939.803 142.128 938.516C142.316 937.425 142.669 936.513 143.189 935.78C143.718 935.038 144.361 934.442 145.12 933.99C145.878 933.538 146.718 933.193 147.638 932.955C148.567 932.716 149.526 932.554 150.515 932.469C151.657 932.349 152.586 932.234 153.301 932.124C154.026 932.013 154.567 931.855 154.925 931.651C155.283 931.437 155.5 931.122 155.577 930.705V930.628C155.705 929.827 155.556 929.205 155.13 928.761C154.712 928.31 154.043 928.084 153.123 928.084C152.151 928.084 151.324 928.297 150.642 928.723C149.969 929.149 149.488 929.69 149.198 930.347L144.238 929.938C144.681 928.744 145.35 927.713 146.245 926.844C147.148 925.966 148.235 925.293 149.505 924.824C150.774 924.347 152.198 924.108 153.774 924.108C154.865 924.108 155.884 924.236 156.83 924.491C157.784 924.747 158.607 925.143 159.297 925.68C159.996 926.217 160.499 926.908 160.806 927.751C161.121 928.587 161.185 929.588 160.998 930.756L158.786 944H153.621L154.081 941.277H153.928C153.51 941.891 152.999 942.432 152.394 942.901C151.789 943.361 151.094 943.723 150.31 943.987C149.526 944.243 148.648 944.371 147.676 944.371ZM149.863 940.612C150.655 940.612 151.384 940.455 152.049 940.139C152.722 939.815 153.276 939.381 153.711 938.835C154.154 938.29 154.435 937.672 154.554 936.982L154.887 934.898C154.716 935.009 154.469 935.107 154.145 935.192C153.83 935.277 153.485 935.358 153.11 935.435C152.743 935.503 152.373 935.567 151.998 935.626C151.623 935.678 151.286 935.729 150.988 935.78C150.331 935.874 149.743 936.023 149.223 936.227C148.703 936.432 148.282 936.709 147.958 937.058C147.634 937.399 147.434 937.825 147.357 938.337C147.238 939.078 147.412 939.645 147.881 940.037C148.358 940.42 149.019 940.612 149.863 940.612ZM162.291 944L165.564 924.364H170.844L170.268 927.79H170.473C171.035 926.571 171.79 925.651 172.736 925.028C173.69 924.398 174.717 924.082 175.817 924.082C176.089 924.082 176.375 924.099 176.673 924.134C176.98 924.159 177.253 924.202 177.491 924.261L176.673 929.107C176.434 929.021 176.094 928.953 175.65 928.902C175.216 928.842 174.802 928.812 174.41 928.812C173.618 928.812 172.88 928.987 172.199 929.337C171.517 929.678 170.942 930.155 170.473 930.768C170.013 931.382 169.71 932.089 169.565 932.891L167.737 944H162.291ZM182.169 938.349L183.256 931.817H184.049L191.604 924.364H197.855L187.782 934.233H186.478L182.169 938.349ZM176.301 944L180.648 917.818H186.094L181.747 944H176.301ZM188.574 944L184.228 935.447L188.485 931.599L194.953 944H188.574ZM206.327 917.818L201.981 944H196.535L200.881 917.818H206.327ZM211.171 944.371C209.927 944.371 208.849 944.153 207.937 943.719C207.034 943.276 206.369 942.619 205.943 941.75C205.517 940.881 205.41 939.803 205.623 938.516C205.811 937.425 206.164 936.513 206.684 935.78C207.213 935.038 207.856 934.442 208.615 933.99C209.373 933.538 210.213 933.193 211.133 932.955C212.062 932.716 213.021 932.554 214.01 932.469C215.152 932.349 216.081 932.234 216.796 932.124C217.521 932.013 218.062 931.855 218.42 931.651C218.778 931.437 218.995 931.122 219.072 930.705V930.628C219.2 929.827 219.051 929.205 218.625 928.761C218.207 928.31 217.538 928.084 216.618 928.084C215.646 928.084 214.819 928.297 214.137 928.723C213.464 929.149 212.983 929.69 212.693 930.347L207.733 929.938C208.176 928.744 208.845 927.713 209.74 926.844C210.643 925.966 211.73 925.293 213 924.824C214.269 924.347 215.693 924.108 217.269 924.108C218.36 924.108 219.379 924.236 220.325 924.491C221.279 924.747 222.102 925.143 222.792 925.68C223.491 926.217 223.994 926.908 224.301 927.751C224.616 928.587 224.68 929.588 224.493 930.756L222.281 944H217.116L217.576 941.277H217.423C217.005 941.891 216.494 942.432 215.889 942.901C215.284 943.361 214.589 943.723 213.805 943.987C213.021 944.243 212.143 944.371 211.171 944.371ZM213.358 940.612C214.15 940.612 214.879 940.455 215.544 940.139C216.217 939.815 216.771 939.381 217.206 938.835C217.649 938.29 217.93 937.672 218.049 936.982L218.382 934.898C218.211 935.009 217.964 935.107 217.64 935.192C217.325 935.277 216.98 935.358 216.605 935.435C216.238 935.503 215.868 935.567 215.493 935.626C215.118 935.678 214.781 935.729 214.483 935.78C213.826 935.874 213.238 936.023 212.718 936.227C212.198 936.432 211.777 936.709 211.453 937.058C211.129 937.399 210.929 937.825 210.852 938.337C210.733 939.078 210.907 939.645 211.376 940.037C211.853 940.42 212.514 940.612 213.358 940.612ZM225.888 944L230.235 917.818H235.681L234.07 927.662H234.223C234.547 927.134 234.982 926.597 235.527 926.051C236.081 925.497 236.759 925.037 237.56 924.67C238.361 924.295 239.312 924.108 240.411 924.108C241.843 924.108 243.1 924.483 244.182 925.233C245.265 925.974 246.045 927.095 246.522 928.595C246.999 930.087 247.05 931.957 246.675 934.207C246.317 936.398 245.657 938.247 244.694 939.756C243.739 941.256 242.593 942.393 241.255 943.169C239.925 943.936 238.515 944.32 237.023 944.32C235.966 944.32 235.097 944.145 234.415 943.795C233.742 943.446 233.218 943.007 232.843 942.479C232.468 941.942 232.199 941.401 232.037 940.855H231.769L231.258 944H225.888ZM232.856 934.182C232.668 935.349 232.664 936.368 232.843 937.237C233.03 938.107 233.388 938.784 233.917 939.27C234.454 939.747 235.157 939.986 236.026 939.986C236.921 939.986 237.714 939.743 238.404 939.257C239.103 938.763 239.682 938.081 240.143 937.212C240.603 936.334 240.927 935.324 241.114 934.182C241.293 933.048 241.297 932.051 241.127 931.19C240.956 930.33 240.607 929.656 240.079 929.17C239.55 928.685 238.834 928.442 237.931 928.442C237.053 928.442 236.265 928.676 235.566 929.145C234.875 929.614 234.296 930.278 233.827 931.139C233.367 932 233.043 933.014 232.856 934.182ZM251.379 944.332C250.518 944.332 249.811 944.034 249.257 943.438C248.711 942.841 248.464 942.116 248.515 941.264C248.575 940.42 248.929 939.709 249.576 939.129C250.233 938.541 250.987 938.247 251.839 938.247C252.657 938.247 253.348 938.541 253.91 939.129C254.473 939.717 254.72 940.429 254.652 941.264C254.609 941.827 254.426 942.342 254.102 942.811C253.787 943.271 253.386 943.642 252.9 943.923C252.414 944.196 251.907 944.332 251.379 944.332ZM266.776 944.384C264.757 944.384 263.095 943.957 261.791 943.105C260.495 942.244 259.587 941.051 259.068 939.526C258.556 938 258.467 936.244 258.799 934.259C259.123 932.247 259.801 930.483 260.832 928.966C261.863 927.44 263.171 926.251 264.757 925.399C266.35 924.538 268.14 924.108 270.126 924.108C271.839 924.108 273.288 924.419 274.472 925.041C275.657 925.663 276.526 926.537 277.08 927.662C277.634 928.787 277.822 930.108 277.643 931.625H272.516C272.525 930.653 272.274 929.865 271.762 929.26C271.251 928.655 270.501 928.352 269.512 928.352C268.66 928.352 267.876 928.582 267.16 929.043C266.453 929.494 265.852 930.155 265.357 931.024C264.872 931.893 264.531 932.946 264.335 934.182C264.13 935.435 264.126 936.5 264.322 937.378C264.518 938.256 264.893 938.925 265.447 939.385C266.001 939.845 266.7 940.075 267.543 940.075C268.174 940.075 268.758 939.947 269.295 939.692C269.84 939.436 270.318 939.065 270.727 938.58C271.136 938.085 271.451 937.493 271.673 936.803H276.812C276.462 938.311 275.828 939.632 274.907 940.766C273.995 941.899 272.849 942.786 271.468 943.425C270.087 944.064 268.524 944.384 266.776 944.384ZM278.364 944L281.637 924.364H287.083L283.81 944H278.364ZM284.923 921.807C284.113 921.807 283.444 921.538 282.915 921.001C282.396 920.456 282.182 919.808 282.276 919.058C282.37 918.291 282.736 917.643 283.376 917.115C284.015 916.578 284.739 916.31 285.549 916.31C286.359 916.31 287.019 916.578 287.53 917.115C288.042 917.643 288.255 918.291 288.17 919.058C288.084 919.808 287.722 920.456 287.083 921.001C286.452 921.538 285.732 921.807 284.923 921.807ZM301.17 924.364L300.493 928.455H288.655L289.345 924.364H301.17ZM292.797 919.659H298.243L295.2 937.966C295.115 938.469 295.128 938.861 295.238 939.142C295.349 939.415 295.532 939.607 295.788 939.717C296.052 939.828 296.368 939.884 296.734 939.884C296.99 939.884 297.25 939.862 297.514 939.82C297.778 939.768 297.978 939.73 298.115 939.705L298.319 943.757C298.013 943.851 297.599 943.953 297.079 944.064C296.568 944.175 295.963 944.243 295.264 944.268C293.934 944.32 292.809 944.145 291.889 943.744C290.968 943.335 290.308 942.709 289.907 941.865C289.507 941.021 289.422 939.96 289.652 938.682L292.797 919.659ZM302.886 951.364C302.187 951.364 301.548 951.308 300.968 951.197C300.388 951.095 299.911 950.963 299.536 950.801L301.454 946.736C302.059 946.932 302.609 947.034 303.103 947.043C303.606 947.051 304.066 946.923 304.484 946.659C304.901 946.395 305.285 945.96 305.634 945.355L306.12 944.524L302.438 924.364H307.961L309.623 938.81H309.827L316.334 924.364H322.305L311.067 946.122C310.513 947.188 309.857 948.112 309.099 948.896C308.349 949.68 307.458 950.286 306.427 950.712C305.404 951.146 304.224 951.364 302.886 951.364Z" fill="#E9682E"/>
<path d="M340.18 944.384C338.194 944.384 336.476 943.962 335.028 943.118C333.587 942.266 332.475 941.081 331.691 939.564C330.907 938.038 330.515 936.27 330.515 934.259C330.515 932.23 330.907 930.457 331.691 928.94C332.475 927.415 333.587 926.23 335.028 925.386C336.476 924.534 338.194 924.108 340.18 924.108C342.165 924.108 343.878 924.534 345.319 925.386C346.768 926.23 347.884 927.415 348.668 928.94C349.452 930.457 349.844 932.23 349.844 934.259C349.844 936.27 349.452 938.038 348.668 939.564C347.884 941.081 346.768 942.266 345.319 943.118C343.878 943.962 342.165 944.384 340.18 944.384ZM340.205 940.165C341.109 940.165 341.863 939.909 342.468 939.398C343.073 938.878 343.529 938.17 343.836 937.276C344.151 936.381 344.309 935.362 344.309 934.22C344.309 933.078 344.151 932.06 343.836 931.165C343.529 930.27 343.073 929.562 342.468 929.043C341.863 928.523 341.109 928.263 340.205 928.263C339.293 928.263 338.526 928.523 337.904 929.043C337.29 929.562 336.826 930.27 336.511 931.165C336.204 932.06 336.05 933.078 336.05 934.22C336.05 935.362 336.204 936.381 336.511 937.276C336.826 938.17 337.29 938.878 337.904 939.398C338.526 939.909 339.293 940.165 340.205 940.165ZM363.225 924.364V928.455H351.106V924.364H363.225ZM353.88 944V922.945C353.88 921.521 354.157 920.341 354.711 919.403C355.274 918.466 356.041 917.763 357.012 917.294C357.984 916.825 359.087 916.591 360.323 916.591C361.158 916.591 361.921 916.655 362.612 916.783C363.31 916.911 363.83 917.026 364.171 917.128L363.2 921.219C362.987 921.151 362.722 921.087 362.407 921.027C362.1 920.967 361.785 920.938 361.461 920.938C360.66 920.938 360.102 921.125 359.786 921.5C359.471 921.866 359.313 922.382 359.313 923.047V944H353.88ZM106.788 992H100.857L109.895 965.818H117.028L126.054 992H120.122L113.564 971.801H113.359L106.788 992ZM106.418 981.709H120.429V986.03H106.418V981.709ZM128.383 992V972.364H133.663V975.79H133.867C134.225 974.571 134.826 973.651 135.67 973.028C136.514 972.398 137.485 972.082 138.585 972.082C138.857 972.082 139.151 972.099 139.467 972.134C139.782 972.168 140.059 972.214 140.298 972.274V977.107C140.042 977.03 139.688 976.962 139.237 976.902C138.785 976.842 138.372 976.812 137.997 976.812C137.195 976.812 136.48 976.987 135.849 977.337C135.227 977.678 134.732 978.155 134.366 978.768C134.008 979.382 133.829 980.089 133.829 980.891V992H128.383ZM153.822 972.364V976.455H141.997V972.364H153.822ZM144.682 967.659H150.128V985.966C150.128 986.469 150.205 986.861 150.358 987.142C150.511 987.415 150.724 987.607 150.997 987.717C151.278 987.828 151.602 987.884 151.969 987.884C152.224 987.884 152.48 987.862 152.736 987.82C152.991 987.768 153.187 987.73 153.324 987.705L154.18 991.757C153.908 991.842 153.524 991.94 153.03 992.051C152.535 992.17 151.935 992.243 151.227 992.268C149.915 992.32 148.764 992.145 147.776 991.744C146.795 991.344 146.033 990.722 145.487 989.878C144.942 989.034 144.673 987.969 144.682 986.682V967.659ZM156.65 992V972.364H162.096V992H156.65ZM159.386 969.832C158.576 969.832 157.882 969.564 157.302 969.027C156.731 968.482 156.445 967.83 156.445 967.071C156.445 966.321 156.731 965.678 157.302 965.141C157.882 964.595 158.576 964.322 159.386 964.322C160.195 964.322 160.886 964.595 161.457 965.141C162.036 965.678 162.326 966.321 162.326 967.071C162.326 967.83 162.036 968.482 161.457 969.027C160.886 969.564 160.195 969.832 159.386 969.832ZM182.077 977.963L177.091 978.27C177.006 977.844 176.822 977.46 176.541 977.119C176.26 976.77 175.889 976.493 175.429 976.288C174.977 976.075 174.436 975.969 173.805 975.969C172.962 975.969 172.25 976.148 171.67 976.506C171.091 976.855 170.801 977.324 170.801 977.912C170.801 978.381 170.989 978.777 171.364 979.101C171.739 979.425 172.382 979.685 173.294 979.881L176.848 980.597C178.757 980.989 180.18 981.619 181.118 982.489C182.055 983.358 182.524 984.5 182.524 985.915C182.524 987.202 182.145 988.331 181.386 989.303C180.636 990.274 179.605 991.033 178.293 991.578C176.989 992.115 175.484 992.384 173.78 992.384C171.18 992.384 169.109 991.842 167.567 990.76C166.033 989.669 165.133 988.186 164.869 986.311L170.226 986.03C170.388 986.822 170.78 987.428 171.402 987.845C172.024 988.254 172.821 988.459 173.793 988.459C174.747 988.459 175.514 988.276 176.094 987.909C176.682 987.534 176.98 987.053 176.989 986.464C176.98 985.97 176.771 985.565 176.362 985.25C175.953 984.926 175.322 984.679 174.47 984.509L171.07 983.831C169.152 983.447 167.724 982.783 166.787 981.837C165.858 980.891 165.393 979.685 165.393 978.219C165.393 976.957 165.734 975.871 166.416 974.959C167.107 974.047 168.074 973.344 169.318 972.849C170.571 972.355 172.037 972.108 173.716 972.108C176.196 972.108 178.148 972.632 179.571 973.68C181.003 974.729 181.838 976.156 182.077 977.963ZM195.678 972.364V976.455H183.853V972.364H195.678ZM186.537 967.659H191.983V985.966C191.983 986.469 192.06 986.861 192.214 987.142C192.367 987.415 192.58 987.607 192.853 987.717C193.134 987.828 193.458 987.884 193.824 987.884C194.08 987.884 194.336 987.862 194.591 987.82C194.847 987.768 195.043 987.73 195.179 987.705L196.036 991.757C195.763 991.842 195.38 991.94 194.885 992.051C194.391 992.17 193.79 992.243 193.083 992.268C191.77 992.32 190.62 992.145 189.631 991.744C188.651 991.344 187.888 990.722 187.343 989.878C186.797 989.034 186.529 987.969 186.537 986.682V967.659ZM209.301 983.601C208.457 983.601 207.733 983.303 207.128 982.706C206.531 982.101 206.233 981.376 206.233 980.533C206.233 979.697 206.531 978.982 207.128 978.385C207.733 977.788 208.457 977.49 209.301 977.49C210.119 977.49 210.835 977.788 211.449 978.385C212.062 978.982 212.369 979.697 212.369 980.533C212.369 981.095 212.224 981.611 211.934 982.08C211.653 982.54 211.282 982.911 210.822 983.192C210.362 983.464 209.855 983.601 209.301 983.601ZM223.835 992V965.818H229.37V976.621H240.607V965.818H246.13V992H240.607V981.185H229.37V992H223.835ZM255.471 992.371C254.218 992.371 253.102 992.153 252.122 991.719C251.142 991.276 250.366 990.624 249.795 989.763C249.233 988.893 248.951 987.811 248.951 986.516C248.951 985.425 249.152 984.509 249.552 983.767C249.953 983.026 250.498 982.429 251.188 981.977C251.879 981.526 252.663 981.185 253.541 980.955C254.427 980.724 255.356 980.562 256.328 980.469C257.47 980.349 258.39 980.239 259.089 980.136C259.788 980.026 260.295 979.864 260.61 979.651C260.926 979.437 261.083 979.122 261.083 978.705V978.628C261.083 977.818 260.828 977.192 260.316 976.749C259.813 976.305 259.098 976.084 258.169 976.084C257.188 976.084 256.409 976.301 255.829 976.736C255.25 977.162 254.866 977.699 254.679 978.347L249.642 977.938C249.897 976.744 250.4 975.713 251.15 974.844C251.9 973.966 252.867 973.293 254.052 972.824C255.245 972.347 256.626 972.108 258.194 972.108C259.285 972.108 260.329 972.236 261.326 972.491C262.332 972.747 263.223 973.143 263.998 973.68C264.782 974.217 265.4 974.908 265.852 975.751C266.304 976.587 266.529 977.588 266.529 978.756V992H261.365V989.277H261.211C260.896 989.891 260.474 990.432 259.946 990.901C259.417 991.361 258.782 991.723 258.041 991.987C257.299 992.243 256.443 992.371 255.471 992.371ZM257.031 988.612C257.832 988.612 258.539 988.455 259.153 988.139C259.767 987.815 260.248 987.381 260.598 986.835C260.947 986.29 261.122 985.672 261.122 984.982V982.898C260.951 983.009 260.717 983.111 260.419 983.205C260.129 983.29 259.801 983.371 259.434 983.447C259.068 983.516 258.701 983.58 258.335 983.639C257.968 983.69 257.636 983.737 257.338 983.78C256.698 983.874 256.14 984.023 255.663 984.227C255.186 984.432 254.815 984.709 254.551 985.058C254.287 985.399 254.154 985.825 254.154 986.337C254.154 987.078 254.423 987.645 254.96 988.037C255.505 988.42 256.196 988.612 257.031 988.612ZM278.907 992.384C276.895 992.384 275.165 991.957 273.716 991.105C272.276 990.244 271.168 989.051 270.393 987.526C269.625 986 269.242 984.244 269.242 982.259C269.242 980.247 269.63 978.483 270.405 976.966C271.189 975.44 272.302 974.251 273.742 973.399C275.182 972.538 276.895 972.108 278.881 972.108C280.594 972.108 282.094 972.419 283.381 973.041C284.668 973.663 285.687 974.537 286.437 975.662C287.187 976.787 287.6 978.108 287.677 979.625H282.537C282.393 978.645 282.009 977.857 281.387 977.26C280.773 976.655 279.968 976.352 278.971 976.352C278.127 976.352 277.39 976.582 276.759 977.043C276.137 977.494 275.651 978.155 275.302 979.024C274.952 979.893 274.777 980.946 274.777 982.182C274.777 983.435 274.948 984.5 275.289 985.378C275.638 986.256 276.128 986.925 276.759 987.385C277.39 987.845 278.127 988.075 278.971 988.075C279.593 988.075 280.151 987.947 280.645 987.692C281.148 987.436 281.562 987.065 281.885 986.58C282.218 986.085 282.435 985.493 282.537 984.803H287.677C287.591 986.303 287.182 987.624 286.449 988.766C285.725 989.899 284.723 990.786 283.445 991.425C282.167 992.064 280.654 992.384 278.907 992.384ZM295.378 986.349L295.391 979.817H296.184L302.473 972.364H308.725L300.274 982.233H298.983L295.378 986.349ZM290.443 992V965.818H295.889V992H290.443ZM302.716 992L296.938 983.447L300.568 979.599L309.095 992H302.716ZM318.817 992.384C316.797 992.384 315.058 991.974 313.601 991.156C312.152 990.33 311.036 989.162 310.252 987.653C309.467 986.136 309.075 984.342 309.075 982.271C309.075 980.251 309.467 978.479 310.252 976.953C311.036 975.428 312.139 974.239 313.563 973.386C314.994 972.534 316.673 972.108 318.6 972.108C319.895 972.108 321.101 972.317 322.217 972.734C323.342 973.143 324.323 973.761 325.158 974.588C326.002 975.415 326.658 976.455 327.127 977.707C327.595 978.952 327.83 980.409 327.83 982.08V983.575H311.249V980.2H322.703C322.703 979.416 322.533 978.722 322.192 978.116C321.851 977.511 321.378 977.038 320.773 976.697C320.176 976.348 319.482 976.173 318.689 976.173C317.862 976.173 317.129 976.365 316.49 976.749C315.859 977.124 315.365 977.631 315.007 978.27C314.649 978.901 314.466 979.604 314.457 980.379V983.588C314.457 984.56 314.636 985.399 314.994 986.107C315.361 986.814 315.877 987.359 316.541 987.743C317.206 988.126 317.994 988.318 318.906 988.318C319.511 988.318 320.065 988.233 320.568 988.062C321.071 987.892 321.502 987.636 321.859 987.295C322.217 986.955 322.49 986.537 322.678 986.043L327.715 986.375C327.459 987.585 326.935 988.642 326.142 989.545C325.358 990.44 324.344 991.139 323.1 991.642C321.864 992.136 320.436 992.384 318.817 992.384ZM330.664 992V972.364H335.943V975.79H336.148C336.506 974.571 337.107 973.651 337.951 973.028C338.794 972.398 339.766 972.082 340.865 972.082C341.138 972.082 341.432 972.099 341.747 972.134C342.063 972.168 342.34 972.214 342.578 972.274V977.107C342.323 977.03 341.969 976.962 341.517 976.902C341.066 976.842 340.652 976.812 340.277 976.812C339.476 976.812 338.76 976.987 338.13 977.337C337.507 977.678 337.013 978.155 336.647 978.768C336.289 979.382 336.11 980.089 336.11 980.891V992H330.664ZM355.469 983.601C354.626 983.601 353.901 983.303 353.296 982.706C352.699 982.101 352.401 981.376 352.401 980.533C352.401 979.697 352.699 978.982 353.296 978.385C353.901 977.788 354.626 977.49 355.469 977.49C356.288 977.49 357.003 977.788 357.617 978.385C358.231 978.982 358.538 979.697 358.538 980.533C358.538 981.095 358.393 981.611 358.103 982.08C357.822 982.54 357.451 982.911 356.991 983.192C356.53 983.464 356.023 983.601 355.469 983.601ZM370.003 992V965.818H380.486C382.412 965.818 384.019 966.104 385.306 966.675C386.593 967.246 387.56 968.038 388.208 969.053C388.855 970.058 389.179 971.217 389.179 972.53C389.179 973.553 388.975 974.452 388.566 975.227C388.156 975.994 387.594 976.625 386.878 977.119C386.171 977.605 385.361 977.95 384.449 978.155V978.411C385.446 978.453 386.379 978.734 387.249 979.254C388.127 979.774 388.838 980.503 389.384 981.44C389.929 982.369 390.202 983.477 390.202 984.764C390.202 986.153 389.857 987.393 389.166 988.484C388.485 989.567 387.475 990.423 386.137 991.054C384.799 991.685 383.149 992 381.189 992H370.003ZM375.539 987.474H380.051C381.594 987.474 382.719 987.18 383.426 986.592C384.134 985.996 384.487 985.203 384.487 984.214C384.487 983.49 384.313 982.851 383.963 982.297C383.614 981.743 383.115 981.308 382.468 980.993C381.828 980.678 381.066 980.52 380.179 980.52H375.539V987.474ZM375.539 976.774H379.642C380.401 976.774 381.074 976.642 381.662 976.378C382.259 976.105 382.728 975.722 383.068 975.227C383.418 974.733 383.593 974.141 383.593 973.45C383.593 972.504 383.256 971.741 382.583 971.162C381.918 970.582 380.972 970.293 379.745 970.293H375.539V976.774ZM405.574 983.639V972.364H411.02V992H405.791V988.433H405.587C405.144 989.584 404.406 990.509 403.375 991.207C402.352 991.906 401.104 992.256 399.629 992.256C398.317 992.256 397.162 991.957 396.165 991.361C395.168 990.764 394.388 989.916 393.825 988.817C393.271 987.717 392.99 986.401 392.982 984.866V972.364H398.428V983.895C398.436 985.054 398.747 985.97 399.361 986.643C399.974 987.317 400.797 987.653 401.828 987.653C402.484 987.653 403.098 987.504 403.669 987.206C404.24 986.899 404.7 986.447 405.05 985.851C405.408 985.254 405.582 984.517 405.574 983.639ZM414.656 992V972.364H420.102V992H414.656ZM417.392 969.832C416.582 969.832 415.888 969.564 415.308 969.027C414.737 968.482 414.452 967.83 414.452 967.071C414.452 966.321 414.737 965.678 415.308 965.141C415.888 964.595 416.582 964.322 417.392 964.322C418.202 964.322 418.892 964.595 419.463 965.141C420.042 965.678 420.332 966.321 420.332 967.071C420.332 967.83 420.042 968.482 419.463 969.027C418.892 969.564 418.202 969.832 417.392 969.832ZM429.191 965.818V992H423.745V965.818H429.191ZM440.069 992.32C438.578 992.32 437.227 991.936 436.017 991.169C434.815 990.393 433.86 989.256 433.153 987.756C432.454 986.247 432.105 984.398 432.105 982.207C432.105 979.957 432.467 978.087 433.191 976.595C433.916 975.095 434.879 973.974 436.08 973.233C437.291 972.483 438.616 972.108 440.056 972.108C441.156 972.108 442.072 972.295 442.805 972.67C443.546 973.037 444.143 973.497 444.595 974.051C445.055 974.597 445.404 975.134 445.643 975.662H445.809V965.818H451.242V992H445.873V988.855H445.643C445.387 989.401 445.025 989.942 444.556 990.479C444.096 991.007 443.495 991.446 442.754 991.795C442.021 992.145 441.126 992.32 440.069 992.32ZM441.795 987.986C442.673 987.986 443.414 987.747 444.019 987.27C444.633 986.784 445.102 986.107 445.426 985.237C445.758 984.368 445.924 983.349 445.924 982.182C445.924 981.014 445.762 980 445.438 979.139C445.115 978.278 444.646 977.614 444.032 977.145C443.419 976.676 442.673 976.442 441.795 976.442C440.9 976.442 440.146 976.685 439.532 977.17C438.919 977.656 438.454 978.33 438.139 979.19C437.823 980.051 437.666 981.048 437.666 982.182C437.666 983.324 437.823 984.334 438.139 985.212C438.463 986.081 438.927 986.763 439.532 987.257C440.146 987.743 440.9 987.986 441.795 987.986ZM463.949 992.384C461.929 992.384 460.19 991.974 458.733 991.156C457.284 990.33 456.168 989.162 455.384 987.653C454.599 986.136 454.207 984.342 454.207 982.271C454.207 980.251 454.599 978.479 455.384 976.953C456.168 975.428 457.271 974.239 458.695 973.386C460.126 972.534 461.805 972.108 463.732 972.108C465.027 972.108 466.233 972.317 467.349 972.734C468.474 973.143 469.455 973.761 470.29 974.588C471.134 975.415 471.79 976.455 472.259 977.707C472.727 978.952 472.962 980.409 472.962 982.08V983.575H456.381V980.2H467.835C467.835 979.416 467.665 978.722 467.324 978.116C466.983 977.511 466.51 977.038 465.905 976.697C465.308 976.348 464.614 976.173 463.821 976.173C462.994 976.173 462.261 976.365 461.622 976.749C460.991 977.124 460.497 977.631 460.139 978.27C459.781 978.901 459.598 979.604 459.59 980.379V983.588C459.59 984.56 459.768 985.399 460.126 986.107C460.493 986.814 461.009 987.359 461.673 987.743C462.338 988.126 463.126 988.318 464.038 988.318C464.643 988.318 465.197 988.233 465.7 988.062C466.203 987.892 466.634 987.636 466.991 987.295C467.349 986.955 467.622 986.537 467.81 986.043L472.847 986.375C472.591 987.585 472.067 988.642 471.274 989.545C470.49 990.44 469.476 991.139 468.232 991.642C466.996 992.136 465.568 992.384 463.949 992.384ZM475.796 992V972.364H481.075V975.79H481.28C481.638 974.571 482.239 973.651 483.083 973.028C483.926 972.398 484.898 972.082 485.997 972.082C486.27 972.082 486.564 972.099 486.879 972.134C487.195 972.168 487.472 972.214 487.71 972.274V977.107C487.455 977.03 487.101 976.962 486.649 976.902C486.198 976.842 485.784 976.812 485.409 976.812C484.608 976.812 483.892 976.987 483.262 977.337C482.639 977.678 482.145 978.155 481.779 978.768C481.421 979.382 481.242 980.089 481.242 980.891V992H475.796Z" fill="#4E4E4E"/>
<path d="M724.98 810.664C707.968 808.152 691.122 804.623 674.533 800.097C629.246 749.753 577.282 705.844 520.087 669.592C459.104 631.263 392.883 601.983 323.493 582.668C314.24 572.459 305.583 562.071 297.583 551.623C383.105 536.455 466.171 509.743 544.505 472.222C566.654 461.595 588.743 449.834 610.175 437.416L614.832 434.67C687.726 391.984 737.457 363.268 785.217 317C752.322 375.745 739.726 432.64 723.069 516.221C719.547 536.101 716.084 556.34 713.577 576.399C705.081 654.592 708.848 733.633 724.741 810.664" fill="#E9682E"/>
<path d="M766.944 826.664C754.967 826.613 743.005 825.836 731.123 824.336C710.392 821.72 689.879 817.59 669.751 811.978C598.722 791.46 531.138 760.495 469.217 720.099C412.53 684.423 360.732 641.516 315.13 592.459C303.362 579.601 292.282 566.13 281.936 552.101C230.892 482.849 216.922 422.611 242.474 382.671C287.488 311.986 445.934 330.732 610.946 426.074C622.349 432.641 633.513 439.446 644.139 446.252C675.271 466.173 705.066 488.11 733.332 511.923C854.345 613.951 909.628 723.323 870.643 784.038C852.733 812.098 816.435 826.903 766.765 826.903M345.875 354.373C302.831 354.373 270.354 366.313 254.772 390.193C232.982 424.462 247.19 480.282 293.697 543.445C303.739 557.063 314.501 570.136 325.935 582.608C370.651 630.801 421.467 672.947 477.097 707.98C537.734 747.511 603.908 777.811 673.452 797.889C692.917 803.304 712.75 807.295 732.795 809.829C795.063 817.471 839.719 805.411 858.524 775.919C892.673 722.188 837.271 618.429 723.899 522.848C696.155 499.482 666.876 478.001 636.259 458.551C625.811 451.864 614.886 445.178 603.662 438.73C508.142 383.686 413.934 354.373 345.875 354.373Z" fill="#E9682E"/>
<path d="M1109.54 349.456C1103.95 349.456 1098.72 348.924 1093.87 347.861C1089.06 346.798 1084.44 345.273 1080 343.285L1079.79 322.068H1093.87L1096.57 332.885C1098.15 333.671 1099.86 334.295 1101.71 334.757C1103.6 335.219 1105.75 335.45 1108.15 335.45C1112.68 335.45 1115.87 334.711 1117.72 333.231C1119.57 331.752 1120.5 329.903 1120.5 327.685C1120.5 325.604 1119.5 323.779 1117.51 322.207C1115.57 320.589 1111.67 319.179 1105.8 317.978C1096.92 316.129 1090.38 313.263 1086.17 309.38C1081.97 305.497 1079.86 300.528 1079.86 294.473C1079.86 290.312 1080.9 286.522 1082.98 283.102C1085.11 279.681 1088.32 276.931 1092.62 274.851C1096.97 272.771 1102.51 271.73 1109.26 271.73C1114.9 271.73 1120.06 272.285 1124.72 273.395C1129.44 274.458 1133.39 275.868 1136.58 277.624L1136.79 298.147H1122.78L1120.63 288.302C1119.39 287.377 1117.91 286.684 1116.2 286.222C1114.53 285.759 1112.64 285.528 1110.51 285.528C1106.95 285.528 1104.22 286.245 1102.33 287.678C1100.43 289.111 1099.49 290.96 1099.49 293.225C1099.49 294.519 1099.81 295.721 1100.46 296.83C1101.15 297.939 1102.49 298.979 1104.48 299.95C1106.47 300.921 1109.36 301.845 1113.15 302.724C1122.44 304.85 1129.21 307.693 1133.46 311.252C1137.71 314.765 1139.84 319.711 1139.84 326.09C1139.84 333.07 1137.3 338.709 1132.21 343.008C1127.17 347.307 1119.62 349.456 1109.54 349.456ZM1143.69 348V335.866L1153.47 333.786V254.119L1142.65 252.039V239.836H1173.65V282.547C1176 279.08 1178.91 276.399 1182.38 274.504C1185.89 272.562 1189.87 271.592 1194.31 271.592C1201.84 271.592 1207.8 274.111 1212.2 279.149C1216.63 284.142 1218.85 291.884 1218.85 302.377V333.786L1228.56 335.866V348H1189.87V335.866L1198.61 333.786V302.238C1198.61 296.83 1197.59 292.993 1195.56 290.729C1193.52 288.464 1190.54 287.331 1186.61 287.331C1183.88 287.331 1181.39 287.909 1179.12 289.064C1176.9 290.174 1175.08 291.815 1173.65 293.987V333.786L1182.38 335.866V348H1143.69ZM1230.19 348V335.866L1239.97 333.786V287.262L1229.15 285.182V272.979H1260.22V333.786L1269.92 335.866V348H1230.19ZM1239.28 257.101V239.836H1260.22V257.101H1239.28ZM1271.97 376.844V364.641L1281.75 362.561V287.262L1270.93 285.182V272.979H1300.33L1301.3 281.715C1303.52 278.479 1306.2 275.983 1309.34 274.227C1312.49 272.47 1316.23 271.592 1320.58 271.592C1326.63 271.592 1331.81 273.256 1336.11 276.584C1340.41 279.866 1343.69 284.465 1345.95 290.382C1348.26 296.299 1349.42 303.209 1349.42 311.113V312.569C1349.42 319.965 1348.26 326.437 1345.95 331.983C1343.69 337.484 1340.38 341.783 1336.04 344.88C1331.74 347.931 1326.54 349.456 1320.44 349.456C1316.42 349.456 1312.86 348.74 1309.76 347.307C1306.71 345.827 1304.1 343.678 1301.93 340.858V362.561L1311.7 364.641V376.844H1271.97ZM1314.41 333.925C1319.58 333.925 1323.33 332.007 1325.64 328.17C1328 324.333 1329.17 319.133 1329.17 312.569V311.113C1329.17 306.352 1328.64 302.215 1327.58 298.702C1326.52 295.143 1324.88 292.369 1322.66 290.382C1320.48 288.348 1317.69 287.331 1314.27 287.331C1311.49 287.331 1309.04 287.955 1306.92 289.203C1304.84 290.451 1303.17 292.231 1301.93 294.542V327.407C1303.17 329.534 1304.84 331.151 1306.92 332.261C1309.04 333.37 1311.54 333.925 1314.41 333.925ZM1384.1 348V335.866L1393.87 333.786V287.262L1383.06 285.182V272.979H1414.12V333.786L1423.83 335.866V348H1384.1ZM1393.18 257.101V239.836H1414.12V257.101H1393.18ZM1455.83 349.456C1448.85 349.456 1443.46 347.538 1439.67 343.701C1435.93 339.865 1434.06 333.786 1434.06 325.466V287.192H1423.73V272.979H1434.06V254.604H1454.23V272.979H1468.03V287.192H1454.23V325.396C1454.23 328.309 1454.83 330.389 1456.04 331.637C1457.28 332.885 1458.97 333.509 1461.1 333.509C1462.25 333.509 1463.46 333.439 1464.7 333.301C1466 333.116 1467.11 332.931 1468.03 332.746L1469.77 347.376C1467.69 347.977 1465.42 348.462 1462.97 348.832C1460.57 349.248 1458.19 349.456 1455.83 349.456Z" fill="#333333"/>
<path d="M1076.61 490V477.866L1086.38 475.786V429.262L1075.57 427.182V414.979H1105.17L1106 424.894C1108.41 421.288 1111.41 418.515 1115.02 416.573C1118.67 414.586 1122.88 413.592 1127.64 413.592C1132.44 413.592 1136.56 414.655 1139.98 416.781C1143.45 418.908 1146.03 422.12 1147.74 426.419C1150.06 422.397 1153.06 419.254 1156.76 416.989C1160.46 414.724 1164.8 413.592 1169.79 413.592C1177.19 413.592 1183.01 416.111 1187.27 421.149C1191.56 426.188 1193.71 433.861 1193.71 444.169V475.786L1203.49 477.866V490H1164.73V477.866L1173.47 475.786V444.1C1173.47 438.553 1172.54 434.716 1170.69 432.59C1168.89 430.417 1166.26 429.331 1162.79 429.331C1159.65 429.331 1156.99 430.232 1154.82 432.035C1152.64 433.792 1151.07 436.126 1150.1 439.038V475.786L1158.28 477.866V490H1121.74V477.866L1129.92 475.786V444.1C1129.92 438.691 1129 434.878 1127.15 432.659C1125.35 430.44 1122.67 429.331 1119.11 429.331C1116.24 429.331 1113.77 429.909 1111.69 431.064C1109.61 432.22 1107.9 433.884 1106.56 436.057V475.786L1115.29 477.866V490H1076.61ZM1241.04 491.456C1233.64 491.456 1227.29 489.838 1221.97 486.603C1216.66 483.367 1212.59 478.883 1209.77 473.151C1206.95 467.373 1205.54 460.74 1205.54 453.252V451.796C1205.54 444.354 1206.95 437.767 1209.77 432.035C1212.59 426.257 1216.63 421.75 1221.9 418.515C1227.22 415.233 1233.55 413.592 1240.9 413.592C1248.34 413.592 1254.7 415.233 1259.97 418.515C1265.24 421.75 1269.28 426.234 1272.1 431.966C1274.92 437.698 1276.33 444.308 1276.33 451.796V453.252C1276.33 460.74 1274.92 467.373 1272.1 473.151C1269.28 478.883 1265.24 483.367 1259.97 486.603C1254.7 489.838 1248.39 491.456 1241.04 491.456ZM1241.04 475.925C1244.55 475.925 1247.42 474.977 1249.64 473.082C1251.86 471.187 1253.5 468.552 1254.56 465.178C1255.62 461.757 1256.16 457.782 1256.16 453.252V451.796C1256.16 447.358 1255.62 443.452 1254.56 440.078C1253.5 436.658 1251.83 434 1249.57 432.104C1247.35 430.163 1244.46 429.192 1240.9 429.192C1237.43 429.192 1234.57 430.163 1232.3 432.104C1230.04 434 1228.37 436.658 1227.31 440.078C1226.29 443.452 1225.79 447.358 1225.79 451.796V453.252C1225.79 457.782 1226.29 461.757 1227.31 465.178C1228.37 468.598 1230.04 471.256 1232.3 473.151C1234.57 475 1237.48 475.925 1241.04 475.925ZM1280.39 490V477.866L1290.1 475.786V429.262L1279.35 427.182V414.979H1308.96L1309.86 425.726C1312.36 421.889 1315.43 418.908 1319.08 416.781C1322.78 414.655 1326.99 413.592 1331.7 413.592C1339.14 413.592 1344.97 415.972 1349.17 420.733C1353.38 425.494 1355.48 432.96 1355.48 443.129V475.786L1365.19 477.866V490H1326.5V477.866L1335.17 475.786V443.198C1335.17 438.16 1334.17 434.601 1332.19 432.521C1330.2 430.394 1327.24 429.331 1323.31 429.331C1320.4 429.331 1317.86 429.955 1315.68 431.203C1313.56 432.405 1311.78 434.138 1310.35 436.403V475.786L1318.53 477.866V490H1280.39ZM1395.6 491.456C1389.64 491.456 1384.5 489.931 1380.21 486.88C1375.95 483.783 1372.69 479.484 1370.43 473.983C1368.16 468.437 1367.03 461.965 1367.03 454.569V453.113C1367.03 445.209 1368.16 438.299 1370.43 432.382C1372.74 426.465 1376.02 421.866 1380.27 418.584C1384.53 415.256 1389.61 413.592 1395.53 413.592C1399.64 413.592 1403.25 414.424 1406.35 416.088C1409.44 417.706 1412.12 420.017 1414.39 423.021V396.119L1403.57 394.039V381.836H1414.39H1434.63V475.786L1444.34 477.866V490H1417.09L1415.57 480.848C1413.21 484.314 1410.39 486.949 1407.11 488.752C1403.87 490.555 1400.04 491.456 1395.6 491.456ZM1401.63 475.717C1404.45 475.717 1406.92 475.116 1409.05 473.914C1411.18 472.712 1412.96 470.979 1414.39 468.714V436.889C1413 434.485 1411.24 432.636 1409.12 431.342C1406.99 430.001 1404.54 429.331 1401.77 429.331C1398.39 429.331 1395.62 430.348 1393.45 432.382C1391.32 434.369 1389.75 437.143 1388.73 440.702C1387.76 444.261 1387.28 448.398 1387.28 453.113V454.569C1387.28 461.133 1388.39 466.31 1390.61 470.101C1392.82 473.845 1396.5 475.717 1401.63 475.717ZM1471.63 491.456C1464.19 491.456 1458.27 489.468 1453.88 485.493C1449.49 481.472 1447.29 476.017 1447.29 469.13C1447.29 462.058 1450.16 456.326 1455.89 451.935C1461.62 447.497 1470.01 445.278 1481.06 445.278H1490.97V439.731C1490.97 436.126 1489.91 433.214 1487.78 430.995C1485.7 428.73 1482.56 427.598 1478.35 427.598C1476.18 427.598 1474.24 427.875 1472.53 428.43C1470.82 428.938 1469.25 429.678 1467.82 430.648L1466.22 440.563H1451.66L1451.38 421.08C1455.31 418.861 1459.56 417.059 1464.14 415.672C1468.72 414.285 1473.82 413.592 1479.46 413.592C1489.26 413.592 1497.01 415.88 1502.69 420.456C1508.38 424.986 1511.22 431.48 1511.22 439.939V470.863C1511.22 471.88 1511.22 472.897 1511.22 473.914C1511.27 474.885 1511.36 475.832 1511.5 476.757L1519.33 477.866V490H1494.23C1493.72 488.706 1493.22 487.319 1492.71 485.84C1492.2 484.361 1491.83 482.882 1491.6 481.402C1489.19 484.453 1486.35 486.903 1483.07 488.752C1479.83 490.555 1476.02 491.456 1471.63 491.456ZM1477.04 476.479C1479.86 476.479 1482.54 475.855 1485.08 474.607C1487.62 473.313 1489.59 471.626 1490.97 469.546V457.689H1480.99C1476.55 457.689 1473.18 458.706 1470.87 460.74C1468.6 462.774 1467.47 465.224 1467.47 468.09C1467.47 470.771 1468.3 472.851 1469.96 474.33C1471.68 475.763 1474.03 476.479 1477.04 476.479ZM1539.89 520.3C1538.14 520.3 1536.27 520.138 1534.28 519.814C1532.34 519.537 1530.49 519.144 1528.73 518.636L1531.02 503.798C1531.9 503.983 1532.87 504.121 1533.93 504.214C1534.99 504.306 1535.92 504.353 1536.7 504.353C1539.62 504.353 1542.14 503.59 1544.26 502.064C1546.39 500.539 1547.94 498.343 1548.91 495.478L1550.57 490.832L1525.47 428.499L1516.25 427.182V414.979H1556.05V427.182L1546.9 428.568L1558.68 461.642L1560.14 465.732H1560.56L1574.49 428.43L1565.55 427.182V414.979H1602.64V427.182L1594.18 428.36L1565.55 501.163C1564.16 504.63 1562.38 507.796 1560.21 510.662C1558.08 513.574 1555.36 515.909 1552.03 517.665C1548.75 519.422 1544.7 520.3 1539.89 520.3Z" fill="#E9682E"/>
<path d="M790.345 315.345L884.218 235.172L978.09 155" stroke="#999999" stroke-width="2"/>
<path d="M1769 156L1779 160.774V149.226L1769 154V156ZM979 155V156H1770V155V154H979V155Z" fill="#999999"/>
<g clip-path="url(#clip0_1_133)">
<path d="M1556 827.825C1556 819.09 1563.08 812 1571.81 812C1580.54 812 1587.62 819.09 1587.62 827.825C1587.62 836.559 1580.47 843.65 1571.81 843.65C1563.15 843.65 1556 836.559 1556 827.825ZM1586.66 827.825C1586.66 819.604 1580.02 812.959 1571.81 812.959C1563.6 812.959 1556.96 819.673 1556.96 827.825C1556.96 835.977 1563.6 842.691 1571.81 842.691C1580.02 842.691 1586.66 836.046 1586.66 827.825ZM1571.54 821.283H1567.94V820.015C1569.62 819.741 1570.89 819.33 1571.91 818.816H1573.42V836.422H1571.54V821.283Z" fill="#4E4E4E"/>
<path d="M1606.17 841.184C1604.83 841.184 1603.57 841.047 1602.4 840.807C1601.24 840.533 1600.11 840.19 1599.05 839.711V834.607H1602.4L1603.05 837.21C1603.43 837.416 1603.84 837.553 1604.29 837.656C1604.73 837.758 1605.24 837.827 1605.83 837.827C1606.92 837.827 1607.67 837.656 1608.12 837.279C1608.56 836.902 1608.8 836.491 1608.8 835.943C1608.8 835.429 1608.56 834.984 1608.08 834.607C1607.6 834.23 1606.68 833.888 1605.24 833.579C1603.12 833.134 1601.51 832.449 1600.52 831.49C1599.53 830.531 1599.02 829.366 1599.02 827.893C1599.02 826.9 1599.25 825.975 1599.77 825.153C1600.28 824.331 1601.07 823.68 1602.1 823.167C1603.12 822.653 1604.46 822.413 1606.1 822.413C1607.47 822.413 1608.7 822.55 1609.83 822.824C1610.96 823.098 1611.92 823.441 1612.67 823.852V828.818H1609.35L1608.84 826.455C1608.53 826.215 1608.19 826.078 1607.78 825.941C1607.37 825.838 1606.92 825.77 1606.41 825.77C1605.55 825.77 1604.9 825.941 1604.42 826.284C1603.94 826.626 1603.74 827.071 1603.74 827.619C1603.74 827.928 1603.81 828.236 1603.98 828.476C1604.15 828.75 1604.46 828.99 1604.94 829.229C1605.41 829.469 1606.1 829.675 1607.02 829.914C1609.25 830.428 1610.89 831.113 1611.92 831.97C1612.94 832.826 1613.46 834.025 1613.46 835.566C1613.46 837.245 1612.84 838.615 1611.61 839.642C1610.38 840.67 1608.56 841.184 1606.13 841.184H1606.17Z" fill="#E76737"/>
<path d="M1622.25 841.115C1620.92 841.115 1619.86 840.738 1619.07 839.95C1618.28 839.163 1617.91 837.895 1617.91 836.183V825.187H1615.06V822.755H1617.91V818.405H1621.19V822.755H1625.13V825.187H1621.19V836.183C1621.19 837.039 1621.36 837.69 1621.7 838.101C1622.05 838.512 1622.52 838.717 1623.11 838.717C1623.48 838.717 1623.93 838.683 1624.41 838.615C1624.89 838.546 1625.26 838.478 1625.54 838.409L1625.98 840.567C1625.5 840.704 1624.92 840.841 1624.2 840.944C1623.52 841.047 1622.87 841.115 1622.25 841.115Z" fill="#4E4E4E"/>
<path d="M1635.97 841.184C1634.3 841.184 1632.86 840.807 1631.63 840.053C1630.4 839.3 1629.44 838.238 1628.75 836.868C1628.07 835.498 1627.76 833.922 1627.76 832.141V831.422C1627.76 829.709 1628.1 828.167 1628.82 826.797C1629.54 825.461 1630.46 824.365 1631.63 823.578C1632.79 822.79 1634.09 822.413 1635.49 822.413C1637.14 822.413 1638.47 822.755 1639.57 823.406C1640.66 824.091 1641.48 825.016 1642.03 826.215C1642.58 827.414 1642.85 828.853 1642.85 830.497V832.552H1631.11V832.62C1631.11 833.785 1631.29 834.813 1631.66 835.703C1632.04 836.594 1632.59 837.313 1633.34 837.827C1634.09 838.341 1634.95 838.58 1635.94 838.58C1637.07 838.58 1638.03 838.409 1638.88 838.101C1639.74 837.793 1640.46 837.347 1641.07 836.799L1642.37 838.923C1641.72 839.54 1640.87 840.088 1639.81 840.499C1638.75 840.944 1637.48 841.149 1635.97 841.149V841.184ZM1631.25 829.983H1639.6V829.538C1639.6 828.681 1639.46 827.893 1639.16 827.208C1638.85 826.523 1638.4 825.975 1637.79 825.599C1637.17 825.187 1636.42 825.016 1635.49 825.016C1634.78 825.016 1634.09 825.222 1633.48 825.667C1632.86 826.078 1632.38 826.66 1632 827.414C1631.63 828.167 1631.35 828.99 1631.25 829.914V829.983Z" fill="#4E4E4E"/>
<path d="M1651.54 841.184C1649.66 841.184 1648.22 840.738 1647.27 839.814C1646.27 838.889 1645.79 837.587 1645.79 835.943C1645.79 834.299 1646.51 832.86 1647.92 831.798C1649.32 830.771 1651.27 830.223 1653.77 830.223H1656.98V828.442C1656.98 827.345 1656.64 826.489 1655.99 825.907C1655.34 825.29 1654.38 825.016 1653.19 825.016C1652.43 825.016 1651.78 825.119 1651.2 825.29C1650.65 825.461 1650.14 825.736 1649.7 826.044L1649.35 828.579H1646.82V824.434C1647.64 823.783 1648.57 823.269 1649.66 822.927C1650.76 822.584 1651.95 822.413 1653.25 822.413C1655.44 822.413 1657.16 822.927 1658.42 823.989C1659.69 825.05 1660.3 826.523 1660.3 828.476V837.176C1660.3 837.416 1660.3 837.621 1660.3 837.861C1660.3 838.101 1660.3 838.306 1660.34 838.546L1662.08 838.717V840.841H1657.36C1657.26 840.362 1657.19 839.916 1657.12 839.505C1657.05 839.094 1657.02 838.717 1657.02 838.341C1656.37 839.163 1655.58 839.848 1654.62 840.362C1653.67 840.91 1652.64 841.184 1651.58 841.184H1651.54ZM1652.02 838.409C1653.12 838.409 1654.11 838.135 1655 837.621C1655.89 837.108 1656.54 836.457 1656.95 835.737V832.449H1653.6C1652.09 832.449 1650.96 832.826 1650.17 833.545C1649.39 834.265 1649.05 835.087 1649.05 835.977C1649.05 836.765 1649.29 837.382 1649.76 837.793C1650.24 838.204 1651 838.409 1651.99 838.409H1652.02Z" fill="#4E4E4E"/>
<path d="M1664.44 840.841V838.717L1667.18 838.238V817.309L1664.44 816.83V814.706H1670.47V838.238L1673.21 838.717V840.841H1664.48H1664.44Z" fill="#4E4E4E"/>
<path d="M1681.9 841.115C1680.56 841.115 1679.5 840.738 1678.71 839.95C1677.93 839.163 1677.55 837.895 1677.55 836.183V825.187H1674.71V822.755H1677.55V818.405H1680.84V822.755H1684.77V825.187H1680.84V836.183C1680.84 837.039 1681.01 837.69 1681.35 838.101C1681.69 838.512 1682.17 838.717 1682.75 838.717C1683.13 838.717 1683.57 838.683 1684.05 838.615C1684.53 838.546 1684.91 838.478 1685.18 838.409L1685.63 840.567C1685.15 840.704 1684.57 840.841 1683.85 840.944C1683.16 841.047 1682.51 841.115 1681.9 841.115Z" fill="#4E4E4E"/>
<path d="M1687.3 840.841V838.717L1690.04 838.238V817.309L1687.3 816.83V814.706H1693.33V825.119C1693.94 824.263 1694.73 823.578 1695.62 823.098C1696.51 822.619 1697.54 822.379 1698.63 822.379C1700.58 822.379 1702.09 822.961 1703.15 824.126C1704.21 825.29 1704.76 827.071 1704.76 829.469V838.238L1707.49 838.717V840.841H1698.77V838.717L1701.51 838.238V829.435C1701.51 827.928 1701.2 826.832 1700.55 826.112C1699.9 825.393 1698.94 825.05 1697.67 825.05C1696.78 825.05 1695.96 825.256 1695.21 825.701C1694.46 826.147 1693.87 826.729 1693.4 827.448V838.238L1696.13 838.717V840.841H1687.41H1687.3Z" fill="#4E4E4E"/>
<path d="M1556 875.779C1556 867.045 1563.08 859.954 1571.81 859.954C1580.54 859.954 1587.62 867.045 1587.62 875.779C1587.62 884.514 1580.47 891.604 1571.81 891.604C1563.15 891.604 1556 884.514 1556 875.779ZM1586.66 875.779C1586.66 867.559 1580.02 860.913 1571.81 860.913C1563.6 860.913 1556.96 867.627 1556.96 875.779C1556.96 883.932 1563.6 890.645 1571.81 890.645C1580.02 890.645 1586.66 884 1586.66 875.779ZM1566.06 883.212C1572.25 877.697 1575.47 874.478 1575.47 871.532C1575.47 869.408 1574.24 867.901 1571.5 867.901C1569.76 867.901 1568.22 868.894 1567.09 870.059L1565.92 869.031C1567.5 867.353 1569.35 866.36 1571.67 866.36C1575.2 866.36 1577.39 868.346 1577.39 871.429C1577.39 874.82 1573.9 878.177 1568.9 882.835C1569.93 882.767 1571.13 882.698 1572.46 882.698H1578.24V884.377H1566.06V883.212Z" fill="#4E4E4E"/>
<path d="M1606.17 889.138C1604.83 889.138 1603.57 889.001 1602.4 888.761C1601.24 888.487 1600.11 888.145 1599.05 887.665V882.561H1602.4L1603.05 885.165C1603.43 885.37 1603.84 885.507 1604.29 885.61C1604.73 885.713 1605.24 885.781 1605.83 885.781C1606.92 885.781 1607.67 885.61 1608.12 885.233C1608.56 884.856 1608.8 884.445 1608.8 883.897C1608.8 883.383 1608.56 882.938 1608.08 882.561C1607.6 882.185 1606.68 881.842 1605.24 881.534C1603.12 881.089 1601.51 880.403 1600.52 879.444C1599.53 878.485 1599.02 877.321 1599.02 875.848C1599.02 874.854 1599.25 873.93 1599.77 873.108C1600.28 872.285 1601.07 871.635 1602.1 871.121C1603.12 870.607 1604.46 870.367 1606.1 870.367C1607.47 870.367 1608.7 870.504 1609.83 870.778C1610.96 871.052 1611.92 871.395 1612.67 871.806V876.773H1609.35L1608.84 874.409C1608.53 874.169 1608.19 874.032 1607.78 873.895C1607.37 873.793 1606.92 873.724 1606.41 873.724C1605.55 873.724 1604.9 873.895 1604.42 874.238C1603.94 874.58 1603.74 875.026 1603.74 875.574C1603.74 875.882 1603.81 876.19 1603.98 876.43C1604.15 876.704 1604.46 876.944 1604.94 877.184C1605.41 877.423 1606.1 877.629 1607.02 877.869C1609.25 878.383 1610.89 879.068 1611.92 879.924C1612.94 880.78 1613.46 881.979 1613.46 883.52C1613.46 885.199 1612.84 886.569 1611.61 887.597C1610.38 888.624 1608.56 889.138 1606.13 889.138H1606.17Z" fill="#E76737"/>
<path d="M1615.37 895.749V893.625L1617.94 893.146V873.279L1615.2 872.799V870.676H1620.75L1621.05 872.868C1621.67 872.046 1622.39 871.429 1623.24 870.984C1624.1 870.539 1625.09 870.333 1626.25 870.333C1627.76 870.333 1629.03 870.744 1630.09 871.532C1631.15 872.354 1631.94 873.484 1632.52 874.923C1633.06 876.362 1633.34 878.074 1633.34 880.027V880.369C1633.34 882.116 1633.06 883.623 1632.48 884.925C1631.94 886.226 1631.11 887.254 1630.05 887.973C1628.99 888.693 1627.76 889.069 1626.29 889.069C1625.16 889.069 1624.2 888.898 1623.35 888.521C1622.49 888.145 1621.81 887.597 1621.19 886.843V893.077L1624.06 893.557V895.68H1615.34L1615.37 895.749ZM1625.3 886.569C1626.87 886.569 1628.03 885.987 1628.86 884.856C1629.68 883.726 1630.05 882.253 1630.05 880.438V880.095C1630.05 878.725 1629.88 877.492 1629.51 876.43C1629.16 875.368 1628.62 874.546 1627.9 873.964C1627.18 873.347 1626.32 873.073 1625.26 873.073C1624.34 873.073 1623.52 873.279 1622.87 873.724C1622.22 874.169 1621.67 874.717 1621.26 875.471V884.274C1621.67 885.028 1622.22 885.61 1622.87 885.987C1623.52 886.398 1624.34 886.603 1625.33 886.603L1625.3 886.569Z" fill="#4E4E4E"/>
<path d="M1644.77 889.138C1643.09 889.138 1641.65 888.761 1640.42 888.008C1639.19 887.254 1638.23 886.192 1637.55 884.822C1636.86 883.452 1636.56 881.876 1636.56 880.095V879.376C1636.56 877.663 1636.9 876.122 1637.62 874.752C1638.33 873.416 1639.26 872.32 1640.42 871.532C1641.59 870.744 1642.89 870.367 1644.29 870.367C1645.93 870.367 1647.27 870.71 1648.36 871.361C1649.46 872.046 1650.28 872.971 1650.83 874.169C1651.37 875.368 1651.65 876.807 1651.65 878.451V880.506H1639.91V880.575C1639.91 881.739 1640.08 882.767 1640.46 883.658C1640.83 884.548 1641.38 885.267 1642.13 885.781C1642.89 886.295 1643.74 886.535 1644.73 886.535C1645.86 886.535 1646.82 886.364 1647.68 886.055C1648.53 885.747 1649.25 885.302 1649.87 884.754L1651.17 886.877C1650.52 887.494 1649.66 888.042 1648.6 888.453C1647.54 888.898 1646.27 889.104 1644.77 889.104V889.138ZM1640.05 877.937H1648.4V877.492C1648.4 876.636 1648.26 875.848 1647.95 875.163C1647.64 874.478 1647.2 873.93 1646.58 873.553C1645.97 873.142 1645.21 872.971 1644.29 872.971C1643.57 872.971 1642.89 873.176 1642.27 873.621C1641.65 874.032 1641.17 874.615 1640.8 875.368C1640.42 876.122 1640.15 876.944 1640.05 877.869V877.937Z" fill="#4E4E4E"/>
<path d="M1662.97 889.138C1661.3 889.138 1659.86 888.761 1658.63 888.008C1657.4 887.254 1656.44 886.192 1655.75 884.822C1655.07 883.452 1654.76 881.876 1654.76 880.095V879.376C1654.76 877.663 1655.1 876.122 1655.82 874.752C1656.54 873.416 1657.46 872.32 1658.63 871.532C1659.79 870.744 1661.09 870.367 1662.49 870.367C1664.14 870.367 1665.47 870.71 1666.57 871.361C1667.66 872.046 1668.48 872.971 1669.03 874.169C1669.58 875.368 1669.85 876.807 1669.85 878.451V880.506H1658.11V880.575C1658.11 881.739 1658.29 882.767 1658.66 883.658C1659.04 884.548 1659.59 885.267 1660.34 885.781C1661.09 886.295 1661.95 886.535 1662.94 886.535C1664.07 886.535 1665.03 886.364 1665.88 886.055C1666.74 885.747 1667.46 885.302 1668.07 884.754L1669.37 886.877C1668.72 887.494 1667.87 888.042 1666.81 888.453C1665.75 888.898 1664.48 889.104 1662.97 889.104V889.138ZM1658.25 877.937H1666.6V877.492C1666.6 876.636 1666.46 875.848 1666.16 875.163C1665.85 874.478 1665.4 873.93 1664.79 873.553C1664.17 873.142 1663.42 872.971 1662.49 872.971C1661.78 872.971 1661.09 873.176 1660.48 873.621C1659.86 874.032 1659.38 874.615 1659 875.368C1658.63 876.122 1658.35 876.944 1658.25 877.869V877.937Z" fill="#4E4E4E"/>
<path d="M1680.19 889.138C1678.71 889.138 1677.45 888.761 1676.39 888.042C1675.33 887.323 1674.54 886.295 1673.96 884.993C1673.38 883.692 1673.14 882.15 1673.14 880.438V880.095C1673.14 878.143 1673.41 876.464 1673.96 874.991C1674.51 873.519 1675.33 872.388 1676.39 871.6C1677.45 870.778 1678.71 870.402 1680.19 870.402C1681.25 870.402 1682.21 870.607 1683.03 870.984C1683.85 871.395 1684.53 871.943 1685.11 872.697V865.332L1682.38 864.853V862.729H1688.4V886.261L1691.14 886.74V888.864H1685.56L1685.29 886.706C1684.7 887.528 1683.98 888.145 1683.13 888.59C1682.27 889.001 1681.28 889.241 1680.15 889.241L1680.19 889.138ZM1681.04 886.466C1682.03 886.466 1682.86 886.227 1683.51 885.781C1684.16 885.336 1684.74 884.719 1685.15 883.897V875.505C1684.74 874.752 1684.16 874.135 1683.51 873.69C1682.86 873.245 1682 873.005 1681.08 873.005C1680.02 873.005 1679.16 873.313 1678.48 873.895C1677.79 874.478 1677.28 875.3 1676.97 876.362C1676.63 877.423 1676.46 878.622 1676.46 880.027V880.369C1676.46 882.185 1676.83 883.658 1677.59 884.754C1678.34 885.85 1679.47 886.398 1681.04 886.398V886.466Z" fill="#4E4E4E"/>
<path d="M1556 923.734C1556 914.999 1563.08 907.909 1571.81 907.909C1580.54 907.909 1587.62 914.999 1587.62 923.734C1587.62 932.468 1580.47 939.559 1571.81 939.559C1563.15 939.559 1556 932.468 1556 923.734ZM1586.66 923.734C1586.66 915.513 1580.02 908.868 1571.81 908.868C1563.6 908.868 1556.96 915.581 1556.96 923.734C1556.96 931.886 1563.6 938.599 1571.81 938.599C1580.02 938.599 1586.66 931.954 1586.66 923.734ZM1565.38 930.207L1566.4 928.94C1567.57 930.105 1569.14 931.132 1571.71 931.132C1574.27 931.132 1575.98 929.728 1575.98 927.604C1575.98 925.481 1574.21 923.871 1569.38 923.871V922.364C1573.76 922.364 1575.3 920.856 1575.3 918.87C1575.3 917.02 1573.86 915.855 1571.6 915.855C1569.93 915.855 1568.35 916.575 1567.19 917.739L1566.16 916.506C1567.57 915.239 1569.31 914.314 1571.67 914.314C1574.86 914.314 1577.22 915.924 1577.22 918.767C1577.22 920.959 1575.68 922.295 1573.62 922.98V923.083C1576.02 923.631 1577.97 925.172 1577.97 927.673C1577.97 930.756 1575.23 932.742 1571.74 932.742C1568.63 932.742 1566.64 931.509 1565.38 930.207Z" fill="#4E4E4E"/>
<path d="M1606.17 937.092C1604.83 937.092 1603.57 936.955 1602.4 936.716C1601.24 936.442 1600.11 936.099 1599.05 935.619V930.516H1602.4L1603.05 933.119C1603.43 933.325 1603.84 933.462 1604.29 933.564C1604.73 933.667 1605.24 933.736 1605.83 933.736C1606.92 933.736 1607.67 933.564 1608.12 933.187C1608.56 932.811 1608.8 932.4 1608.8 931.852C1608.8 931.338 1608.56 930.893 1608.08 930.516C1607.6 930.139 1606.68 929.796 1605.24 929.488C1603.12 929.043 1601.51 928.358 1600.52 927.399C1599.53 926.44 1599.02 925.275 1599.02 923.802C1599.02 922.809 1599.25 921.884 1599.77 921.062C1600.28 920.24 1601.07 919.589 1602.1 919.075C1603.12 918.561 1604.46 918.322 1606.1 918.322C1607.47 918.322 1608.7 918.459 1609.83 918.733C1610.96 919.007 1611.92 919.349 1612.67 919.76V924.727H1609.35L1608.84 922.364C1608.53 922.124 1608.19 921.987 1607.78 921.85C1607.37 921.747 1606.92 921.678 1606.41 921.678C1605.55 921.678 1604.9 921.85 1604.42 922.192C1603.94 922.535 1603.74 922.98 1603.74 923.528C1603.74 923.836 1603.81 924.145 1603.98 924.384C1604.15 924.658 1604.46 924.898 1604.94 925.138C1605.41 925.378 1606.1 925.583 1607.02 925.823C1609.25 926.337 1610.89 927.022 1611.92 927.878C1612.94 928.735 1613.46 929.933 1613.46 931.475C1613.46 933.153 1612.84 934.523 1611.61 935.551C1610.38 936.579 1608.56 937.092 1606.13 937.092H1606.17Z" fill="#E76737"/>
<path d="M1623.83 937.092C1621.87 937.092 1620.33 936.476 1619.24 935.208C1618.14 933.941 1617.6 931.989 1617.6 929.317V921.233L1615.51 920.754V918.63H1620.88V929.317C1620.88 931.235 1621.16 932.571 1621.74 933.29C1622.32 934.009 1623.17 934.386 1624.41 934.386C1625.64 934.386 1626.53 934.146 1627.32 933.667C1628.07 933.187 1628.65 932.537 1629.06 931.646V921.199L1626.63 920.719V918.596H1632.35V934.112L1634.43 934.592V936.715H1629.4L1629.2 934.044C1628.62 935.003 1627.9 935.756 1627.01 936.27C1626.12 936.784 1625.09 937.058 1623.89 937.058L1623.83 937.092Z" fill="#4E4E4E"/>
<path d="M1646.27 937.092C1645.11 937.092 1644.08 936.853 1643.19 936.407C1642.34 935.962 1641.59 935.277 1641.04 934.421L1640.73 936.75H1637.89V913.252L1635.15 912.773V910.649H1641.17V920.788C1641.76 920 1642.44 919.383 1643.3 918.938C1644.15 918.527 1645.11 918.287 1646.24 918.287C1647.75 918.287 1649.01 918.698 1650.07 919.486C1651.13 920.308 1651.92 921.439 1652.5 922.877C1653.08 924.35 1653.36 926.029 1653.36 927.981V928.324C1653.36 930.07 1653.08 931.578 1652.5 932.879C1651.95 934.181 1651.13 935.208 1650.07 935.928C1649.01 936.647 1647.75 937.024 1646.27 937.024V937.092ZM1645.45 934.421C1646.99 934.421 1648.16 933.873 1648.91 932.776C1649.66 931.68 1650.04 930.207 1650.04 928.392V928.05C1650.04 926.645 1649.87 925.446 1649.52 924.384C1649.18 923.323 1648.67 922.5 1648.02 921.918C1647.33 921.336 1646.48 921.028 1645.42 921.028C1644.36 921.028 1643.54 921.267 1642.85 921.747C1642.17 922.226 1641.59 922.877 1641.17 923.734V931.715C1641.59 932.537 1642.13 933.222 1642.85 933.701C1643.57 934.181 1644.43 934.421 1645.42 934.421H1645.45Z" fill="#4E4E4E"/>
<path d="M1662.19 937.024C1660.85 937.024 1659.79 936.647 1659 935.859C1658.22 935.071 1657.84 933.804 1657.84 932.091V921.096H1655V918.664H1657.84V914.314H1661.13V918.664H1665.06V921.096H1661.13V932.091C1661.13 932.948 1661.3 933.598 1661.64 934.009C1661.98 934.421 1662.46 934.626 1663.04 934.626C1663.42 934.626 1663.86 934.592 1664.34 934.523C1664.82 934.455 1665.2 934.386 1665.47 934.318L1665.92 936.476C1665.44 936.613 1664.86 936.75 1664.14 936.852C1663.45 936.955 1662.8 937.024 1662.19 937.024Z" fill="#4E4E4E"/>
<path d="M1667.97 936.75V934.626L1670.71 934.147V921.233L1667.97 920.754V918.63H1673.65L1673.92 920.925V921.233C1674.47 920.308 1675.09 919.589 1675.84 919.075C1676.59 918.561 1677.45 918.287 1678.41 918.287C1678.75 918.287 1679.09 918.287 1679.47 918.39C1679.84 918.459 1680.08 918.493 1680.25 918.561L1679.81 921.61L1677.52 921.473C1676.66 921.404 1675.91 921.61 1675.33 922.055C1674.75 922.5 1674.27 923.117 1673.96 923.871V934.112L1676.7 934.592V936.716H1667.97V936.75Z" fill="#4E4E4E"/>
<path d="M1688.13 937.092C1686.24 937.092 1684.81 936.647 1683.85 935.722C1682.86 934.797 1682.38 933.496 1682.38 931.852C1682.38 930.207 1683.1 928.769 1684.5 927.707C1685.9 926.679 1687.85 926.131 1690.35 926.131H1693.57V924.35C1693.57 923.254 1693.22 922.398 1692.57 921.815C1691.92 921.199 1690.97 920.925 1689.77 920.925C1689.02 920.925 1688.37 921.028 1687.78 921.199C1687.24 921.37 1686.72 921.644 1686.28 921.952L1685.94 924.487H1683.4V920.343C1684.22 919.692 1685.15 919.178 1686.24 918.835C1687.34 918.493 1688.54 918.322 1689.84 918.322C1692.03 918.322 1693.74 918.835 1695 919.897C1696.27 920.959 1696.89 922.432 1696.89 924.384V933.085C1696.89 933.325 1696.89 933.53 1696.89 933.77C1696.89 934.01 1696.89 934.215 1696.92 934.455L1698.67 934.626V936.75H1693.94C1693.84 936.27 1693.77 935.825 1693.7 935.414C1693.64 935.003 1693.6 934.626 1693.6 934.249C1692.95 935.071 1692.16 935.756 1691.21 936.27C1690.25 936.818 1689.22 937.092 1688.16 937.092H1688.13ZM1688.6 934.318C1689.7 934.318 1690.69 934.044 1691.58 933.53C1692.47 933.016 1693.12 932.365 1693.53 931.646V928.358H1690.18C1688.67 928.358 1687.54 928.735 1686.76 929.454C1685.97 930.173 1685.63 930.995 1685.63 931.886C1685.63 932.674 1685.87 933.29 1686.35 933.701C1686.83 934.112 1687.58 934.318 1688.57 934.318H1688.6Z" fill="#4E4E4E"/>
<path d="M1709.38 937.092C1707.73 937.092 1706.3 936.716 1705.1 935.962C1703.9 935.208 1702.94 934.147 1702.26 932.776C1701.57 931.406 1701.27 929.831 1701.27 928.049V927.33C1701.27 925.618 1701.57 924.076 1702.22 922.706C1702.87 921.336 1703.8 920.274 1705.03 919.486C1706.26 918.698 1707.7 918.287 1709.38 918.287C1710.85 918.287 1712.11 918.527 1713.21 919.007C1714.3 919.486 1715.23 920.137 1715.98 920.993L1716.05 925.343H1713.48L1712.9 922.192C1712.52 921.815 1712.05 921.473 1711.46 921.267C1710.88 921.062 1710.23 920.925 1709.44 920.925C1708.45 920.925 1707.6 921.199 1706.88 921.781C1706.13 922.363 1705.54 923.151 1705.13 924.11C1704.72 925.069 1704.52 926.166 1704.52 927.364V928.084C1704.52 929.385 1704.72 930.55 1705.1 931.509C1705.48 932.468 1706.02 933.222 1706.74 933.77C1707.46 934.284 1708.32 934.558 1709.31 934.558C1710.44 934.558 1711.36 934.249 1712.08 933.633C1712.8 933.016 1713.28 932.194 1713.45 931.098H1716.39V931.201C1716.39 932.228 1716.05 933.222 1715.5 934.112C1714.95 935.003 1714.17 935.756 1713.11 936.304C1712.08 936.853 1710.81 937.127 1709.31 937.127L1709.38 937.092Z" fill="#4E4E4E"/>
<path d="M1725.39 937.024C1724.06 937.024 1723 936.647 1722.21 935.859C1721.42 935.071 1721.05 933.804 1721.05 932.091V921.096H1718.21V918.664H1721.05V914.314H1724.33V918.664H1728.27V921.096H1724.33V932.091C1724.33 932.948 1724.5 933.598 1724.84 934.009C1725.19 934.421 1725.67 934.626 1726.25 934.626C1726.62 934.626 1727.07 934.592 1727.55 934.523C1728.03 934.455 1728.4 934.386 1728.68 934.318L1729.12 936.476C1728.64 936.613 1728.06 936.75 1727.34 936.852C1726.66 936.955 1726.01 937.024 1725.39 937.024Z" fill="#4E4E4E"/>
<path d="M1731.11 936.75V934.626L1733.84 934.147V921.233L1731.11 920.754V918.63H1737.13V934.147L1739.87 934.626V936.75H1731.14H1731.11ZM1733.67 914.177V910.649H1737.13V914.177H1733.67Z" fill="#4E4E4E"/>
<path d="M1750.27 937.092C1748.59 937.092 1747.16 936.716 1745.96 935.928C1744.76 935.14 1743.84 934.044 1743.15 932.674C1742.5 931.269 1742.16 929.694 1742.16 927.913V927.536C1742.16 925.755 1742.5 924.179 1743.15 922.775C1743.8 921.404 1744.73 920.308 1745.96 919.521C1747.16 918.733 1748.59 918.322 1750.24 918.322C1751.88 918.322 1753.35 918.733 1754.55 919.521C1755.75 920.308 1756.67 921.404 1757.35 922.775C1758.04 924.145 1758.35 925.755 1758.35 927.536V927.913C1758.35 929.694 1758 931.304 1757.35 932.674C1756.7 934.078 1755.78 935.14 1754.55 935.928C1753.32 936.716 1751.91 937.092 1750.27 937.092ZM1750.27 934.523C1751.33 934.523 1752.19 934.249 1752.9 933.667C1753.62 933.085 1754.14 932.297 1754.51 931.304C1754.89 930.31 1755.06 929.18 1755.06 927.913V927.536C1755.06 926.268 1754.89 925.138 1754.51 924.145C1754.14 923.151 1753.62 922.364 1752.9 921.781C1752.19 921.199 1751.3 920.925 1750.24 920.925C1749.17 920.925 1748.32 921.199 1747.6 921.781C1746.88 922.364 1746.37 923.151 1745.99 924.145C1745.65 925.138 1745.44 926.268 1745.44 927.536V927.913C1745.44 929.18 1745.62 930.31 1745.99 931.304C1746.33 932.297 1746.88 933.085 1747.6 933.667C1748.32 934.249 1749.21 934.523 1750.27 934.523Z" fill="#4E4E4E"/>
<path d="M1760.88 936.75V934.626L1763.62 934.147V921.233L1760.88 920.754V918.63H1766.56L1766.8 921.336C1767.41 920.377 1768.17 919.623 1769.06 919.109C1769.98 918.561 1771.01 918.322 1772.17 918.322C1774.12 918.322 1775.63 918.904 1776.69 920.034C1777.75 921.165 1778.3 922.946 1778.3 925.344V934.181L1781.03 934.66V936.784H1772.31V934.66L1775.05 934.181V925.412C1775.05 923.802 1774.74 922.672 1774.09 922.021C1773.47 921.336 1772.51 921.028 1771.21 921.028C1770.25 921.028 1769.43 921.267 1768.68 921.713C1767.96 922.158 1767.38 922.809 1766.94 923.597V934.215L1769.67 934.695V936.818H1760.95L1760.88 936.75Z" fill="#4E4E4E"/>
<path d="M1587.59 971.688C1587.59 980.491 1580.43 987.513 1571.78 987.513C1563.12 987.513 1555.97 980.423 1555.97 971.688C1555.97 962.953 1563.05 955.863 1571.78 955.863C1580.5 955.863 1587.59 962.953 1587.59 971.688ZM1586.66 971.688C1586.66 963.467 1580.02 956.822 1571.81 956.822C1563.6 956.822 1556.96 963.536 1556.96 971.688C1556.96 979.84 1563.6 986.554 1571.81 986.554C1580.02 986.554 1586.66 979.909 1586.66 971.688ZM1574.96 973.709H1577.8V975.25H1574.96V980.285H1573.14V975.25H1564.25V974.017L1572.97 962.679H1574.96V973.709ZM1573.14 973.709V968.16C1573.14 967.304 1573.18 965.796 1573.25 964.872H1573.11C1572.6 965.728 1572.15 966.276 1571.54 967.167L1566.4 973.709H1573.14Z" fill="#4E4E4E"/>
<path d="M1606.17 985.047C1604.83 985.047 1603.57 984.91 1602.4 984.67C1601.24 984.396 1600.11 984.053 1599.05 983.574V978.47H1602.4L1603.05 981.073C1603.43 981.279 1603.84 981.416 1604.29 981.519C1604.73 981.621 1605.24 981.69 1605.83 981.69C1606.92 981.69 1607.67 981.519 1608.12 981.142C1608.56 980.765 1608.8 980.354 1608.8 979.806C1608.8 979.292 1608.56 978.847 1608.08 978.47C1607.6 978.093 1606.68 977.751 1605.24 977.442C1603.12 976.997 1601.51 976.312 1600.52 975.353C1599.53 974.394 1599.02 973.229 1599.02 971.756C1599.02 970.763 1599.25 969.838 1599.77 969.016C1600.28 968.194 1601.07 967.543 1602.1 967.029C1603.12 966.516 1604.46 966.276 1606.1 966.276C1607.47 966.276 1608.7 966.413 1609.83 966.687C1610.96 966.961 1611.92 967.303 1612.67 967.715V972.681H1609.35L1608.84 970.318C1608.53 970.078 1608.19 969.941 1607.78 969.804C1607.37 969.701 1606.92 969.633 1606.41 969.633C1605.55 969.633 1604.9 969.804 1604.42 970.146C1603.94 970.489 1603.74 970.934 1603.74 971.482C1603.74 971.791 1603.81 972.099 1603.98 972.339C1604.15 972.613 1604.46 972.852 1604.94 973.092C1605.41 973.332 1606.1 973.538 1607.02 973.777C1609.25 974.291 1610.89 974.976 1611.92 975.832C1612.94 976.689 1613.46 977.888 1613.46 979.429C1613.46 981.107 1612.84 982.478 1611.61 983.505C1610.38 984.533 1608.56 985.047 1606.13 985.047H1606.17Z" fill="#E76737"/>
<path d="M1619.79 992C1619.51 992 1619.21 992 1618.79 991.897C1618.38 991.829 1618.08 991.76 1617.84 991.726L1618.18 989.123C1618.38 989.123 1618.62 989.157 1618.97 989.191C1619.31 989.191 1619.51 989.191 1619.65 989.191C1620.37 989.191 1620.92 988.917 1621.36 988.403C1621.81 987.855 1622.22 987.136 1622.59 986.211L1623.38 984.293L1616.98 968.948L1615.03 968.674V966.55H1622.63V968.674L1620.44 969.016L1623.96 978.059L1624.82 980.422H1624.92L1629.1 969.016L1626.8 968.674V966.55H1634.23V968.674L1632.35 968.948L1625.23 987.444C1624.89 988.301 1624.48 989.088 1624.03 989.774C1623.55 990.459 1622.97 991.007 1622.29 991.383C1621.6 991.76 1620.78 991.966 1619.79 991.966V992Z" fill="#4E4E4E"/>
<path d="M1635.8 984.704V982.58L1638.54 982.101V969.187L1635.8 968.708V966.584H1641.48L1641.72 969.29C1642.34 968.331 1643.09 967.577 1643.98 967.064C1644.9 966.516 1645.93 966.276 1647.1 966.276C1649.05 966.276 1650.55 966.858 1651.61 967.989C1652.67 969.119 1653.22 970.9 1653.22 973.298V982.135L1655.96 982.615V984.738H1647.23V982.615L1649.97 982.135V973.366C1649.97 971.756 1649.66 970.626 1649.01 969.975C1648.4 969.29 1647.44 968.982 1646.14 968.982C1645.18 968.982 1644.36 969.222 1643.6 969.667C1642.89 970.112 1642.3 970.763 1641.86 971.551V982.169L1644.6 982.649V984.773H1635.87L1635.8 984.704Z" fill="#4E4E4E"/>
<path d="M1666.22 985.047C1664.55 985.047 1663.11 984.67 1661.88 983.916C1660.65 983.163 1659.69 982.101 1659 980.731C1658.32 979.361 1658.01 977.785 1658.01 976.004V975.284C1658.01 973.572 1658.35 972.03 1659.07 970.66C1659.79 969.324 1660.71 968.228 1661.88 967.44C1663.04 966.653 1664.34 966.276 1665.75 966.276C1667.39 966.276 1668.72 966.618 1669.82 967.269C1670.91 967.954 1671.73 968.879 1672.28 970.078C1672.83 971.277 1673.1 972.715 1673.1 974.36V976.415H1661.36V976.483C1661.36 977.648 1661.54 978.675 1661.91 979.566C1662.29 980.457 1662.84 981.176 1663.59 981.69C1664.34 982.204 1665.2 982.443 1666.19 982.443C1667.32 982.443 1668.28 982.272 1669.13 981.964C1669.99 981.656 1670.71 981.21 1671.32 980.662L1672.62 982.786C1671.97 983.402 1671.12 983.95 1670.06 984.362C1669 984.807 1667.73 985.012 1666.22 985.012V985.047ZM1661.5 973.846H1669.85V973.401C1669.85 972.544 1669.71 971.756 1669.41 971.071C1669.1 970.386 1668.65 969.838 1668.04 969.461C1667.42 969.05 1666.67 968.879 1665.75 968.879C1665.03 968.879 1664.34 969.085 1663.73 969.53C1663.11 969.941 1662.63 970.523 1662.25 971.277C1661.88 972.03 1661.6 972.852 1661.5 973.777V973.846Z" fill="#4E4E4E"/>
<path d="M1675.64 984.704V982.58L1678.37 982.101V969.187L1675.64 968.708V966.584H1681.32L1681.59 968.879V969.187C1682.14 968.263 1682.75 967.543 1683.51 967.03C1684.26 966.516 1685.11 966.242 1686.07 966.242C1686.41 966.242 1686.76 966.242 1687.13 966.344C1687.51 966.413 1687.75 966.447 1687.92 966.516L1687.48 969.564L1685.18 969.427C1684.33 969.359 1683.57 969.564 1682.99 970.01C1682.41 970.455 1681.93 971.071 1681.62 971.825V982.067L1684.36 982.546V984.67H1675.64V984.704Z" fill="#4E4E4E"/>
<path d="M1697.57 992C1696.71 992 1695.76 991.863 1694.73 991.657C1693.7 991.418 1692.81 991.075 1692.06 990.664L1692.92 988.095C1693.53 988.403 1694.25 988.677 1695.07 988.883C1695.89 989.088 1696.71 989.191 1697.5 989.191C1698.97 989.191 1700.07 988.78 1700.72 987.958C1701.4 987.136 1701.75 985.971 1701.75 984.43V982.717C1701.16 983.471 1700.44 984.053 1699.62 984.43C1698.8 984.807 1697.84 985.012 1696.78 985.012C1695.31 985.012 1694.05 984.636 1692.98 983.916C1691.92 983.197 1691.1 982.169 1690.52 980.868C1689.94 979.566 1689.67 978.025 1689.67 976.312V975.969C1689.67 974.017 1689.94 972.339 1690.52 970.866C1691.1 969.393 1691.92 968.263 1692.98 967.475C1694.05 966.653 1695.35 966.276 1696.82 966.276C1697.95 966.276 1698.94 966.516 1699.79 966.961C1700.65 967.406 1701.37 968.057 1701.95 968.913L1702.26 966.653H1705.03V984.499C1705.03 986.074 1704.76 987.41 1704.14 988.54C1703.56 989.671 1702.7 990.527 1701.57 991.144C1700.44 991.76 1699.08 992.068 1697.5 992.068L1697.57 992ZM1697.64 982.375C1698.63 982.375 1699.45 982.135 1700.14 981.69C1700.82 981.244 1701.37 980.594 1701.78 979.772V971.448C1701.37 970.695 1700.79 970.078 1700.14 969.598C1699.45 969.153 1698.63 968.913 1697.67 968.913C1696.61 968.913 1695.76 969.222 1695.07 969.804C1694.39 970.42 1693.84 971.243 1693.5 972.27C1693.16 973.332 1692.98 974.531 1692.98 975.935V976.278C1692.98 978.093 1693.36 979.566 1694.15 980.662C1694.94 981.758 1696.1 982.306 1697.67 982.306L1697.64 982.375ZM1704.59 969.29L1703.29 966.584H1707.32V968.708L1704.59 969.29Z" fill="#4E4E4E"/>
<path d="M1712.9 992C1712.63 992 1712.32 992 1711.91 991.897C1711.5 991.829 1711.19 991.76 1710.95 991.726L1711.29 989.123C1711.5 989.123 1711.74 989.157 1712.08 989.191C1712.42 989.191 1712.63 989.191 1712.76 989.191C1713.48 989.191 1714.03 988.917 1714.48 988.403C1714.92 987.855 1715.33 987.136 1715.71 986.211L1716.49 984.293L1710.1 968.948L1708.14 968.674V966.55H1715.74V968.674L1713.55 969.016L1717.08 978.059L1717.93 980.422H1718.03L1722.21 969.016L1719.92 968.674V966.55H1727.34V968.674L1725.46 968.948L1718.34 987.444C1718 988.301 1717.59 989.088 1717.14 989.774C1716.67 990.459 1716.08 991.007 1715.4 991.383C1714.71 991.76 1713.89 991.966 1712.9 991.966V992Z" fill="#4E4E4E"/>
</g>
</g>
<defs>
<filter id="filter0_dd_1_133" x="-20" y="-15" width="1960" height="1120" filterUnits="userSpaceOnUse" color-interpolation-filters="sRGB">
<feFlood flood-opacity="0" result="BackgroundImageFix"/>
<feColorMatrix in="SourceAlpha" type="matrix" values="0 0 0 0 0 0 0 0 0 0 0 0 0 0 0 0 0 0 127 0" result="hardAlpha"/>
<feOffset dy="5"/>
<feGaussianBlur stdDeviation="10"/>
<feColorMatrix type="matrix" values="0 0 0 0 0 0 0 0 0 0 0 0 0 0 0 0 0 0 0.1 0"/>
<feBlend mode="normal" in2="BackgroundImageFix" result="effect1_dropShadow_1_133"/>
<feColorMatrix in="SourceAlpha" type="matrix" values="0 0 0 0 0 0 0 0 0 0 0 0 0 0 0 0 0 0 127 0" result="hardAlpha"/>
<feOffset/>
<feGaussianBlur stdDeviation="1.5"/>
<feColorMatrix type="matrix" values="0 0 0 0 0 0 0 0 0 0 0 0 0 0 0 0 0 0 0.3 0"/>
<feBlend mode="normal" in2="effect1_dropShadow_1_133" result="effect2_dropShadow_1_133"/>
<feBlend mode="normal" in="SourceGraphic" in2="effect2_dropShadow_1_133" result="shape"/>
</filter>
<radialGradient id="paint0_radial_1_133" cx="0" cy="0" r="1" gradientUnits="userSpaceOnUse" gradientTransform="translate(960 540) rotate(90) scale(540 960)">
<stop stop-color="#F5F5F5"/>
<stop offset="1" stop-color="#E6E6E6"/>
</radialGradient>
<clipPath id="clip0_1_133">
<rect width="225" height="180" fill="white" transform="translate(1556 812)"/>
</clipPath>
</defs>
</svg>
