<?xml version="1.0" standalone="no"?>
<!DOCTYPE svg PUBLIC "-//W3C//DTD SVG 20010904//EN"
 "http://www.w3.org/TR/2001/REC-SVG-20010904/DTD/svg10.dtd">
<svg version="1.0" xmlns="http://www.w3.org/2000/svg"
 width="500.000000pt" height="500.000000pt" viewBox="0 0 500.000000 500.000000"
 preserveAspectRatio="xMidYMid meet">

<g transform="translate(0.000000,500.000000) scale(0.100000,-0.100000)"
fill="#000000" stroke="none">
<path d="M2291 4990 c-593 -58 -1124 -302 -1542 -711 -397 -390 -643 -881
-725 -1454 -24 -164 -24 -486 0 -650 107 -743 498 -1364 1112 -1765 135 -88
395 -217 534 -265 288 -99 521 -138 830 -138 309 0 542 39 830 138 145 50 401
178 545 272 473 311 825 773 1000 1313 85 263 118 483 118 770 0 219 -14 355
-58 550 -225 1005 -1051 1768 -2078 1921 -154 22 -431 32 -566 19z m714 -630
c599 -97 1035 -462 1262 -1055 105 -275 140 -615 88 -855 -85 -393 -344 -761
-710 -1010 -120 -82 -326 -178 -462 -216 l-62 -17 21 -41 c33 -64 90 -145 183
-257 97 -118 107 -145 77 -211 -24 -54 -74 -83 -133 -75 -47 6 -69 23 -142
108 -246 285 -323 475 -253 626 14 28 35 58 48 66 13 9 76 29 140 46 499 129
902 523 1024 1001 23 92 27 388 6 485 -71 325 -204 579 -411 786 -243 242
-520 356 -916 375 -137 7 -349 -12 -470 -42 -187 -46 -362 -141 -471 -256
-137 -145 -208 -287 -263 -531 -15 -65 -29 -103 -44 -117 -12 -12 -130 -78
-262 -148 -300 -158 -285 -149 -262 -163 49 -29 125 -100 154 -142 17 -26 37
-72 43 -102 16 -75 -1 -135 -94 -333 -106 -226 -147 -342 -153 -427 -8 -130
35 -161 283 -200 378 -59 445 -87 610 -250 151 -149 258 -327 334 -554 28 -82
31 -100 21 -131 -24 -80 -118 -123 -189 -86 -41 21 -56 45 -91 147 -42 122
-76 193 -135 284 -71 108 -125 166 -197 214 -80 53 -156 76 -363 107 -94 14
-203 36 -242 48 -249 79 -351 288 -278 569 20 79 60 179 150 373 41 89 74 171
74 182 0 28 -50 69 -155 127 -135 76 -176 149 -136 239 15 34 36 56 93 96 81
57 245 152 445 256 l132 69 12 50 c63 266 199 507 375 661 91 80 144 115 261
173 217 108 414 147 753 150 141 1 213 -4 305 -19z m-435 -671 c29 -6 69 -25
93 -43 40 -31 50 -33 143 -39 213 -13 364 -79 416 -181 27 -53 32 -56 101 -56
101 0 164 -41 238 -153 92 -141 136 -336 118 -525 -11 -119 -43 -195 -110
-257 -74 -69 -123 -87 -257 -93 -112 -5 -113 -5 -128 -33 -8 -16 -49 -52 -90
-80 -113 -76 -147 -110 -262 -264 -94 -125 -162 -239 -162 -271 0 -7 -16 -26
-35 -43 -61 -53 -155 -40 -196 26 -47 76 -3 202 137 392 69 93 75 104 59 113
-40 23 -98 84 -120 128 -27 53 -45 140 -45 216 l0 53 -42 11 c-215 54 -375
156 -438 279 -40 80 -53 156 -46 281 3 63 12 141 20 172 50 201 176 309 422
362 86 18 119 19 184 5z"/>
</g>
</svg>
