<svg width="1920" height="1080" viewBox="0 0 1920 1080" fill="none" xmlns="http://www.w3.org/2000/svg">
<g filter="url(#filter0_dd_1_188)">
<rect width="1920" height="1080" fill="#333333"/>
<path d="M1703.08 1097.3C1667.13 1091.99 1631.53 1084.53 1596.47 1074.97C1500.76 968.57 1390.94 875.773 1270.06 799.159C1141.18 718.156 1001.23 656.277 854.586 615.456C835.03 593.881 816.735 571.927 799.829 549.848C980.568 517.791 1156.12 461.34 1321.67 382.042C1368.48 359.583 1415.16 334.728 1460.45 308.485L1470.3 302.681C1624.35 212.469 1729.45 151.782 1830.38 54C1760.86 178.151 1734.24 298.391 1699.04 475.029C1691.6 517.043 1684.28 559.815 1678.98 602.208C1661.03 767.46 1668.99 934.503 1702.57 1097.3" fill="#2B2B2B"/>
<path d="M1791.76 1131.11C1766.45 1131.01 1741.17 1129.36 1716.06 1126.19C1672.25 1120.66 1628.9 1111.94 1586.36 1100.08C1436.25 1056.71 1293.42 991.273 1162.56 905.9C1042.75 830.504 933.286 739.824 836.911 636.149C812.041 608.975 788.624 580.505 766.76 550.858C658.885 404.501 629.361 277.196 683.362 192.788C778.494 43.4029 1113.35 83.0202 1462.08 284.514C1486.18 298.392 1509.77 312.776 1532.23 327.159C1598.03 369.259 1660.99 415.62 1720.73 465.946C1976.48 681.57 2093.31 912.713 2010.92 1041.03C1973.07 1100.33 1896.36 1131.62 1791.39 1131.62M901.888 132.984C810.92 132.984 742.283 158.217 709.353 208.685C663.301 281.107 693.329 399.076 791.616 532.564C812.839 561.344 835.582 588.973 859.748 615.331C954.248 717.179 1061.64 806.251 1179.21 880.288C1307.36 963.832 1447.21 1027.87 1594.18 1070.3C1635.32 1081.74 1677.23 1090.18 1719.6 1095.53C1851.19 1111.68 1945.57 1086.2 1985.31 1023.87C2057.48 910.316 1940.39 691.033 1700.8 489.035C1642.16 439.653 1580.28 394.257 1515.58 353.15C1493.5 339.019 1470.41 324.888 1446.69 311.262C1244.82 194.933 1045.72 132.984 901.888 132.984Z" fill="#2B2B2B"/>
<path d="M96.9688 136V129.848L102.418 128.793V92.0547L96.9688 91V84.8125H136.695V98.6289H128.82L128.363 92.7227H112.684V105.59H130.016V113.5H112.684V128.125H129.207L129.664 122.008H137.469V136H96.9688ZM156.453 136L144.957 104.781L140.844 104.148V97.9609H159.301V104.113L155.293 104.816L161.023 122.078L161.902 125.031H162.113L163.098 122.078L169.391 104.852L164.715 104.113V97.9609H183.137V104.148L178.918 104.852L166.895 136H156.453ZM203.668 136.738C200.035 136.738 196.859 135.941 194.141 134.348C191.422 132.73 189.312 130.516 187.812 127.703C186.336 124.891 185.598 121.68 185.598 118.07V116.664C185.598 112.891 186.301 109.551 187.707 106.645C189.113 103.715 191.094 101.418 193.648 99.7539C196.227 98.0898 199.262 97.2578 202.754 97.2578C206.199 97.2578 209.094 97.9375 211.438 99.2969C213.781 100.656 215.562 102.613 216.781 105.168C218 107.723 218.609 110.816 218.609 114.449V120.039H196.25L196.18 120.25C196.32 121.914 196.73 123.402 197.41 124.715C198.113 126.004 199.098 127.023 200.363 127.773C201.629 128.5 203.164 128.863 204.969 128.863C206.844 128.863 208.59 128.629 210.207 128.16C211.848 127.668 213.441 126.953 214.988 126.016L217.766 132.344C216.195 133.609 214.215 134.664 211.824 135.508C209.457 136.328 206.738 136.738 203.668 136.738ZM196.32 113.254H209.012V112.34C209.012 110.793 208.801 109.469 208.379 108.367C207.98 107.242 207.324 106.375 206.41 105.766C205.52 105.156 204.359 104.852 202.93 104.852C201.57 104.852 200.422 105.215 199.484 105.941C198.547 106.645 197.809 107.617 197.27 108.859C196.754 110.102 196.402 111.508 196.215 113.078L196.32 113.254ZM224.129 136V129.848L229.051 128.793V105.203L223.602 104.148V97.9609H238.613L239 102.672L239.07 103.516C240.008 101.453 241.168 99.8945 242.551 98.8398C243.934 97.7852 245.586 97.2578 247.508 97.2578C248.117 97.2578 248.785 97.3164 249.512 97.4336C250.238 97.5273 250.883 97.6562 251.445 97.8203L250.355 107.277L245.258 106.996C243.805 106.926 242.621 107.172 241.707 107.734C240.816 108.297 240.02 109.105 239.316 110.16V128.793L244.238 129.848V136H224.129ZM265.684 151.363C264.793 151.363 263.844 151.281 262.836 151.117C261.852 150.977 260.914 150.777 260.023 150.52L261.184 142.996C261.629 143.09 262.121 143.16 262.66 143.207C263.199 143.254 263.668 143.277 264.066 143.277C265.543 143.277 266.82 142.891 267.898 142.117C268.977 141.344 269.762 140.23 270.254 138.777L271.098 136.422L258.371 104.816L253.695 104.148V97.9609H273.875V104.148L269.234 104.852L275.211 121.621L275.949 123.695H276.16L283.227 104.781L278.691 104.148V97.9609H297.5V104.148L293.211 104.746L278.691 141.66C277.988 143.418 277.086 145.023 275.984 146.477C274.906 147.953 273.523 149.137 271.836 150.027C270.172 150.918 268.121 151.363 265.684 151.363ZM315.289 136.738C311.75 136.738 309.02 135.766 307.098 133.82C305.199 131.875 304.25 128.793 304.25 124.574V105.168H299.012V97.9609H304.25V88.6445H314.48V97.9609H321.477V105.168H314.48V124.539C314.48 126.016 314.785 127.07 315.395 127.703C316.027 128.336 316.883 128.652 317.961 128.652C318.547 128.652 319.156 128.605 319.789 128.512C320.445 128.418 321.008 128.336 321.477 128.266L322.355 135.684C321.301 135.988 320.152 136.234 318.91 136.422C317.691 136.633 316.484 136.738 315.289 136.738ZM325.66 136V129.848L330.617 128.793V88.3984L325.133 87.3438V81.1562H340.848V102.812C342.043 101.055 343.52 99.6953 345.277 98.7344C347.059 97.75 349.074 97.2578 351.324 97.2578C355.145 97.2578 358.168 98.5352 360.395 101.09C362.645 103.621 363.77 107.547 363.77 112.867V128.793L368.691 129.848V136H349.074V129.848L353.504 128.793V112.797C353.504 110.055 352.988 108.109 351.957 106.961C350.926 105.812 349.414 105.238 347.422 105.238C346.039 105.238 344.773 105.531 343.625 106.117C342.5 106.68 341.574 107.512 340.848 108.613V128.793L345.277 129.848V136H325.66ZM371.68 136V129.848L376.637 128.793V105.203L371.152 104.148V97.9609H386.902V128.793L391.824 129.848V136H371.68ZM376.285 89.9102V81.1562H386.902V89.9102H376.285ZM394.883 136V129.848L399.805 128.793V105.203L394.355 104.148V97.9609H409.367L409.824 103.41C411.09 101.465 412.648 99.9531 414.5 98.875C416.375 97.7969 418.508 97.2578 420.898 97.2578C424.672 97.2578 427.625 98.4648 429.758 100.879C431.891 103.293 432.957 107.078 432.957 112.234V128.793L437.879 129.848V136H418.262V129.848L422.656 128.793V112.27C422.656 109.715 422.152 107.91 421.145 106.855C420.137 105.777 418.637 105.238 416.645 105.238C415.168 105.238 413.879 105.555 412.777 106.188C411.699 106.797 410.797 107.676 410.07 108.824V128.793L414.219 129.848V136H394.883ZM457.602 151.363C455.68 151.363 453.523 151.117 451.133 150.625C448.742 150.133 446.633 149.43 444.805 148.516L446.703 141.203C448.344 141.906 450.078 142.457 451.906 142.855C453.758 143.277 455.48 143.488 457.074 143.488C459.816 143.488 461.82 142.727 463.086 141.203C464.375 139.68 465.02 137.559 465.02 134.84V132.344C463.895 133.773 462.57 134.863 461.047 135.613C459.523 136.363 457.777 136.738 455.809 136.738C452.715 136.738 450.055 135.965 447.828 134.418C445.602 132.848 443.902 130.656 442.73 127.844C441.559 125.031 440.973 121.762 440.973 118.035V117.297C440.973 113.289 441.559 109.785 442.73 106.785C443.902 103.785 445.578 101.453 447.758 99.7891C449.938 98.1016 452.551 97.2578 455.598 97.2578C457.871 97.2578 459.828 97.7383 461.469 98.6992C463.109 99.6367 464.504 100.984 465.652 102.742L466.391 97.9609H475.32V134.875C475.32 138.227 474.605 141.133 473.176 143.594C471.77 146.055 469.742 147.965 467.094 149.324C464.445 150.684 461.281 151.363 457.602 151.363ZM458.691 128.758C460.145 128.758 461.398 128.477 462.453 127.914C463.508 127.328 464.363 126.484 465.02 125.383V108.859C464.363 107.711 463.496 106.82 462.418 106.188C461.363 105.555 460.133 105.238 458.727 105.238C456.969 105.238 455.539 105.754 454.438 106.785C453.336 107.793 452.527 109.199 452.012 111.004C451.496 112.785 451.238 114.883 451.238 117.297V118.035C451.238 121.363 451.812 123.988 452.961 125.91C454.109 127.809 456.02 128.758 458.691 128.758ZM474.02 105.379L469.555 97.9609H479.785V104.148L474.02 105.379ZM119.504 244.738C117.137 244.738 115.121 244.281 113.457 243.367C111.793 242.43 110.398 241.082 109.273 239.324L108.535 244H99.6758V196.398L94.2266 195.344V189.156H109.906V210.004C111.008 208.48 112.355 207.309 113.949 206.488C115.566 205.668 117.441 205.258 119.574 205.258C122.645 205.258 125.246 206.09 127.379 207.754C129.535 209.395 131.176 211.715 132.301 214.715C133.426 217.715 133.988 221.242 133.988 225.297V226.035C133.988 229.809 133.426 233.102 132.301 235.914C131.176 238.703 129.535 240.871 127.379 242.418C125.223 243.965 122.598 244.738 119.504 244.738ZM116.375 236.758C119 236.758 120.887 235.832 122.035 233.98C123.184 232.105 123.758 229.457 123.758 226.035V225.297C123.758 222.812 123.5 220.68 122.984 218.898C122.492 217.094 121.707 215.699 120.629 214.715C119.574 213.73 118.191 213.238 116.48 213.238C114.934 213.238 113.609 213.602 112.508 214.328C111.406 215.055 110.539 216.039 109.906 217.281V233.172C110.609 234.344 111.5 235.234 112.578 235.844C113.68 236.453 114.945 236.758 116.375 236.758ZM157.473 244.738C153.84 244.738 150.664 243.941 147.945 242.348C145.227 240.73 143.117 238.516 141.617 235.703C140.141 232.891 139.402 229.68 139.402 226.07V224.664C139.402 220.891 140.105 217.551 141.512 214.645C142.918 211.715 144.898 209.418 147.453 207.754C150.031 206.09 153.066 205.258 156.559 205.258C160.004 205.258 162.898 205.938 165.242 207.297C167.586 208.656 169.367 210.613 170.586 213.168C171.805 215.723 172.414 218.816 172.414 222.449V228.039H150.055L149.984 228.25C150.125 229.914 150.535 231.402 151.215 232.715C151.918 234.004 152.902 235.023 154.168 235.773C155.434 236.5 156.969 236.863 158.773 236.863C160.648 236.863 162.395 236.629 164.012 236.16C165.652 235.668 167.246 234.953 168.793 234.016L171.57 240.344C170 241.609 168.02 242.664 165.629 243.508C163.262 244.328 160.543 244.738 157.473 244.738ZM150.125 221.254H162.816V220.34C162.816 218.793 162.605 217.469 162.184 216.367C161.785 215.242 161.129 214.375 160.215 213.766C159.324 213.156 158.164 212.852 156.734 212.852C155.375 212.852 154.227 213.215 153.289 213.941C152.352 214.645 151.613 215.617 151.074 216.859C150.559 218.102 150.207 219.508 150.02 221.078L150.125 221.254ZM193.93 259.363C192.008 259.363 189.852 259.117 187.461 258.625C185.07 258.133 182.961 257.43 181.133 256.516L183.031 249.203C184.672 249.906 186.406 250.457 188.234 250.855C190.086 251.277 191.809 251.488 193.402 251.488C196.145 251.488 198.148 250.727 199.414 249.203C200.703 247.68 201.348 245.559 201.348 242.84V240.344C200.223 241.773 198.898 242.863 197.375 243.613C195.852 244.363 194.105 244.738 192.137 244.738C189.043 244.738 186.383 243.965 184.156 242.418C181.93 240.848 180.23 238.656 179.059 235.844C177.887 233.031 177.301 229.762 177.301 226.035V225.297C177.301 221.289 177.887 217.785 179.059 214.785C180.23 211.785 181.906 209.453 184.086 207.789C186.266 206.102 188.879 205.258 191.926 205.258C194.199 205.258 196.156 205.738 197.797 206.699C199.438 207.637 200.832 208.984 201.98 210.742L202.719 205.961H211.648V242.875C211.648 246.227 210.934 249.133 209.504 251.594C208.098 254.055 206.07 255.965 203.422 257.324C200.773 258.684 197.609 259.363 193.93 259.363ZM195.02 236.758C196.473 236.758 197.727 236.477 198.781 235.914C199.836 235.328 200.691 234.484 201.348 233.383V216.859C200.691 215.711 199.824 214.82 198.746 214.188C197.691 213.555 196.461 213.238 195.055 213.238C193.297 213.238 191.867 213.754 190.766 214.785C189.664 215.793 188.855 217.199 188.34 219.004C187.824 220.785 187.566 222.883 187.566 225.297V226.035C187.566 229.363 188.141 231.988 189.289 233.91C190.438 235.809 192.348 236.758 195.02 236.758ZM210.348 213.379L205.883 205.961H216.113V212.148L210.348 213.379ZM218.961 244V237.848L223.918 236.793V213.203L218.434 212.148V205.961H234.184V236.793L239.105 237.848V244H218.961ZM223.566 197.91V189.156H234.184V197.91H223.566ZM242.164 244V237.848L247.086 236.793V213.203L241.637 212.148V205.961H256.648L257.105 211.41C258.371 209.465 259.93 207.953 261.781 206.875C263.656 205.797 265.789 205.258 268.18 205.258C271.953 205.258 274.906 206.465 277.039 208.879C279.172 211.293 280.238 215.078 280.238 220.234V236.793L285.16 237.848V244H265.543V237.848L269.938 236.793V220.27C269.938 217.715 269.434 215.91 268.426 214.855C267.418 213.777 265.918 213.238 263.926 213.238C262.449 213.238 261.16 213.555 260.059 214.188C258.98 214.797 258.078 215.676 257.352 216.824V236.793L261.5 237.848V244H242.164ZM304.848 244.738C302.012 244.738 299.363 244.469 296.902 243.93C294.465 243.391 292.121 242.617 289.871 241.609L289.766 230.852H296.902L298.273 236.336C299.07 236.734 299.938 237.051 300.875 237.285C301.836 237.52 302.926 237.637 304.145 237.637C306.441 237.637 308.059 237.262 308.996 236.512C309.934 235.762 310.402 234.824 310.402 233.699C310.402 232.645 309.898 231.719 308.891 230.922C307.906 230.102 305.926 229.387 302.949 228.777C298.449 227.84 295.133 226.387 293 224.418C290.867 222.449 289.801 219.93 289.801 216.859C289.801 214.75 290.328 212.828 291.383 211.094C292.461 209.359 294.09 207.965 296.27 206.91C298.473 205.855 301.285 205.328 304.707 205.328C307.566 205.328 310.18 205.609 312.547 206.172C314.938 206.711 316.941 207.426 318.559 208.316L318.664 218.723H311.562L310.473 213.73C309.84 213.262 309.09 212.91 308.223 212.676C307.379 212.441 306.418 212.324 305.34 212.324C303.535 212.324 302.152 212.688 301.191 213.414C300.23 214.141 299.75 215.078 299.75 216.227C299.75 216.883 299.914 217.492 300.242 218.055C300.594 218.617 301.273 219.145 302.281 219.637C303.289 220.129 304.754 220.598 306.676 221.043C311.387 222.121 314.82 223.562 316.977 225.367C319.133 227.148 320.211 229.656 320.211 232.891C320.211 236.43 318.922 239.289 316.344 241.469C313.789 243.648 309.957 244.738 304.848 244.738ZM354.98 244L346.121 212.992L341.48 212.148V205.961H359.867V212.113L355.859 212.887L359.375 227.688L360.078 230.605H360.289L361.238 227.688L369.043 205.961H375.934L383.492 227.969L384.477 231.062H384.688L385.602 227.969L389.75 212.922L385.32 212.113V205.961H403.32V212.148L398.891 212.992L389.223 244H380.574L373.613 225.156L372.383 220.973H372.172L370.941 225.191L364.086 244H354.98ZM406.273 244V237.848L411.23 236.793V213.203L405.746 212.148V205.961H421.496V236.793L426.418 237.848V244H406.273ZM410.879 197.91V189.156H421.496V197.91H410.879ZM444.805 244.738C441.266 244.738 438.535 243.766 436.613 241.82C434.715 239.875 433.766 236.793 433.766 232.574V213.168H428.527V205.961H433.766V196.645H443.996V205.961H450.992V213.168H443.996V232.539C443.996 234.016 444.301 235.07 444.91 235.703C445.543 236.336 446.398 236.652 447.477 236.652C448.062 236.652 448.672 236.605 449.305 236.512C449.961 236.418 450.523 236.336 450.992 236.266L451.871 243.684C450.816 243.988 449.668 244.234 448.426 244.422C447.207 244.633 446 244.738 444.805 244.738ZM455.176 244V237.848L460.133 236.793V196.398L454.648 195.344V189.156H470.363V210.812C471.559 209.055 473.035 207.695 474.793 206.734C476.574 205.75 478.59 205.258 480.84 205.258C484.66 205.258 487.684 206.535 489.91 209.09C492.16 211.621 493.285 215.547 493.285 220.867V236.793L498.207 237.848V244H478.59V237.848L483.02 236.793V220.797C483.02 218.055 482.504 216.109 481.473 214.961C480.441 213.812 478.93 213.238 476.938 213.238C475.555 213.238 474.289 213.531 473.141 214.117C472.016 214.68 471.09 215.512 470.363 216.613V236.793L474.793 237.848V244H455.176ZM531.887 244.738C528.113 244.738 525.113 243.73 522.887 241.715C520.66 239.676 519.547 236.91 519.547 233.418C519.547 229.832 521 226.926 523.906 224.699C526.812 222.449 531.066 221.324 536.668 221.324H541.695V218.512C541.695 216.684 541.156 215.207 540.078 214.082C539.023 212.934 537.43 212.359 535.297 212.359C534.195 212.359 533.211 212.5 532.344 212.781C531.477 213.039 530.68 213.414 529.953 213.906L529.145 218.934H521.762L521.621 209.055C523.613 207.93 525.77 207.016 528.09 206.312C530.41 205.609 533 205.258 535.859 205.258C540.828 205.258 544.754 206.418 547.637 208.738C550.52 211.035 551.961 214.328 551.961 218.617V234.297C551.961 234.812 551.961 235.328 551.961 235.844C551.984 236.336 552.031 236.816 552.102 237.285L556.074 237.848V244H543.348C543.09 243.344 542.832 242.641 542.574 241.891C542.316 241.141 542.129 240.391 542.012 239.641C540.793 241.188 539.352 242.43 537.688 243.367C536.047 244.281 534.113 244.738 531.887 244.738ZM534.629 237.145C536.059 237.145 537.418 236.828 538.707 236.195C539.996 235.539 540.992 234.684 541.695 233.629V227.617H536.633C534.383 227.617 532.672 228.133 531.5 229.164C530.352 230.195 529.777 231.438 529.777 232.891C529.777 234.25 530.199 235.305 531.043 236.055C531.91 236.781 533.105 237.145 534.629 237.145ZM117.852 352.738C114.078 352.738 110.645 352.316 107.551 351.473C104.457 350.629 101.41 349.164 98.4102 347.078V334.703H106.355L107.445 341.98C108.5 342.871 109.953 343.598 111.805 344.16C113.656 344.699 115.672 344.969 117.852 344.969C119.703 344.969 121.262 344.711 122.527 344.195C123.816 343.68 124.789 342.953 125.445 342.016C126.125 341.055 126.465 339.93 126.465 338.641C126.465 337.422 126.16 336.344 125.551 335.406C124.965 334.445 123.98 333.578 122.598 332.805C121.238 332.008 119.387 331.246 117.043 330.52C112.988 329.324 109.625 328.023 106.953 326.617C104.305 325.188 102.312 323.488 100.977 321.52C99.6641 319.527 99.0078 317.137 99.0078 314.348C99.0078 311.582 99.7695 309.145 101.293 307.035C102.84 304.902 104.973 303.227 107.691 302.008C110.41 300.789 113.551 300.156 117.113 300.109C121.051 300.062 124.531 300.531 127.555 301.516C130.602 302.5 133.227 303.871 135.43 305.629V317.16H127.73L126.395 310.129C125.504 309.566 124.297 309.074 122.773 308.652C121.273 308.23 119.562 308.02 117.641 308.02C116 308.02 114.547 308.266 113.281 308.758C112.039 309.25 111.055 309.965 110.328 310.902C109.602 311.84 109.238 312.977 109.238 314.312C109.238 315.461 109.555 316.469 110.188 317.336C110.82 318.18 111.875 318.988 113.352 319.762C114.852 320.512 116.914 321.32 119.539 322.188C125.188 323.758 129.465 325.832 132.371 328.41C135.301 330.988 136.766 334.375 136.766 338.57C136.766 341.477 135.98 343.996 134.41 346.129C132.84 348.238 130.637 349.867 127.801 351.016C124.965 352.164 121.648 352.738 117.852 352.738ZM140.844 366.625V360.438L145.801 359.383V321.203L140.316 320.148V313.961H155.223L155.715 318.391C156.84 316.75 158.199 315.484 159.793 314.594C161.387 313.703 163.285 313.258 165.488 313.258C168.559 313.258 171.184 314.102 173.363 315.789C175.543 317.453 177.207 319.785 178.355 322.785C179.527 325.785 180.113 329.289 180.113 333.297V334.035C180.113 337.785 179.527 341.066 178.355 343.879C177.207 346.668 175.531 348.848 173.328 350.418C171.148 351.965 168.512 352.738 165.418 352.738C163.379 352.738 161.574 352.375 160.004 351.648C158.457 350.898 157.133 349.809 156.031 348.379V359.383L160.988 360.438V366.625H140.844ZM162.359 344.863C164.984 344.863 166.883 343.891 168.055 341.945C169.25 340 169.848 337.363 169.848 334.035V333.297C169.848 330.883 169.578 328.785 169.039 327.004C168.5 325.199 167.668 323.793 166.543 322.785C165.441 321.754 164.023 321.238 162.289 321.238C160.883 321.238 159.641 321.555 158.562 322.188C157.508 322.82 156.664 323.723 156.031 324.895V341.559C156.664 342.637 157.508 343.457 158.562 344.02C159.641 344.582 160.906 344.863 162.359 344.863ZM197.41 352.738C193.637 352.738 190.637 351.73 188.41 349.715C186.184 347.676 185.07 344.91 185.07 341.418C185.07 337.832 186.523 334.926 189.43 332.699C192.336 330.449 196.59 329.324 202.191 329.324H207.219V326.512C207.219 324.684 206.68 323.207 205.602 322.082C204.547 320.934 202.953 320.359 200.82 320.359C199.719 320.359 198.734 320.5 197.867 320.781C197 321.039 196.203 321.414 195.477 321.906L194.668 326.934H187.285L187.145 317.055C189.137 315.93 191.293 315.016 193.613 314.312C195.934 313.609 198.523 313.258 201.383 313.258C206.352 313.258 210.277 314.418 213.16 316.738C216.043 319.035 217.484 322.328 217.484 326.617V342.297C217.484 342.812 217.484 343.328 217.484 343.844C217.508 344.336 217.555 344.816 217.625 345.285L221.598 345.848V352H208.871C208.613 351.344 208.355 350.641 208.098 349.891C207.84 349.141 207.652 348.391 207.535 347.641C206.316 349.188 204.875 350.43 203.211 351.367C201.57 352.281 199.637 352.738 197.41 352.738ZM200.152 345.145C201.582 345.145 202.941 344.828 204.23 344.195C205.52 343.539 206.516 342.684 207.219 341.629V335.617H202.156C199.906 335.617 198.195 336.133 197.023 337.164C195.875 338.195 195.301 339.438 195.301 340.891C195.301 342.25 195.723 343.305 196.566 344.055C197.434 344.781 198.629 345.145 200.152 345.145ZM226.027 352V345.848L230.949 344.793V321.203L225.5 320.148V313.961H240.512L240.898 318.672L240.969 319.516C241.906 317.453 243.066 315.895 244.449 314.84C245.832 313.785 247.484 313.258 249.406 313.258C250.016 313.258 250.684 313.316 251.41 313.434C252.137 313.527 252.781 313.656 253.344 313.82L252.254 323.277L247.156 322.996C245.703 322.926 244.52 323.172 243.605 323.734C242.715 324.297 241.918 325.105 241.215 326.16V344.793L246.137 345.848V352H226.027ZM254.082 352V345.848L259.039 344.793V304.398L253.555 303.344V297.156H269.27V344.793L273.699 345.848V352H254.082ZM278.305 352V346.164L281.188 345.496L281.117 345.355L273.594 335.125L280.133 328.41L292.613 344.758L297.324 345.848V352H278.305ZM268.18 341.594L263.258 335.863L279.781 320.746L279.852 320.641L275.949 320.078V313.961H295.742V320.148L290.82 321.379L268.18 341.594Z" fill="#E9682E"/>
<path d="M106.045 448.384C104.034 448.384 102.304 447.957 100.855 447.105C99.4148 446.244 98.3068 445.051 97.5312 443.526C96.7642 442 96.3807 440.244 96.3807 438.259C96.3807 436.247 96.7685 434.483 97.544 432.966C98.3281 431.44 99.4403 430.251 100.881 429.399C102.321 428.538 104.034 428.108 106.02 428.108C107.733 428.108 109.233 428.419 110.52 429.041C111.807 429.663 112.825 430.537 113.575 431.662C114.325 432.787 114.739 434.108 114.815 435.625H109.676C109.531 434.645 109.148 433.857 108.526 433.26C107.912 432.655 107.107 432.352 106.109 432.352C105.266 432.352 104.528 432.582 103.898 433.043C103.276 433.494 102.79 434.155 102.44 435.024C102.091 435.893 101.916 436.946 101.916 438.182C101.916 439.435 102.087 440.5 102.428 441.378C102.777 442.256 103.267 442.925 103.898 443.385C104.528 443.845 105.266 444.075 106.109 444.075C106.732 444.075 107.29 443.947 107.784 443.692C108.287 443.436 108.7 443.065 109.024 442.58C109.357 442.085 109.574 441.493 109.676 440.803H114.815C114.73 442.303 114.321 443.624 113.588 444.766C112.864 445.899 111.862 446.786 110.584 447.425C109.305 448.064 107.793 448.384 106.045 448.384ZM123.028 436.648V448H117.582V421.818H122.875V431.828H123.105C123.548 430.669 124.264 429.761 125.253 429.105C126.241 428.44 127.481 428.108 128.973 428.108C130.336 428.108 131.525 428.406 132.54 429.003C133.562 429.591 134.355 430.439 134.917 431.547C135.488 432.646 135.77 433.963 135.761 435.497V448H130.315V436.469C130.324 435.259 130.017 434.317 129.395 433.643C128.781 432.97 127.92 432.634 126.812 432.634C126.071 432.634 125.415 432.791 124.844 433.107C124.281 433.422 123.838 433.882 123.514 434.487C123.199 435.084 123.037 435.804 123.028 436.648ZM144.926 448.371C143.674 448.371 142.557 448.153 141.577 447.719C140.597 447.276 139.821 446.624 139.25 445.763C138.688 444.893 138.407 443.811 138.407 442.516C138.407 441.425 138.607 440.509 139.007 439.767C139.408 439.026 139.953 438.429 140.644 437.977C141.334 437.526 142.118 437.185 142.996 436.955C143.882 436.724 144.811 436.562 145.783 436.469C146.925 436.349 147.846 436.239 148.544 436.136C149.243 436.026 149.75 435.864 150.066 435.651C150.381 435.437 150.539 435.122 150.539 434.705V434.628C150.539 433.818 150.283 433.192 149.772 432.749C149.269 432.305 148.553 432.084 147.624 432.084C146.644 432.084 145.864 432.301 145.284 432.736C144.705 433.162 144.321 433.699 144.134 434.347L139.097 433.938C139.353 432.744 139.855 431.713 140.605 430.844C141.355 429.966 142.323 429.293 143.507 428.824C144.701 428.347 146.081 428.108 147.649 428.108C148.74 428.108 149.784 428.236 150.782 428.491C151.787 428.747 152.678 429.143 153.453 429.68C154.238 430.217 154.855 430.908 155.307 431.751C155.759 432.587 155.985 433.588 155.985 434.756V448H150.82V445.277H150.667C150.351 445.891 149.929 446.432 149.401 446.901C148.873 447.361 148.238 447.723 147.496 447.987C146.755 448.243 145.898 448.371 144.926 448.371ZM146.486 444.612C147.287 444.612 147.995 444.455 148.608 444.139C149.222 443.815 149.703 443.381 150.053 442.835C150.402 442.29 150.577 441.672 150.577 440.982V438.898C150.407 439.009 150.172 439.111 149.874 439.205C149.584 439.29 149.256 439.371 148.89 439.447C148.523 439.516 148.157 439.58 147.79 439.639C147.424 439.69 147.091 439.737 146.793 439.78C146.154 439.874 145.596 440.023 145.118 440.227C144.641 440.432 144.27 440.709 144.006 441.058C143.742 441.399 143.61 441.825 143.61 442.337C143.61 443.078 143.878 443.645 144.415 444.037C144.961 444.42 145.651 444.612 146.486 444.612ZM159.49 455.364V428.364H164.859V431.662H165.102C165.341 431.134 165.686 430.597 166.138 430.051C166.598 429.497 167.194 429.037 167.927 428.67C168.669 428.295 169.589 428.108 170.689 428.108C172.121 428.108 173.442 428.483 174.652 429.233C175.862 429.974 176.829 431.095 177.554 432.595C178.278 434.087 178.64 435.957 178.64 438.207C178.64 440.398 178.287 442.247 177.579 443.756C176.88 445.256 175.926 446.393 174.716 447.169C173.514 447.936 172.167 448.32 170.676 448.32C169.619 448.32 168.72 448.145 167.978 447.795C167.246 447.446 166.645 447.007 166.176 446.479C165.707 445.942 165.349 445.401 165.102 444.855H164.936V455.364H159.49ZM164.821 438.182C164.821 439.349 164.983 440.368 165.307 441.237C165.63 442.107 166.099 442.784 166.713 443.27C167.327 443.747 168.072 443.986 168.95 443.986C169.836 443.986 170.586 443.743 171.2 443.257C171.814 442.763 172.278 442.081 172.594 441.212C172.917 440.334 173.079 439.324 173.079 438.182C173.079 437.048 172.922 436.051 172.606 435.19C172.291 434.33 171.827 433.656 171.213 433.17C170.599 432.685 169.845 432.442 168.95 432.442C168.064 432.442 167.314 432.676 166.7 433.145C166.095 433.614 165.63 434.278 165.307 435.139C164.983 436 164.821 437.014 164.821 438.182ZM191.996 428.364V432.455H180.17V428.364H191.996ZM182.855 423.659H188.301V441.966C188.301 442.469 188.378 442.861 188.531 443.142C188.685 443.415 188.898 443.607 189.17 443.717C189.452 443.828 189.776 443.884 190.142 443.884C190.398 443.884 190.653 443.862 190.909 443.82C191.165 443.768 191.361 443.73 191.497 443.705L192.354 447.757C192.081 447.842 191.697 447.94 191.203 448.051C190.709 448.17 190.108 448.243 189.401 448.268C188.088 448.32 186.937 448.145 185.949 447.744C184.969 447.344 184.206 446.722 183.66 445.878C183.115 445.034 182.847 443.969 182.855 442.682V423.659ZM203.561 448.384C201.541 448.384 199.803 447.974 198.345 447.156C196.896 446.33 195.78 445.162 194.996 443.653C194.212 442.136 193.82 440.342 193.82 438.271C193.82 436.251 194.212 434.479 194.996 432.953C195.78 431.428 196.884 430.239 198.307 429.386C199.739 428.534 201.418 428.108 203.344 428.108C204.639 428.108 205.845 428.317 206.962 428.734C208.087 429.143 209.067 429.761 209.902 430.588C210.746 431.415 211.402 432.455 211.871 433.707C212.34 434.952 212.574 436.409 212.574 438.08V439.575H195.993V436.2H207.448C207.448 435.416 207.277 434.722 206.936 434.116C206.595 433.511 206.122 433.038 205.517 432.697C204.921 432.348 204.226 432.173 203.433 432.173C202.607 432.173 201.874 432.365 201.235 432.749C200.604 433.124 200.11 433.631 199.752 434.27C199.394 434.901 199.21 435.604 199.202 436.379V439.588C199.202 440.56 199.381 441.399 199.739 442.107C200.105 442.814 200.621 443.359 201.286 443.743C201.95 444.126 202.739 444.318 203.651 444.318C204.256 444.318 204.81 444.233 205.313 444.062C205.815 443.892 206.246 443.636 206.604 443.295C206.962 442.955 207.235 442.537 207.422 442.043L212.459 442.375C212.203 443.585 211.679 444.642 210.887 445.545C210.102 446.44 209.088 447.139 207.844 447.642C206.608 448.136 205.181 448.384 203.561 448.384ZM215.408 448V428.364H220.688V431.79H220.892C221.25 430.571 221.851 429.651 222.695 429.028C223.539 428.398 224.51 428.082 225.61 428.082C225.882 428.082 226.176 428.099 226.492 428.134C226.807 428.168 227.084 428.214 227.323 428.274V433.107C227.067 433.03 226.713 432.962 226.262 432.902C225.81 432.842 225.397 432.812 225.022 432.812C224.22 432.812 223.505 432.987 222.874 433.337C222.252 433.678 221.757 434.155 221.391 434.768C221.033 435.382 220.854 436.089 220.854 436.891V448H215.408ZM247.245 448.575C245.046 448.567 243.154 448.026 241.569 446.952C239.992 445.878 238.778 444.322 237.925 442.286C237.082 440.249 236.664 437.798 236.673 434.935C236.673 432.08 237.094 429.646 237.938 427.635C238.79 425.624 240.005 424.094 241.582 423.045C243.167 421.989 245.055 421.46 247.245 421.46C249.435 421.46 251.319 421.989 252.896 423.045C254.481 424.102 255.7 425.636 256.552 427.648C257.404 429.651 257.826 432.08 257.817 434.935C257.817 437.807 257.391 440.261 256.539 442.298C255.695 444.335 254.485 445.891 252.908 446.964C251.332 448.038 249.444 448.575 247.245 448.575ZM247.245 443.986C248.745 443.986 249.942 443.232 250.837 441.723C251.732 440.214 252.175 437.952 252.167 434.935C252.167 432.949 251.962 431.295 251.553 429.974C251.153 428.653 250.582 427.661 249.84 426.996C249.107 426.331 248.242 425.999 247.245 425.999C245.754 425.999 244.56 426.744 243.665 428.236C242.771 429.727 242.319 431.96 242.31 434.935C242.31 436.946 242.511 438.625 242.911 439.972C243.32 441.31 243.896 442.315 244.637 442.989C245.378 443.653 246.248 443.986 247.245 443.986ZM272.435 421.818V448H266.9V427.072H266.746L260.75 430.831V425.922L267.232 421.818H272.435Z" fill="#CFCFCF"/>
<path d="M119.189 929.963L114.241 930.27C114.216 929.835 114.097 929.447 113.884 929.107C113.679 928.757 113.376 928.48 112.976 928.276C112.584 928.071 112.089 927.969 111.493 927.969C110.598 927.969 109.801 928.173 109.102 928.582C108.403 928.991 108.007 929.516 107.913 930.155C107.837 930.564 107.943 930.909 108.233 931.19C108.523 931.472 109.107 931.71 109.984 931.906L113.436 932.622C115.277 933.014 116.607 933.666 117.425 934.578C118.251 935.49 118.545 936.683 118.307 938.158C118.094 939.411 117.544 940.506 116.658 941.443C115.771 942.372 114.646 943.097 113.283 943.616C111.919 944.128 110.406 944.384 108.744 944.384C106.077 944.384 104.048 943.838 102.659 942.747C101.27 941.656 100.601 940.178 100.652 938.311L105.97 938.03C106.013 938.831 106.294 939.436 106.814 939.845C107.334 940.246 108.045 940.45 108.949 940.459C109.963 940.476 110.824 940.267 111.531 939.832C112.247 939.389 112.652 938.852 112.746 938.222C112.814 937.778 112.686 937.42 112.362 937.148C112.047 936.875 111.467 936.649 110.624 936.47L107.351 935.793C105.493 935.409 104.159 934.723 103.349 933.734C102.54 932.746 102.263 931.489 102.518 929.963C102.723 928.744 103.23 927.7 104.04 926.831C104.858 925.953 105.911 925.28 107.197 924.811C108.493 924.342 109.955 924.108 111.582 924.108C114.131 924.108 116.048 924.632 117.335 925.68C118.631 926.729 119.249 928.156 119.189 929.963ZM118.843 951.364L123.368 924.364H128.738L128.188 927.662H128.431C128.755 927.134 129.185 926.597 129.722 926.051C130.268 925.497 130.945 925.037 131.755 924.67C132.564 924.295 133.515 924.108 134.606 924.108C136.046 924.108 137.303 924.483 138.377 925.233C139.451 925.974 140.226 927.095 140.704 928.595C141.189 930.087 141.245 931.957 140.87 934.207C140.512 936.398 139.851 938.247 138.888 939.756C137.934 941.256 136.787 942.393 135.449 943.169C134.12 943.936 132.709 944.32 131.218 944.32C130.161 944.32 129.292 944.145 128.61 943.795C127.937 943.446 127.412 943.007 127.037 942.479C126.662 941.942 126.398 941.401 126.245 940.855H126.04L124.302 951.364H118.843ZM127.063 934.182C126.876 935.349 126.867 936.368 127.037 937.237C127.216 938.107 127.574 938.784 128.111 939.27C128.648 939.747 129.356 939.986 130.233 939.986C131.12 939.986 131.908 939.743 132.599 939.257C133.289 938.763 133.864 938.081 134.324 937.212C134.785 936.334 135.113 935.324 135.309 934.182C135.488 933.048 135.492 932.051 135.322 931.19C135.151 930.33 134.802 929.656 134.273 929.17C133.745 928.685 133.029 928.442 132.126 928.442C131.248 928.442 130.459 928.676 129.76 929.145C129.07 929.614 128.495 930.278 128.035 931.139C127.574 932 127.251 933.014 127.063 934.182ZM147.676 944.371C146.432 944.371 145.354 944.153 144.442 943.719C143.539 943.276 142.874 942.619 142.448 941.75C142.022 940.881 141.915 939.803 142.128 938.516C142.316 937.425 142.669 936.513 143.189 935.78C143.718 935.038 144.361 934.442 145.12 933.99C145.878 933.538 146.718 933.193 147.638 932.955C148.567 932.716 149.526 932.554 150.515 932.469C151.657 932.349 152.586 932.234 153.301 932.124C154.026 932.013 154.567 931.855 154.925 931.651C155.283 931.437 155.5 931.122 155.577 930.705V930.628C155.705 929.827 155.556 929.205 155.13 928.761C154.712 928.31 154.043 928.084 153.123 928.084C152.151 928.084 151.324 928.297 150.642 928.723C149.969 929.149 149.488 929.69 149.198 930.347L144.238 929.938C144.681 928.744 145.35 927.713 146.245 926.844C147.148 925.966 148.235 925.293 149.505 924.824C150.774 924.347 152.198 924.108 153.774 924.108C154.865 924.108 155.884 924.236 156.83 924.491C157.784 924.747 158.607 925.143 159.297 925.68C159.996 926.217 160.499 926.908 160.806 927.751C161.121 928.587 161.185 929.588 160.998 930.756L158.786 944H153.621L154.081 941.277H153.928C153.51 941.891 152.999 942.432 152.394 942.901C151.789 943.361 151.094 943.723 150.31 943.987C149.526 944.243 148.648 944.371 147.676 944.371ZM149.863 940.612C150.655 940.612 151.384 940.455 152.049 940.139C152.722 939.815 153.276 939.381 153.711 938.835C154.154 938.29 154.435 937.672 154.554 936.982L154.887 934.898C154.716 935.009 154.469 935.107 154.145 935.192C153.83 935.277 153.485 935.358 153.11 935.435C152.743 935.503 152.373 935.567 151.998 935.626C151.623 935.678 151.286 935.729 150.988 935.78C150.331 935.874 149.743 936.023 149.223 936.227C148.703 936.432 148.282 936.709 147.958 937.058C147.634 937.399 147.434 937.825 147.357 938.337C147.238 939.078 147.412 939.645 147.881 940.037C148.358 940.42 149.019 940.612 149.863 940.612ZM162.291 944L165.564 924.364H170.844L170.268 927.79H170.473C171.035 926.571 171.79 925.651 172.736 925.028C173.69 924.398 174.717 924.082 175.817 924.082C176.089 924.082 176.375 924.099 176.673 924.134C176.98 924.159 177.253 924.202 177.491 924.261L176.673 929.107C176.434 929.021 176.094 928.953 175.65 928.902C175.216 928.842 174.802 928.812 174.41 928.812C173.618 928.812 172.88 928.987 172.199 929.337C171.517 929.678 170.942 930.155 170.473 930.768C170.013 931.382 169.71 932.089 169.565 932.891L167.737 944H162.291ZM182.169 938.349L183.256 931.817H184.049L191.604 924.364H197.855L187.782 934.233H186.478L182.169 938.349ZM176.301 944L180.648 917.818H186.094L181.747 944H176.301ZM188.574 944L184.228 935.447L188.485 931.599L194.953 944H188.574ZM206.327 917.818L201.981 944H196.535L200.881 917.818H206.327ZM211.171 944.371C209.927 944.371 208.849 944.153 207.937 943.719C207.034 943.276 206.369 942.619 205.943 941.75C205.517 940.881 205.41 939.803 205.623 938.516C205.811 937.425 206.164 936.513 206.684 935.78C207.213 935.038 207.856 934.442 208.615 933.99C209.373 933.538 210.213 933.193 211.133 932.955C212.062 932.716 213.021 932.554 214.01 932.469C215.152 932.349 216.081 932.234 216.796 932.124C217.521 932.013 218.062 931.855 218.42 931.651C218.778 931.437 218.995 931.122 219.072 930.705V930.628C219.2 929.827 219.051 929.205 218.625 928.761C218.207 928.31 217.538 928.084 216.618 928.084C215.646 928.084 214.819 928.297 214.137 928.723C213.464 929.149 212.983 929.69 212.693 930.347L207.733 929.938C208.176 928.744 208.845 927.713 209.74 926.844C210.643 925.966 211.73 925.293 213 924.824C214.269 924.347 215.693 924.108 217.269 924.108C218.36 924.108 219.379 924.236 220.325 924.491C221.279 924.747 222.102 925.143 222.792 925.68C223.491 926.217 223.994 926.908 224.301 927.751C224.616 928.587 224.68 929.588 224.493 930.756L222.281 944H217.116L217.576 941.277H217.423C217.005 941.891 216.494 942.432 215.889 942.901C215.284 943.361 214.589 943.723 213.805 943.987C213.021 944.243 212.143 944.371 211.171 944.371ZM213.358 940.612C214.15 940.612 214.879 940.455 215.544 940.139C216.217 939.815 216.771 939.381 217.206 938.835C217.649 938.29 217.93 937.672 218.049 936.982L218.382 934.898C218.211 935.009 217.964 935.107 217.64 935.192C217.325 935.277 216.98 935.358 216.605 935.435C216.238 935.503 215.868 935.567 215.493 935.626C215.118 935.678 214.781 935.729 214.483 935.78C213.826 935.874 213.238 936.023 212.718 936.227C212.198 936.432 211.777 936.709 211.453 937.058C211.129 937.399 210.929 937.825 210.852 938.337C210.733 939.078 210.907 939.645 211.376 940.037C211.853 940.42 212.514 940.612 213.358 940.612ZM225.888 944L230.235 917.818H235.681L234.07 927.662H234.223C234.547 927.134 234.982 926.597 235.527 926.051C236.081 925.497 236.759 925.037 237.56 924.67C238.361 924.295 239.312 924.108 240.411 924.108C241.843 924.108 243.1 924.483 244.182 925.233C245.265 925.974 246.045 927.095 246.522 928.595C246.999 930.087 247.05 931.957 246.675 934.207C246.317 936.398 245.657 938.247 244.694 939.756C243.739 941.256 242.593 942.393 241.255 943.169C239.925 943.936 238.515 944.32 237.023 944.32C235.966 944.32 235.097 944.145 234.415 943.795C233.742 943.446 233.218 943.007 232.843 942.479C232.468 941.942 232.199 941.401 232.037 940.855H231.769L231.258 944H225.888ZM232.856 934.182C232.668 935.349 232.664 936.368 232.843 937.237C233.03 938.107 233.388 938.784 233.917 939.27C234.454 939.747 235.157 939.986 236.026 939.986C236.921 939.986 237.714 939.743 238.404 939.257C239.103 938.763 239.682 938.081 240.143 937.212C240.603 936.334 240.927 935.324 241.114 934.182C241.293 933.048 241.297 932.051 241.127 931.19C240.956 930.33 240.607 929.656 240.079 929.17C239.55 928.685 238.834 928.442 237.931 928.442C237.053 928.442 236.265 928.676 235.566 929.145C234.875 929.614 234.296 930.278 233.827 931.139C233.367 932 233.043 933.014 232.856 934.182ZM251.379 944.332C250.518 944.332 249.811 944.034 249.257 943.438C248.711 942.841 248.464 942.116 248.515 941.264C248.575 940.42 248.929 939.709 249.576 939.129C250.233 938.541 250.987 938.247 251.839 938.247C252.657 938.247 253.348 938.541 253.91 939.129C254.473 939.717 254.72 940.429 254.652 941.264C254.609 941.827 254.426 942.342 254.102 942.811C253.787 943.271 253.386 943.642 252.9 943.923C252.414 944.196 251.907 944.332 251.379 944.332ZM266.776 944.384C264.757 944.384 263.095 943.957 261.791 943.105C260.495 942.244 259.587 941.051 259.068 939.526C258.556 938 258.467 936.244 258.799 934.259C259.123 932.247 259.801 930.483 260.832 928.966C261.863 927.44 263.171 926.251 264.757 925.399C266.35 924.538 268.14 924.108 270.126 924.108C271.839 924.108 273.288 924.419 274.472 925.041C275.657 925.663 276.526 926.537 277.08 927.662C277.634 928.787 277.822 930.108 277.643 931.625H272.516C272.525 930.653 272.274 929.865 271.762 929.26C271.251 928.655 270.501 928.352 269.512 928.352C268.66 928.352 267.876 928.582 267.16 929.043C266.453 929.494 265.852 930.155 265.357 931.024C264.872 931.893 264.531 932.946 264.335 934.182C264.13 935.435 264.126 936.5 264.322 937.378C264.518 938.256 264.893 938.925 265.447 939.385C266.001 939.845 266.7 940.075 267.543 940.075C268.174 940.075 268.758 939.947 269.295 939.692C269.84 939.436 270.318 939.065 270.727 938.58C271.136 938.085 271.451 937.493 271.673 936.803H276.812C276.462 938.311 275.828 939.632 274.907 940.766C273.995 941.899 272.849 942.786 271.468 943.425C270.087 944.064 268.524 944.384 266.776 944.384ZM278.364 944L281.637 924.364H287.083L283.81 944H278.364ZM284.923 921.807C284.113 921.807 283.444 921.538 282.915 921.001C282.396 920.456 282.182 919.808 282.276 919.058C282.37 918.291 282.736 917.643 283.376 917.115C284.015 916.578 284.739 916.31 285.549 916.31C286.359 916.31 287.019 916.578 287.53 917.115C288.042 917.643 288.255 918.291 288.17 919.058C288.084 919.808 287.722 920.456 287.083 921.001C286.452 921.538 285.732 921.807 284.923 921.807ZM301.17 924.364L300.493 928.455H288.655L289.345 924.364H301.17ZM292.797 919.659H298.243L295.2 937.966C295.115 938.469 295.128 938.861 295.238 939.142C295.349 939.415 295.532 939.607 295.788 939.717C296.052 939.828 296.368 939.884 296.734 939.884C296.99 939.884 297.25 939.862 297.514 939.82C297.778 939.768 297.978 939.73 298.115 939.705L298.319 943.757C298.013 943.851 297.599 943.953 297.079 944.064C296.568 944.175 295.963 944.243 295.264 944.268C293.934 944.32 292.809 944.145 291.889 943.744C290.968 943.335 290.308 942.709 289.907 941.865C289.507 941.021 289.422 939.96 289.652 938.682L292.797 919.659ZM302.886 951.364C302.187 951.364 301.548 951.308 300.968 951.197C300.388 951.095 299.911 950.963 299.536 950.801L301.454 946.736C302.059 946.932 302.609 947.034 303.103 947.043C303.606 947.051 304.066 946.923 304.484 946.659C304.901 946.395 305.285 945.96 305.634 945.355L306.12 944.524L302.438 924.364H307.961L309.623 938.81H309.827L316.334 924.364H322.305L311.067 946.122C310.513 947.188 309.857 948.112 309.099 948.896C308.349 949.68 307.458 950.286 306.427 950.712C305.404 951.146 304.224 951.364 302.886 951.364Z" fill="#E9682E"/>
<path d="M340.18 944.384C338.194 944.384 336.476 943.962 335.028 943.118C333.587 942.266 332.475 941.081 331.691 939.564C330.907 938.038 330.515 936.27 330.515 934.259C330.515 932.23 330.907 930.457 331.691 928.94C332.475 927.415 333.587 926.23 335.028 925.386C336.476 924.534 338.194 924.108 340.18 924.108C342.165 924.108 343.878 924.534 345.319 925.386C346.768 926.23 347.884 927.415 348.668 928.94C349.452 930.457 349.844 932.23 349.844 934.259C349.844 936.27 349.452 938.038 348.668 939.564C347.884 941.081 346.768 942.266 345.319 943.118C343.878 943.962 342.165 944.384 340.18 944.384ZM340.205 940.165C341.109 940.165 341.863 939.909 342.468 939.398C343.073 938.878 343.529 938.17 343.836 937.276C344.151 936.381 344.309 935.362 344.309 934.22C344.309 933.078 344.151 932.06 343.836 931.165C343.529 930.27 343.073 929.562 342.468 929.043C341.863 928.523 341.109 928.263 340.205 928.263C339.293 928.263 338.526 928.523 337.904 929.043C337.29 929.562 336.826 930.27 336.511 931.165C336.204 932.06 336.05 933.078 336.05 934.22C336.05 935.362 336.204 936.381 336.511 937.276C336.826 938.17 337.29 938.878 337.904 939.398C338.526 939.909 339.293 940.165 340.205 940.165ZM363.225 924.364V928.455H351.106V924.364H363.225ZM353.88 944V922.945C353.88 921.521 354.157 920.341 354.711 919.403C355.274 918.466 356.041 917.763 357.012 917.294C357.984 916.825 359.087 916.591 360.323 916.591C361.158 916.591 361.921 916.655 362.612 916.783C363.31 916.911 363.83 917.026 364.171 917.128L363.2 921.219C362.987 921.151 362.722 921.087 362.407 921.027C362.1 920.967 361.785 920.938 361.461 920.938C360.66 920.938 360.102 921.125 359.786 921.5C359.471 921.866 359.313 922.382 359.313 923.047V944H353.88ZM106.788 992H100.857L109.895 965.818H117.028L126.054 992H120.122L113.564 971.801H113.359L106.788 992ZM106.418 981.709H120.429V986.03H106.418V981.709ZM128.383 992V972.364H133.663V975.79H133.867C134.225 974.571 134.826 973.651 135.67 973.028C136.514 972.398 137.485 972.082 138.585 972.082C138.857 972.082 139.151 972.099 139.467 972.134C139.782 972.168 140.059 972.214 140.298 972.274V977.107C140.042 977.03 139.688 976.962 139.237 976.902C138.785 976.842 138.372 976.812 137.997 976.812C137.195 976.812 136.48 976.987 135.849 977.337C135.227 977.678 134.732 978.155 134.366 978.768C134.008 979.382 133.829 980.089 133.829 980.891V992H128.383ZM153.822 972.364V976.455H141.997V972.364H153.822ZM144.682 967.659H150.128V985.966C150.128 986.469 150.205 986.861 150.358 987.142C150.511 987.415 150.724 987.607 150.997 987.717C151.278 987.828 151.602 987.884 151.969 987.884C152.224 987.884 152.48 987.862 152.736 987.82C152.991 987.768 153.187 987.73 153.324 987.705L154.18 991.757C153.908 991.842 153.524 991.94 153.03 992.051C152.535 992.17 151.935 992.243 151.227 992.268C149.915 992.32 148.764 992.145 147.776 991.744C146.795 991.344 146.033 990.722 145.487 989.878C144.942 989.034 144.673 987.969 144.682 986.682V967.659ZM156.65 992V972.364H162.096V992H156.65ZM159.386 969.832C158.576 969.832 157.882 969.564 157.302 969.027C156.731 968.482 156.445 967.83 156.445 967.071C156.445 966.321 156.731 965.678 157.302 965.141C157.882 964.595 158.576 964.322 159.386 964.322C160.195 964.322 160.886 964.595 161.457 965.141C162.036 965.678 162.326 966.321 162.326 967.071C162.326 967.83 162.036 968.482 161.457 969.027C160.886 969.564 160.195 969.832 159.386 969.832ZM182.077 977.963L177.091 978.27C177.006 977.844 176.822 977.46 176.541 977.119C176.26 976.77 175.889 976.493 175.429 976.288C174.977 976.075 174.436 975.969 173.805 975.969C172.962 975.969 172.25 976.148 171.67 976.506C171.091 976.855 170.801 977.324 170.801 977.912C170.801 978.381 170.989 978.777 171.364 979.101C171.739 979.425 172.382 979.685 173.294 979.881L176.848 980.597C178.757 980.989 180.18 981.619 181.118 982.489C182.055 983.358 182.524 984.5 182.524 985.915C182.524 987.202 182.145 988.331 181.386 989.303C180.636 990.274 179.605 991.033 178.293 991.578C176.989 992.115 175.484 992.384 173.78 992.384C171.18 992.384 169.109 991.842 167.567 990.76C166.033 989.669 165.133 988.186 164.869 986.311L170.226 986.03C170.388 986.822 170.78 987.428 171.402 987.845C172.024 988.254 172.821 988.459 173.793 988.459C174.747 988.459 175.514 988.276 176.094 987.909C176.682 987.534 176.98 987.053 176.989 986.464C176.98 985.97 176.771 985.565 176.362 985.25C175.953 984.926 175.322 984.679 174.47 984.509L171.07 983.831C169.152 983.447 167.724 982.783 166.787 981.837C165.858 980.891 165.393 979.685 165.393 978.219C165.393 976.957 165.734 975.871 166.416 974.959C167.107 974.047 168.074 973.344 169.318 972.849C170.571 972.355 172.037 972.108 173.716 972.108C176.196 972.108 178.148 972.632 179.571 973.68C181.003 974.729 181.838 976.156 182.077 977.963ZM195.678 972.364V976.455H183.853V972.364H195.678ZM186.537 967.659H191.983V985.966C191.983 986.469 192.06 986.861 192.214 987.142C192.367 987.415 192.58 987.607 192.853 987.717C193.134 987.828 193.458 987.884 193.824 987.884C194.08 987.884 194.336 987.862 194.591 987.82C194.847 987.768 195.043 987.73 195.179 987.705L196.036 991.757C195.763 991.842 195.38 991.94 194.885 992.051C194.391 992.17 193.79 992.243 193.083 992.268C191.77 992.32 190.62 992.145 189.631 991.744C188.651 991.344 187.888 990.722 187.343 989.878C186.797 989.034 186.529 987.969 186.537 986.682V967.659ZM209.301 983.601C208.457 983.601 207.733 983.303 207.128 982.706C206.531 982.101 206.233 981.376 206.233 980.533C206.233 979.697 206.531 978.982 207.128 978.385C207.733 977.788 208.457 977.49 209.301 977.49C210.119 977.49 210.835 977.788 211.449 978.385C212.062 978.982 212.369 979.697 212.369 980.533C212.369 981.095 212.224 981.611 211.934 982.08C211.653 982.54 211.282 982.911 210.822 983.192C210.362 983.464 209.855 983.601 209.301 983.601ZM223.835 992V965.818H229.37V976.621H240.607V965.818H246.13V992H240.607V981.185H229.37V992H223.835ZM255.471 992.371C254.218 992.371 253.102 992.153 252.122 991.719C251.142 991.276 250.366 990.624 249.795 989.763C249.233 988.893 248.951 987.811 248.951 986.516C248.951 985.425 249.152 984.509 249.552 983.767C249.953 983.026 250.498 982.429 251.188 981.977C251.879 981.526 252.663 981.185 253.541 980.955C254.427 980.724 255.356 980.562 256.328 980.469C257.47 980.349 258.39 980.239 259.089 980.136C259.788 980.026 260.295 979.864 260.61 979.651C260.926 979.437 261.083 979.122 261.083 978.705V978.628C261.083 977.818 260.828 977.192 260.316 976.749C259.813 976.305 259.098 976.084 258.169 976.084C257.188 976.084 256.409 976.301 255.829 976.736C255.25 977.162 254.866 977.699 254.679 978.347L249.642 977.938C249.897 976.744 250.4 975.713 251.15 974.844C251.9 973.966 252.867 973.293 254.052 972.824C255.245 972.347 256.626 972.108 258.194 972.108C259.285 972.108 260.329 972.236 261.326 972.491C262.332 972.747 263.223 973.143 263.998 973.68C264.782 974.217 265.4 974.908 265.852 975.751C266.304 976.587 266.529 977.588 266.529 978.756V992H261.365V989.277H261.211C260.896 989.891 260.474 990.432 259.946 990.901C259.417 991.361 258.782 991.723 258.041 991.987C257.299 992.243 256.443 992.371 255.471 992.371ZM257.031 988.612C257.832 988.612 258.539 988.455 259.153 988.139C259.767 987.815 260.248 987.381 260.598 986.835C260.947 986.29 261.122 985.672 261.122 984.982V982.898C260.951 983.009 260.717 983.111 260.419 983.205C260.129 983.29 259.801 983.371 259.434 983.447C259.068 983.516 258.701 983.58 258.335 983.639C257.968 983.69 257.636 983.737 257.338 983.78C256.698 983.874 256.14 984.023 255.663 984.227C255.186 984.432 254.815 984.709 254.551 985.058C254.287 985.399 254.154 985.825 254.154 986.337C254.154 987.078 254.423 987.645 254.96 988.037C255.505 988.42 256.196 988.612 257.031 988.612ZM278.907 992.384C276.895 992.384 275.165 991.957 273.716 991.105C272.276 990.244 271.168 989.051 270.393 987.526C269.625 986 269.242 984.244 269.242 982.259C269.242 980.247 269.63 978.483 270.405 976.966C271.189 975.44 272.302 974.251 273.742 973.399C275.182 972.538 276.895 972.108 278.881 972.108C280.594 972.108 282.094 972.419 283.381 973.041C284.668 973.663 285.687 974.537 286.437 975.662C287.187 976.787 287.6 978.108 287.677 979.625H282.537C282.393 978.645 282.009 977.857 281.387 977.26C280.773 976.655 279.968 976.352 278.971 976.352C278.127 976.352 277.39 976.582 276.759 977.043C276.137 977.494 275.651 978.155 275.302 979.024C274.952 979.893 274.777 980.946 274.777 982.182C274.777 983.435 274.948 984.5 275.289 985.378C275.638 986.256 276.128 986.925 276.759 987.385C277.39 987.845 278.127 988.075 278.971 988.075C279.593 988.075 280.151 987.947 280.645 987.692C281.148 987.436 281.562 987.065 281.885 986.58C282.218 986.085 282.435 985.493 282.537 984.803H287.677C287.591 986.303 287.182 987.624 286.449 988.766C285.725 989.899 284.723 990.786 283.445 991.425C282.167 992.064 280.654 992.384 278.907 992.384ZM295.378 986.349L295.391 979.817H296.184L302.473 972.364H308.725L300.274 982.233H298.983L295.378 986.349ZM290.443 992V965.818H295.889V992H290.443ZM302.716 992L296.938 983.447L300.568 979.599L309.095 992H302.716ZM318.817 992.384C316.797 992.384 315.058 991.974 313.601 991.156C312.152 990.33 311.036 989.162 310.252 987.653C309.467 986.136 309.075 984.342 309.075 982.271C309.075 980.251 309.467 978.479 310.252 976.953C311.036 975.428 312.139 974.239 313.563 973.386C314.994 972.534 316.673 972.108 318.6 972.108C319.895 972.108 321.101 972.317 322.217 972.734C323.342 973.143 324.323 973.761 325.158 974.588C326.002 975.415 326.658 976.455 327.127 977.707C327.595 978.952 327.83 980.409 327.83 982.08V983.575H311.249V980.2H322.703C322.703 979.416 322.533 978.722 322.192 978.116C321.851 977.511 321.378 977.038 320.773 976.697C320.176 976.348 319.482 976.173 318.689 976.173C317.862 976.173 317.129 976.365 316.49 976.749C315.859 977.124 315.365 977.631 315.007 978.27C314.649 978.901 314.466 979.604 314.457 980.379V983.588C314.457 984.56 314.636 985.399 314.994 986.107C315.361 986.814 315.877 987.359 316.541 987.743C317.206 988.126 317.994 988.318 318.906 988.318C319.511 988.318 320.065 988.233 320.568 988.062C321.071 987.892 321.502 987.636 321.859 987.295C322.217 986.955 322.49 986.537 322.678 986.043L327.715 986.375C327.459 987.585 326.935 988.642 326.142 989.545C325.358 990.44 324.344 991.139 323.1 991.642C321.864 992.136 320.436 992.384 318.817 992.384ZM330.664 992V972.364H335.943V975.79H336.148C336.506 974.571 337.107 973.651 337.951 973.028C338.794 972.398 339.766 972.082 340.865 972.082C341.138 972.082 341.432 972.099 341.747 972.134C342.063 972.168 342.34 972.214 342.578 972.274V977.107C342.323 977.03 341.969 976.962 341.517 976.902C341.066 976.842 340.652 976.812 340.277 976.812C339.476 976.812 338.76 976.987 338.13 977.337C337.507 977.678 337.013 978.155 336.647 978.768C336.289 979.382 336.11 980.089 336.11 980.891V992H330.664ZM355.469 983.601C354.626 983.601 353.901 983.303 353.296 982.706C352.699 982.101 352.401 981.376 352.401 980.533C352.401 979.697 352.699 978.982 353.296 978.385C353.901 977.788 354.626 977.49 355.469 977.49C356.288 977.49 357.003 977.788 357.617 978.385C358.231 978.982 358.538 979.697 358.538 980.533C358.538 981.095 358.393 981.611 358.103 982.08C357.822 982.54 357.451 982.911 356.991 983.192C356.53 983.464 356.023 983.601 355.469 983.601ZM370.003 992V965.818H380.486C382.412 965.818 384.019 966.104 385.306 966.675C386.593 967.246 387.56 968.038 388.208 969.053C388.855 970.058 389.179 971.217 389.179 972.53C389.179 973.553 388.975 974.452 388.566 975.227C388.156 975.994 387.594 976.625 386.878 977.119C386.171 977.605 385.361 977.95 384.449 978.155V978.411C385.446 978.453 386.379 978.734 387.249 979.254C388.127 979.774 388.838 980.503 389.384 981.44C389.929 982.369 390.202 983.477 390.202 984.764C390.202 986.153 389.857 987.393 389.166 988.484C388.485 989.567 387.475 990.423 386.137 991.054C384.799 991.685 383.149 992 381.189 992H370.003ZM375.539 987.474H380.051C381.594 987.474 382.719 987.18 383.426 986.592C384.134 985.996 384.487 985.203 384.487 984.214C384.487 983.49 384.313 982.851 383.963 982.297C383.614 981.743 383.115 981.308 382.468 980.993C381.828 980.678 381.066 980.52 380.179 980.52H375.539V987.474ZM375.539 976.774H379.642C380.401 976.774 381.074 976.642 381.662 976.378C382.259 976.105 382.728 975.722 383.068 975.227C383.418 974.733 383.593 974.141 383.593 973.45C383.593 972.504 383.256 971.741 382.583 971.162C381.918 970.582 380.972 970.293 379.745 970.293H375.539V976.774ZM405.574 983.639V972.364H411.02V992H405.791V988.433H405.587C405.144 989.584 404.406 990.509 403.375 991.207C402.352 991.906 401.104 992.256 399.629 992.256C398.317 992.256 397.162 991.957 396.165 991.361C395.168 990.764 394.388 989.916 393.825 988.817C393.271 987.717 392.99 986.401 392.982 984.866V972.364H398.428V983.895C398.436 985.054 398.747 985.97 399.361 986.643C399.974 987.317 400.797 987.653 401.828 987.653C402.484 987.653 403.098 987.504 403.669 987.206C404.24 986.899 404.7 986.447 405.05 985.851C405.408 985.254 405.582 984.517 405.574 983.639ZM414.656 992V972.364H420.102V992H414.656ZM417.392 969.832C416.582 969.832 415.888 969.564 415.308 969.027C414.737 968.482 414.452 967.83 414.452 967.071C414.452 966.321 414.737 965.678 415.308 965.141C415.888 964.595 416.582 964.322 417.392 964.322C418.202 964.322 418.892 964.595 419.463 965.141C420.042 965.678 420.332 966.321 420.332 967.071C420.332 967.83 420.042 968.482 419.463 969.027C418.892 969.564 418.202 969.832 417.392 969.832ZM429.191 965.818V992H423.745V965.818H429.191ZM440.069 992.32C438.578 992.32 437.227 991.936 436.017 991.169C434.815 990.393 433.86 989.256 433.153 987.756C432.454 986.247 432.105 984.398 432.105 982.207C432.105 979.957 432.467 978.087 433.191 976.595C433.916 975.095 434.879 973.974 436.08 973.233C437.291 972.483 438.616 972.108 440.056 972.108C441.156 972.108 442.072 972.295 442.805 972.67C443.546 973.037 444.143 973.497 444.595 974.051C445.055 974.597 445.404 975.134 445.643 975.662H445.809V965.818H451.242V992H445.873V988.855H445.643C445.387 989.401 445.025 989.942 444.556 990.479C444.096 991.007 443.495 991.446 442.754 991.795C442.021 992.145 441.126 992.32 440.069 992.32ZM441.795 987.986C442.673 987.986 443.414 987.747 444.019 987.27C444.633 986.784 445.102 986.107 445.426 985.237C445.758 984.368 445.924 983.349 445.924 982.182C445.924 981.014 445.762 980 445.438 979.139C445.115 978.278 444.646 977.614 444.032 977.145C443.419 976.676 442.673 976.442 441.795 976.442C440.9 976.442 440.146 976.685 439.532 977.17C438.919 977.656 438.454 978.33 438.139 979.19C437.823 980.051 437.666 981.048 437.666 982.182C437.666 983.324 437.823 984.334 438.139 985.212C438.463 986.081 438.927 986.763 439.532 987.257C440.146 987.743 440.9 987.986 441.795 987.986ZM463.949 992.384C461.929 992.384 460.19 991.974 458.733 991.156C457.284 990.33 456.168 989.162 455.384 987.653C454.599 986.136 454.207 984.342 454.207 982.271C454.207 980.251 454.599 978.479 455.384 976.953C456.168 975.428 457.271 974.239 458.695 973.386C460.126 972.534 461.805 972.108 463.732 972.108C465.027 972.108 466.233 972.317 467.349 972.734C468.474 973.143 469.455 973.761 470.29 974.588C471.134 975.415 471.79 976.455 472.259 977.707C472.727 978.952 472.962 980.409 472.962 982.08V983.575H456.381V980.2H467.835C467.835 979.416 467.665 978.722 467.324 978.116C466.983 977.511 466.51 977.038 465.905 976.697C465.308 976.348 464.614 976.173 463.821 976.173C462.994 976.173 462.261 976.365 461.622 976.749C460.991 977.124 460.497 977.631 460.139 978.27C459.781 978.901 459.598 979.604 459.59 980.379V983.588C459.59 984.56 459.768 985.399 460.126 986.107C460.493 986.814 461.009 987.359 461.673 987.743C462.338 988.126 463.126 988.318 464.038 988.318C464.643 988.318 465.197 988.233 465.7 988.062C466.203 987.892 466.634 987.636 466.991 987.295C467.349 986.955 467.622 986.537 467.81 986.043L472.847 986.375C472.591 987.585 472.067 988.642 471.274 989.545C470.49 990.44 469.476 991.139 468.232 991.642C466.996 992.136 465.568 992.384 463.949 992.384ZM475.796 992V972.364H481.075V975.79H481.28C481.638 974.571 482.239 973.651 483.083 973.028C483.926 972.398 484.898 972.082 485.997 972.082C486.27 972.082 486.564 972.099 486.879 972.134C487.195 972.168 487.472 972.214 487.71 972.274V977.107C487.455 977.03 487.101 976.962 486.649 976.902C486.198 976.842 485.784 976.812 485.409 976.812C484.608 976.812 483.892 976.987 483.262 977.337C482.639 977.678 482.145 978.155 481.779 978.768C481.421 979.382 481.242 980.089 481.242 980.891V992H475.796Z" fill="#CFCFCF"/>
</g>
<defs>
<filter id="filter0_dd_1_188" x="-20" y="-15" width="2077.04" height="1171.62" filterUnits="userSpaceOnUse" color-interpolation-filters="sRGB">
<feFlood flood-opacity="0" result="BackgroundImageFix"/>
<feColorMatrix in="SourceAlpha" type="matrix" values="0 0 0 0 0 0 0 0 0 0 0 0 0 0 0 0 0 0 127 0" result="hardAlpha"/>
<feOffset dy="5"/>
<feGaussianBlur stdDeviation="10"/>
<feColorMatrix type="matrix" values="0 0 0 0 0 0 0 0 0 0 0 0 0 0 0 0 0 0 0.1 0"/>
<feBlend mode="normal" in2="BackgroundImageFix" result="effect1_dropShadow_1_188"/>
<feColorMatrix in="SourceAlpha" type="matrix" values="0 0 0 0 0 0 0 0 0 0 0 0 0 0 0 0 0 0 127 0" result="hardAlpha"/>
<feOffset/>
<feGaussianBlur stdDeviation="1.5"/>
<feColorMatrix type="matrix" values="0 0 0 0 0 0 0 0 0 0 0 0 0 0 0 0 0 0 0.3 0"/>
<feBlend mode="normal" in2="effect1_dropShadow_1_188" result="effect2_dropShadow_1_188"/>
<feBlend mode="normal" in="SourceGraphic" in2="effect2_dropShadow_1_188" result="shape"/>
</filter>
</defs>
</svg>
