<svg width="280" height="280" viewBox="0 0 280 280" fill="none" xmlns="http://www.w3.org/2000/svg">
<rect width="280" height="280" rx="32" fill="#C6BEAC"/>
<g clip-path="url(#clip0_401_1746)">
<rect x="142.899" y="44" width="31.1594" height="3.2594" rx="1.6297" fill="black"/>
<rect x="142.899" y="51.9675" width="47.4638" height="3.2594" rx="1.6297" fill="black"/>
<rect x="142.899" y="59.9347" width="58.3333" height="3.2594" rx="1.6297" fill="black"/>
<rect x="142.899" y="67.5403" width="67.3913" height="3.2594" rx="1.6297" fill="black"/>
<rect x="142.899" y="75.5075" width="73.5507" height="3.2594" rx="1.6297" fill="black"/>
<rect x="142.899" y="83.475" width="78.6232" height="3.2594" rx="1.6297" fill="black"/>
<rect x="142.899" y="91.4422" width="84.4203" height="3.2594" rx="1.6297" fill="black"/>
<rect x="142.899" y="99.4097" width="88.0435" height="3.2594" rx="1.6297" fill="black"/>
<rect x="142.899" y="107.015" width="91.3043" height="3.2594" rx="1.6297" fill="black"/>
<rect x="142.899" y="114.983" width="93.1159" height="3.2594" rx="1.6297" fill="black"/>
<rect x="142.899" y="122.95" width="95.2899" height="3.2594" rx="1.6297" fill="black"/>
<rect x="142.899" y="130.555" width="96.3768" height="3.2594" rx="1.6297" fill="black"/>
<rect x="142.899" y="138.522" width="97.1014" height="3.2594" rx="1.6297" fill="black"/>
<rect x="142.899" y="146.49" width="96.3768" height="3.2594" rx="1.6297" fill="black"/>
<rect x="142.899" y="154.458" width="95.2899" height="3.2594" rx="1.6297" fill="black"/>
<rect x="142.899" y="162.425" width="93.1159" height="3.2594" rx="1.6297" fill="black"/>
<rect x="142.899" y="170.392" width="91.3043" height="3.2594" rx="1.6297" fill="black"/>
<rect x="142.899" y="177.997" width="88.0435" height="3.2594" rx="1.6297" fill="black"/>
<rect x="142.899" y="185.965" width="84.4203" height="3.2594" rx="1.6297" fill="black"/>
<rect x="142.899" y="193.932" width="78.6232" height="3.2594" rx="1.6297" fill="black"/>
<rect x="142.899" y="201.9" width="73.5507" height="3.2594" rx="1.6297" fill="black"/>
<rect x="142.899" y="209.505" width="67.3913" height="3.2594" rx="1.6297" fill="black"/>
<rect x="142.899" y="217.473" width="58.3333" height="3.2594" rx="1.6297" fill="black"/>
<rect x="142.899" y="225.44" width="47.4638" height="3.2594" rx="1.6297" fill="black"/>
<rect x="142.899" y="233.408" width="31.1594" height="3.2594" rx="1.6297" fill="black"/>
</g>
<g clip-path="url(#clip1_401_1746)">
<rect x="105.942" y="44" width="31.1594" height="3.2594" rx="1.6297" fill="black"/>
<rect x="89.6379" y="51.9675" width="47.4638" height="3.2594" rx="1.6297" fill="black"/>
<rect x="78.7681" y="59.9347" width="58.3333" height="3.2594" rx="1.6297" fill="black"/>
<rect x="69.7102" y="67.5403" width="67.3913" height="3.2594" rx="1.6297" fill="black"/>
<rect x="63.5509" y="75.5075" width="73.5507" height="3.2594" rx="1.6297" fill="black"/>
<rect x="58.4783" y="83.475" width="78.6232" height="3.2594" rx="1.6297" fill="black"/>
<rect x="52.681" y="91.4422" width="84.4203" height="3.2594" rx="1.6297" fill="black"/>
<rect x="49.0579" y="99.4097" width="88.0435" height="3.2594" rx="1.6297" fill="black"/>
<rect x="45.7968" y="107.015" width="91.3043" height="3.2594" rx="1.6297" fill="black"/>
<rect x="43.9856" y="114.983" width="93.1159" height="3.2594" rx="1.6297" fill="black"/>
<rect x="41.8115" y="122.95" width="95.2899" height="3.2594" rx="1.6297" fill="black"/>
<rect x="40.7245" y="130.555" width="96.3768" height="3.2594" rx="1.6297" fill="black"/>
<rect x="40" y="138.522" width="97.1014" height="3.2594" rx="1.6297" fill="black"/>
<rect x="40.7245" y="146.49" width="96.3768" height="3.2594" rx="1.6297" fill="black"/>
<rect x="41.8115" y="154.458" width="95.2899" height="3.2594" rx="1.6297" fill="black"/>
<rect x="43.9856" y="162.425" width="93.1159" height="3.2594" rx="1.6297" fill="black"/>
<rect x="45.7968" y="170.392" width="91.3043" height="3.2594" rx="1.6297" fill="black"/>
<rect x="49.0579" y="177.997" width="88.0435" height="3.2594" rx="1.6297" fill="black"/>
<rect x="52.681" y="185.965" width="84.4203" height="3.2594" rx="1.6297" fill="black"/>
<rect x="58.4783" y="193.932" width="78.6232" height="3.2594" rx="1.6297" fill="black"/>
<rect x="63.5509" y="201.9" width="73.5507" height="3.2594" rx="1.6297" fill="black"/>
<rect x="69.7102" y="209.505" width="67.3913" height="3.2594" rx="1.6297" fill="black"/>
<rect x="78.7681" y="217.473" width="58.3333" height="3.2594" rx="1.6297" fill="black"/>
<rect x="89.6379" y="225.44" width="47.4638" height="3.2594" rx="1.6297" fill="black"/>
<rect x="105.942" y="233.408" width="31.1594" height="3.2594" rx="1.6297" fill="black"/>
</g>
<defs>
<clipPath id="clip0_401_1746">
<rect width="97.1014" height="192.667" fill="white" transform="translate(142.899 44)"/>
</clipPath>
<clipPath id="clip1_401_1746">
<rect width="97.1014" height="192.667" fill="white" transform="translate(40 44)"/>
</clipPath>
</defs>
</svg>
