<?xml version="1.0" standalone="no"?>
<!DOCTYPE svg PUBLIC "-//W3C//DTD SVG 20010904//EN"
 "http://www.w3.org/TR/2001/REC-SVG-20010904/DTD/svg10.dtd">
<svg version="1.0" xmlns="http://www.w3.org/2000/svg"
 width="1024.000000pt" height="1024.000000pt" viewBox="0 0 1024.000000 1024.000000"
 preserveAspectRatio="xMidYMid meet">

<g transform="translate(0.000000,1024.000000) scale(0.100000,-0.100000)"
fill="#000000" stroke="none">
<path d="M4695 9295 c-265 -30 -628 -115 -830 -195 -512 -202 -866 -429 -1210
-775 -421 -423 -713 -924 -854 -1467 -81 -312 -110 -542 -117 -935 l-5 -283
-39 -82 c-95 -207 -208 -585 -254 -856 -20 -113 -20 -131 -2 -151 13 -14 11
-27 -11 -101 -18 -61 -27 -119 -30 -202 -9 -185 21 -291 109 -386 22 -24 38
-45 36 -48 -3 -2 -31 1 -64 7 -71 13 -129 7 -155 -17 -10 -9 -44 -64 -75 -121
-30 -58 -75 -132 -100 -165 -147 -200 -156 -344 -28 -457 l47 -41 3966 0
c3721 1 3968 2 3997 18 36 19 72 60 100 112 14 26 19 56 19 115 0 86 -13 121
-90 241 -18 28 -54 100 -79 161 -26 61 -55 118 -66 128 -10 9 -37 19 -59 22
-38 5 -184 -11 -219 -25 -10 -3 4 19 31 48 69 79 88 139 95 287 4 103 1 137
-18 220 -12 54 -30 114 -40 133 -15 29 -17 51 -13 120 11 183 -80 699 -171
967 -22 65 -23 78 -18 276 15 633 -117 1201 -396 1712 -262 480 -606 856
-1057 1157 -470 313 -943 491 -1510 569 -195 27 -706 35 -890 14z m685 -155
c600 -53 1120 -232 1605 -553 188 -124 317 -229 485 -397 173 -172 281 -302
392 -472 277 -421 444 -885 502 -1392 19 -164 33 -446 21 -446 -4 0 -25 20
-47 44 -51 59 -136 126 -283 223 -66 44 -128 89 -137 99 -30 34 -47 89 -54
170 -14 179 -56 301 -130 377 -160 164 -490 141 -676 -46 -81 -81 -173 -196
-186 -234 -27 -76 5 -190 63 -228 19 -12 40 -41 54 -72 15 -34 34 -59 56 -71
30 -18 33 -24 39 -88 8 -84 39 -145 81 -159 17 -5 56 -34 87 -63 85 -81 96
-87 163 -87 52 0 67 5 107 33 26 17 51 32 55 32 5 0 24 -15 41 -33 l33 -33
-27 -58 c-48 -106 -66 -287 -43 -436 6 -38 9 -84 7 -102 l-4 -33 -21 45 c-12
25 -29 83 -39 128 -24 112 -67 197 -122 239 -24 18 -54 33 -67 33 -15 0 -37
16 -62 46 -40 46 -93 73 -147 74 -42 0 -108 -71 -127 -136 -30 -107 0 -270 81
-442 30 -62 56 -99 99 -140 32 -32 84 -97 116 -146 126 -198 256 -341 347
-383 24 -12 77 -25 117 -29 l72 -7 -3 -65 -3 -65 -64 -39 c-147 -89 -368 -280
-524 -453 -180 -199 -220 -300 -180 -451 11 -44 24 -89 28 -101 7 -23 7 -23
-109 -23 l-116 0 0 237 0 236 -25 33 -25 33 0 593 0 593 33 15 c54 25 62 56
62 227 0 142 -1 153 -23 182 -22 30 -22 34 -12 118 13 103 7 152 -27 213 -14
25 -27 68 -29 95 -9 98 -58 163 -170 226 -30 17 -54 35 -54 40 0 5 -22 63 -50
129 l-50 120 0 606 0 606 30 34 c78 89 57 231 -47 310 -123 94 -297 42 -347
-103 -7 -21 -17 -38 -22 -38 -5 0 -55 4 -111 8 -111 9 -113 10 -113 85 0 40
-24 99 -52 129 -19 20 -20 27 -10 85 6 35 14 101 17 148 8 109 38 256 76 367
16 48 29 100 29 115 0 43 -40 78 -90 78 -37 0 -46 -6 -126 -87 l-86 -88 -15
30 c-35 67 -64 84 -213 118 -52 11 -55 14 -61 47 -9 55 -32 90 -106 161 -109
106 -145 105 -259 -4 -82 -77 -104 -110 -104 -155 0 -38 -14 -48 -78 -57 -29
-4 -76 -19 -105 -33 -41 -22 -56 -36 -73 -72 l-21 -45 -84 81 c-46 45 -94 87
-106 93 -37 19 -82 13 -109 -14 -22 -22 -25 -31 -19 -67 4 -22 18 -73 32 -112
39 -110 61 -228 78 -410 15 -156 15 -169 0 -186 -26 -28 -44 -89 -45 -146 l0
-52 -77 -6 c-43 -4 -94 -9 -114 -12 -33 -5 -37 -3 -42 23 -8 38 -61 110 -100
133 -17 11 -55 25 -84 31 -90 20 -191 -25 -239 -107 -47 -79 -42 -179 13 -250
l23 -31 0 -619 0 -619 -36 -85 c-20 -47 -41 -102 -47 -122 -8 -28 -20 -41 -50
-55 -107 -48 -165 -121 -174 -220 -3 -35 -15 -78 -31 -108 -26 -47 -27 -57
-25 -173 2 -111 0 -126 -18 -151 -19 -26 -20 -39 -17 -189 3 -144 5 -163 24
-189 11 -15 33 -34 47 -41 l27 -13 -3 -592 -2 -592 -25 -35 c-25 -35 -25 -36
-25 -260 0 -138 -4 -228 -10 -232 -9 -7 -245 -12 -245 -5 0 1 11 34 25 72 44
124 29 231 -47 346 -53 81 -292 321 -423 426 -115 92 -240 178 -289 198 -40
17 -46 30 -46 95 0 57 1 58 107 58 86 1 137 21 221 85 89 69 190 194 292 362
24 39 66 93 95 120 93 90 188 327 189 476 1 65 -3 83 -29 135 -22 43 -41 65
-70 81 -72 41 -131 24 -196 -56 -24 -31 -39 -41 -61 -41 -80 0 -140 -104 -189
-325 -20 -89 -39 -125 -67 -125 -11 0 -13 8 -8 33 3 17 8 93 12 167 8 157 -5
274 -41 362 l-23 58 35 30 c39 35 70 38 105 11 35 -28 69 -34 115 -22 46 13
121 75 153 126 15 25 29 35 46 35 30 0 71 25 87 54 6 12 14 57 17 102 5 74 10
86 44 134 21 30 43 70 48 89 6 20 25 53 44 73 42 47 52 94 29 141 -9 20 -28
43 -41 52 -13 8 -44 47 -70 85 -79 121 -182 191 -328 226 -64 15 -87 16 -164
6 -106 -13 -172 -42 -225 -101 -75 -83 -112 -191 -123 -361 -10 -146 -26 -170
-193 -283 -74 -51 -177 -132 -229 -181 l-93 -90 5 60 c3 32 8 104 11 159 28
490 132 909 321 1290 411 832 1113 1405 2039 1663 189 53 454 100 645 115 104
8 423 6 530 -3z m-189 -469 c-25 -72 -26 -107 -7 -180 32 -119 107 -181 230
-189 94 -5 163 20 262 100 49 38 74 53 71 41 -3 -10 -15 -56 -27 -103 -12 -46
-27 -88 -33 -92 -7 -4 -268 -7 -582 -5 l-569 2 -18 75 c-10 41 -22 92 -27 113
-5 20 -7 37 -5 37 1 0 38 -29 81 -65 94 -78 123 -93 201 -101 161 -17 268 89
279 278 5 74 3 86 -16 107 -12 13 -21 27 -21 31 0 4 23 31 51 60 l52 52 50
-50 49 -50 -21 -61z m-297 -117 c19 -7 21 -52 2 -76 -18 -24 -85 -46 -116 -38
-21 5 -25 12 -25 45 0 39 1 40 50 57 56 19 67 21 89 12z m565 -21 c29 -22 39
-66 20 -90 -10 -11 -25 -14 -57 -10 -48 5 -73 23 -96 70 -14 29 -14 33 2 45
23 18 97 9 131 -15z m229 -445 l-3 -33 -570 0 -570 0 -3 33 -3 32 576 0 576 0
-3 -32z m-40 -525 c-4 -351 -4 -359 -27 -411 -29 -65 -87 -116 -149 -132 -55
-14 -671 -15 -719 -1 -80 23 -134 73 -155 144 -14 46 -19 707 -6 740 7 16 42
17 534 17 l526 0 -4 -357z m-1696 168 l33 -29 3 -464 3 -465 -58 -99 -58 -99
-7 90 c-4 50 -7 266 -7 480 1 215 1 397 0 406 0 9 -14 33 -31 54 -33 42 -38
79 -14 113 34 49 91 54 136 13z m2449 0 c40 -41 38 -78 -6 -131 l-35 -42 -1
-491 c0 -384 -3 -488 -12 -474 -7 10 -31 48 -54 84 l-43 65 0 475 0 475 34 34
c43 43 77 44 117 5z m-2054 -254 c3 -122 15 -157 67 -188 30 -17 34 -26 45
-89 6 -38 20 -92 31 -120 l20 -50 -28 -6 c-123 -28 -206 -64 -297 -129 -35
-25 -66 -45 -69 -45 -7 0 -8 674 -1 693 6 14 53 25 170 40 61 8 60 11 62 -106z
m1753 88 c6 -4 10 -148 10 -366 l0 -361 -42 36 c-51 44 -212 127 -293 151 -33
10 -61 19 -63 21 -2 1 3 16 12 32 8 16 23 69 32 117 17 84 18 87 53 101 54 21
64 45 72 174 4 63 8 115 8 115 9 3 205 -16 211 -20z m-1368 -686 c167 -65 256
-91 338 -96 109 -7 171 5 316 62 125 49 184 64 184 48 0 -16 -81 -87 -131
-116 -148 -85 -401 -100 -585 -33 -67 25 -187 105 -204 136 -9 17 -7 20 10 20
11 0 43 -9 72 -21z m-183 -60 c88 -130 258 -214 483 -240 78 -8 122 -8 177 0
41 6 75 10 78 8 4 -5 -60 -48 -112 -75 -245 -124 -619 -88 -808 78 -43 38
-137 150 -137 164 0 3 17 14 39 25 l38 20 32 -49 c68 -105 213 -203 340 -229
75 -16 86 0 24 35 -93 53 -203 156 -250 232 -29 46 -29 60 0 72 45 18 61 11
96 -41z m1219 33 l23 -18 -24 -65 c-80 -211 -241 -439 -496 -701 -180 -185
-349 -308 -576 -418 -99 -48 -255 -100 -301 -100 -28 0 -42 24 -25 44 6 7 41
31 78 52 73 43 253 207 237 217 -6 3 -69 -21 -142 -54 -73 -32 -141 -59 -152
-59 -18 0 -20 7 -20 73 0 174 -30 469 -53 512 -19 38 -48 45 -82 19 -19 -14
-20 -30 -25 -286 l-5 -270 -39 56 c-44 64 -88 102 -163 140 -53 26 -160 47
-195 38 -10 -2 -18 1 -18 7 0 18 101 252 177 411 63 130 116 210 140 210 4 0
45 -38 91 -84 272 -280 618 -349 985 -197 197 81 323 183 434 351 93 140 93
140 111 140 9 0 27 -8 40 -18z m194 -68 c57 -30 167 -114 196 -152 38 -47 154
-280 226 -451 56 -131 64 -157 48 -147 -16 10 -146 -16 -199 -40 -65 -28 -156
-112 -194 -179 l-29 -50 0 327 0 328 -25 16 c-29 19 -48 14 -70 -19 -24 -38
-34 -119 -51 -432 -8 -159 -18 -319 -22 -355 -7 -63 -8 -65 -37 -68 -16 -2
-109 -18 -205 -37 -96 -18 -192 -36 -214 -39 l-39 -5 75 77 c118 121 181 232
246 428 22 66 49 169 61 229 34 170 47 216 106 362 30 74 55 140 55 145 0 14
28 78 35 78 3 0 20 -7 37 -16z m-3260 -331 c18 -20 32 -84 29 -125 -1 -16 1
-28 6 -28 5 0 33 16 63 35 30 19 59 35 66 35 6 0 29 14 50 31 44 35 78 34 126
-1 15 -11 42 -23 59 -27 29 -5 31 -8 26 -39 -7 -41 -35 -84 -54 -84 -8 0 -26
9 -40 20 -18 14 -41 20 -73 20 -51 0 -63 -11 -49 -47 11 -30 44 -46 79 -38 36
8 42 -10 38 -110 l-3 -70 -42 3 c-40 3 -44 1 -60 -29 -22 -39 -90 -116 -115
-130 -25 -13 -73 16 -155 94 -85 81 -114 69 -78 -32 l14 -42 -32 -19 c-18 -11
-35 -20 -38 -20 -3 0 -28 33 -55 73 -27 39 -67 92 -90 117 l-41 45 74 69 73
68 42 -17 c47 -19 98 -14 119 12 11 13 11 17 1 21 -29 9 -71 54 -77 81 -10 45
5 102 33 128 30 28 82 31 104 6z m4882 -14 c33 -38 35 -102 6 -159 -11 -22
-20 -44 -20 -49 0 -22 48 -22 91 -2 65 32 83 28 120 -26 18 -27 47 -61 66 -76
18 -16 33 -33 33 -39 0 -5 -21 -33 -46 -62 -26 -28 -64 -77 -86 -109 l-39 -58
-30 21 c-24 18 -29 29 -29 61 0 40 -14 79 -28 79 -4 0 -39 -31 -79 -69 -39
-37 -85 -74 -102 -81 -38 -16 -48 -8 -127 97 l-55 73 -31 -16 c-18 -9 -34 -12
-39 -7 -5 5 -12 46 -16 91 -5 66 -3 82 8 83 55 3 101 26 123 63 15 23 -16 46
-62 46 -32 0 -94 -35 -114 -64 -9 -13 -45 19 -64 56 -16 31 -11 50 25 95 31
40 47 41 82 7 25 -23 37 -27 114 -30 74 -3 90 -6 115 -28 67 -56 94 -43 85 41
-4 44 -2 56 15 73 28 28 54 25 84 -11z m-1983 -270 c-64 -245 -180 -443 -332
-565 -163 -130 -250 -151 -482 -121 l-89 12 114 59 c139 73 215 120 338 210
116 85 302 269 395 393 38 51 71 91 72 89 2 -1 -6 -36 -16 -77z m-3344 -191
c50 -53 153 -198 183 -258 34 -67 60 -153 59 -194 0 -25 -4 -19 -19 29 -29 89
-60 145 -92 161 -25 13 -29 13 -34 -1 -4 -8 -3 -25 0 -38 47 -164 73 -314 91
-514 7 -70 6 -73 -17 -82 -39 -17 -240 -63 -281 -64 -37 -2 -39 0 -56 43 -17
45 -46 170 -76 330 -17 89 -40 128 -69 117 -39 -15 -45 -92 -20 -269 29 -212
79 -386 107 -375 24 9 35 -7 62 -93 26 -80 80 -194 126 -267 33 -52 21 -57
-109 -49 -126 7 -279 35 -387 71 -106 35 -210 88 -209 105 5 58 75 353 115
488 120 395 245 619 438 785 56 48 139 107 151 107 3 0 20 -15 37 -32z m5804
3 c132 -83 250 -215 324 -361 83 -165 175 -555 207 -882 13 -136 14 -135 -71
-178 -105 -52 -320 -100 -452 -100 -43 0 -80 4 -84 9 -3 6 13 34 35 63 22 29
56 96 76 148 73 190 77 198 121 202 38 3 38 3 56 68 70 258 76 540 12 540 -22
0 -33 -28 -55 -150 -21 -119 -68 -310 -79 -322 -3 -4 -24 -3 -46 2 -107 25
-329 82 -335 85 -4 3 -1 28 5 57 7 29 30 130 50 223 20 94 53 210 72 259 40
102 37 119 -20 124 -32 3 -39 -1 -60 -35 -13 -21 -34 -69 -45 -108 -63 -213
-65 -218 -73 -197 -9 25 5 126 28 197 24 76 49 121 117 208 33 43 71 94 83
112 23 35 60 65 78 65 6 0 31 -13 56 -29z m-1451 -106 c14 -7 39 -28 55 -45
24 -26 26 -31 10 -27 -136 40 -275 34 -371 -16 -64 -33 -135 -137 -158 -230
-5 -22 -12 -28 -29 -25 -19 3 -22 9 -20 46 5 107 72 230 148 272 102 57 281
69 365 25z m-2649 -7 c91 -53 161 -172 163 -273 1 -47 -2 -60 -15 -63 -12 -2
-22 15 -38 65 -38 116 -107 186 -214 218 -65 19 -163 19 -239 -1 -33 -8 -63
-13 -66 -10 -14 15 67 73 122 87 17 4 78 7 136 6 94 -2 110 -5 151 -29z m-146
-179 c96 -27 137 -90 139 -212 1 -71 -1 -80 -23 -98 -12 -10 -26 -17 -31 -14
-4 2 -10 43 -13 91 -3 48 -9 89 -12 92 -17 17 -36 -32 -46 -113 -13 -115 -17
-132 -37 -140 -25 -9 -42 22 -43 79 -1 66 -8 109 -20 121 -17 17 -26 -9 -36
-103 -6 -51 -13 -96 -17 -99 -13 -14 -36 22 -46 75 -41 197 -60 213 -60 48 0
-113 0 -116 -20 -104 -47 30 -77 223 -45 291 21 45 49 64 123 81 71 18 135 19
187 5z m2797 0 c64 -13 114 -44 129 -82 19 -46 7 -174 -24 -241 -29 -64 -50
-70 -54 -15 -12 176 -31 185 -57 25 -11 -65 -14 -71 -38 -74 -25 -3 -26 -3
-30 88 -4 84 -17 124 -35 106 -4 -4 -13 -50 -19 -102 -7 -53 -15 -98 -18 -102
-3 -3 -17 0 -30 6 -22 10 -25 19 -30 89 -10 116 -16 145 -29 140 -7 -2 -16
-21 -20 -43 -16 -79 -28 -129 -32 -133 -11 -10 -34 23 -45 64 -22 80 5 203 54
244 46 39 172 52 278 30z m-3587 -240 c-55 -142 -57 -151 -37 -147 9 2 43 43
76 92 33 49 62 84 63 79 2 -5 -19 -47 -46 -93 -28 -46 -48 -87 -45 -92 6 -9
69 36 85 61 24 39 -7 -40 -55 -139 -39 -82 -64 -118 -112 -165 -33 -33 -80
-91 -104 -130 -106 -171 -240 -328 -312 -366 -44 -23 -118 -25 -157 -5 -41 22
-100 92 -126 150 -24 56 -68 196 -63 202 2 1 51 14 108 28 58 14 115 28 126
32 20 5 22 1 29 -52 9 -73 13 -84 34 -84 9 0 72 52 141 116 142 131 178 185
184 274 3 52 37 153 59 175 7 7 7 6 2 -3 -9 -17 3 -82 16 -82 9 0 21 17 113
170 26 45 50 79 53 77 2 -3 -12 -47 -32 -98z m4229 -46 c27 -51 54 -93 62 -93
16 0 29 60 20 97 -6 27 -6 27 10 8 35 -43 66 -131 74 -213 13 -118 8 -112 279
-360 13 -12 29 -21 35 -19 15 5 35 65 35 110 1 20 5 37 9 37 15 0 196 -41 230
-51 17 -6 32 -14 32 -19 0 -15 -62 -184 -82 -225 -24 -48 -73 -101 -110 -121
-15 -8 -52 -14 -82 -14 -50 0 -60 4 -118 48 -70 53 -184 194 -268 331 -39 63
-66 95 -92 111 -42 24 -88 85 -122 163 -13 29 -38 81 -55 116 -17 36 -31 66
-31 68 0 3 21 -17 46 -44 l45 -48 -4 32 -3 32 40 -37 c39 -35 41 -35 44 -15 3
21 -27 104 -64 176 -8 16 -14 38 -14 49 0 20 1 20 18 -3 11 -13 40 -66 66
-116z m-115 25 c30 -59 30 -61 7 -35 -14 15 -26 35 -26 43 0 8 -4 14 -9 14 -5
0 -11 9 -14 20 -10 39 10 19 42 -42z m-1174 -47 c60 -32 110 -95 130 -164 8
-29 35 -214 60 -412 52 -409 68 -520 131 -904 24 -150 43 -275 41 -278 -2 -2
-34 -6 -71 -10 -61 -5 -66 -4 -66 14 0 41 -61 549 -80 670 -27 167 -60 299
-71 281 -11 -16 -10 -566 0 -738 4 -69 7 -126 7 -127 -1 -1 -28 8 -61 20 -45
16 -83 21 -150 20 -81 0 -101 -4 -200 -43 -220 -85 -330 -118 -425 -130 -168
-21 -341 12 -557 106 -142 62 -235 80 -331 66 -40 -7 -86 -19 -102 -27 -28
-14 -30 -14 -31 2 -2 44 3 318 6 324 9 13 14 539 5 539 -28 0 -68 -218 -133
-725 l-32 -250 -63 1 c-34 1 -64 3 -67 6 -3 2 0 31 5 64 80 490 140 911 195
1353 26 205 67 286 173 338 83 41 168 37 383 -16 371 -92 553 -93 869 -5 246
69 342 74 435 25z m-2437 -195 c26 -13 66 -27 90 -31 41 -7 42 -8 42 -46 l0
-39 -95 0 -95 0 0 70 c0 39 2 70 5 70 3 0 27 -11 53 -24z m3242 -46 l0 -70
-95 0 -95 0 0 39 c0 37 2 40 38 46 20 3 62 17 92 30 30 13 56 24 58 24 1 1 2
-30 2 -69z m-2893 -447 l-4 -478 -32 -180 c-62 -355 -59 -379 -60 412 l-1 712
38 4 c20 2 43 4 50 5 11 2 13 -83 9 -475z m2551 467 l22 0 0 -707 c0 -388 -2
-704 -5 -702 -5 6 -50 296 -71 459 -10 83 -14 229 -14 538 l0 424 23 -6 c12
-3 32 -6 45 -6z m-2782 -230 c12 0 14 -88 14 -595 l0 -595 -32 -2 c-18 0 -40
-2 -48 -2 -8 -1 -18 5 -22 14 -4 8 -7 277 -7 597 l-1 582 28 4 c15 2 33 2 40
0 8 -1 20 -3 28 -3z m3012 4 l22 -6 0 -600 c0 -543 -2 -600 -16 -594 -9 3 -31
6 -50 6 l-34 0 0 600 0 600 28 0 c15 0 37 -3 50 -6z m-5039 -508 c153 -61 371
-106 519 -106 l72 0 0 -48 0 -49 -81 -1 c-45 -1 -86 -5 -91 -10 -5 -5 41 -30
109 -60 236 -103 442 -250 658 -466 163 -163 198 -218 196 -312 0 -72 -31
-137 -83 -174 -68 -50 -94 -54 -303 -47 -104 4 -203 9 -220 11 -16 3 -82 12
-145 21 -228 32 -607 118 -633 144 -11 11 53 289 68 294 6 3 56 -11 110 -30
252 -86 471 -147 677 -187 69 -13 78 -12 78 10 0 28 -211 135 -515 259 -267
110 -387 177 -462 258 -67 73 -88 127 -91 244 -4 118 22 283 45 283 3 0 44
-15 92 -34z m7024 -59 c11 -40 21 -125 24 -193 5 -106 3 -126 -14 -165 -45
-101 -147 -175 -369 -268 -138 -58 -204 -86 -419 -178 -154 -66 -265 -137
-265 -170 0 -17 -3 -18 140 17 163 40 306 85 579 182 123 43 229 77 235 75 11
-5 47 -147 61 -243 6 -41 6 -41 -37 -57 -391 -142 -1092 -257 -1226 -201 -88
36 -137 115 -136 219 0 91 24 136 158 285 143 161 334 319 493 410 82 47 262
123 341 143 29 7 53 17 53 23 1 16 -82 25 -194 21 l-108 -4 3 31 3 31 115 7
c193 12 385 50 490 97 24 11 47 17 50 15 3 -3 13 -38 23 -77z m-7166 -689 c66
-19 74 -24 68 -42 -3 -12 -18 -76 -32 -143 -24 -110 -29 -123 -48 -123 -38 0
-133 -69 -161 -116 -23 -39 -25 -49 -15 -71 l12 -26 -73 7 c-61 5 -77 10 -95
32 -42 46 -34 71 73 234 36 54 83 137 104 184 46 100 46 99 167 64z m7408 -30
c48 -113 79 -177 124 -252 58 -97 67 -131 47 -179 -16 -39 -56 -57 -130 -57
-32 0 -37 3 -31 18 22 49 17 70 -23 114 -23 24 -61 54 -85 66 l-44 22 -6 82
c-3 46 -13 105 -22 131 -11 31 -14 52 -8 58 8 8 116 36 149 38 6 1 19 -18 29
-41z m-5155 -243 l0 -205 -105 0 -105 0 0 205 0 205 105 0 105 0 0 -205z
m2975 0 l0 -200 -102 -3 -103 -3 0 206 0 206 103 -3 102 -3 0 -200z m-2246 54
c123 -26 206 -132 169 -214 -23 -50 -53 -55 -351 -55 -155 0 -278 4 -281 9 -9
14 4 40 28 53 12 7 87 14 185 18 l164 5 -35 37 c-36 39 -91 68 -129 68 -53 0
23 53 111 76 57 16 78 16 139 3z m1509 -30 c34 -17 62 -34 62 -39 0 -4 -19
-10 -42 -14 -56 -9 -111 -41 -132 -77 -9 -16 -16 -29 -14 -29 2 0 84 -1 183
-3 170 -2 182 -3 213 -25 17 -13 32 -30 32 -38 0 -21 -574 -21 -625 0 -108 46
-42 202 105 247 14 4 55 8 91 8 55 1 76 -4 127 -30z m2756 -198 c10 -15 -38
-50 -84 -60 -25 -6 -101 -10 -170 -10 l-125 1 65 15 c36 8 103 25 150 38 89
24 155 31 164 16z m-7202 -31 c29 -6 67 -13 83 -16 99 -17 98 -22 -6 -23 -58
-1 -120 4 -137 10 -27 9 -30 13 -20 29 7 10 15 17 19 14 4 -2 31 -9 61 -14z"/>
<path d="M4793 7488 l-111 -293 67 -5 c36 -3 70 -2 75 2 5 4 17 29 26 55 l16
48 112 3 111 3 16 -56 16 -55 75 0 c41 0 74 1 74 3 0 2 -34 93 -76 203 -42
109 -90 240 -108 289 l-32 90 -75 3 -75 3 -111 -293z m223 27 l32 -85 -70 0
c-52 0 -69 3 -66 13 27 77 63 165 67 161 3 -3 19 -43 37 -89z"/>
<path d="M5340 7558 c0 -123 3 -257 7 -298 l6 -75 71 0 71 0 0 295 -1 295 -77
3 -77 3 0 -223z"/>
<path d="M5525 5253 c-63 -39 -234 -118 -309 -143 -54 -18 -91 -22 -170 -22
-113 0 -205 23 -355 86 -47 20 -87 34 -89 31 -10 -10 43 -67 106 -114 149
-112 305 -158 444 -132 96 19 231 89 311 162 59 54 127 136 127 153 0 12 -26
3 -65 -21z"/>
<path d="M4508 5115 c-17 -32 61 -379 122 -540 107 -285 218 -428 366 -471 50
-14 114 -12 114 4 0 4 -37 46 -83 93 -123 128 -183 235 -470 834 -24 49 -46
85 -49 80z"/>
<path d="M5635 4943 c-218 -475 -397 -797 -510 -917 -20 -21 -34 -40 -31 -43
11 -11 103 45 159 96 60 56 111 124 179 241 21 36 38 60 38 55 0 -21 -72 -287
-114 -420 -24 -77 -47 -153 -50 -170 -6 -30 -6 -30 33 13 103 112 224 455 311
887 27 134 60 337 60 372 0 34 -21 3 -75 -114z"/>
<path d="M2546 2785 l7 -55 -174 0 -174 0 3 -80 3 -79 167 1 167 2 0 -45 0
-44 -223 -3 -223 -2 3 -73 3 -72 223 -3 c126 -1 222 -6 222 -12 0 -5 -28 -22
-62 -39 -95 -45 -372 -161 -385 -161 -26 0 -25 -30 3 -172 l5 -27 55 24 c30
14 80 37 112 52 31 15 61 29 66 31 8 4 2 -62 -11 -115 l-5 -23 311 0 311 0 0
-54 c0 -36 -5 -58 -15 -66 -11 -9 -66 -14 -183 -16 -129 -3 -166 -7 -163 -16
2 -7 10 -41 18 -75 l15 -63 81 -2 c163 -5 280 3 317 22 89 46 121 118 128 292
l5 128 -312 0 c-304 0 -311 0 -301 19 28 53 17 51 373 50 l332 -1 3 66 3 66
-243 0 c-134 0 -253 3 -266 6 -20 6 -16 11 40 45 l63 39 241 0 c132 0 243 2
245 4 2 2 2 37 -1 78 l-5 73 -120 2 c-66 1 -124 2 -129 3 -5 0 11 16 36 34 25
19 77 70 116 113 81 88 82 84 -17 134 l-65 32 -40 -44 -41 -45 -60 6 c-33 4
-108 5 -167 2 -120 -5 -112 -9 -123 71 l-6 47 -85 0 -84 0 6 -55z m399 -213
c-72 -62 -161 -112 -200 -112 -24 0 -25 2 -25 60 l0 60 117 0 c64 0 113 -4
108 -8z"/>
<path d="M3937 2833 c-4 -3 -7 -35 -7 -70 l0 -63 -135 0 -135 0 0 -80 0 -80
339 0 c385 0 351 -9 351 96 l0 64 -124 0 c-141 0 -136 -3 -136 86 l0 54 -73 0
c-41 0 -77 -3 -80 -7z"/>
<path d="M4477 2758 c-4 -46 -7 -113 -7 -149 0 -76 -3 -79 -78 -79 l-47 0 3
-80 4 -80 59 0 59 0 0 -42 c0 -137 -87 -444 -119 -423 -5 3 -26 31 -47 62 -21
32 -42 61 -47 64 -9 6 -127 -28 -127 -37 0 -2 16 -38 35 -81 l34 -78 61 2 c38
2 60 -1 60 -8 0 -6 -22 -42 -50 -80 l-50 -68 57 -37 c31 -20 62 -38 68 -41 20
-7 88 79 129 164 21 43 56 128 77 188 l37 110 1 -135 c2 -297 34 -348 213
-339 93 5 141 35 159 101 16 63 27 228 14 237 -13 9 -107 33 -111 28 -2 -2 -9
-42 -15 -88 -11 -94 -24 -115 -63 -105 l-26 6 0 260 0 260 -71 0 c-69 0 -71 1
-65 23 3 12 6 30 6 40 0 15 14 17 154 17 92 0 156 4 158 10 2 5 2 41 0 80 l-4
70 -151 0 -152 0 3 155 4 155 -80 0 -79 0 -6 -82z"/>
<path d="M5861 2798 c4 -24 8 -49 9 -55 0 -10 -61 -13 -255 -15 l-256 -3 -1
-165 -1 -165 79 0 c43 0 85 2 92 4 8 2 12 27 12 82 l0 79 368 1 c202 1 387 2
412 3 l45 1 3 -47 3 -48 -405 0 -406 0 0 -85 0 -85 408 0 408 0 0 48 -1 47 93
3 92 3 0 164 0 165 -255 0 -255 0 -2 38 c0 20 -1 44 -2 52 -1 12 -20 16 -97
18 l-96 3 8 -43z"/>
<path d="M4752 2778 l-52 -41 49 -91 c28 -50 56 -92 64 -94 11 -2 107 46 125
63 3 3 -110 178 -127 197 -3 4 -30 -11 -59 -34z"/>
<path d="M7313 2752 l-333 -2 0 -85 0 -85 383 -2 382 -3 -65 -44 c-36 -24
-102 -71 -147 -104 l-83 -59 0 -260 c0 -152 -4 -267 -10 -278 -17 -32 -74 -43
-177 -36 -71 5 -95 3 -98 -6 -6 -16 19 -166 29 -176 4 -4 74 -7 154 -7 142 0
148 1 194 28 97 57 108 98 108 422 l0 233 126 88 c70 49 159 112 198 140 l71
50 3 92 3 92 -158 2 c-87 1 -178 2 -203 3 -25 0 -195 -1 -377 -3z"/>
<path d="M3730 2275 l0 -195 88 0 c144 0 133 13 130 -164 l-3 -151 -60 4 c-33
2 -61 4 -62 5 -1 1 15 45 37 96 22 52 40 102 40 111 0 17 -51 45 -101 54 l-34
6 -24 -68 c-13 -37 -42 -107 -66 -155 l-43 -88 46 -20 c79 -35 88 -35 108 -1
l18 31 13 -23 c7 -12 12 -43 13 -69 l0 -48 98 0 c108 0 154 17 172 66 6 14 10
110 10 214 l0 189 93 3 92 3 3 198 2 197 -285 0 -285 0 0 -195z m408 42 c6 -5
12 -31 12 -58 l0 -49 -135 0 -135 0 0 60 0 61 123 -2 c67 -1 128 -6 135 -12z"/>
<path d="M5358 2119 c-2 -44 -1 -83 1 -85 2 -2 71 -4 153 -4 165 0 158 4 132
-73 -32 -95 -130 -174 -246 -198 -96 -20 -96 -21 -31 -101 l57 -70 47 5 c160
19 327 194 362 378 l12 59 87 0 88 0 0 -137 c1 -180 18 -229 95 -272 45 -24
306 -23 352 2 67 36 88 72 108 179 l12 67 -78 26 c-43 14 -80 25 -83 25 -2 0
-7 -23 -11 -52 -11 -76 -37 -98 -118 -98 -36 0 -68 5 -75 12 -8 8 -12 51 -12
129 l0 117 43 5 c23 3 104 5 180 3 l137 -2 0 83 0 83 -604 0 -604 0 -4 -81z"/>
<path d="M3364 1376 c-114 -53 -168 -205 -115 -322 71 -156 297 -176 395 -36
26 37 31 54 35 119 4 98 -10 145 -63 197 -68 68 -162 84 -252 42z m147 -92
c20 -10 38 -32 51 -61 27 -62 18 -121 -26 -168 -28 -30 -40 -35 -77 -35 -76 0
-119 51 -119 141 0 108 84 168 171 123z"/>
<path d="M2100 1160 l0 -230 50 0 50 0 0 74 c0 56 4 79 18 95 9 11 22 18 27
13 6 -4 39 -46 74 -94 l62 -88 65 0 65 0 -47 66 c-26 36 -68 98 -95 137 -46
70 -47 73 -30 92 79 90 131 153 131 159 0 3 -28 6 -63 6 l-63 0 -70 -85 -69
-85 -3 85 -3 85 -49 0 -50 0 0 -230z"/>
<path d="M2800 1344 c-11 -25 -20 -47 -20 -50 0 -3 -104 -270 -137 -351 -4
-10 10 -13 50 -13 l56 0 19 52 19 51 84 -2 c46 -1 86 -4 90 -7 4 -2 13 -24 20
-49 l13 -45 59 0 c34 0 57 4 55 10 -1 5 -41 109 -88 230 l-85 220 -58 0 -58 0
-19 -46z m105 -157 l25 -67 -55 0 -54 0 24 65 c14 36 25 68 25 72 0 15 11 -7
35 -70z"/>
<path d="M4000 1234 l0 -156 -31 -30 c-29 -30 -32 -30 -95 -24 l-64 7 0 -45 0
-45 56 -11 c78 -16 137 -6 181 33 57 50 63 76 63 262 l0 165 -55 0 -55 0 0
-156z"/>
<path d="M4300 1160 l0 -230 61 0 62 0 -6 193 c-4 105 -7 209 -7 230 l0 37
-55 0 -55 0 0 -230z"/>
<path d="M4622 1211 c3 -199 7 -210 77 -258 66 -45 206 -40 259 10 54 50 62
83 62 262 l0 166 -52 -3 -53 -3 0 -158 0 -159 -28 -24 c-38 -33 -105 -33 -135
-1 -20 22 -22 33 -22 163 0 185 0 184 -62 184 l-49 0 3 -179z"/>
<path d="M5195 1343 c8 -27 43 -130 77 -231 l63 -183 54 3 55 3 46 132 c25 73
48 135 51 138 4 3 28 -58 55 -135 l49 -141 54 3 54 3 74 220 c40 121 73 223
73 228 0 4 -26 7 -57 5 -50 -3 -57 -6 -64 -28 -4 -14 -22 -74 -39 -135 -17
-60 -34 -117 -37 -125 -2 -8 -27 54 -55 138 l-50 153 -55 -3 -55 -3 -29 -85
c-16 -47 -36 -112 -45 -145 -9 -33 -18 -64 -21 -69 -5 -7 -50 134 -84 262
l-11 42 -59 0 -58 0 14 -47z"/>
<path d="M6120 1328 c-13 -35 -54 -139 -91 -231 l-67 -168 60 3 61 3 15 48 15
48 91 -3 90 -3 16 -47 15 -48 59 0 c42 0 57 3 53 13 -2 6 -41 105 -86 219 -44
114 -81 212 -81 218 0 6 -27 10 -63 10 l-62 0 -25 -62z m87 -206 c-27 -2 -51
-1 -53 1 -2 2 8 34 23 71 l27 68 26 -69 26 -68 -49 -3z"/>
<path d="M6620 1160 l0 -230 56 0 55 0 -3 145 c-2 80 -1 145 2 145 5 0 73 -95
156 -217 l49 -72 53 -1 52 0 0 230 0 230 -50 0 -50 0 0 -135 c0 -134 -7 -159
-31 -112 -7 12 -48 73 -93 135 l-80 112 -58 0 -58 0 0 -230z"/>
<path d="M7270 1160 l0 -230 160 0 160 0 0 48 0 47 -105 -3 -105 -3 0 185 0
186 -55 0 -55 0 0 -230z"/>
<path d="M7780 1160 l0 -230 165 0 165 0 0 45 0 45 -110 0 -110 0 0 50 0 49
103 3 102 3 3 43 3 42 -105 0 -106 0 0 45 0 45 110 0 110 0 0 45 0 45 -165 0
-165 0 0 -230z"/>
</g>
</svg>
