<svg width="380" height="53" viewBox="0 0 380 53" fill="none" xmlns="http://www.w3.org/2000/svg">
<path d="M18.144 51.768H0.504L0.576 51.048H2.088C3.192 51.048 4.128 50.664 4.896 49.896C5.664 49.128 6.048 48.216 6.048 47.16V9.504C6.048 8.208 5.736 7.248 5.112 6.624C4.488 6 3.6 5.688 2.448 5.688H-3.8743e-07V4.968C0.96 4.824 1.968 4.656 3.024 4.464C4.08 4.272 5.136 4.032 6.192 3.744C7.248 3.408 8.256 2.976 9.216 2.448C10.224 1.872 11.136 1.176 11.952 0.360002H12.672V47.232C12.672 48.288 13.056 49.2 13.824 49.968C14.64 50.688 15.576 51.048 16.632 51.048H18.144V51.768ZM32.6973 0.288003L75.8973 44.64L76.6173 52.776L33.4173 8.496L32.6973 0.288003ZM32.9133 46.656V51.768H26.9373V51.048C26.9373 51.048 27.1533 51.048 27.5853 51.048C28.0173 51.048 28.2573 51.048 28.3053 51.048C29.5053 51.048 30.5373 50.616 31.4013 49.752C32.2653 48.888 32.6973 47.856 32.6973 46.656H32.9133ZM38.3133 46.656C38.3133 47.856 38.7453 48.888 39.6093 49.752C40.4733 50.616 41.5053 51.048 42.7053 51.048C42.7533 51.048 42.9933 51.048 43.4253 51.048C43.8573 51.048 44.0733 51.048 44.0733 51.048V51.768H38.0973V46.656H38.3133ZM32.6973 0.288003L38.2413 6.624L38.3133 51.768H32.6973V9.288C32.6973 6.744 32.5773 4.608 32.3373 2.88C32.0973 1.152 31.9773 0.288003 31.9773 0.288003H32.6973ZM76.5453 1.368V43.56C76.5453 45.192 76.5933 46.728 76.6893 48.168C76.8333 49.56 76.9533 50.688 77.0493 51.552C77.1933 52.368 77.2653 52.776 77.2653 52.776H76.6173L71.0013 46.368V1.368H76.5453ZM82.3053 1.368V2.088C82.3053 2.088 82.0893 2.088 81.6573 2.088C81.2253 2.088 81.0093 2.088 81.0093 2.088C79.8093 2.088 78.7773 2.52 77.9133 3.384C77.0493 4.2 76.5933 5.232 76.5453 6.48H76.3293V1.368H82.3053ZM65.1693 1.368H71.1453V6.48H71.0013C70.9533 5.232 70.4973 4.2 69.6333 3.384C68.8173 2.52 67.7853 2.088 66.5373 2.088C66.5373 2.088 66.3213 2.088 65.8893 2.088C65.4573 2.088 65.2173 2.088 65.1693 2.088V1.368ZM102.443 1.368V51.768H95.7471V1.368H102.443ZM118.787 25.704V28.152H102.227V25.704H118.787ZM122.027 1.368V3.888H102.227V1.368H122.027ZM118.787 28.008V33.48H118.067V32.544C118.067 31.344 117.659 30.312 116.843 29.448C116.027 28.584 114.995 28.152 113.747 28.152V28.008H118.787ZM118.787 20.376V25.848H113.747V25.704C114.995 25.656 116.027 25.2 116.843 24.336C117.659 23.472 118.067 22.44 118.067 21.24V20.376H118.787ZM122.027 3.672V9.576H121.307V8.568C121.307 7.224 120.851 6.12 119.939 5.256C119.075 4.344 117.971 3.888 116.627 3.888V3.672H122.027ZM122.027 0.0720015V2.16L113.243 1.368C114.299 1.368 115.403 1.296 116.555 1.152C117.755 1.008 118.859 0.840003 119.867 0.648003C120.875 0.456002 121.595 0.264002 122.027 0.0720015ZM95.9631 46.512V51.768H90.2031V51.048C90.2031 51.048 90.3471 51.048 90.6351 51.048C90.9711 51.048 91.1391 51.048 91.1391 51.048C92.3871 51.048 93.4431 50.616 94.3071 49.752C95.2191 48.84 95.6991 47.76 95.7471 46.512H95.9631ZM95.9631 6.624H95.7471C95.7471 5.376 95.2911 4.32 94.3791 3.45601C93.4671 2.544 92.3871 2.088 91.1391 2.088C91.1391 2.088 90.9951 2.088 90.7071 2.088C90.4191 2.088 90.2751 2.088 90.2751 2.088L90.2031 1.368H95.9631V6.624ZM102.227 46.512H102.443C102.491 47.76 102.947 48.84 103.811 49.752C104.723 50.616 105.803 51.048 107.051 51.048C107.051 51.048 107.195 51.048 107.483 51.048C107.771 51.048 107.939 51.048 107.987 51.048V51.768H102.227V46.512ZM150.71 0.360002C154.454 0.360002 157.646 1.44 160.286 3.6C162.974 5.712 165.038 8.736 166.478 12.672C167.966 16.56 168.71 21.192 168.71 26.568C168.71 31.944 167.966 36.6 166.478 40.536C165.038 44.424 162.974 47.448 160.286 49.608C157.646 51.72 154.454 52.776 150.71 52.776C146.966 52.776 143.75 51.72 141.062 49.608C138.374 47.448 136.286 44.424 134.798 40.536C133.358 36.6 132.638 31.944 132.638 26.568C132.638 21.192 133.358 16.56 134.798 12.672C136.286 8.736 138.374 5.712 141.062 3.6C143.75 1.44 146.966 0.360002 150.71 0.360002ZM150.71 2.808C147.254 2.808 144.566 4.896 142.646 9.072C140.726 13.248 139.766 19.08 139.766 26.568C139.766 34.056 140.726 39.888 142.646 44.064C144.566 48.24 147.254 50.328 150.71 50.328C154.118 50.328 156.782 48.24 158.702 44.064C160.622 39.888 161.582 34.056 161.582 26.568C161.582 19.08 160.622 13.248 158.702 9.072C156.782 4.896 154.118 2.808 150.71 2.808ZM201.039 1.584V51.768H194.343V1.584H201.039ZM219.255 1.296V3.744H176.127V1.296H219.255ZM219.255 3.528V10.224L218.535 10.152V9.072C218.535 7.536 218.031 6.288 217.023 5.328C216.063 4.32 214.815 3.792 213.279 3.744V3.528H219.255ZM219.255 2.38419e-06V2.088L210.471 1.296C211.527 1.296 212.631 1.224 213.783 1.08C214.983 0.936003 216.087 0.768004 217.095 0.576004C218.103 0.384003 218.823 0.192003 219.255 2.38419e-06ZM194.559 46.512V51.768H188.799V51.048C188.799 51.048 188.943 51.048 189.231 51.048C189.567 51.048 189.735 51.048 189.735 51.048C190.983 51.048 192.039 50.616 192.903 49.752C193.815 48.84 194.295 47.76 194.343 46.512H194.559ZM200.823 46.512H201.039C201.087 47.76 201.543 48.84 202.407 49.752C203.319 50.616 204.399 51.048 205.647 51.048C205.647 51.048 205.791 51.048 206.079 51.048C206.415 51.048 206.583 51.048 206.583 51.048V51.768H200.823V46.512ZM182.103 3.528V3.744C180.567 3.792 179.295 4.32 178.287 5.328C177.327 6.288 176.847 7.536 176.847 9.072V10.152L176.127 10.224V3.528H182.103ZM176.127 2.38419e-06C176.607 0.192003 177.327 0.384003 178.287 0.576004C179.295 0.768004 180.399 0.936003 181.599 1.08C182.799 1.224 183.903 1.296 184.911 1.296L176.127 2.088V2.38419e-06ZM238.592 1.368V51.768H231.896V1.368H238.592ZM257.888 49.248L258.464 51.768H238.376V49.248H257.888ZM254.936 25.704V28.152H238.376V25.704H254.936ZM258.176 1.368V3.888H238.376V1.368H258.176ZM262.568 39.096L258.68 51.768H246.008L248.6 49.248C251.096 49.248 253.184 48.84 254.864 48.024C256.544 47.16 257.936 45.96 259.04 44.424C260.144 42.888 261.08 41.112 261.848 39.096H262.568ZM254.936 28.008V33.48H254.216V32.544C254.216 31.344 253.808 30.312 252.992 29.448C252.176 28.584 251.144 28.152 249.896 28.152V28.008H254.936ZM254.936 20.376V25.848H249.896V25.704C251.144 25.656 252.176 25.2 252.992 24.336C253.808 23.472 254.216 22.44 254.216 21.24V20.376H254.936ZM258.176 3.672V10.296H257.456V9.144C257.456 7.656 256.952 6.408 255.944 5.4C254.984 4.392 253.736 3.864 252.2 3.816V3.672H258.176ZM258.176 0.0720015V2.16L249.392 1.368C250.448 1.368 251.552 1.296 252.704 1.152C253.904 1.008 255.008 0.840003 256.016 0.648003C257.024 0.456002 257.744 0.264002 258.176 0.0720015ZM232.112 46.512V51.768H226.352V51.048C226.352 51.048 226.496 51.048 226.784 51.048C227.12 51.048 227.288 51.048 227.288 51.048C228.536 51.048 229.592 50.616 230.456 49.752C231.368 48.84 231.848 47.76 231.896 46.512H232.112ZM232.112 6.624H231.896C231.896 5.376 231.44 4.32 230.528 3.45601C229.616 2.544 228.536 2.088 227.288 2.088C227.288 2.088 227.144 2.088 226.856 2.088C226.568 2.088 226.424 2.088 226.424 2.088L226.352 1.368H232.112V6.624ZM317.567 30.744L317.207 42.408C316.007 44.376 314.471 46.152 312.599 47.736C310.775 49.272 308.567 50.496 305.975 51.408C303.383 52.32 300.383 52.776 296.975 52.776C291.695 52.728 287.015 51.648 282.935 49.536C278.903 47.376 275.759 44.352 273.503 40.464C271.247 36.528 270.119 31.872 270.119 26.496C270.119 21.216 271.223 16.632 273.431 12.744C275.687 8.808 278.831 5.76 282.863 3.6C286.943 1.44 291.767 0.360002 297.335 0.360002C300.983 0.360002 304.271 0.816002 307.199 1.728C310.127 2.592 312.623 3.672 314.687 4.968L315.695 15.84H315.047C313.895 11.424 311.735 8.16 308.567 6.048C305.447 3.888 301.799 2.808 297.623 2.808C293.495 2.808 289.943 3.792 286.967 5.76C283.991 7.68 281.687 10.416 280.055 13.968C278.423 17.472 277.607 21.624 277.607 26.424C277.607 31.176 278.399 35.328 279.983 38.88C281.615 42.432 283.871 45.216 286.751 47.232C289.679 49.2 293.087 50.232 296.975 50.328C300.479 50.328 303.623 49.704 306.407 48.456C309.191 47.208 311.495 45.168 313.319 42.336C315.143 39.456 316.367 35.592 316.991 30.744H317.567ZM373.54 1.368V51.768H366.844V1.368H373.54ZM339.412 1.368V51.768H332.716V1.368H339.412ZM367.492 25.56V28.008H338.692V25.56H367.492ZM332.932 46.512V51.768H327.172V51.048C327.172 51.048 327.316 51.048 327.604 51.048C327.94 51.048 328.108 51.048 328.108 51.048C329.356 51.048 330.412 50.616 331.276 49.752C332.188 48.84 332.668 47.76 332.716 46.512H332.932ZM332.932 6.624H332.716C332.668 5.376 332.188 4.32 331.276 3.45601C330.412 2.544 329.356 2.088 328.108 2.088C328.108 2.088 327.94 2.088 327.604 2.088C327.316 2.088 327.172 2.088 327.172 2.088V1.368H332.932V6.624ZM339.196 46.512H339.412C339.46 47.76 339.916 48.84 340.78 49.752C341.692 50.616 342.772 51.048 344.02 51.048C344.02 51.048 344.164 51.048 344.452 51.048C344.74 51.048 344.908 51.048 344.956 51.048V51.768H339.196V46.512ZM339.196 6.624V1.368H344.956V2.088C344.908 2.088 344.74 2.088 344.452 2.088C344.164 2.088 344.02 2.088 344.02 2.088C342.772 2.088 341.692 2.544 340.78 3.45601C339.916 4.32 339.46 5.376 339.412 6.624H339.196ZM367.06 46.512V51.768H361.3V51.048C361.348 51.048 361.516 51.048 361.804 51.048C362.092 51.048 362.236 51.048 362.236 51.048C363.484 51.048 364.564 50.616 365.476 49.752C366.388 48.84 366.844 47.76 366.844 46.512H367.06ZM367.06 6.624H366.844C366.844 5.376 366.388 4.32 365.476 3.45601C364.564 2.544 363.484 2.088 362.236 2.088C362.236 2.088 362.092 2.088 361.804 2.088C361.516 2.088 361.348 2.088 361.3 2.088V1.368H367.06V6.624ZM373.324 46.512H373.54C373.588 47.76 374.044 48.84 374.908 49.752C375.82 50.616 376.9 51.048 378.148 51.048C378.148 51.048 378.292 51.048 378.58 51.048C378.916 51.048 379.084 51.048 379.084 51.048V51.768H373.324V46.512ZM373.324 6.624V1.368H379.084V2.088C379.084 2.088 378.916 2.088 378.58 2.088C378.292 2.088 378.148 2.088 378.148 2.088C376.9 2.088 375.82 2.544 374.908 3.45601C374.044 4.32 373.588 5.376 373.54 6.624H373.324Z" fill="#EAE8E1"/>
</svg>
