<svg xmlns="http://www.w3.org/2000/svg" xmlns:xlink="http://www.w3.org/1999/xlink" width="1090" zoomAndPan="magnify" viewBox="0 0 817.5 342.749987" height="457" preserveAspectRatio="xMidYMid meet" version="1.0"><defs><g/><clipPath id="8e0bb387b8"><path d="M 79 181 L 161 181 L 161 264 L 79 264 Z M 79 181 " clip-rule="nonzero"/></clipPath><clipPath id="9bc422a36a"><path d="M 171.128906 0 L 342.300781 171.171875 L 171.128906 342.34375 L -0.0429688 171.171875 Z M 171.128906 0 " clip-rule="nonzero"/></clipPath><clipPath id="dd938be3ba"><path d="M 171.128906 0 L 342.300781 171.171875 L 171.128906 342.34375 L -0.0429688 171.171875 Z M 171.128906 0 " clip-rule="nonzero"/></clipPath><clipPath id="2293bf2628"><path d="M 181 79 L 264 79 L 264 161 L 181 161 Z M 181 79 " clip-rule="nonzero"/></clipPath><clipPath id="6d4f2e80dd"><path d="M 171.128906 0 L 342.300781 171.171875 L 171.128906 342.34375 L -0.0429688 171.171875 Z M 171.128906 0 " clip-rule="nonzero"/></clipPath><clipPath id="bae17c3777"><path d="M 171.128906 0 L 342.300781 171.171875 L 171.128906 342.34375 L -0.0429688 171.171875 Z M 171.128906 0 " clip-rule="nonzero"/></clipPath><clipPath id="765a869ffe"><path d="M 181 181 L 264 181 L 264 264 L 181 264 Z M 181 181 " clip-rule="nonzero"/></clipPath><clipPath id="f186b25b0b"><path d="M 171.128906 0 L 342.300781 171.171875 L 171.128906 342.34375 L -0.0429688 171.171875 Z M 171.128906 0 " clip-rule="nonzero"/></clipPath><clipPath id="c0a3c1feae"><path d="M 171.128906 0 L 342.300781 171.171875 L 171.128906 342.34375 L -0.0429688 171.171875 Z M 171.128906 0 " clip-rule="nonzero"/></clipPath><clipPath id="a00178ccf2"><path d="M 79 79 L 161 79 L 161 161 L 79 161 Z M 79 79 " clip-rule="nonzero"/></clipPath><clipPath id="f5e380b8dc"><path d="M 171.128906 0 L 342.300781 171.171875 L 171.128906 342.34375 L -0.0429688 171.171875 Z M 171.128906 0 " clip-rule="nonzero"/></clipPath><clipPath id="7cfb465c10"><path d="M 171.128906 0 L 342.300781 171.171875 L 171.128906 342.34375 L -0.0429688 171.171875 Z M 171.128906 0 " clip-rule="nonzero"/></clipPath><clipPath id="21936462de"><path d="M 152 184 L 190 184 L 190 269 L 152 269 Z M 152 184 " clip-rule="nonzero"/></clipPath><clipPath id="977e0f13e4"><path d="M 171.128906 0 L 342.300781 171.171875 L 171.128906 342.34375 L -0.0429688 171.171875 Z M 171.128906 0 " clip-rule="nonzero"/></clipPath><clipPath id="17ef5dda7b"><path d="M 171.128906 0 L 342.300781 171.171875 L 171.128906 342.34375 L -0.0429688 171.171875 Z M 171.128906 0 " clip-rule="nonzero"/></clipPath><clipPath id="fb36e7548d"><path d="M 152 76 L 190 76 L 190 161 L 152 161 Z M 152 76 " clip-rule="nonzero"/></clipPath><clipPath id="f295ee0e18"><path d="M 171.128906 0 L 342.300781 171.171875 L 171.128906 342.34375 L -0.0429688 171.171875 Z M 171.128906 0 " clip-rule="nonzero"/></clipPath><clipPath id="b38b54cd40"><path d="M 171.128906 0 L 342.300781 171.171875 L 171.128906 342.34375 L -0.0429688 171.171875 Z M 171.128906 0 " clip-rule="nonzero"/></clipPath><clipPath id="6335026d70"><path d="M 182 153 L 267 153 L 267 192 L 182 192 Z M 182 153 " clip-rule="nonzero"/></clipPath><clipPath id="2e55fef8eb"><path d="M 171.128906 0 L 342.300781 171.171875 L 171.128906 342.34375 L -0.0429688 171.171875 Z M 171.128906 0 " clip-rule="nonzero"/></clipPath><clipPath id="77372364d4"><path d="M 171.128906 0 L 342.300781 171.171875 L 171.128906 342.34375 L -0.0429688 171.171875 Z M 171.128906 0 " clip-rule="nonzero"/></clipPath><clipPath id="70621cf24f"><path d="M 74 153 L 159 153 L 159 192 L 74 192 Z M 74 153 " clip-rule="nonzero"/></clipPath><clipPath id="15e68801bc"><path d="M 171.128906 0 L 342.300781 171.171875 L 171.128906 342.34375 L -0.0429688 171.171875 Z M 171.128906 0 " clip-rule="nonzero"/></clipPath><clipPath id="1158418800"><path d="M 171.128906 0 L 342.300781 171.171875 L 171.128906 342.34375 L -0.0429688 171.171875 Z M 171.128906 0 " clip-rule="nonzero"/></clipPath><clipPath id="41d8867c0c"><rect x="0" width="439" y="0" height="99"/></clipPath></defs><g clip-path="url(#8e0bb387b8)"><g clip-path="url(#9bc422a36a)"><g clip-path="url(#dd938be3ba)"><path fill="#323232" d="M 141.914062 222.742188 C 150.097656 198.578125 158.613281 184.816406 160.511719 181.898438 C 160.460938 181.851562 160.410156 181.808594 160.359375 181.761719 C 160.34375 181.742188 160.328125 181.722656 160.3125 181.707031 C 157.378906 183.617188 143.621094 192.125 119.472656 200.300781 C 92.066406 209.582031 67.03125 238.066406 85.585938 256.628906 L 85.585938 256.632812 C 104.148438 275.183594 132.632812 250.152344 141.914062 222.742188 Z M 141.914062 222.742188 " fill-opacity="1" fill-rule="nonzero"/></g></g></g><g clip-path="url(#2293bf2628)"><g clip-path="url(#6d4f2e80dd)"><g clip-path="url(#bae17c3777)"><path fill="#323232" d="M 200.34375 119.429688 C 192.160156 143.59375 183.648438 157.355469 181.746094 160.273438 C 181.796875 160.320312 181.847656 160.363281 181.898438 160.410156 C 181.914062 160.429688 181.929688 160.449219 181.945312 160.464844 C 184.878906 158.558594 198.636719 150.046875 222.785156 141.871094 C 250.195312 132.589844 275.226562 104.105469 256.675781 85.546875 L 256.671875 85.542969 C 238.109375 66.988281 209.625 92.023438 200.34375 119.429688 Z M 200.34375 119.429688 " fill-opacity="1" fill-rule="nonzero"/></g></g></g><g clip-path="url(#765a869ffe)"><g clip-path="url(#f186b25b0b)"><g clip-path="url(#c0a3c1feae)"><path fill="#323232" d="M 222.785156 200.300781 C 198.621094 192.121094 184.859375 183.605469 181.941406 181.703125 C 181.894531 181.753906 181.851562 181.804688 181.804688 181.855469 C 181.785156 181.871094 181.765625 181.886719 181.75 181.902344 C 183.65625 184.835938 192.167969 198.59375 200.34375 222.742188 C 209.625 250.152344 238.109375 275.183594 256.671875 256.632812 L 256.675781 256.628906 C 275.226562 238.066406 250.195312 209.582031 222.785156 200.300781 Z M 222.785156 200.300781 " fill-opacity="1" fill-rule="nonzero"/></g></g></g><g clip-path="url(#a00178ccf2)"><g clip-path="url(#f5e380b8dc)"><g clip-path="url(#7cfb465c10)"><path fill="#323232" d="M 119.472656 141.871094 C 143.636719 150.054688 157.398438 158.570312 160.316406 160.46875 C 160.363281 160.417969 160.40625 160.367188 160.453125 160.316406 C 160.472656 160.300781 160.492188 160.285156 160.507812 160.269531 C 158.601562 157.335938 150.089844 143.578125 141.914062 119.429688 C 132.632812 92.023438 104.148438 66.988281 85.589844 85.542969 L 85.585938 85.546875 C 67.03125 104.105469 92.0625 132.589844 119.472656 141.871094 Z M 119.472656 141.871094 " fill-opacity="1" fill-rule="nonzero"/></g></g></g><g clip-path="url(#21936462de)"><g clip-path="url(#977e0f13e4)"><g clip-path="url(#17ef5dda7b)"><path fill="#323232" d="M 183.253906 218.035156 C 174.261719 199.832031 171.308594 187.296875 170.734375 184.582031 C 170.679688 184.585938 170.628906 184.59375 170.574219 184.59375 C 170.554688 184.59375 170.535156 184.589844 170.515625 184.589844 C 169.9375 187.3125 166.984375 199.84375 157.996094 218.035156 C 147.796875 238.679688 149.738281 268.796875 170.625 268.800781 L 170.628906 268.800781 C 191.515625 268.796875 193.457031 238.679688 183.253906 218.035156 Z M 183.253906 218.035156 " fill-opacity="1" fill-rule="nonzero"/></g></g></g><g clip-path="url(#fb36e7548d)"><g clip-path="url(#f295ee0e18)"><g clip-path="url(#b38b54cd40)"><path fill="#323232" d="M 157.996094 127.015625 C 166.992188 145.21875 169.941406 157.753906 170.515625 160.464844 C 170.570312 160.460938 170.625 160.457031 170.679688 160.457031 C 170.699219 160.457031 170.71875 160.460938 170.738281 160.460938 C 171.3125 157.738281 174.265625 145.207031 183.253906 127.015625 C 193.457031 106.371094 191.511719 76.25 170.628906 76.246094 L 170.625 76.246094 C 149.738281 76.25 147.796875 106.371094 157.996094 127.015625 Z M 157.996094 127.015625 " fill-opacity="1" fill-rule="nonzero"/></g></g></g><g clip-path="url(#6335026d70)"><g clip-path="url(#2e55fef8eb)"><g clip-path="url(#77372364d4)"><path fill="#323232" d="M 216.136719 159.894531 C 197.933594 168.890625 185.398438 171.84375 182.683594 172.414062 C 182.6875 172.46875 182.691406 172.523438 182.691406 172.578125 C 182.691406 172.597656 182.691406 172.617188 182.691406 172.636719 C 185.414062 173.210938 197.945312 176.164062 216.136719 185.152344 C 236.78125 195.355469 266.898438 193.414062 266.902344 172.527344 L 266.902344 172.523438 C 266.898438 151.636719 236.78125 149.695312 216.136719 159.894531 Z M 216.136719 159.894531 " fill-opacity="1" fill-rule="nonzero"/></g></g></g><g clip-path="url(#70621cf24f)"><g clip-path="url(#15e68801bc)"><g clip-path="url(#1158418800)"><path fill="#323232" d="M 125.117188 185.15625 C 143.320312 176.160156 155.855469 173.207031 158.566406 172.636719 C 158.5625 172.582031 158.558594 172.527344 158.558594 172.472656 C 158.558594 172.453125 158.5625 172.433594 158.5625 172.414062 C 155.839844 171.839844 143.308594 168.882812 125.117188 159.894531 C 104.46875 149.695312 74.351562 151.636719 74.347656 172.523438 L 74.347656 172.527344 C 74.351562 193.414062 104.46875 195.355469 125.117188 185.15625 Z M 125.117188 185.15625 " fill-opacity="1" fill-rule="nonzero"/></g></g></g><g transform="matrix(1, 0, 0, 1, 293, 172)"><g clip-path="url(#41d8867c0c)"><g fill="#323232" fill-opacity="1"><g transform="translate(0.658334, 75.707491)"><g><path d="M 37.265625 -50.359375 L 20.4375 -50.359375 C 20.34375 -46.859375 20.28125 -43.296875 20.25 -39.671875 C 20.226562 -36.054688 20.21875 -32.351562 20.21875 -28.5625 L 31.234375 -28.5625 L 32.3125 -36.40625 L 35.6875 -36.40625 L 35.6875 -17.703125 L 32.3125 -17.703125 L 31.234375 -25.828125 L 20.21875 -25.828125 C 20.21875 -21.847656 20.226562 -17.988281 20.25 -14.25 C 20.28125 -10.507812 20.34375 -6.835938 20.4375 -3.234375 L 28.140625 -2.515625 L 28.140625 0 L 3.234375 0 L 3.234375 -2.515625 L 10.078125 -3.171875 C 10.171875 -6.710938 10.21875 -10.304688 10.21875 -13.953125 C 10.21875 -17.597656 10.21875 -21.242188 10.21875 -24.890625 L 10.21875 -28.421875 C 10.21875 -32.015625 10.21875 -35.625 10.21875 -39.25 C 10.21875 -42.875 10.171875 -46.507812 10.078125 -50.15625 L 3.234375 -50.796875 L 3.234375 -53.390625 L 43.8125 -53.390625 L 43.890625 -39.28125 L 40 -39.28125 Z M 37.265625 -50.359375 "/></g></g></g><g fill="#323232" fill-opacity="1"><g transform="translate(46.482017, 75.707491)"><g><path d="M 14.171875 -26.6875 C 14.171875 -22.039062 14.675781 -17.8125 15.6875 -14 C 16.695312 -10.1875 18.242188 -7.160156 20.328125 -4.921875 C 22.410156 -2.691406 25.0625 -1.578125 28.28125 -1.578125 C 31.488281 -1.578125 34.132812 -2.691406 36.21875 -4.921875 C 38.3125 -7.160156 39.875 -10.1875 40.90625 -14 C 41.9375 -17.8125 42.453125 -22.039062 42.453125 -26.6875 C 42.453125 -31.300781 41.9375 -35.5 40.90625 -39.28125 C 39.875 -43.070312 38.3125 -46.09375 36.21875 -48.34375 C 34.132812 -50.601562 31.488281 -51.734375 28.28125 -51.734375 C 25.0625 -51.734375 22.410156 -50.601562 20.328125 -48.34375 C 18.242188 -46.09375 16.695312 -43.070312 15.6875 -39.28125 C 14.675781 -35.5 14.171875 -31.300781 14.171875 -26.6875 Z M 28.28125 -54.6875 C 31.539062 -54.6875 34.65625 -54.085938 37.625 -52.890625 C 40.601562 -51.691406 43.253906 -49.90625 45.578125 -47.53125 C 47.910156 -45.15625 49.742188 -42.226562 51.078125 -38.75 C 52.421875 -35.269531 53.09375 -31.25 53.09375 -26.6875 C 53.09375 -22.1875 52.421875 -18.195312 51.078125 -14.71875 C 49.742188 -11.238281 47.910156 -8.296875 45.578125 -5.890625 C 43.253906 -3.492188 40.601562 -1.6875 37.625 -0.46875 C 34.65625 0.75 31.539062 1.359375 28.28125 1.359375 C 25.019531 1.359375 21.890625 0.757812 18.890625 -0.4375 C 15.890625 -1.632812 13.222656 -3.421875 10.890625 -5.796875 C 8.566406 -8.171875 6.734375 -11.09375 5.390625 -14.5625 C 4.046875 -18.039062 3.375 -22.082031 3.375 -26.6875 C 3.375 -31.195312 4.046875 -35.191406 5.390625 -38.671875 C 6.734375 -42.148438 8.582031 -45.078125 10.9375 -47.453125 C 13.289062 -49.828125 15.953125 -51.625 18.921875 -52.84375 C 21.898438 -54.070312 25.019531 -54.6875 28.28125 -54.6875 Z M 28.28125 -54.6875 "/></g></g></g><g fill="#323232" fill-opacity="1"><g transform="translate(101.80126, 75.707491)"><g><path d="M 39.9375 -15.546875 L 43.8125 -15.546875 L 43.671875 0 L 3.234375 0 L 3.3125 -2.515625 L 10.078125 -3.171875 C 10.171875 -6.710938 10.21875 -10.234375 10.21875 -13.734375 C 10.21875 -17.242188 10.21875 -20.53125 10.21875 -23.59375 L 10.21875 -28.421875 C 10.21875 -32.015625 10.21875 -35.625 10.21875 -39.25 C 10.21875 -42.875 10.171875 -46.507812 10.078125 -50.15625 L 3.234375 -50.796875 L 3.234375 -53.390625 L 27.625 -53.390625 L 27.625 -50.796875 L 20.4375 -50.078125 C 20.34375 -46.523438 20.28125 -42.972656 20.25 -39.421875 C 20.226562 -35.878906 20.21875 -32.40625 20.21875 -29 L 20.21875 -24.171875 C 20.21875 -20.816406 20.226562 -17.351562 20.25 -13.78125 C 20.28125 -10.207031 20.34375 -6.597656 20.4375 -2.953125 L 36.84375 -2.953125 Z M 39.9375 -15.546875 "/></g></g></g><g fill="#323232" fill-opacity="1"><g transform="translate(147.696882, 75.707491)"><g><path d="M 27.265625 -50.796875 L 20.4375 -50.15625 C 20.34375 -46.550781 20.28125 -42.953125 20.25 -39.359375 C 20.226562 -35.765625 20.21875 -32.117188 20.21875 -28.421875 L 20.21875 -24.890625 C 20.21875 -21.296875 20.226562 -17.675781 20.25 -14.03125 C 20.28125 -10.382812 20.34375 -6.765625 20.4375 -3.171875 L 27.265625 -2.515625 L 27.265625 0 L 3.234375 0 L 3.234375 -2.515625 L 10.078125 -3.171875 C 10.171875 -6.710938 10.21875 -10.304688 10.21875 -13.953125 C 10.21875 -17.597656 10.21875 -21.242188 10.21875 -24.890625 L 10.21875 -28.421875 C 10.21875 -32.015625 10.21875 -35.625 10.21875 -39.25 C 10.21875 -42.875 10.171875 -46.507812 10.078125 -50.15625 L 3.234375 -50.796875 L 3.234375 -53.390625 L 27.265625 -53.390625 Z M 27.265625 -50.796875 "/></g></g></g><g fill="#323232" fill-opacity="1"><g transform="translate(176.903058, 75.707491)"><g><path d="M 14.171875 -26.6875 C 14.171875 -22.039062 14.675781 -17.8125 15.6875 -14 C 16.695312 -10.1875 18.242188 -7.160156 20.328125 -4.921875 C 22.410156 -2.691406 25.0625 -1.578125 28.28125 -1.578125 C 31.488281 -1.578125 34.132812 -2.691406 36.21875 -4.921875 C 38.3125 -7.160156 39.875 -10.1875 40.90625 -14 C 41.9375 -17.8125 42.453125 -22.039062 42.453125 -26.6875 C 42.453125 -31.300781 41.9375 -35.5 40.90625 -39.28125 C 39.875 -43.070312 38.3125 -46.09375 36.21875 -48.34375 C 34.132812 -50.601562 31.488281 -51.734375 28.28125 -51.734375 C 25.0625 -51.734375 22.410156 -50.601562 20.328125 -48.34375 C 18.242188 -46.09375 16.695312 -43.070312 15.6875 -39.28125 C 14.675781 -35.5 14.171875 -31.300781 14.171875 -26.6875 Z M 28.28125 -54.6875 C 31.539062 -54.6875 34.65625 -54.085938 37.625 -52.890625 C 40.601562 -51.691406 43.253906 -49.90625 45.578125 -47.53125 C 47.910156 -45.15625 49.742188 -42.226562 51.078125 -38.75 C 52.421875 -35.269531 53.09375 -31.25 53.09375 -26.6875 C 53.09375 -22.1875 52.421875 -18.195312 51.078125 -14.71875 C 49.742188 -11.238281 47.910156 -8.296875 45.578125 -5.890625 C 43.253906 -3.492188 40.601562 -1.6875 37.625 -0.46875 C 34.65625 0.75 31.539062 1.359375 28.28125 1.359375 C 25.019531 1.359375 21.890625 0.757812 18.890625 -0.4375 C 15.890625 -1.632812 13.222656 -3.421875 10.890625 -5.796875 C 8.566406 -8.171875 6.734375 -11.09375 5.390625 -14.5625 C 4.046875 -18.039062 3.375 -22.082031 3.375 -26.6875 C 3.375 -31.195312 4.046875 -35.191406 5.390625 -38.671875 C 6.734375 -42.148438 8.582031 -45.078125 10.9375 -47.453125 C 13.289062 -49.828125 15.953125 -51.625 18.921875 -52.84375 C 21.898438 -54.070312 25.019531 -54.6875 28.28125 -54.6875 Z M 28.28125 -54.6875 "/></g></g></g><g fill="#323232" fill-opacity="1"><g transform="translate(232.222301, 75.707491)"><g><path d="M 24.25 -50.578125 L 20.4375 -50.578125 C 20.34375 -46.929688 20.28125 -43.257812 20.25 -39.5625 C 20.226562 -35.875 20.21875 -32.160156 20.21875 -28.421875 L 20.21875 -24.171875 L 23.75 -24.171875 C 28.300781 -24.171875 31.597656 -25.414062 33.640625 -27.90625 C 35.679688 -30.40625 36.703125 -33.625 36.703125 -37.5625 C 36.703125 -41.832031 35.679688 -45.066406 33.640625 -47.265625 C 31.597656 -49.472656 28.46875 -50.578125 24.25 -50.578125 Z M 23.59375 -21.375 L 20.21875 -21.375 C 20.21875 -18.59375 20.226562 -15.664062 20.25 -12.59375 C 20.28125 -9.519531 20.34375 -6.398438 20.4375 -3.234375 L 28.140625 -2.515625 L 28.140625 0 L 3.234375 0 L 3.234375 -2.515625 L 10.078125 -3.171875 C 10.171875 -6.710938 10.21875 -10.304688 10.21875 -13.953125 C 10.21875 -17.597656 10.21875 -21.242188 10.21875 -24.890625 L 10.21875 -28.421875 C 10.21875 -32.015625 10.21875 -35.625 10.21875 -39.25 C 10.21875 -42.875 10.171875 -46.507812 10.078125 -50.15625 L 3.234375 -50.796875 L 3.234375 -53.390625 L 24.6875 -53.390625 C 32.257812 -53.390625 37.75 -51.972656 41.15625 -49.140625 C 44.5625 -46.316406 46.265625 -42.457031 46.265625 -37.5625 C 46.265625 -34.582031 45.53125 -31.867188 44.0625 -29.421875 C 42.601562 -26.984375 40.21875 -25.03125 36.90625 -23.5625 C 33.601562 -22.101562 29.164062 -21.375 23.59375 -21.375 Z M 23.59375 -21.375 "/></g></g></g><g fill="#323232" fill-opacity="1"><g transform="translate(280.779746, 75.707491)"><g><path d="M 14.171875 -26.6875 C 14.171875 -22.039062 14.675781 -17.8125 15.6875 -14 C 16.695312 -10.1875 18.242188 -7.160156 20.328125 -4.921875 C 22.410156 -2.691406 25.0625 -1.578125 28.28125 -1.578125 C 31.488281 -1.578125 34.132812 -2.691406 36.21875 -4.921875 C 38.3125 -7.160156 39.875 -10.1875 40.90625 -14 C 41.9375 -17.8125 42.453125 -22.039062 42.453125 -26.6875 C 42.453125 -31.300781 41.9375 -35.5 40.90625 -39.28125 C 39.875 -43.070312 38.3125 -46.09375 36.21875 -48.34375 C 34.132812 -50.601562 31.488281 -51.734375 28.28125 -51.734375 C 25.0625 -51.734375 22.410156 -50.601562 20.328125 -48.34375 C 18.242188 -46.09375 16.695312 -43.070312 15.6875 -39.28125 C 14.675781 -35.5 14.171875 -31.300781 14.171875 -26.6875 Z M 28.28125 -54.6875 C 31.539062 -54.6875 34.65625 -54.085938 37.625 -52.890625 C 40.601562 -51.691406 43.253906 -49.90625 45.578125 -47.53125 C 47.910156 -45.15625 49.742188 -42.226562 51.078125 -38.75 C 52.421875 -35.269531 53.09375 -31.25 53.09375 -26.6875 C 53.09375 -22.1875 52.421875 -18.195312 51.078125 -14.71875 C 49.742188 -11.238281 47.910156 -8.296875 45.578125 -5.890625 C 43.253906 -3.492188 40.601562 -1.6875 37.625 -0.46875 C 34.65625 0.75 31.539062 1.359375 28.28125 1.359375 C 25.019531 1.359375 21.890625 0.757812 18.890625 -0.4375 C 15.890625 -1.632812 13.222656 -3.421875 10.890625 -5.796875 C 8.566406 -8.171875 6.734375 -11.09375 5.390625 -14.5625 C 4.046875 -18.039062 3.375 -22.082031 3.375 -26.6875 C 3.375 -31.195312 4.046875 -35.191406 5.390625 -38.671875 C 6.734375 -42.148438 8.582031 -45.078125 10.9375 -47.453125 C 13.289062 -49.828125 15.953125 -51.625 18.921875 -52.84375 C 21.898438 -54.070312 25.019531 -54.6875 28.28125 -54.6875 Z M 28.28125 -54.6875 "/></g></g></g><g fill="#323232" fill-opacity="1"><g transform="translate(336.098989, 75.707491)"><g><path d="M 20.078125 -27.78125 L 25.328125 -27.78125 C 29.453125 -27.78125 32.445312 -28.914062 34.3125 -31.1875 C 36.1875 -33.46875 37.125 -36.285156 37.125 -39.640625 C 37.125 -43.148438 36.148438 -45.847656 34.203125 -47.734375 C 32.265625 -49.628906 29.378906 -50.578125 25.546875 -50.578125 L 20.296875 -50.578125 C 20.191406 -46.929688 20.128906 -43.25 20.109375 -39.53125 C 20.085938 -35.820312 20.078125 -31.90625 20.078125 -27.78125 Z M 46.703125 -3.015625 L 53.03125 -2.515625 L 53.03125 0 C 51.875 0.332031 50.734375 0.570312 49.609375 0.71875 C 48.484375 0.863281 47.128906 0.9375 45.546875 0.9375 C 42.617188 0.9375 40.363281 0.457031 38.78125 -0.5 C 37.195312 -1.457031 36.210938 -3.160156 35.828125 -5.609375 L 33.25 -16.6875 C 32.625 -19.664062 31.675781 -21.8125 30.40625 -23.125 C 29.132812 -24.445312 27.007812 -25.109375 24.03125 -25.109375 L 20.078125 -25.109375 C 20.078125 -21.316406 20.085938 -17.597656 20.109375 -13.953125 C 20.128906 -10.304688 20.191406 -6.710938 20.296875 -3.171875 L 27.265625 -2.515625 L 27.265625 0 L 3.234375 0 L 3.234375 -2.515625 L 10.078125 -3.171875 C 10.171875 -6.710938 10.21875 -10.304688 10.21875 -13.953125 C 10.21875 -17.597656 10.21875 -21.242188 10.21875 -24.890625 L 10.21875 -28.421875 C 10.21875 -32.015625 10.21875 -35.625 10.21875 -39.25 C 10.21875 -42.875 10.171875 -46.507812 10.078125 -50.15625 L 3.234375 -50.796875 L 3.234375 -53.390625 L 27.5625 -53.390625 C 33.695312 -53.390625 38.429688 -52.175781 41.765625 -49.75 C 45.097656 -47.332031 46.765625 -43.988281 46.765625 -39.71875 C 46.765625 -36.644531 45.625 -33.859375 43.34375 -31.359375 C 41.070312 -28.867188 37.296875 -27.21875 32.015625 -26.40625 C 34.609375 -26.070312 36.671875 -25.4375 38.203125 -24.5 C 39.742188 -23.5625 40.929688 -22.320312 41.765625 -20.78125 C 42.609375 -19.25 43.269531 -17.359375 43.75 -15.109375 Z M 46.703125 -3.015625 "/></g></g></g><g fill="#323232" fill-opacity="1"><g transform="translate(386.742025, 75.707491)"><g><path d="M 41.234375 -50.359375 L 30.078125 -50.359375 C 30.023438 -46.765625 29.988281 -43.132812 29.96875 -39.46875 C 29.945312 -35.800781 29.9375 -32.117188 29.9375 -28.421875 L 29.9375 -24.890625 C 29.9375 -21.296875 29.945312 -17.6875 29.96875 -14.0625 C 29.988281 -10.445312 30.023438 -6.816406 30.078125 -3.171875 L 37.78125 -2.515625 L 37.78125 0 L 12.09375 0 L 12.09375 -2.515625 L 19.78125 -3.171875 C 19.832031 -6.710938 19.859375 -10.304688 19.859375 -13.953125 C 19.859375 -17.597656 19.859375 -21.242188 19.859375 -24.890625 L 19.859375 -28.421875 C 19.859375 -32.066406 19.859375 -35.722656 19.859375 -39.390625 C 19.859375 -43.066406 19.832031 -46.722656 19.78125 -50.359375 L 8.640625 -50.359375 L 5.609375 -38.5 L 1.578125 -38.5 L 2.09375 -53.390625 L 47.78125 -53.390625 L 48.203125 -38.5 L 44.171875 -38.5 Z M 41.234375 -50.359375 "/></g></g></g></g></g></svg>