<svg width="182" height="74" viewBox="0 0 182 74" fill="none" xmlns="http://www.w3.org/2000/svg">
<path d="M16.686 27.814C19.494 27.814 21.906 28.336 23.922 29.38C25.974 30.388 27.54 31.9 28.62 33.916C29.736 35.896 30.294 38.362 30.294 41.314V45.526H11.556C11.628 47.47 12.258 49.018 13.446 50.17C14.634 51.322 16.326 51.898 18.522 51.898C20.43 51.898 22.158 51.718 23.706 51.358C25.254 50.998 26.856 50.422 28.512 49.63V56.38C27.072 57.136 25.524 57.676 23.868 58C22.212 58.36 20.178 58.54 17.766 58.54C14.778 58.54 12.114 58 9.774 56.92C7.47 55.84 5.652 54.184 4.32 51.952C3.024 49.684 2.376 46.822 2.376 43.366C2.376 39.838 2.97 36.94 4.158 34.672C5.346 32.368 7.02 30.658 9.18 29.542C11.34 28.39 13.842 27.814 16.686 27.814ZM16.848 34.132C15.444 34.132 14.274 34.582 13.338 35.482C12.438 36.346 11.898 37.732 11.718 39.64H21.924C21.924 38.596 21.726 37.66 21.33 36.832C20.97 36.004 20.412 35.356 19.656 34.888C18.9 34.384 17.964 34.132 16.848 34.132ZM30.4824 28.354H40.2024L45.5484 45.148C45.6924 45.58 45.8004 46.03 45.8724 46.498C45.9804 46.93 46.0704 47.398 46.1424 47.902C46.2144 48.37 46.2684 48.874 46.3044 49.414H46.4664C46.5744 48.586 46.7004 47.83 46.8444 47.146C47.0244 46.426 47.2044 45.778 47.3844 45.202L52.7304 28.354H62.2344L50.0304 60.916C49.2384 63.112 48.2304 64.948 47.0064 66.424C45.8184 67.936 44.3784 69.07 42.6864 69.826C41.0304 70.582 39.0864 70.96 36.8544 70.96C35.9544 70.96 35.1624 70.906 34.4784 70.798C33.7944 70.726 33.2004 70.636 32.6964 70.528V63.346C33.0924 63.418 33.5604 63.49 34.1004 63.562C34.6764 63.634 35.2704 63.67 35.8824 63.67C37.0344 63.67 37.9884 63.436 38.7444 62.968C39.5004 62.5 40.1304 61.87 40.6344 61.078C41.1384 60.322 41.5524 59.494 41.8764 58.594L42.2004 57.676L30.4824 28.354ZM77.9145 27.814C80.7225 27.814 83.1345 28.336 85.1505 29.38C87.2025 30.388 88.7685 31.9 89.8485 33.916C90.9645 35.896 91.5225 38.362 91.5225 41.314V45.526H72.7845C72.8565 47.47 73.4865 49.018 74.6745 50.17C75.8625 51.322 77.5545 51.898 79.7505 51.898C81.6585 51.898 83.3865 51.718 84.9345 51.358C86.4825 50.998 88.0845 50.422 89.7405 49.63V56.38C88.3005 57.136 86.7525 57.676 85.0965 58C83.4405 58.36 81.4065 58.54 78.9945 58.54C76.0065 58.54 73.3425 58 71.0025 56.92C68.6985 55.84 66.8805 54.184 65.5485 51.952C64.2525 49.684 63.6045 46.822 63.6045 43.366C63.6045 39.838 64.1985 36.94 65.3865 34.672C66.5745 32.368 68.2485 30.658 70.4085 29.542C72.5685 28.39 75.0705 27.814 77.9145 27.814ZM78.0765 34.132C76.6725 34.132 75.5025 34.582 74.5665 35.482C73.6665 36.346 73.1265 37.732 72.9465 39.64H83.1525C83.1525 38.596 82.9545 37.66 82.5585 36.832C82.1985 36.004 81.6405 35.356 80.8845 34.888C80.1285 34.384 79.1925 34.132 78.0765 34.132ZM132.78 38.668C132.78 41.656 132.42 44.374 131.7 46.822C130.98 49.234 129.864 51.322 128.352 53.086C126.84 54.85 124.914 56.2 122.574 57.136C120.234 58.072 117.462 58.54 114.258 58.54C111.09 58.54 108.336 58.072 105.996 57.136C103.656 56.164 101.73 54.814 100.218 53.086C98.7056 51.322 97.5716 49.216 96.8156 46.768C96.0956 44.32 95.7356 41.602 95.7356 38.614C95.7356 34.618 96.3836 31.144 97.6796 28.192C99.0116 25.24 101.046 22.954 103.782 21.334C106.554 19.678 110.064 18.85 114.312 18.85C118.596 18.85 122.088 19.678 124.788 21.334C127.524 22.954 129.54 25.258 130.836 28.246C132.132 31.198 132.78 34.672 132.78 38.668ZM105.402 38.668C105.402 41.188 105.708 43.366 106.32 45.202C106.932 47.002 107.886 48.388 109.182 49.36C110.514 50.332 112.206 50.818 114.258 50.818C116.382 50.818 118.092 50.332 119.388 49.36C120.684 48.388 121.62 47.002 122.196 45.202C122.808 43.366 123.114 41.188 123.114 38.668C123.114 34.852 122.43 31.864 121.062 29.704C119.73 27.544 117.48 26.464 114.312 26.464C112.224 26.464 110.514 26.968 109.182 27.976C107.886 28.948 106.932 30.352 106.32 32.188C105.708 33.988 105.402 36.148 105.402 38.668ZM163.148 46.822C163.148 49.018 162.608 51.016 161.528 52.816C160.448 54.58 158.828 55.984 156.668 57.028C154.508 58.036 151.79 58.54 148.514 58.54C147.002 58.54 145.598 58.45 144.302 58.27C143.006 58.09 141.764 57.838 140.576 57.514C139.424 57.154 138.29 56.704 137.174 56.164V47.794C139.118 48.694 141.098 49.45 143.114 50.062C145.166 50.674 147.128 50.98 149 50.98C150.188 50.98 151.142 50.836 151.862 50.548C152.618 50.224 153.158 49.81 153.482 49.306C153.842 48.766 154.022 48.154 154.022 47.47C154.022 46.642 153.734 45.94 153.158 45.364C152.618 44.752 151.808 44.176 150.728 43.636C149.648 43.06 148.334 42.412 146.786 41.692C145.634 41.188 144.5 40.612 143.384 39.964C142.304 39.28 141.314 38.506 140.414 37.642C139.55 36.742 138.848 35.68 138.308 34.456C137.804 33.196 137.552 31.72 137.552 30.028C137.552 27.616 138.11 25.6 139.226 23.98C140.378 22.324 141.98 21.064 144.032 20.2C146.084 19.336 148.496 18.904 151.268 18.904C153.536 18.904 155.624 19.156 157.532 19.66C159.44 20.164 161.294 20.812 163.094 21.604L160.178 28.786C158.45 28.03 156.83 27.454 155.318 27.058C153.842 26.626 152.402 26.41 150.998 26.41C150.026 26.41 149.216 26.554 148.568 26.842C147.92 27.094 147.434 27.472 147.11 27.976C146.786 28.444 146.624 29.002 146.624 29.65C146.624 30.406 146.876 31.072 147.38 31.648C147.884 32.188 148.676 32.746 149.756 33.322C150.836 33.898 152.258 34.6 154.022 35.428C155.93 36.292 157.568 37.228 158.936 38.236C160.304 39.244 161.348 40.432 162.068 41.8C162.788 43.132 163.148 44.806 163.148 46.822Z" fill="#2D3339"/>
<rect x="170" y="46" width="12" height="12" fill="#7B50C2"/>
</svg>
