<svg width="1116" height="854" viewBox="0 0 1116 854" fill="none" xmlns="http://www.w3.org/2000/svg">
<path d="M504.946 1.62009C468.962 5.69378 419.671 17.2359 392.241 28.0991C322.717 55.5286 274.647 86.3529 227.935 133.336C170.768 190.775 131.117 258.806 111.971 332.54C100.972 374.906 97.0342 406.138 96.0837 459.503L95.4047 497.931L90.1089 509.066C77.2089 537.175 61.8647 588.503 55.6183 625.302C52.9025 640.646 52.9025 643.091 55.3468 645.806C57.112 647.708 56.8404 649.473 53.8531 659.521C51.4089 667.804 50.1867 675.68 49.7794 686.951C48.5573 712.072 52.631 726.466 64.5805 739.366C67.5678 742.625 69.7405 745.476 69.4689 745.883C69.0615 746.155 65.2594 745.748 60.7783 744.933C51.1373 743.168 43.2615 743.982 39.7309 747.241C38.373 748.463 33.7562 755.932 29.5467 763.672C25.473 771.548 19.3625 781.596 15.9677 786.077C-3.99334 813.235 -5.21545 832.789 12.1656 848.133L18.5477 853.701H557.09C1062.36 853.565 1095.9 853.429 1099.84 851.256C1104.73 848.676 1109.62 843.109 1113.42 836.048C1115.32 832.517 1116 828.444 1116 820.432C1116 808.754 1114.23 804.001 1103.78 787.707C1101.33 783.905 1096.45 774.128 1093.05 765.845C1089.52 757.561 1085.58 749.821 1084.09 748.463C1082.73 747.241 1079.07 745.883 1076.08 745.476C1070.92 744.797 1051.09 746.97 1046.34 748.871C1044.98 749.278 1046.88 746.291 1050.55 742.353C1059.92 731.626 1062.5 723.478 1063.45 703.381C1063.99 689.395 1063.59 684.778 1061.01 673.508C1059.38 666.175 1056.93 658.028 1055.57 655.448C1053.54 651.51 1053.27 648.522 1053.81 639.153C1055.3 614.303 1042.95 544.236 1030.59 507.844C1027.6 499.018 1027.47 497.253 1028.14 470.366C1030.18 384.411 1012.26 307.283 974.371 237.894C938.795 172.715 892.083 121.658 830.842 80.7855C767.021 38.2833 702.792 14.1127 625.799 3.52114C599.32 -0.145179 529.932 -1.2315 504.946 1.62009ZM597.962 22.6675C679.436 29.8643 750.047 54.1707 815.905 97.7592C841.433 114.597 858.95 128.855 881.763 151.668C905.254 175.024 919.92 192.676 934.992 215.76C972.606 272.928 995.283 335.934 1003.16 404.78C1005.74 427.049 1007.64 465.342 1006.01 465.342C1005.47 465.342 1002.62 462.626 999.628 459.367C992.703 451.356 981.161 442.258 961.2 429.086C952.238 423.111 943.819 417.001 942.597 415.643C938.523 411.026 936.214 403.558 935.264 392.559C933.363 368.252 927.66 351.686 917.611 341.366C895.885 319.096 851.074 322.22 825.817 347.612C814.819 358.611 802.326 374.227 800.561 379.387C796.894 389.707 801.24 405.187 809.115 410.347C811.695 411.977 814.547 415.914 816.448 420.124C818.485 424.741 821.065 428.136 824.052 429.765C828.126 432.209 828.533 433.024 829.348 441.715C830.434 453.121 834.644 461.404 840.347 463.305C842.655 463.984 847.951 467.922 852.161 471.86C863.703 482.859 865.196 483.674 874.294 483.674C881.355 483.674 883.392 482.995 888.824 479.192C892.354 476.884 895.749 474.847 896.292 474.847C896.971 474.847 899.551 476.884 901.86 479.328L906.341 483.809L902.674 491.685C896.157 506.079 893.712 530.657 896.835 550.889C897.65 556.049 898.058 562.296 897.786 564.74L897.243 569.221L894.391 563.111C892.762 559.716 890.453 551.84 889.095 545.729C885.837 530.521 879.998 518.979 872.529 513.276C869.27 510.831 865.196 508.795 863.431 508.795C861.394 508.795 858.407 506.622 855.012 502.548C849.581 496.302 842.384 492.636 835.051 492.5C829.348 492.5 820.386 502.141 817.806 510.967C813.732 525.497 817.806 547.631 828.805 570.986C832.879 579.405 836.409 584.43 842.248 589.997C846.593 594.342 853.654 603.168 858 609.822C875.109 636.709 892.762 656.126 905.119 661.83C908.378 663.459 915.574 665.224 921.006 665.768L930.783 666.718L930.376 675.544L929.968 684.371L921.278 689.667C901.317 701.752 871.307 727.688 850.124 751.179C825.682 778.201 820.25 791.916 825.682 812.42C827.175 818.395 828.941 824.506 829.484 826.135C830.434 829.258 830.434 829.258 814.683 829.258H798.931V797.076V765.03L795.536 760.549L792.142 756.068V675.544V595.021L796.623 592.984C803.955 589.59 805.042 585.38 805.042 562.16C805.042 542.878 804.906 541.384 801.918 537.446C798.931 533.373 798.931 532.829 800.289 521.423C802.054 507.437 801.24 500.783 796.623 492.5C794.722 489.105 792.956 483.266 792.685 479.6C791.463 466.292 784.809 457.466 769.601 448.911C765.527 446.603 762.268 444.159 762.268 443.48C762.268 442.801 759.281 434.925 755.478 425.963L748.689 409.668V327.38V245.091L752.763 240.474C763.354 228.389 760.503 209.107 746.381 198.379C729.678 185.615 706.051 192.676 699.261 212.366C698.311 215.217 696.953 217.526 696.274 217.526C695.595 217.526 688.806 216.983 681.201 216.439C666.129 215.217 665.857 215.082 665.857 204.897C665.857 199.466 662.598 191.454 658.796 187.38C656.216 184.665 656.08 183.714 657.438 175.838C658.253 171.086 659.339 162.124 659.747 155.741C660.833 140.94 664.907 120.979 670.067 105.907C672.239 99.3887 674.005 92.3276 674.005 90.2908C674.005 84.4518 668.573 79.6992 661.784 79.6992C656.759 79.6992 655.537 80.5139 644.674 91.5129L632.996 103.462L630.959 99.3887C626.207 90.2908 622.269 87.9823 602.036 83.3655C594.975 81.8718 594.568 81.4644 593.753 76.9834C592.531 69.5149 589.408 64.7623 579.359 55.1212C564.558 40.7275 559.67 40.8633 544.19 55.6644C533.055 66.1202 530.068 70.6013 530.068 76.7118C530.068 81.8718 528.166 83.2297 519.476 84.4518C515.538 84.995 509.156 87.0318 505.218 88.9329C499.651 91.9202 497.614 93.8213 495.305 98.7097L492.454 104.82L481.047 93.8213C474.801 87.7108 468.283 82.0076 466.654 81.1929C461.63 78.6129 455.519 79.4276 451.853 83.0939C448.865 86.0813 448.458 87.3034 449.273 92.1918C449.816 95.1792 451.717 102.104 453.618 107.4C458.914 122.337 461.901 138.36 464.21 163.074C466.246 184.257 466.246 186.023 464.21 188.331C460.679 192.133 458.235 200.416 458.099 208.156V215.217L447.643 216.032C441.804 216.575 434.879 217.254 432.163 217.662C427.682 218.34 427.139 218.069 426.46 214.538C425.374 209.378 418.177 199.601 412.881 196.478C410.573 194.985 405.413 193.084 401.475 192.269C389.254 189.553 375.539 195.664 369.021 206.798C362.639 217.526 363.318 231.105 370.786 240.746L373.909 244.955V329.009V413.063L369.021 424.605C366.305 430.987 363.454 438.456 362.639 441.171C361.553 444.973 359.923 446.739 355.849 448.64C341.32 455.158 333.444 465.07 332.222 478.514C331.815 483.266 330.185 489.105 328.012 493.179C324.482 499.561 324.346 500.919 324.618 516.67C324.889 531.743 324.618 533.78 322.174 537.175C319.594 540.705 319.458 542.47 319.865 562.839C320.272 582.393 320.544 584.973 323.124 588.503C324.618 590.54 327.605 593.12 329.506 594.071L333.172 595.836L332.765 676.223L332.494 756.611L329.099 761.363C325.704 766.116 325.704 766.252 325.704 796.669C325.704 815.408 325.161 827.629 324.346 828.172C323.124 829.123 291.078 829.802 291.078 828.851C291.078 828.715 292.571 824.234 294.472 819.074C300.447 802.236 298.41 787.707 288.09 772.091C280.893 761.092 248.44 728.502 230.651 714.244C215.035 701.752 198.062 690.074 191.408 687.358C185.976 685.05 185.162 683.284 185.162 674.458C185.162 666.718 185.298 666.582 199.691 666.582C211.369 666.446 218.294 663.731 229.701 655.04C241.786 645.671 255.501 628.697 269.351 605.884C272.61 600.588 278.313 593.256 282.251 589.59C294.88 577.368 307.78 545.186 307.916 524.954C308.051 516.127 307.508 513.683 303.978 506.622C300.99 500.783 298.41 497.796 294.472 495.623C284.696 490.056 276.684 492.364 267.858 503.227C264.599 507.437 262.562 508.795 259.574 508.795C248.711 508.795 240.564 522.917 233.91 552.926C231.194 565.012 228.614 569.9 224.812 569.9C223.319 569.9 223.047 568.814 223.726 565.419C224.133 563.111 224.812 552.791 225.355 542.742C226.442 521.423 224.677 505.536 219.788 493.586L216.665 485.71L221.418 481.637C226.713 476.884 230.923 476.477 235.675 480.143C240.428 483.945 245.045 484.76 251.291 483.13C257.538 481.365 267.722 472.946 272.067 466.021C274.104 462.626 276.005 461.268 278.313 461.268C282.387 461.268 287.955 457.874 290.127 453.936C290.942 452.306 292.028 446.196 292.436 440.085C293.115 430.037 293.793 428.407 298.41 421.889C301.262 417.816 304.249 412.384 304.928 409.804C305.743 407.088 308.323 402.607 310.903 399.891C316.606 393.509 317.964 387.127 314.841 380.745C313.619 378.029 311.039 374.906 309.273 373.684C307.508 372.598 303.299 367.302 299.768 362.142C289.041 345.711 275.054 336.206 255.229 331.453C246.539 329.416 243.415 329.281 232.96 330.639C218.566 332.404 209.604 336.342 202.407 344.353C192.223 355.624 187.199 370.289 185.705 393.373C184.347 413.199 182.174 416.458 159.497 431.802C149.449 438.727 135.463 449.726 128.402 456.38L115.773 468.601L116.452 460.454C116.859 456.108 117.538 446.331 117.946 438.863C121.748 372.326 135.87 315.43 161.534 263.694C217.344 150.717 312.668 72.9097 438.409 37.8759C464.074 30.6791 500.058 24.297 525.994 22.2601C540.116 21.1738 583.433 21.4454 597.962 22.6675ZM572.298 86.3529C568.903 96.1297 568.768 100.882 571.348 110.795C575.693 126.954 585.877 135.373 602.579 136.459C615.343 137.138 624.713 133.743 638.156 122.88C644.81 117.72 648.205 115.683 647.797 117.313C647.39 118.671 645.76 124.917 644.131 131.299C642.501 137.546 640.465 143.249 639.65 143.792C638.699 144.335 603.258 144.742 560.62 144.471L483.356 144.199L480.912 134.015C479.554 128.448 477.924 121.522 477.245 118.671C476.566 115.955 476.295 113.647 476.566 113.647C476.702 113.647 481.726 117.584 487.565 122.473C500.33 133.065 504.267 135.101 514.859 136.188C536.721 138.496 551.251 124.102 552.744 98.4381C553.423 88.3897 553.152 86.7602 550.572 83.9086C548.942 82.1434 547.72 80.2423 547.72 79.6992C547.72 79.156 550.843 75.4897 554.645 71.5518L561.707 64.4907L568.496 71.2802L575.15 78.0697L572.298 86.3529ZM531.969 102.24C534.549 103.191 534.82 109.301 532.24 112.56C529.796 115.819 520.698 118.807 516.489 117.72C513.637 117.041 513.094 116.091 513.094 111.61C513.094 106.314 513.23 106.178 519.883 103.87C527.488 101.29 528.981 101.018 531.969 102.24ZM608.69 105.092C612.628 108.079 613.986 114.054 611.406 117.313C610.048 118.807 608.011 119.214 603.666 118.671C597.148 117.992 593.753 115.548 590.63 109.166C588.729 105.228 588.729 104.684 590.901 103.055C594.024 100.611 604.073 101.833 608.69 105.092ZM639.786 165.518L639.378 169.999H561.978H484.578L484.171 165.518L483.763 161.173H561.978H640.193L639.786 165.518ZM634.354 236.808C633.811 284.47 633.811 285.556 630.688 292.617C626.75 301.444 618.874 308.369 610.455 310.542C602.987 312.443 519.34 312.579 512.822 310.677C501.959 307.554 494.626 300.765 491.775 291.124C489.874 284.877 489.195 195.12 490.96 190.639C491.911 188.467 496.663 188.331 563.472 188.331H634.897L634.354 236.808ZM404.055 213.995L408.536 217.933L408.943 280.94L409.35 344.082L401.475 357.525L393.599 370.968L392.648 358.747C392.105 351.958 391.698 322.627 391.698 293.568C391.834 264.373 391.834 239.659 391.698 238.437C391.698 237.215 389.797 233.956 387.488 231.105C383.007 225.402 382.328 220.377 385.587 215.76C390.204 209.107 397.944 208.428 404.055 213.995ZM736.604 213.995C742.035 219.563 741.764 224.587 735.789 231.784L731.036 237.487L730.9 304.16C730.9 356.303 730.493 370.425 729.271 368.524C728.32 367.166 725.062 362.006 721.938 357.118L716.099 348.291V283.791V219.291L720.716 214.674C726.555 208.835 731.172 208.699 736.604 213.995ZM457.692 248.486C458.099 265.052 459.728 269.805 466.79 274.014C470.863 276.323 471.406 277.545 472.9 286.1C473.715 291.26 475.616 298.592 477.11 302.394L479.825 309.184L476.023 309.999C459.321 313.801 448.051 318.689 435.694 327.515C430.941 330.91 426.732 333.626 426.324 333.626C425.374 333.626 425.238 242.104 426.188 239.524C427.003 237.623 433.385 236.129 449.273 234.092C457.556 233.006 457.42 232.598 457.692 248.486ZM695.731 236.536C696.546 237.079 697.089 256.633 697.089 286.235V335.255L691.386 330.367C684.46 324.392 662.598 313.122 651.599 309.863C647.118 308.505 643.316 307.283 643.045 307.011C642.773 306.875 643.452 304.839 644.674 302.666C645.76 300.493 647.797 293.296 649.019 286.778C651.328 275.372 651.464 274.965 656.216 273.064C663.549 270.212 664.907 266.953 665.993 249.436C666.536 240.882 667.079 233.82 667.079 233.82C668.301 233.413 694.916 235.993 695.731 236.536ZM509.971 329.688C532.648 338.514 544.733 342.045 555.868 342.724C570.669 343.674 579.088 342.045 598.777 334.305C615.751 327.651 623.762 325.614 623.762 327.787C623.762 329.96 612.763 339.601 605.974 343.539C585.877 355.081 551.522 357.118 526.537 348.02C517.439 344.625 501.144 333.762 498.836 329.552C497.614 327.244 497.885 326.836 500.194 326.836C501.687 326.836 506.033 328.059 509.971 329.688ZM485.121 337.835C497.071 355.488 520.155 366.894 550.708 370.425C561.299 371.511 567.274 371.511 574.742 370.425C580.31 369.61 584.927 369.067 585.334 369.339C585.877 370.018 577.187 375.857 570.125 379.523C536.857 396.361 486.072 391.472 460.407 368.931C454.568 363.771 441.804 348.563 441.804 346.662C441.804 346.254 444.113 344.761 447.1 343.267L452.26 340.551L456.605 347.205C465.839 361.463 485.529 374.77 502.774 378.301C512.958 380.473 514.452 378.301 506.033 373.548C493.404 366.351 478.467 352.365 472.085 342.045C468.147 335.799 468.147 333.898 472.085 332.268C478.196 329.824 480.369 330.774 485.121 337.835ZM650.649 333.354L653.772 335.799L650.513 344.625C639.65 373.277 617.788 404.237 583.161 439.813C558.719 464.935 535.771 481.637 504.946 496.574C491.503 503.091 470.32 510.153 464.074 510.153C460.272 510.153 458.371 506.894 460.679 504.178C461.494 503.227 466.246 499.968 471.271 497.117C481.183 491.278 505.625 469.008 503.453 467.65C502.638 467.243 494.083 470.502 484.171 474.983C474.258 479.328 465.024 482.995 463.531 482.995C461.086 482.995 460.815 482.044 460.815 473.082C460.815 449.455 456.741 409.397 453.618 403.558C451.038 398.398 447.1 397.447 442.483 400.978C439.903 402.879 439.767 405.051 439.088 439.813L438.409 476.477L433.114 468.872C427.139 460.182 421.164 455.022 410.98 449.862C403.783 446.331 389.254 443.48 384.501 444.702C383.143 444.973 382.057 444.566 382.057 443.751C382.057 441.307 395.772 409.532 406.092 387.942C414.646 370.289 421.843 359.426 425.102 359.426C425.645 359.426 431.213 364.586 437.459 370.832C474.394 408.853 521.377 418.223 571.212 397.583C597.962 386.584 615.072 372.733 630.145 349.921C642.773 330.91 642.773 330.91 645.217 330.91C646.439 330.91 648.884 331.996 650.649 333.354ZM676.992 342.588C684.732 346.662 699.669 358.068 703.607 363.228C708.767 369.61 724.518 401.249 734.295 424.469C741.899 442.258 742.986 445.788 740.813 444.43C738.64 443.072 720.988 446.603 713.791 449.862C704.965 453.664 692.608 465.07 687.448 474.168L683.51 480.958V436.555V392.015L680.115 389.843C676.177 387.263 673.597 387.942 670.61 392.423C667.351 397.583 665.993 408.582 663.685 451.084C662.598 472.675 661.24 494.401 660.697 499.289C659.747 507.844 659.611 508.116 655.673 508.523C653.5 508.795 640.872 510.967 627.836 513.547C614.8 515.991 601.764 518.436 598.777 518.843L593.481 519.522L603.666 509.066C619.689 492.636 628.243 477.563 637.07 450.948C640.057 441.986 643.724 428 645.353 419.852C649.97 396.768 651.735 390.522 659.747 370.697C663.82 360.648 667.215 351.686 667.215 351.007C667.215 349.106 671.017 340.415 671.968 340.415C672.375 340.415 674.684 341.366 676.992 342.588ZM234.318 387.534C236.762 390.25 238.663 398.941 238.255 404.508C238.12 406.681 238.391 408.31 239.07 408.31C239.749 408.31 243.551 406.138 247.625 403.558C251.699 400.978 255.637 398.805 256.587 398.805C257.402 398.805 260.525 396.904 263.377 394.596C269.351 389.843 273.968 389.979 280.486 394.731C282.523 396.225 286.189 397.854 288.498 398.398C292.436 399.077 292.707 399.484 292.028 403.693C291.078 409.261 287.276 415.1 284.696 415.1C283.609 415.1 281.165 413.878 279.264 412.384C276.82 410.483 273.697 409.668 269.351 409.668C262.426 409.668 260.797 411.162 262.698 416.05C264.191 420.124 268.672 422.297 273.425 421.21C278.313 420.124 279.128 422.568 278.585 436.147L278.178 445.652L272.474 445.245C267.043 444.838 266.5 445.109 264.327 449.183C261.34 454.479 252.106 464.935 248.711 466.836C245.317 468.601 238.799 464.663 227.664 454.071C216.122 443.072 212.184 444.702 217.072 458.417L218.973 464.12L214.628 466.7C212.184 468.194 209.875 469.416 209.468 469.416C209.061 469.416 205.666 464.935 202 459.503C198.333 454.207 192.902 447.01 189.779 443.616L184.211 437.505L194.26 428.136L204.172 418.902L209.875 421.21C216.258 423.79 223.183 423.111 226.034 419.581C227.528 417.816 227.528 417.272 226.17 416.729C222.232 415.507 216.529 409.397 215.714 405.73C214.356 399.62 216.393 391.88 220.195 388.349C224.269 384.547 231.33 384.14 234.318 387.534ZM897.243 389.435C901.724 394.596 901.995 403.286 898.058 411.026C896.564 414.013 895.342 417.001 895.342 417.68C895.342 420.667 901.86 420.667 907.699 417.951C916.525 413.606 918.969 414.149 923.993 421.482C926.438 425.148 930.376 429.765 932.956 431.802C935.4 433.975 937.437 436.283 937.437 437.098C937.437 437.777 934.585 441.579 931.19 445.517C927.66 449.319 922.5 455.972 919.512 460.318L914.217 468.194L910.143 465.342C906.884 462.898 906.205 461.404 906.205 457.059C906.205 451.627 904.304 446.331 902.403 446.331C901.86 446.331 897.107 450.541 891.675 455.701C886.38 460.725 880.133 465.749 877.825 466.7C872.665 468.872 871.307 467.786 860.58 453.528L853.111 443.616L848.902 445.788C846.458 447.01 844.285 447.418 843.606 446.739C842.927 446.06 841.976 440.492 841.433 434.382C840.754 425.42 841.026 423.247 842.52 423.111C849.988 422.704 856.234 419.581 859.222 414.557C861.259 411.433 857.049 408.31 850.803 408.31C846.458 408.31 838.039 413.063 835.323 417.001C834.101 418.766 829.212 414.421 826.632 409.397C824.46 405.187 825.139 402.607 830.027 396.497C834.236 391.065 836.409 390.929 841.162 395.546C844.556 398.669 846.186 399.212 856.642 399.62C866.69 400.027 868.863 400.434 872.258 403.422C881.355 411.026 885.022 409.261 883.8 397.854C883.257 391.88 883.528 390.25 885.837 387.942C889.639 384.14 893.169 384.547 897.243 389.435ZM627.972 426.099C619.281 459.367 603.53 486.254 582.89 502.82C560.756 520.473 548.942 523.324 517.439 519.25L505.354 517.621L520.834 509.609C539.709 499.697 550.029 493.315 566.731 481.094C582.482 469.551 607.739 444.566 620.368 427.728C625.528 420.803 630.009 415.371 630.145 415.643C630.416 415.779 629.33 420.531 627.972 426.099ZM173.891 452.035C180.681 459.231 194.667 478.921 198.741 487.068C203.358 496.166 206.888 507.844 206.752 513.411C206.752 516.806 206.209 515.991 204.172 509.474C200.234 497.388 196.025 489.784 191.68 487.611C188.285 485.846 187.742 485.846 187.063 487.747C186.52 488.834 186.655 491.142 187.063 492.907C193.445 515.177 196.975 535.545 199.42 562.703C200.37 572.208 200.234 572.616 197.111 573.838C191.815 576.146 164.522 582.393 158.954 582.528C153.93 582.8 153.659 582.528 151.35 576.689C149.042 570.579 145.104 553.605 141.03 531.879C138.722 519.794 135.598 514.498 131.661 515.991C126.365 518.028 125.55 528.484 128.945 552.519C132.883 581.306 139.672 604.934 143.474 603.44C146.733 602.218 148.227 604.391 151.893 616.069C155.424 626.932 162.756 642.412 169.003 652.324C173.484 659.385 171.854 660.064 154.202 658.978C137.092 658.028 116.316 654.225 101.651 649.337C87.2573 644.584 73.1352 637.387 73.271 635.079C73.9499 627.203 83.4552 587.145 88.8868 568.814C105.182 515.177 122.155 484.76 148.363 462.219C155.967 455.701 167.237 447.689 168.867 447.689C169.274 447.689 171.583 449.726 173.891 452.035ZM962.015 451.627C979.939 462.898 995.962 480.822 1006.01 500.647C1017.28 523.053 1029.77 576.011 1034.12 620.414C1035.88 638.881 1036.02 638.745 1024.48 644.584C1010.22 651.645 981.025 658.163 963.101 658.163C957.262 658.163 952.238 657.62 951.695 656.941C951.287 656.126 953.46 652.324 956.447 648.386C959.435 644.449 964.051 635.351 966.767 628.29C976.68 602.49 977.223 601.403 983.198 600.86C988.358 600.453 988.358 600.453 990.802 591.626C1000.31 556.593 1001.12 518.3 992.431 518.3C989.444 518.3 987.95 522.102 984.963 538.668C982.111 554.827 975.729 580.763 974.236 582.393C973.828 582.936 970.977 582.8 967.989 582.121C953.46 578.726 923.314 570.986 922.5 570.579C921.957 570.172 922.364 566.777 923.179 562.839C924.129 558.901 927.252 545.186 929.968 532.558C932.684 519.794 937.165 504.042 939.745 497.388C945.177 483.538 944.769 481.229 937.029 480.55C932.684 480.143 931.733 480.686 928.882 485.303C927.117 488.155 924.265 494.673 922.771 499.968C914.217 528.892 913.945 529.57 912.859 526.719C911.637 523.324 913.538 509.609 916.661 499.968C919.92 489.648 923.314 483.538 932.548 471.724C937.029 465.885 942.189 458.96 943.819 456.516C946.942 451.763 951.966 447.689 954.41 447.689C955.225 447.689 958.62 449.455 962.015 451.627ZM764.984 466.021C766.885 466.971 770.279 469.823 772.452 472.131C775.711 475.662 775.983 476.341 773.81 475.798C755.343 470.366 736.468 471.181 723.432 477.97C714.742 482.451 705.1 496.574 701.977 509.202C701.298 512.189 700.348 513.004 698.039 512.597C695.459 512.189 695.052 511.375 695.324 506.35C696.003 491.821 705.1 475.119 715.42 469.416C729.271 461.676 753.577 460.046 764.984 466.021ZM405.277 466.971C417.634 474.168 427.139 490.327 427.411 504.042C427.546 510.424 427.139 512.189 425.374 512.597C423.744 512.868 422.386 510.56 420.214 503.77C415.054 488.019 405.684 478.514 391.155 474.168C382.328 471.588 369.021 471.588 358.701 474.304C354.22 475.39 350.146 476.069 349.739 475.662C347.838 473.625 358.837 465.749 366.305 463.848C368.614 463.305 376.897 462.898 384.773 463.034C397.537 463.305 399.709 463.712 405.277 466.971ZM385.452 491.278C398.487 494.944 404.055 503.499 404.326 520.065C404.462 529.706 404.19 530.928 401.203 533.373C399.574 534.73 397.673 535.681 396.994 535.274C396.45 535.002 395.636 529.435 395.228 522.917C394.821 516.399 394.006 510.831 393.599 510.424C391.29 508.116 388.71 514.769 387.353 525.768C385.587 541.384 385.044 543.693 382.328 544.779C378.934 546.001 376.625 541.792 376.489 534.052C376.354 525.089 375.403 519.25 373.774 517.621C371.465 515.313 370.243 518.843 368.885 531.607C368.07 538.533 367.12 544.643 366.577 545.05C364.811 546.952 361.688 542.063 360.33 534.866C354.763 508.116 352.183 505.943 352.183 528.348C352.183 543.693 352.183 544.1 349.467 542.47C343.085 538.397 339.011 512.189 343.357 502.956C346.208 496.845 350.01 494.265 360.059 491.957C369.7 489.513 378.39 489.377 385.452 491.278ZM765.255 491.278C773.946 493.043 780.735 497.253 782.772 502.413C785.352 508.659 783.723 526.04 779.513 535.138C775.575 543.828 772.724 544.643 772.181 537.175C770.551 513.276 767.971 512.054 764.441 533.78C762.947 542.606 762.539 543.421 759.281 543.828C755.886 544.236 755.75 544.236 755.207 531.879C754.664 520.473 752.898 515.041 750.454 517.485C749.911 518.028 748.689 524.275 747.874 531.336C746.924 538.533 745.837 544.643 745.43 545.186C745.023 545.594 743.122 545.186 741.356 544.372C738.369 543.014 737.962 541.792 737.283 532.286C735.925 516.535 735.11 512.597 733.345 513.276C732.394 513.547 731.172 516.127 730.629 519.115C728.456 529.842 726.827 536.632 726.284 537.175C724.79 538.533 721.667 534.052 720.173 528.484C717.186 517.621 720.852 500.919 727.506 495.351C733.752 490.056 750.862 488.29 765.255 491.278ZM278.178 523.867C270.709 543.149 270.438 544.372 273.153 543.828C274.376 543.557 278.992 537.989 283.473 531.336C287.955 524.682 291.892 519.929 292.028 520.608C292.3 521.287 289.448 526.99 285.782 533.237C281.98 539.483 279.264 545.05 279.671 545.729C280.486 546.952 289.041 540.841 291.213 537.446C294.472 532.15 290.263 542.878 283.745 556.321C278.449 567.456 275.054 572.344 268.537 578.726C264.056 583.207 257.673 591.083 254.414 596.379C240.021 619.599 221.825 640.918 212.048 646.078C206.073 649.201 196.025 649.473 190.729 646.757C185.162 643.77 177.15 634.264 173.62 626.389C170.361 618.784 164.386 599.774 165.065 598.959C165.336 598.823 171.99 597.058 179.73 595.157C187.606 593.256 195.346 591.355 196.84 590.812C199.555 590.133 199.827 590.676 200.778 597.873C202 607.785 202.543 609.279 205.394 609.279C206.616 609.279 215.171 602.218 224.541 593.527C243.823 575.739 248.711 568.406 249.526 556.321C249.933 549.26 254.55 535.545 257.538 532.558C258.488 531.607 258.488 531.743 257.809 532.965C256.587 535.274 258.217 544.1 259.982 544.1C261.204 544.1 262.833 541.792 275.326 521.016C278.857 514.905 282.116 510.288 282.523 510.56C282.794 510.967 280.893 516.942 278.178 523.867ZM852.432 530.114C856.099 537.039 859.765 542.742 860.851 542.742C863.024 542.742 864.789 534.595 863.567 529.57C862.752 525.904 862.752 525.904 864.925 528.484C869.678 534.323 873.887 546.273 874.973 557.407C876.739 573.431 876.06 572.616 912.859 606.292C914.624 607.921 916.797 609.143 917.611 608.872C919.648 608.193 922.364 600.045 922.364 593.935C922.5 591.219 923.043 588.911 923.586 588.911C925.623 588.911 950.201 594.478 954.818 595.836C957.126 596.651 959.163 597.737 959.163 598.416C959.163 600.453 950.744 623.401 948.028 628.969C944.769 635.486 938.116 642.683 933.091 645.399C931.054 646.485 926.03 647.3 921.957 647.3C915.167 647.3 913.809 646.757 905.933 640.782C896.428 633.585 880.948 614.439 869.542 595.836C864.246 587.281 860.58 582.936 857.049 580.763C851.346 577.504 845.1 569.221 840.483 558.629C838.718 554.692 835.323 547.631 833.014 542.878C830.706 537.989 828.805 533.916 828.805 533.644C828.805 533.237 831.656 535.953 835.051 539.619L841.162 546.137L840.619 541.792L840.211 537.446L845.643 542.47C850.939 547.223 851.21 547.223 851.618 544.507C852.025 541.656 847.951 530.385 842.927 520.608C841.841 518.436 841.026 515.448 841.026 513.955C841.026 511.239 841.162 511.239 843.47 514.362C844.964 516.127 848.902 523.324 852.432 530.114ZM836.816 526.719C840.89 534.73 840.89 535.002 837.767 531.472C835.866 529.435 834.236 526.719 834.236 525.633C834.236 524.546 833.693 523.732 833.014 523.732C832.335 523.732 831.521 522.509 831.113 521.016C829.755 515.72 832.471 518.436 836.816 526.719ZM677.399 533.101C685.547 537.446 692.336 546.001 695.052 555.371C696.138 559.308 699.805 584.43 703.199 611.316C710.26 666.854 712.433 681.927 720.988 734.07C724.247 754.438 726.827 771.412 726.555 771.819C726.284 772.091 721.938 772.634 716.914 773.177C708.631 773.856 707.952 773.72 707.952 771.276C707.952 765.709 699.669 696.728 697.089 680.297C693.423 657.62 688.941 639.696 687.448 642.14C685.954 644.313 686.09 718.997 687.448 742.353C687.991 751.722 688.398 759.462 688.398 759.598C688.263 759.734 684.596 758.512 680.115 756.882C674.005 754.71 668.845 754.031 659.747 754.167C648.748 754.167 646.032 754.71 632.589 760.006C602.715 771.548 587.778 776.029 574.878 777.658C552.065 780.51 528.574 776.029 499.243 763.265C479.961 754.846 467.333 752.401 454.297 754.302C448.865 755.253 442.619 756.882 440.446 757.969C436.644 759.87 436.373 759.87 436.237 757.697C435.965 751.722 436.644 714.516 437.052 713.701C438.274 711.936 438.953 640.511 437.731 640.511C433.928 640.511 428.497 670.113 419.671 738.958L415.325 772.906L406.77 772.77C402.154 772.634 398.08 772.362 397.673 771.955C397.265 771.684 397.673 767.746 398.352 763.265C409.215 696.728 417.362 639.56 424.831 579.541C428.361 551.704 433.928 540.705 448.322 533.644C459.593 528.077 471.135 528.62 500.33 535.817C550.708 548.309 575.421 548.445 618.331 536.496C651.735 527.126 664.771 526.447 677.399 533.101ZM346.48 559.58C350.01 561.345 355.442 563.246 358.701 563.789C364.268 564.74 364.404 564.876 364.404 570.036V575.332H351.504H338.604V565.826C338.604 560.531 338.876 556.321 339.283 556.321C339.69 556.321 342.949 557.815 346.48 559.58ZM786.71 565.826V575.332H773.81H760.91V570.036C760.91 565.012 761.182 564.604 766.07 563.789C768.786 563.382 774.489 561.481 778.563 559.716C782.636 557.951 786.167 556.457 786.438 556.457C786.574 556.321 786.71 560.531 786.71 565.826ZM393.87 626.524L393.327 691.432L388.982 715.874C380.563 764.079 380.97 767.338 380.835 659.929L380.699 563.246L385.859 562.703C388.575 562.432 391.698 562.16 392.648 562.024C394.142 561.753 394.414 573.295 393.87 626.524ZM740.27 563.111H743.257V659.114C743.257 711.8 742.986 754.71 742.578 754.438C741.899 753.623 735.789 714.244 732.937 692.111C731.579 680.84 731.036 661.015 731.036 619.056V561.481L734.159 562.296C735.789 562.703 738.505 563.111 740.27 563.111ZM362.503 594.342C364.133 594.342 364.404 606.292 364.404 675.137V755.932L360.059 756.203C357.615 756.203 354.627 756.475 353.541 756.475C352.455 756.611 351.097 755.796 350.554 754.574C350.01 753.488 349.603 716.96 349.603 673.508L349.467 594.478L353.269 593.935C355.306 593.663 357.75 593.663 358.701 593.935C359.787 594.071 361.417 594.342 362.503 594.342ZM771.502 593.799L774.489 594.614V676.088C774.489 749.821 774.217 757.561 772.316 756.747C771.094 756.339 768.107 755.932 765.527 755.932H760.91V674.458V592.984H764.712C766.749 592.984 769.736 593.392 771.502 593.799ZM87.2573 662.78C108.033 671.063 137.635 677.174 157.732 677.174H167.509V683.692V690.345L156.51 690.481C150.4 690.617 144.832 691.16 144.153 691.839C143.474 692.518 149.721 695.913 158.954 699.987C191.001 713.973 218.973 733.934 248.304 763.265C270.438 785.398 275.19 792.867 274.919 805.631C274.919 815.408 270.709 824.234 263.648 829.258C254.414 836.048 250.884 836.591 222.504 835.64C208.382 835.097 194.939 834.418 192.63 834.147C190.458 833.739 181.495 832.517 172.941 831.295C141.981 826.95 90.5163 815.272 86.9858 811.741C85.4921 810.248 94.1826 772.498 96.2195 771.819C97.0342 771.412 103.824 773.313 111.156 775.893C145.375 787.571 175.113 795.854 203.086 801.286C212.455 803.051 213.678 802.915 213.678 799.928C213.678 796.126 185.026 781.596 143.746 764.758C107.49 749.821 91.1952 740.723 81.011 729.724C71.9131 719.812 69.0615 712.479 68.6541 696.592C68.111 680.569 71.6415 658.163 74.7647 658.163C75.1721 658.163 80.7394 660.2 87.2573 662.78ZM1041.04 670.792C1042.54 676.223 1043.9 687.765 1044.3 696.999C1044.98 711.393 1044.71 714.109 1042.4 719.404C1036.29 733.119 1022.44 743.168 992.296 755.796C973.557 763.672 964.595 767.474 935.4 779.967C914.488 788.929 899.415 798.57 899.415 803.051C899.415 805.359 899.008 805.495 918.426 800.743C940.56 795.311 959.978 789.2 997.048 776.029C1013.75 770.19 1028.14 765.573 1028.96 765.845C1030.45 766.524 1035.34 785.806 1037.24 798.841C1038.06 804.409 1038.06 804.409 1032.22 806.581C979.124 825.864 883.935 841.479 865.74 833.875C853.79 828.987 847.136 818.259 847.272 804.137C847.272 791.78 850.531 785.67 868.727 765.437C888.145 743.575 914.081 722.12 935.671 709.763C946.806 703.381 971.248 693.061 981.976 690.345C985.914 689.395 989.172 688.037 989.172 687.222C989.308 685.05 978.038 683.828 962.829 684.371L948.164 684.914L948.571 680.704L948.979 676.495L964.595 675.544C990.802 673.915 1016.87 668.755 1031.13 662.373C1034.39 660.879 1037.51 660.064 1037.92 660.336C1038.33 660.743 1039.69 665.496 1041.04 670.792ZM67.9752 764.351C76.9373 766.931 78.0236 767.61 77.2089 770.054C76.8015 771.684 74.7647 780.374 72.8636 789.472C69.6047 804.409 68.9257 806.174 66.3457 806.174C61.1857 806.174 48.2857 815.544 44.4836 821.926C41.3604 827.222 41.0888 828.579 42.4467 831.567L44.0762 835.097L34.1636 834.147C25.8804 833.468 23.7078 832.789 21.2635 829.802C15.5604 823.555 16.6467 820.16 31.1762 798.027C36.0646 790.694 42.4467 779.424 45.2983 773.041C51.5446 759.462 51.5446 759.598 67.9752 764.351ZM1073.91 768.425C1080.42 783.769 1084.63 792.459 1090.74 802.644C1098.62 815.815 1099.84 820.432 1097.13 826.95C1094.95 832.246 1089.52 834.69 1079.47 834.69C1075.13 834.69 1074.45 834.283 1075.26 832.246C1078.25 825.592 1077.57 822.74 1072.14 816.766C1069.02 813.507 1063.86 809.433 1060.6 807.804L1054.62 804.816L1053.81 793.681C1053.4 787.435 1052.04 779.424 1050.82 775.893C1049.33 771.684 1048.92 768.832 1049.73 768.017C1050.82 766.931 1065.49 763.129 1069.97 762.857C1070.78 762.721 1072.55 765.301 1073.91 768.425ZM373.909 801.421V829.258H359.651H345.394V801.421V773.585H359.651H373.909V801.421ZM777.884 801.421V828.579L764.033 828.987L750.047 829.394V801.421V773.449L764.033 773.856L777.884 774.264V801.421ZM472.9 794.089C489.602 797.619 500.873 812.013 495.849 823.148C492.725 829.937 488.652 830.616 448.186 830.616C427.139 830.616 410.437 830.073 410.029 829.394C408.807 827.493 410.573 823.963 413.832 822.197C415.461 821.247 425.645 820.296 438.953 819.753L461.222 819.074L456.47 814.05C451.581 808.754 444.113 804.816 438.953 804.816C431.756 804.816 442.076 797.619 454.025 794.496C461.765 792.324 464.617 792.324 472.9 794.089ZM677.807 798.163C682.424 800.471 686.226 802.779 686.226 803.458C686.226 804.001 683.646 804.816 680.523 805.359C672.918 806.581 665.45 810.927 662.598 815.815C661.376 817.988 660.426 819.753 660.697 819.753C660.969 819.753 672.104 819.889 685.547 820.16C708.631 820.432 710.26 820.568 714.47 823.555C716.778 825.32 718.815 827.629 718.815 828.715C718.815 831.567 640.872 831.567 633.947 828.715C619.281 822.469 628.243 801.286 648.205 795.175C650.106 794.632 655.673 794.089 660.561 794.089C668.03 793.953 670.881 794.632 677.807 798.163ZM1052.04 825.049C1053.4 827.086 1046.88 831.838 1040.64 833.196C1037.24 834.011 1026.92 834.554 1017.55 834.554L1000.58 834.418L1009.41 832.382C1014.29 831.295 1023.39 828.987 1029.77 827.222C1041.86 823.963 1050.82 823.012 1052.04 825.049ZM74.0857 829.258C78.0236 830.073 83.1836 831.024 85.3563 831.431C98.7995 833.739 98.6637 834.418 84.5415 834.554C76.6657 834.69 68.2468 834.011 65.9384 833.196C62.272 831.974 61.8647 831.431 63.2226 829.258C64.1731 827.9 65.2594 826.95 65.8026 827.357C66.3457 827.629 70.012 828.579 74.0857 829.258Z" fill="#5046E4"/>
<path d="M518.254 246.992L503.181 286.778L512.279 287.457C517.167 287.865 521.784 287.729 522.463 287.186C523.142 286.643 524.772 283.248 525.994 279.717L528.166 273.199L543.375 272.792L558.448 272.385L560.62 279.989L562.793 287.457H572.977C578.544 287.457 583.025 287.322 583.025 287.05C583.025 286.778 578.409 274.422 572.705 259.485C567.002 244.684 560.484 226.895 558.04 220.242L553.695 208.02L543.511 207.613L533.326 207.206L518.254 246.992ZM548.535 243.326L552.88 254.868H543.375C536.314 254.868 534.005 254.461 534.413 253.103C538.079 242.647 542.968 230.697 543.511 231.24C543.918 231.648 546.091 237.079 548.535 243.326Z" fill="#5046E4"/>
<path d="M592.531 237.487C592.531 254.189 592.938 272.385 593.481 277.952L594.296 288.136H603.937H613.578V248.078L613.442 208.02L602.987 207.613L592.531 207.206V237.487Z" fill="#5046E4"/>
<path d="M617.652 550.482C609.097 555.778 585.877 566.505 575.693 569.9C568.36 572.344 563.336 572.887 552.609 572.887C537.264 572.887 524.772 569.764 504.403 561.209C498.021 558.494 492.59 556.593 492.318 557C490.96 558.358 498.157 566.098 506.712 572.48C526.944 587.688 548.128 593.935 567.002 590.404C580.038 587.824 598.37 578.319 609.233 568.406C617.245 561.074 626.478 549.939 626.478 547.631C626.478 546.001 622.948 547.223 617.652 550.482Z" fill="#5046E4"/>
<path d="M479.554 569.221C477.245 573.566 487.837 620.685 496.12 642.548C510.65 681.248 525.722 700.666 545.819 706.505C552.609 708.406 561.299 708.134 561.299 705.961C561.299 705.418 556.275 699.715 550.029 693.333C533.326 675.952 525.179 661.422 486.207 580.084C482.948 573.431 479.961 568.542 479.554 569.221Z" fill="#5046E4"/>
<path d="M632.589 592.577C602.987 657.077 578.68 700.801 563.336 717.096C560.62 719.948 558.719 722.528 559.126 722.935C560.62 724.429 573.113 716.825 580.717 709.899C588.864 702.295 595.79 693.061 605.023 677.174C607.875 672.286 610.183 669.027 610.183 669.706C610.183 672.557 600.407 708.677 594.703 726.737C591.444 737.193 588.321 747.513 587.914 749.821C587.099 753.895 587.099 753.895 592.395 748.056C606.381 732.848 622.812 686.272 634.626 627.611C638.292 609.415 642.773 581.85 642.773 577.097C642.773 572.48 639.921 576.69 632.589 592.577Z" fill="#5046E4"/>
</svg>
