<svg width="1866" height="1428" viewBox="0 0 1866 1428" fill="none" xmlns="http://www.w3.org/2000/svg">
<path d="M844.292 2.70885C784.125 9.52024 701.707 28.8192 655.844 46.9829C539.596 92.8462 459.222 144.386 381.118 222.944C285.531 318.984 219.234 432.734 187.22 556.02C168.83 626.859 162.245 679.08 160.656 768.309L159.521 832.563L150.666 851.181C129.097 898.179 103.44 984.003 92.9962 1045.53C88.4553 1071.19 88.4553 1075.28 92.5422 1079.82C95.4938 1082.99 95.0397 1085.95 90.0446 1102.75C85.9578 1116.6 83.9144 1129.77 83.2333 1148.61C81.1898 1190.61 88.0012 1214.68 107.981 1236.25C112.976 1241.7 116.609 1246.47 116.155 1247.15C115.474 1247.6 109.117 1246.92 101.624 1245.56C85.5037 1242.61 72.335 1243.97 66.4318 1249.42C64.1614 1251.46 56.4418 1263.95 49.4034 1276.89C42.592 1290.06 32.3749 1306.86 26.6988 1314.35C-6.67703 1359.76 -8.72045 1392.46 20.3415 1418.11L31.0126 1427.42H931.478C1776.32 1427.2 1832.4 1426.97 1838.98 1423.34C1847.16 1419.02 1855.33 1409.71 1861.69 1397.91C1864.86 1392 1866 1385.19 1866 1371.8C1866 1352.27 1863.05 1344.32 1845.57 1317.08C1841.48 1310.72 1833.31 1294.37 1827.63 1280.52C1821.73 1266.68 1815.14 1253.73 1812.64 1251.46C1810.37 1249.42 1804.24 1247.15 1799.25 1246.47C1790.62 1245.33 1757.47 1248.97 1749.53 1252.14C1747.25 1252.83 1750.43 1247.83 1756.56 1241.25C1772.23 1223.31 1776.54 1209.69 1778.13 1176.08C1779.04 1152.7 1778.36 1144.98 1774.05 1126.13C1771.32 1113.87 1767.23 1100.25 1764.96 1095.94C1761.56 1089.35 1761.1 1084.36 1762.01 1068.69C1764.51 1027.14 1743.85 909.986 1723.19 849.137C1718.19 834.379 1717.97 831.428 1719.1 786.472C1722.51 642.752 1692.54 513.79 1629.19 397.769C1569.7 288.787 1491.6 203.418 1389.2 135.077C1282.49 64.0113 1175.1 23.5971 1046.36 5.8875C1002.09 -0.242752 886.069 -2.05912 844.292 2.70885ZM999.819 37.901C1136.05 49.9345 1254.11 90.5757 1364.23 163.458C1406.91 191.611 1436.2 215.451 1474.35 253.595C1513.62 292.647 1538.15 322.163 1563.35 360.761C1626.24 456.347 1664.16 561.697 1677.32 676.809C1681.64 714.045 1684.82 778.072 1682.09 778.072C1681.18 778.072 1676.42 773.531 1671.42 768.082C1659.84 754.686 1640.54 739.474 1607.17 717.45C1592.18 707.46 1578.11 697.243 1576.06 694.973C1569.25 687.253 1565.39 674.766 1563.8 656.375C1560.62 615.734 1551.09 588.034 1534.29 570.778C1497.96 533.543 1423.03 538.765 1380.8 581.223C1362.41 599.613 1341.52 625.724 1338.57 634.351C1332.44 651.607 1339.71 677.49 1352.88 686.118C1357.19 688.843 1361.96 695.427 1365.14 702.465C1368.54 710.185 1372.86 715.861 1377.85 718.586C1384.66 722.672 1385.34 724.035 1386.71 738.566C1388.52 757.638 1395.56 771.487 1405.1 774.666C1408.96 775.801 1417.81 782.386 1424.85 788.97C1444.15 807.361 1446.65 808.723 1461.86 808.723C1473.66 808.723 1477.07 807.588 1486.15 801.23C1492.05 797.371 1497.73 793.965 1498.64 793.965C1499.77 793.965 1504.09 797.371 1507.95 801.457L1515.44 808.95L1509.31 822.119C1498.41 846.186 1494.33 887.281 1499.55 921.111C1500.91 929.739 1501.59 940.183 1501.14 944.27L1500.23 951.762L1495.46 941.545C1492.74 935.869 1488.88 922.7 1486.61 912.483C1481.16 887.054 1471.39 867.755 1458.91 858.219C1453.46 854.132 1446.65 850.726 1443.69 850.726C1440.29 850.726 1435.29 847.094 1429.62 840.282C1420.54 829.838 1408.5 823.708 1396.24 823.481C1386.71 823.481 1371.72 839.601 1367.41 854.359C1360.6 878.653 1367.41 915.662 1385.8 954.714C1392.61 968.791 1398.51 977.191 1408.27 986.5C1415.54 993.766 1427.35 1008.52 1434.61 1019.65C1463.22 1064.6 1492.74 1097.07 1513.4 1106.61C1518.85 1109.33 1530.88 1112.28 1539.96 1113.19L1556.31 1114.78L1555.63 1129.54L1554.95 1144.3L1540.42 1153.15C1507.04 1173.36 1456.86 1216.72 1421.44 1256C1380.58 1301.19 1371.49 1324.12 1380.58 1358.4C1383.07 1368.39 1386.02 1378.61 1386.93 1381.33C1388.52 1386.56 1388.52 1386.56 1362.18 1386.56H1335.85V1332.75V1279.16L1330.17 1271.67L1324.49 1264.18V1129.54V994.901L1331.99 991.495C1344.25 985.819 1346.06 978.781 1346.06 939.956C1346.06 907.715 1345.84 905.218 1340.84 898.633C1335.85 891.822 1335.85 890.914 1338.12 871.842C1341.07 848.456 1339.71 837.331 1331.99 823.481C1328.81 817.805 1325.86 808.042 1325.4 801.912C1323.36 779.661 1312.23 764.903 1286.81 750.599C1279.99 746.739 1274.54 742.652 1274.54 741.517C1274.54 740.382 1269.55 727.213 1263.19 712.228L1251.84 684.983V547.393V409.803L1258.65 402.083C1276.36 381.876 1271.59 349.635 1247.98 331.699C1220.05 310.356 1180.55 322.163 1169.2 355.085C1167.61 359.853 1165.34 363.712 1164.2 363.712C1163.06 363.712 1151.71 362.804 1139 361.896C1113.8 359.853 1113.34 359.626 1113.34 342.597C1113.34 333.515 1107.89 320.119 1101.54 313.308C1097.22 308.767 1096.99 307.178 1099.26 294.009C1100.63 286.063 1102.44 271.077 1103.12 260.406C1104.94 235.658 1111.75 202.282 1120.38 177.08C1124.01 166.182 1126.96 154.376 1126.96 150.97C1126.96 141.207 1117.88 133.26 1106.53 133.26C1098.13 133.26 1096.09 134.623 1077.92 153.013L1058.4 172.994L1054.99 166.182C1047.04 150.97 1040.46 147.11 1006.63 139.391C994.824 136.893 994.143 136.212 992.78 128.72C990.737 116.232 985.515 108.285 968.713 92.1651C943.965 68.0982 935.792 68.3252 909.908 93.0732C891.291 110.556 886.296 118.048 886.296 128.265C886.296 136.893 883.117 139.164 868.586 141.207C862.002 142.115 851.331 145.521 844.746 148.7C835.437 153.695 832.032 156.873 828.172 165.047L823.404 175.264L804.332 156.873C793.888 146.656 782.99 137.12 780.265 135.758C771.864 131.444 761.647 132.806 755.517 138.937C750.522 143.932 749.841 145.975 751.203 154.149C752.111 159.144 755.29 170.723 758.469 179.578C767.323 204.553 772.318 231.344 776.178 272.667C779.584 308.086 779.584 311.038 776.178 314.897C770.275 321.255 766.188 335.105 765.961 348.046V359.853L748.479 361.215C738.716 362.123 727.136 363.258 722.595 363.939C715.103 365.075 714.195 364.621 713.059 358.717C711.243 350.09 699.21 333.742 690.355 328.52C686.495 326.023 677.867 322.844 671.283 321.482C650.849 316.941 627.917 327.158 617.019 345.776C606.348 363.712 607.483 386.417 619.97 402.537L625.193 409.576V550.117V690.659L617.019 709.958C612.478 720.629 607.71 733.117 606.348 737.657C604.531 744.015 601.807 746.966 594.995 750.145C570.701 761.043 557.533 777.618 555.489 800.095C554.808 808.042 552.084 817.805 548.451 824.616C542.548 835.287 542.321 837.558 542.775 863.895C543.229 889.097 542.775 892.503 538.688 898.179C534.374 904.082 534.147 907.034 534.828 941.091C535.509 973.786 535.963 978.099 540.277 984.003C542.775 987.408 547.77 991.722 550.948 993.312L557.079 996.263L556.398 1130.67L555.943 1265.09L550.267 1273.03C544.591 1280.98 544.591 1281.21 544.591 1332.06C544.591 1363.4 543.683 1383.83 542.321 1384.74C540.277 1386.33 486.694 1387.46 486.694 1385.87C486.694 1385.65 489.192 1378.15 492.371 1369.53C502.361 1341.37 498.955 1317.08 481.699 1290.97C469.666 1272.58 415.402 1218.09 385.659 1194.25C359.548 1173.36 331.168 1153.83 320.042 1149.29C310.961 1145.43 309.598 1142.48 309.598 1127.72C309.598 1114.78 309.825 1114.55 333.892 1114.55C353.418 1114.33 364.998 1109.79 384.069 1095.26C404.277 1079.59 427.208 1051.21 450.367 1013.06C455.816 1004.21 465.352 991.949 471.936 985.819C493.052 965.385 514.621 911.575 514.848 877.745C515.075 862.987 514.167 858.9 508.264 847.094C503.269 837.331 498.955 832.336 492.371 828.703C476.023 819.394 462.627 823.254 447.869 841.418C442.42 848.456 439.015 850.726 434.02 850.726C415.856 850.726 402.233 874.339 391.108 924.517C386.567 944.724 382.253 952.897 375.896 952.897C373.398 952.897 372.944 951.081 374.079 945.405C374.761 941.545 375.896 924.289 376.804 907.488C378.62 871.842 375.669 845.277 367.495 825.297L362.273 812.129L370.22 805.317C379.074 797.371 386.113 796.689 394.06 802.82C402.006 809.177 409.726 810.539 420.17 807.815C430.614 804.863 447.642 790.786 454.908 779.207C458.314 773.531 461.492 771.26 465.352 771.26C472.163 771.26 481.472 765.584 485.105 759C486.467 756.275 488.284 746.058 488.965 735.841C490.1 719.04 491.235 716.315 498.955 705.417C503.723 698.606 508.718 689.524 509.853 685.21C511.215 680.669 515.529 673.176 519.843 668.635C529.379 657.964 531.649 647.293 526.427 636.622C524.384 632.081 520.07 626.859 517.119 624.815C514.167 622.999 507.129 614.144 501.225 605.517C483.289 578.044 459.903 562.151 426.754 554.204C412.223 550.798 407.001 550.571 389.519 552.842C365.452 555.793 350.467 562.378 338.433 575.774C321.405 594.618 313.004 619.139 310.507 657.737C308.236 690.886 304.603 696.335 266.687 721.991C249.885 733.571 226.499 751.961 214.693 763.087L193.578 783.521L194.713 769.898C195.394 762.633 196.529 746.285 197.21 733.798C203.568 622.545 227.181 527.413 270.092 440.908C363.408 252.006 522.795 121.908 733.039 63.3302C775.951 51.2967 836.118 40.6256 879.484 37.2199C903.097 35.4035 975.525 35.8576 999.819 37.901ZM956.907 144.386C951.231 160.733 951.004 168.68 955.318 185.254C962.583 212.273 979.612 226.349 1007.54 228.166C1028.88 229.301 1044.55 223.625 1067.02 205.461C1078.15 196.833 1083.83 193.428 1083.14 196.152C1082.46 198.423 1079.74 208.867 1077.01 219.538C1074.29 229.982 1070.88 239.518 1069.52 240.426C1067.93 241.334 1008.67 242.016 937.381 241.561L808.192 241.107L804.105 224.079C801.834 214.77 799.11 203.191 797.975 198.423C796.839 193.882 796.385 190.022 796.839 190.022C797.066 190.022 805.467 196.606 815.23 204.78C836.573 222.49 843.157 225.895 860.866 227.712C897.421 231.571 921.715 207.505 924.212 164.593C925.348 147.791 924.894 145.067 920.58 140.299C917.855 137.347 915.812 134.169 915.812 133.26C915.812 132.352 921.034 126.222 927.391 119.638L939.197 107.831L950.55 119.184L961.675 130.536L956.907 144.386ZM889.474 170.95C893.788 172.539 894.242 182.757 889.928 188.206C885.842 193.655 870.629 198.65 863.591 196.833C858.823 195.698 857.915 194.109 857.915 186.616C857.915 177.761 858.142 177.534 869.267 173.675C881.982 169.361 884.479 168.907 889.474 170.95ZM1017.76 175.718C1024.34 180.713 1026.61 190.703 1022.3 196.152C1020.03 198.65 1016.62 199.331 1009.35 198.423C998.456 197.287 992.78 193.201 987.558 182.529C984.38 175.945 984.38 175.037 988.012 172.312C993.234 168.226 1010.04 170.269 1017.76 175.718ZM1069.75 276.754L1069.07 284.246H939.652H810.235L809.554 276.754L808.873 269.488H939.652H1070.43L1069.75 276.754ZM1060.67 395.953C1059.76 475.646 1059.76 477.462 1054.54 489.269C1047.95 504.027 1034.78 515.606 1020.71 519.239C1008.22 522.418 868.359 522.645 857.461 519.466C839.297 514.244 827.037 502.892 822.269 486.771C819.09 476.327 817.955 326.25 820.906 318.757C822.496 315.124 830.442 314.897 942.149 314.897H1061.58L1060.67 395.953ZM675.597 357.809L683.089 364.393L683.77 469.743L684.452 575.319L671.283 597.797L658.114 620.275L656.525 599.84C655.617 588.488 654.936 539.446 654.936 490.858C655.163 442.043 655.163 400.721 654.936 398.677C654.936 396.634 651.757 391.185 647.897 386.417C640.405 376.881 639.269 368.48 644.719 360.761C652.438 349.635 665.38 348.5 675.597 357.809ZM1231.63 357.809C1240.71 367.118 1240.26 375.519 1230.27 387.552L1222.32 397.088L1222.1 508.568C1222.1 595.754 1221.42 619.366 1219.37 616.188C1217.78 613.917 1212.33 605.29 1207.11 597.116L1197.35 582.358V474.511V366.664L1205.07 358.944C1214.83 349.181 1222.55 348.954 1231.63 357.809ZM765.28 415.479C765.961 443.179 768.686 451.125 780.492 458.164C787.304 462.023 788.212 464.067 790.709 478.371C792.071 486.998 795.25 499.259 797.748 505.616L802.289 516.969L795.931 518.331C768.005 524.688 749.16 532.862 728.499 547.62C720.552 553.296 713.513 557.837 712.832 557.837C711.243 557.837 711.016 404.808 712.605 400.494C713.968 397.315 724.639 394.818 751.203 391.412C765.053 389.596 764.826 388.914 765.28 415.479ZM1163.29 395.499C1164.65 396.407 1165.56 429.102 1165.56 478.598V560.561L1156.03 552.388C1144.45 542.398 1107.89 523.553 1089.5 518.104C1082.01 515.833 1075.65 513.79 1075.2 513.336C1074.74 513.109 1075.88 509.703 1077.92 506.07C1079.74 502.438 1083.14 490.404 1085.19 479.506C1089.05 460.434 1089.27 459.753 1097.22 456.574C1109.48 451.806 1111.75 446.357 1113.57 417.068C1114.48 402.764 1115.39 390.958 1115.39 390.958C1117.43 390.277 1161.93 394.591 1163.29 395.499ZM852.693 551.253C890.61 566.011 910.817 571.914 929.434 573.049C954.182 574.638 968.259 571.914 1001.18 558.972C1029.56 547.847 1042.96 544.441 1042.96 548.074C1042.96 551.707 1024.57 567.827 1013.21 574.411C979.612 593.71 922.169 597.116 880.392 581.904C865.18 576.228 837.935 558.064 834.075 551.025C832.032 547.166 832.486 546.485 836.345 546.485C838.843 546.485 846.108 548.528 852.693 551.253ZM811.143 564.875C831.123 594.391 869.721 613.463 920.807 619.366C938.516 621.183 948.506 621.183 960.994 619.366C970.303 618.004 978.022 617.096 978.703 617.55C979.612 618.685 965.081 628.448 953.274 634.578C897.648 662.732 812.733 654.559 769.821 616.869C760.058 608.241 738.716 582.812 738.716 579.633C738.716 578.952 742.575 576.455 747.57 573.957L756.198 569.416L763.464 580.541C778.903 604.381 811.825 626.632 840.659 632.535C857.688 636.168 860.185 632.535 846.108 624.588C824.993 612.555 800.018 589.169 789.347 571.914C782.763 561.47 782.763 558.291 789.347 555.566C799.564 551.48 803.197 553.069 811.143 564.875ZM1087.91 557.383L1093.13 561.47L1087.69 576.228C1069.52 624.134 1032.97 675.901 975.071 735.387C934.202 777.391 895.832 805.317 844.292 830.292C821.815 841.191 786.395 852.997 775.951 852.997C769.594 852.997 766.415 847.548 770.275 843.007C771.637 841.418 779.584 835.968 787.985 831.201C804.559 821.438 845.427 784.202 841.795 781.931C840.432 781.25 826.128 786.699 809.554 794.192C792.98 801.457 777.541 807.588 775.043 807.588C770.956 807.588 770.502 805.998 770.502 791.013C770.502 751.507 763.691 684.529 758.469 674.766C754.155 666.138 747.57 664.549 739.851 670.452C735.537 673.63 735.31 677.263 734.175 735.387L733.039 796.689L724.185 783.975C714.195 769.444 704.205 760.816 687.176 752.188C675.143 746.285 650.849 741.517 642.902 743.561C640.632 744.015 638.815 743.334 638.815 741.971C638.815 737.885 661.747 684.756 679.002 648.655C693.306 619.139 705.34 600.976 710.789 600.976C711.697 600.976 721.006 609.603 731.45 620.048C793.207 683.62 871.765 699.287 955.091 664.776C999.819 646.385 1028.43 623.226 1053.63 585.082C1074.74 553.296 1074.74 553.296 1078.83 553.296C1080.87 553.296 1084.96 555.112 1087.91 557.383ZM1131.96 572.822C1144.9 579.633 1169.88 598.705 1176.46 607.333C1185.09 618.004 1211.43 670.906 1227.77 709.731C1240.49 739.474 1242.3 745.377 1238.67 743.107C1235.04 740.836 1205.52 746.739 1193.49 752.188C1178.73 758.546 1158.07 777.618 1149.44 792.83L1142.86 804.182V729.938V655.467L1137.18 651.834C1130.6 647.52 1126.28 648.655 1121.29 656.148C1115.84 664.776 1113.57 683.166 1109.71 754.232C1107.89 790.332 1105.62 826.66 1104.71 834.833C1103.12 849.137 1102.9 849.591 1096.31 850.272C1092.68 850.726 1071.57 854.359 1049.77 858.673C1027.97 862.76 1006.18 866.847 1001.18 867.528L992.326 868.663L1009.35 851.181C1036.15 823.708 1050.45 798.506 1065.21 754.005C1070.2 739.02 1076.33 715.634 1079.06 702.011C1086.78 663.413 1089.73 652.969 1103.12 619.82C1109.94 603.019 1115.61 588.034 1115.61 586.899C1115.61 583.72 1121.97 569.189 1123.56 569.189C1124.24 569.189 1128.1 570.778 1131.96 572.822ZM391.789 647.974C395.876 652.515 399.055 667.046 398.373 676.355C398.146 679.988 398.6 682.712 399.736 682.712C400.871 682.712 407.228 679.08 414.04 674.766C420.851 670.452 427.435 666.819 429.025 666.819C430.387 666.819 435.609 663.64 440.377 659.781C450.367 651.834 458.087 652.061 468.985 660.008C472.39 662.505 478.521 665.23 482.38 666.138C488.965 667.273 489.419 667.954 488.284 674.993C486.694 684.302 480.337 694.065 476.023 694.065C474.207 694.065 470.12 692.021 466.941 689.524C462.855 686.345 457.632 684.983 450.367 684.983C438.788 684.983 436.063 687.48 439.242 695.654C441.739 702.465 449.232 706.098 457.178 704.282C465.352 702.465 466.714 706.552 465.806 729.257L465.125 745.15L455.589 744.469C446.507 743.788 445.599 744.242 441.966 751.053C436.971 759.908 421.532 777.391 415.856 780.569C410.18 783.521 399.282 776.936 380.664 759.227C361.365 740.836 354.781 743.561 362.954 766.492L366.133 776.028L358.867 780.342C354.781 782.84 350.921 784.883 350.24 784.883C349.558 784.883 343.882 777.391 337.752 768.309C331.622 759.454 322.54 747.42 317.318 741.744L308.009 731.527L324.81 715.861L341.385 700.422L350.921 704.282C361.592 708.596 373.171 707.46 377.939 701.557C380.437 698.606 380.437 697.697 378.166 696.789C371.582 694.746 362.046 684.529 360.684 678.398C358.413 668.181 361.819 655.24 368.176 649.336C374.988 642.979 386.794 642.298 391.789 647.974ZM1500.23 651.153C1507.72 659.781 1508.18 674.312 1501.59 687.253C1499.09 692.248 1497.05 697.243 1497.05 698.378C1497.05 703.373 1507.95 703.373 1517.71 698.833C1532.47 691.567 1536.56 692.475 1544.96 704.736C1549.04 710.866 1555.63 718.586 1559.94 721.991C1564.03 725.624 1567.43 729.484 1567.43 730.846C1567.43 731.981 1562.67 738.339 1556.99 744.923C1551.09 751.28 1542.46 762.406 1537.46 769.671L1528.61 782.84L1521.8 778.072C1516.35 773.985 1515.21 771.487 1515.21 764.222C1515.21 755.14 1512.03 746.285 1508.86 746.285C1507.95 746.285 1500 753.324 1490.92 761.951C1482.06 770.352 1471.62 778.753 1467.76 780.342C1459.13 783.975 1456.86 782.159 1438.93 758.319L1426.44 741.744L1419.4 745.377C1415.31 747.42 1411.68 748.102 1410.55 746.966C1409.41 745.831 1407.82 736.522 1406.91 726.305C1405.78 711.32 1406.23 707.687 1408.73 707.46C1421.22 706.779 1431.66 701.557 1436.66 693.156C1440.06 687.934 1433.02 682.712 1422.58 682.712C1415.31 682.712 1401.24 690.659 1396.7 697.243C1394.65 700.195 1386.48 692.929 1382.16 684.529C1378.53 677.49 1379.67 673.176 1387.84 662.959C1394.88 653.877 1398.51 653.65 1406.46 661.37C1412.13 666.592 1414.86 667.5 1432.34 668.181C1449.14 668.862 1452.78 669.544 1458.45 674.539C1473.66 687.253 1479.79 684.302 1477.75 665.23C1476.84 655.24 1477.3 652.515 1481.16 648.655C1487.51 642.298 1493.42 642.979 1500.23 651.153ZM1050 712.455C1035.46 768.082 1009.13 813.037 974.617 840.736C937.608 870.252 917.855 875.02 865.18 868.209L844.973 865.484L870.857 852.089C902.416 835.514 919.671 824.843 947.598 804.409C973.935 785.11 1016.17 743.334 1037.28 715.18C1045.91 703.601 1053.4 694.519 1053.63 694.973C1054.08 695.2 1052.27 703.146 1050 712.455ZM290.753 755.821C302.106 767.855 325.492 800.776 332.303 814.399C340.023 829.611 345.926 849.137 345.699 858.446C345.699 864.122 344.79 862.76 341.385 851.862C334.8 831.655 327.762 818.94 320.497 815.307C314.82 812.356 313.912 812.356 312.777 815.534C311.869 817.351 312.096 821.21 312.777 824.162C323.448 861.398 329.351 895.455 333.438 940.864C335.027 956.757 334.8 957.438 329.578 959.482C320.724 963.341 275.087 973.786 265.778 974.013C257.378 974.467 256.924 974.013 253.064 964.25C249.204 954.033 242.62 925.652 235.808 889.324C231.949 869.117 226.726 860.262 220.142 862.76C211.287 866.166 209.925 883.648 215.601 923.835C222.186 971.969 233.538 1011.48 239.895 1008.98C245.344 1006.93 247.842 1010.57 253.972 1030.09C259.875 1048.26 272.136 1074.14 282.58 1090.71C290.072 1102.52 287.348 1103.66 257.832 1101.84C229.224 1100.25 194.486 1093.89 169.965 1085.72C145.898 1077.77 122.285 1065.74 122.512 1061.88C123.647 1048.71 139.541 981.732 148.623 951.081C175.868 861.398 204.249 810.539 248.069 772.85C260.783 761.951 279.628 748.556 282.353 748.556C283.034 748.556 286.894 751.961 290.753 755.821ZM1608.53 755.14C1638.5 773.985 1665.29 803.955 1682.09 837.104C1700.94 874.566 1721.83 963.114 1729.09 1037.36C1732.04 1068.24 1732.27 1068.01 1712.97 1077.77C1689.13 1089.58 1640.32 1100.48 1610.35 1100.48C1600.58 1100.48 1592.18 1099.57 1591.27 1098.43C1590.59 1097.07 1594.23 1090.71 1599.22 1084.13C1604.22 1077.55 1611.94 1062.33 1616.48 1050.53C1633.05 1007.39 1633.96 1005.57 1643.95 1004.66C1652.58 1003.98 1652.58 1003.98 1656.66 989.225C1672.56 930.647 1673.92 866.62 1659.39 866.62C1654.39 866.62 1651.9 872.977 1646.9 900.677C1642.13 927.695 1631.46 971.061 1628.96 973.786C1628.28 974.694 1623.51 974.467 1618.52 973.331C1594.23 967.655 1543.82 954.714 1542.46 954.033C1541.55 953.351 1542.23 947.675 1543.59 941.091C1545.18 934.507 1550.41 911.575 1554.95 890.46C1559.49 869.117 1566.98 842.78 1571.29 831.655C1580.38 808.496 1579.69 804.636 1566.75 803.501C1559.49 802.82 1557.9 803.728 1553.13 811.447C1550.18 816.215 1545.41 827.114 1542.91 835.968C1528.61 884.329 1528.16 885.465 1526.34 880.697C1524.3 875.02 1527.47 852.089 1532.7 835.968C1538.15 818.713 1543.82 808.496 1559.26 788.743C1566.75 778.98 1575.38 767.401 1578.11 763.314C1583.33 755.367 1591.73 748.556 1595.82 748.556C1597.18 748.556 1602.85 751.507 1608.53 755.14ZM1279.09 779.207C1282.26 780.796 1287.94 785.564 1291.57 789.424C1297.02 795.327 1297.48 796.462 1293.84 795.554C1262.97 786.472 1231.41 787.835 1209.61 799.187C1195.08 806.68 1178.96 830.292 1173.74 851.408C1172.6 856.403 1171.01 857.765 1167.15 857.084C1162.84 856.403 1162.16 855.04 1162.61 846.64C1163.75 822.346 1178.96 794.419 1196.21 784.883C1219.37 771.941 1260.01 769.217 1279.09 779.207ZM677.64 780.796C698.301 792.83 714.195 819.848 714.649 842.78C714.876 853.451 714.195 856.403 711.243 857.084C708.518 857.538 706.248 853.678 702.615 842.326C693.988 815.988 678.321 800.095 654.027 792.83C639.269 788.516 617.019 788.516 599.763 793.057C592.271 794.873 585.459 796.008 584.778 795.327C581.6 791.922 599.99 778.753 612.478 775.574C616.338 774.666 630.188 773.985 643.356 774.212C664.699 774.666 668.331 775.347 677.64 780.796ZM644.491 821.438C666.288 827.568 675.597 841.872 676.051 869.571C676.278 885.692 675.824 887.735 670.829 891.822C668.104 894.092 664.926 895.682 663.79 895C662.882 894.546 661.52 885.238 660.839 874.339C660.158 863.441 658.795 854.132 658.114 853.451C654.254 849.591 649.941 860.717 647.67 879.107C644.719 905.218 643.81 909.077 639.269 910.894C633.593 912.937 629.733 905.899 629.506 892.957C629.279 877.972 627.69 868.209 624.965 865.484C621.106 861.625 619.062 867.528 616.792 888.87C615.43 900.45 613.84 910.667 612.932 911.348C609.98 914.526 604.758 906.353 602.488 894.319C593.179 849.591 588.865 845.959 588.865 883.421C588.865 909.077 588.865 909.759 584.324 907.034C573.653 900.223 566.842 856.403 574.107 840.963C578.875 830.746 585.232 826.433 602.034 822.573C618.154 818.486 632.685 818.259 644.491 821.438ZM1279.54 821.438C1294.07 824.389 1305.42 831.428 1308.83 840.055C1313.14 850.499 1310.42 879.561 1303.38 894.773C1296.8 909.304 1292.03 910.667 1291.12 898.179C1288.39 858.219 1284.08 856.176 1278.18 892.503C1275.68 907.261 1275 908.623 1269.55 909.304C1263.87 909.986 1263.65 909.986 1262.74 889.324C1261.83 870.252 1258.88 861.171 1254.79 865.257C1253.88 866.166 1251.84 876.61 1250.48 888.416C1248.89 900.45 1247.07 910.667 1246.39 911.575C1245.71 912.256 1242.53 911.575 1239.58 910.213C1234.58 907.942 1233.9 905.899 1232.77 890.005C1230.5 863.668 1229.14 857.084 1226.18 858.219C1224.59 858.673 1222.55 862.987 1221.64 867.982C1218.01 885.919 1215.29 897.271 1214.38 898.179C1211.88 900.45 1206.66 892.957 1204.16 883.648C1199.17 865.484 1205.3 837.558 1216.42 828.249C1226.86 819.394 1255.47 816.443 1279.54 821.438ZM465.125 875.929C452.637 908.169 452.183 910.213 456.724 909.304C458.768 908.85 466.487 899.541 473.98 888.416C481.472 877.291 488.057 869.344 488.284 870.48C488.738 871.615 483.97 881.151 477.84 891.595C471.482 902.039 466.941 911.348 467.622 912.483C468.985 914.526 483.289 904.309 486.921 898.633C492.371 889.778 485.332 907.715 474.434 930.193C465.579 948.81 459.903 956.984 449.005 967.655C441.512 975.148 430.841 988.316 425.392 997.171C401.325 1036 370.901 1071.64 354.553 1080.27C344.563 1085.49 327.762 1085.95 318.907 1081.41C309.598 1076.41 296.203 1060.52 290.299 1047.35C284.85 1034.63 274.86 1002.85 275.995 1001.49C276.45 1001.26 287.575 998.307 300.516 995.128C313.685 991.949 326.627 988.771 329.124 987.862C333.665 986.727 334.119 987.635 335.709 999.669C337.752 1016.24 338.66 1018.74 343.428 1018.74C345.472 1018.74 359.776 1006.93 375.442 992.403C407.682 962.66 415.856 950.4 417.218 930.193C417.899 918.386 425.619 895.455 430.614 890.46C432.203 888.87 432.203 889.097 431.068 891.141C429.025 895 431.749 909.759 434.701 909.759C436.744 909.759 439.469 905.899 460.357 871.161C466.26 860.944 471.709 853.224 472.39 853.678C472.845 854.359 469.666 864.349 465.125 875.929ZM1425.3 886.373C1431.43 897.952 1437.56 907.488 1439.38 907.488C1443.01 907.488 1445.96 893.865 1443.92 885.465C1442.56 879.334 1442.56 879.334 1446.19 883.648C1454.14 893.411 1461.18 913.391 1462.99 932.009C1465.94 958.8 1464.81 957.438 1526.34 1013.75C1529.29 1016.47 1532.92 1018.51 1534.29 1018.06C1537.69 1016.92 1542.23 1003.3 1542.23 993.084C1542.46 988.544 1543.37 984.684 1544.28 984.684C1547.68 984.684 1588.78 993.993 1596.5 996.263C1600.36 997.625 1603.76 999.442 1603.76 1000.58C1603.76 1003.98 1589.68 1042.35 1585.14 1051.66C1579.69 1062.56 1568.57 1074.59 1560.17 1079.13C1556.76 1080.95 1548.36 1082.31 1541.55 1082.31C1530.2 1082.31 1527.93 1081.41 1514.76 1071.42C1498.87 1059.38 1472.98 1027.37 1453.91 996.263C1445.06 981.959 1438.93 974.694 1433.02 971.061C1423.49 965.612 1413.04 951.762 1405.32 934.052C1402.37 927.468 1396.7 915.662 1392.84 907.715C1388.98 899.541 1385.8 892.73 1385.8 892.276C1385.8 891.595 1390.57 896.136 1396.24 902.266L1406.46 913.164L1405.55 905.899L1404.87 898.633L1413.95 907.034C1422.81 914.981 1423.26 914.981 1423.94 910.44C1424.62 905.672 1417.81 886.827 1409.41 870.48C1407.59 866.847 1406.23 861.852 1406.23 859.354C1406.23 854.813 1406.46 854.813 1410.32 860.035C1412.82 862.987 1419.4 875.02 1425.3 886.373ZM1399.19 880.697C1406 894.092 1406 894.546 1400.78 888.643C1397.6 885.238 1394.88 880.697 1394.88 878.88C1394.88 877.064 1393.97 875.702 1392.84 875.702C1391.7 875.702 1390.34 873.658 1389.66 871.161C1387.39 862.306 1391.93 866.847 1399.19 880.697ZM1132.64 891.368C1146.26 898.633 1157.62 912.937 1162.16 928.603C1163.97 935.188 1170.1 977.191 1175.78 1022.15C1187.59 1115.01 1191.22 1140.21 1205.52 1227.4C1210.97 1261.45 1215.29 1289.83 1214.83 1290.52C1214.38 1290.97 1207.11 1291.88 1198.71 1292.79C1184.86 1293.92 1183.73 1293.69 1183.73 1289.61C1183.73 1280.3 1169.88 1164.96 1165.56 1137.49C1159.43 1099.57 1151.94 1069.6 1149.44 1073.69C1146.94 1077.32 1147.17 1202.19 1149.44 1241.25C1150.35 1256.91 1151.03 1269.85 1151.03 1270.08C1150.8 1270.31 1144.67 1268.26 1137.18 1265.54C1126.96 1261.91 1118.34 1260.77 1103.12 1261C1084.73 1261 1080.19 1261.91 1057.72 1270.76C1007.77 1290.06 982.79 1297.55 961.221 1300.28C923.077 1305.05 883.798 1297.55 834.756 1276.21C802.516 1262.13 781.4 1258.05 759.604 1261.23C750.522 1262.82 740.078 1265.54 736.445 1267.36C730.088 1270.53 729.634 1270.53 729.407 1266.9C728.953 1256.91 730.088 1194.7 730.769 1193.34C732.812 1190.39 733.948 1070.96 731.904 1070.96C725.547 1070.96 716.465 1120.46 701.707 1235.57L694.442 1292.33L680.138 1292.1C672.418 1291.88 665.607 1291.42 664.926 1290.74C664.244 1290.29 664.926 1283.7 666.061 1276.21C684.225 1164.96 697.847 1069.37 710.335 969.018C716.238 922.473 725.547 904.082 749.614 892.276C768.459 882.967 787.758 883.875 836.573 895.909C920.807 916.797 962.129 917.024 1033.88 897.044C1089.73 881.378 1111.53 880.242 1132.64 891.368ZM579.329 935.642C585.232 938.593 594.314 941.772 599.763 942.68C609.072 944.27 609.299 944.497 609.299 953.124V961.979H587.73H566.161V946.086C566.161 937.231 566.615 930.193 567.296 930.193C567.977 930.193 573.426 932.69 579.329 935.642ZM1315.41 946.086V961.979H1293.84H1272.27V953.124C1272.27 944.724 1272.73 944.042 1280.9 942.68C1285.44 941.999 1294.98 938.82 1301.79 935.869C1308.6 932.917 1314.5 930.42 1314.96 930.42C1315.19 930.193 1315.41 937.231 1315.41 946.086ZM658.568 1047.58L657.66 1156.1L650.395 1196.97C636.318 1277.57 636.999 1283.02 636.772 1103.43L636.545 941.772L645.173 940.864C649.714 940.41 654.936 939.956 656.525 939.729C659.022 939.275 659.477 958.573 658.568 1047.58ZM1237.76 941.545H1242.76V1102.07C1242.76 1190.16 1242.3 1261.91 1241.62 1261.45C1240.49 1260.09 1230.27 1194.25 1225.5 1157.24C1223.23 1138.39 1222.32 1105.25 1222.32 1035.09V938.82L1227.55 940.183C1230.27 940.864 1234.81 941.545 1237.76 941.545ZM606.121 993.766C608.845 993.766 609.299 1013.75 609.299 1128.86V1263.95L602.034 1264.4C597.947 1264.4 592.952 1264.86 591.136 1264.86C589.319 1265.09 587.049 1263.72 586.141 1261.68C585.232 1259.86 584.551 1198.79 584.551 1126.13L584.324 993.993L590.682 993.084C594.087 992.63 598.174 992.63 599.763 993.084C601.58 993.312 604.304 993.766 606.121 993.766ZM1289.98 992.857L1294.98 994.22V1130.45C1294.98 1253.73 1294.52 1266.68 1291.35 1265.31C1289.3 1264.63 1284.31 1263.95 1279.99 1263.95H1272.27V1127.72V991.495H1278.63C1282.04 991.495 1287.03 992.176 1289.98 992.857ZM145.898 1108.2C180.636 1122.05 230.132 1132.26 263.735 1132.26H280.082V1143.16V1154.29L261.692 1154.51C251.474 1154.74 242.166 1155.65 241.03 1156.78C239.895 1157.92 250.339 1163.6 265.778 1170.41C319.361 1193.79 366.133 1227.17 415.175 1276.21C452.183 1313.22 460.13 1325.71 459.676 1347.05C459.676 1363.4 452.637 1378.15 440.831 1386.56C425.392 1397.91 419.489 1398.82 372.036 1397.23C348.423 1396.32 325.946 1395.18 322.086 1394.73C318.453 1394.05 303.468 1392 289.164 1389.96C237.398 1382.7 151.347 1363.17 145.444 1357.27C142.946 1354.77 157.477 1291.65 160.883 1290.52C162.245 1289.83 173.598 1293.01 185.858 1297.33C243.074 1316.85 292.797 1330.7 339.568 1339.78C355.235 1342.74 357.278 1342.51 357.278 1337.51C357.278 1331.16 309.371 1306.86 240.349 1278.71C179.728 1253.73 152.482 1238.52 135.454 1220.13C120.242 1203.56 115.474 1191.3 114.793 1164.73C113.884 1137.94 119.788 1100.48 125.01 1100.48C125.691 1100.48 135 1103.88 145.898 1108.2ZM1740.67 1121.59C1743.17 1130.67 1745.44 1149.97 1746.12 1165.41C1747.25 1189.48 1746.8 1194.02 1742.94 1202.88C1732.72 1225.81 1709.57 1242.61 1659.16 1263.72C1627.83 1276.89 1612.84 1283.25 1564.03 1304.14C1529.06 1319.12 1503.86 1335.24 1503.86 1342.74C1503.86 1346.6 1503.18 1346.82 1535.65 1338.88C1572.66 1329.79 1605.12 1319.58 1667.11 1297.55C1695.03 1287.79 1719.1 1280.07 1720.46 1280.52C1722.96 1281.66 1731.13 1313.9 1734.31 1335.7C1735.68 1345.01 1735.68 1345.01 1725.91 1348.64C1637.14 1380.88 1477.98 1406.99 1447.55 1394.28C1427.57 1386.1 1416.45 1368.16 1416.68 1344.55C1416.68 1323.89 1422.12 1313.67 1452.55 1279.84C1485.02 1243.29 1528.38 1207.42 1564.48 1186.75C1583.1 1176.08 1623.97 1158.83 1641.91 1154.29C1648.49 1152.7 1653.94 1150.43 1653.94 1149.07C1654.17 1145.43 1635.32 1143.39 1609.89 1144.3L1585.37 1145.21L1586.05 1138.17L1586.73 1131.13L1612.84 1129.54C1656.66 1126.81 1700.26 1118.19 1724.1 1107.52C1729.55 1105.02 1734.77 1103.66 1735.45 1104.11C1736.13 1104.79 1738.4 1112.74 1740.67 1121.59ZM113.657 1278.03C128.642 1282.34 130.459 1283.48 129.097 1287.56C128.415 1290.29 125.01 1304.82 121.831 1320.03C116.382 1345.01 115.247 1347.96 110.933 1347.96C102.305 1347.96 80.7357 1363.62 74.3785 1374.3C69.1564 1383.15 68.7023 1385.42 70.9728 1390.42L73.6973 1396.32L57.1229 1394.73C43.2731 1393.59 39.6404 1392.46 35.5536 1387.46C26.0176 1377.02 27.834 1371.34 52.1279 1334.33C60.3016 1322.07 70.9728 1303.23 75.7407 1292.56C86.1849 1269.85 86.1849 1270.08 113.657 1278.03ZM1795.62 1284.84C1806.51 1310.5 1813.55 1325.03 1823.77 1342.05C1836.94 1364.08 1838.98 1371.8 1834.44 1382.7C1830.81 1391.55 1821.73 1395.64 1804.92 1395.64C1797.66 1395.64 1796.52 1394.96 1797.89 1391.55C1802.88 1380.43 1801.75 1375.66 1792.66 1365.67C1787.44 1360.22 1778.81 1353.41 1773.37 1350.68L1763.38 1345.69L1762.01 1327.07C1761.33 1316.63 1759.06 1303.23 1757.02 1297.33C1754.52 1290.29 1753.84 1285.52 1755.2 1284.16C1757.02 1282.34 1781.54 1275.98 1789.03 1275.53C1790.39 1275.3 1793.35 1279.62 1795.62 1284.84ZM625.193 1340.01V1386.56H601.353H577.513V1340.01V1293.47H601.353H625.193V1340.01ZM1300.65 1340.01V1385.42L1277.5 1386.1L1254.11 1386.78V1340.01V1293.24L1277.5 1293.92L1300.65 1294.6V1340.01ZM790.709 1327.75C818.636 1333.65 837.481 1357.72 829.08 1376.34C823.858 1387.69 817.047 1388.83 749.387 1388.83C714.195 1388.83 686.268 1387.92 685.587 1386.78C683.543 1383.6 686.495 1377.7 691.944 1374.75C694.669 1373.16 711.697 1371.57 733.948 1370.66L771.183 1369.53L763.237 1361.13C755.063 1352.27 742.575 1345.69 733.948 1345.69C721.914 1345.69 739.17 1333.65 759.15 1328.43C772.091 1324.8 776.859 1324.8 790.709 1327.75ZM1133.32 1334.56C1141.04 1338.42 1147.4 1342.28 1147.4 1343.42C1147.4 1344.32 1143.08 1345.69 1137.86 1346.6C1125.15 1348.64 1112.66 1355.9 1107.89 1364.08C1105.85 1367.71 1104.26 1370.66 1104.71 1370.66C1105.17 1370.66 1123.79 1370.89 1146.26 1371.34C1184.86 1371.8 1187.59 1372.02 1194.62 1377.02C1198.48 1379.97 1201.89 1383.83 1201.89 1385.65C1201.89 1390.42 1071.57 1390.42 1059.99 1385.65C1035.46 1375.2 1050.45 1339.78 1083.83 1329.57C1087 1328.66 1096.31 1327.75 1104.49 1327.75C1116.97 1327.52 1121.74 1328.66 1133.32 1334.56ZM1759.06 1379.52C1761.33 1382.92 1750.43 1390.87 1739.99 1393.14C1734.31 1394.5 1717.06 1395.41 1701.39 1395.41L1673.01 1395.18L1687.77 1391.78C1695.94 1389.96 1711.15 1386.1 1721.83 1383.15C1742.03 1377.7 1757.02 1376.11 1759.06 1379.52ZM123.875 1386.56C130.459 1387.92 139.087 1389.51 142.719 1390.19C165.197 1394.05 164.97 1395.18 141.357 1395.41C128.188 1395.64 114.112 1394.5 110.252 1393.14C104.122 1391.1 103.44 1390.19 105.711 1386.56C107.3 1384.29 109.117 1382.7 110.025 1383.38C110.933 1383.83 117.063 1385.42 123.875 1386.56Z" fill="#5046E4"/>
<path d="M866.543 412.981L841.341 479.506L856.553 480.641C864.726 481.322 872.446 481.095 873.581 480.187C874.716 479.279 877.441 473.603 879.484 467.699L883.117 456.801L908.546 456.12L933.748 455.439L937.381 468.154L941.014 480.641H958.042C967.351 480.641 974.844 480.414 974.844 479.96C974.844 479.506 967.124 458.845 957.588 433.87C948.052 409.122 937.154 379.379 933.067 368.253L925.802 347.819L908.773 347.138L891.745 346.457L866.543 412.981ZM917.174 406.851L924.439 426.15H908.546C896.74 426.15 892.88 425.469 893.561 423.198C899.691 405.716 907.865 385.736 908.773 386.644C909.454 387.325 913.087 396.407 917.174 406.851Z" fill="#5046E4"/>
<path d="M990.737 397.088C990.737 425.015 991.418 455.439 992.326 464.748L993.689 481.776H1009.81H1025.93V414.798L1025.7 347.819L1008.22 347.138L990.737 346.457V397.088Z" fill="#5046E4"/>
<path d="M1032.74 920.43C1018.44 929.284 979.612 947.221 962.583 952.897C950.323 956.984 941.922 957.892 923.985 957.892C898.329 957.892 877.441 952.67 843.384 938.366C832.713 933.825 823.631 930.647 823.177 931.328C820.906 933.598 832.94 946.54 847.244 957.211C881.074 982.64 916.493 993.084 948.052 987.181C969.849 982.867 1000.5 966.974 1018.66 950.4C1032.06 938.139 1047.5 919.521 1047.5 915.662C1047.5 912.937 1041.6 914.98 1032.74 920.43Z" fill="#5046E4"/>
<path d="M801.834 951.762C797.975 959.028 815.684 1037.81 829.534 1074.37C853.828 1139.08 879.03 1171.54 912.633 1181.31C923.985 1184.48 938.516 1184.03 938.516 1180.4C938.516 1179.49 930.116 1169.95 919.671 1159.28C891.745 1130.22 878.122 1105.93 812.96 969.926C807.511 958.801 802.516 950.627 801.834 951.762Z" fill="#5046E4"/>
<path d="M1057.72 990.814C1008.22 1098.66 967.578 1171.77 941.922 1199.02C937.381 1203.78 934.202 1208.1 934.884 1208.78C937.381 1211.28 958.269 1198.56 970.984 1186.98C984.607 1174.27 996.186 1158.83 1011.63 1132.26C1016.39 1124.09 1020.25 1118.64 1020.25 1119.78C1020.25 1124.54 1003.91 1184.94 994.37 1215.14C988.921 1232.62 983.698 1249.87 983.017 1253.73C981.655 1260.55 981.655 1260.55 990.51 1250.78C1013.9 1225.35 1041.37 1147.48 1061.12 1049.39C1067.25 1018.97 1074.74 972.878 1074.74 964.931C1074.74 957.211 1069.98 964.25 1057.72 990.814Z" fill="#5046E4"/>
</svg>
