<svg width="204" height="156" viewBox="0 0 204 156" fill="none" xmlns="http://www.w3.org/2000/svg">
<path d="M92.2708 0.296044C85.6953 1.04045 76.688 3.14958 71.6757 5.13465C58.9713 10.147 50.1873 15.7796 41.6515 24.365C31.2051 34.8611 23.9596 47.2926 20.4609 60.7662C18.451 68.508 17.7314 74.2151 17.5577 83.9667L17.4337 90.9889L16.4659 93.0236C14.1087 98.16 11.3048 107.539 10.1634 114.264C9.66708 117.068 9.66708 117.514 10.1137 118.011C10.4363 118.358 10.3867 118.681 9.84078 120.517C9.39414 122.03 9.17082 123.47 9.09638 125.529C8.87306 130.12 9.61746 132.75 11.801 135.107C12.3469 135.703 12.7439 136.224 12.6943 136.298C12.6199 136.348 11.9251 136.273 11.1063 136.124C9.34451 135.802 7.90534 135.951 7.26019 136.546C7.01205 136.77 6.1684 138.134 5.39918 139.549C4.65478 140.988 3.53818 142.824 2.91785 143.643C-0.729718 148.606 -0.953038 152.179 2.22307 154.983L3.3893 156H101.799C194.13 155.975 200.259 155.95 200.978 155.553C201.871 155.082 202.765 154.065 203.46 152.774C203.807 152.129 203.931 151.385 203.931 149.921C203.931 147.787 203.608 146.918 201.698 143.941C201.251 143.246 200.358 141.459 199.738 139.946C199.092 138.432 198.373 137.018 198.1 136.77C197.852 136.546 197.182 136.298 196.636 136.224C195.693 136.1 192.07 136.497 191.202 136.844C190.954 136.918 191.301 136.373 191.971 135.653C193.683 133.693 194.155 132.204 194.328 128.532C194.427 125.976 194.353 125.132 193.882 123.073C193.584 121.733 193.137 120.244 192.889 119.772C192.517 119.053 192.467 118.507 192.566 116.795C192.839 112.254 190.581 99.4503 188.323 92.8003C187.777 91.1874 187.753 90.8649 187.877 85.9518C188.249 70.2449 184.974 56.151 178.051 43.4713C171.55 31.5609 163.014 22.2311 151.823 14.7622C140.161 6.99566 128.424 2.57887 114.355 0.643432C109.516 -0.0265294 96.8365 -0.225036 92.2708 0.296044ZM109.268 4.14212C124.156 5.45723 137.059 9.89882 149.093 17.8639C153.758 20.9408 156.959 23.5462 161.128 27.7148C165.421 31.9827 168.1 35.2085 170.855 39.4267C177.728 49.8732 181.872 61.3866 183.311 73.967C183.783 78.0363 184.13 85.0337 183.832 85.0337C183.733 85.0337 183.212 84.5375 182.666 83.9419C181.4 82.4779 179.291 80.8154 175.644 78.4085C174.006 77.3168 172.468 76.2002 172.244 75.952C171.5 75.1084 171.078 73.7436 170.904 71.7337C170.557 67.2922 169.515 64.2649 167.679 62.3791C163.709 58.3097 155.52 58.8804 150.905 63.5205C148.895 65.5304 146.612 68.3839 146.29 69.3269C145.62 71.2127 146.414 74.0414 147.853 74.9843C148.324 75.2821 148.845 76.0017 149.193 76.7709C149.565 77.6145 150.036 78.2349 150.582 78.5326C151.327 78.9793 151.401 79.1281 151.55 80.7162C151.748 82.8005 152.518 84.3141 153.56 84.6615C153.982 84.7856 154.949 85.5052 155.719 86.2248C157.828 88.2346 158.101 88.3835 159.763 88.3835C161.053 88.3835 161.426 88.2595 162.418 87.5647C163.063 87.1429 163.684 86.7707 163.783 86.7707C163.907 86.7707 164.378 87.1429 164.8 87.5895L165.619 88.4083L164.949 89.8475C163.758 92.4777 163.311 96.969 163.882 100.666C164.031 101.609 164.106 102.75 164.056 103.197L163.957 104.016L163.436 102.899C163.138 102.279 162.716 100.84 162.468 99.7232C161.872 96.9441 160.805 94.835 159.441 93.7928C158.845 93.3462 158.101 92.974 157.778 92.974C157.406 92.974 156.86 92.577 156.24 91.8326C155.247 90.6912 153.932 90.0212 152.592 89.9964C151.55 89.9964 149.912 91.7581 149.441 93.371C148.696 96.026 149.441 100.071 151.451 104.339C152.195 105.877 152.84 106.795 153.907 107.812C154.701 108.606 155.992 110.219 156.786 111.435C159.912 116.348 163.138 119.897 165.396 120.939C165.991 121.236 167.306 121.559 168.299 121.658L170.086 121.832L170.011 123.445L169.937 125.058L168.349 126.025C164.701 128.234 159.217 132.973 155.346 137.266C150.88 142.204 149.887 144.71 150.88 148.457C151.153 149.548 151.476 150.665 151.575 150.963C151.748 151.534 151.748 151.534 148.87 151.534H145.992V145.653V139.797L145.371 138.978L144.751 138.159V123.445V108.73L145.57 108.358C146.91 107.738 147.108 106.969 147.108 102.726C147.108 99.2022 147.084 98.9292 146.538 98.2096C145.992 97.4652 145.992 97.366 146.24 95.2816C146.562 92.7259 146.414 91.51 145.57 89.9964C145.223 89.3761 144.9 88.3091 144.85 87.6391C144.627 85.2074 143.411 83.5945 140.632 82.0313C139.888 81.6095 139.292 81.1628 139.292 81.0388C139.292 80.9147 138.746 79.4755 138.051 77.8378L136.811 74.8602V59.8233V44.7864L137.555 43.9428C139.491 41.7344 138.97 38.2109 136.389 36.2506C133.337 33.9182 129.019 35.2085 127.779 38.8064C127.605 39.3275 127.357 39.7493 127.233 39.7493C127.109 39.7493 125.868 39.6501 124.479 39.5508C121.724 39.3275 121.675 39.3027 121.675 37.4417C121.675 36.4491 121.079 34.9851 120.384 34.2407C119.913 33.7445 119.888 33.5708 120.136 32.1316C120.285 31.2631 120.484 29.6255 120.558 28.4592C120.757 25.7546 121.501 22.107 122.444 19.3527C122.841 18.1617 123.163 16.8714 123.163 16.4992C123.163 15.4322 122.171 14.5637 120.93 14.5637C120.012 14.5637 119.789 14.7126 117.804 16.7225L115.67 18.9061L115.298 18.1617C114.429 16.4992 113.71 16.0774 110.012 15.2337C108.722 14.9607 108.648 14.8863 108.499 14.0675C108.275 12.7027 107.705 11.8343 105.869 10.0725C103.164 7.4423 102.271 7.46711 99.4419 10.1718C97.4072 12.0824 96.8613 12.9012 96.8613 14.0178C96.8613 14.9607 96.5139 15.2089 94.9258 15.4322C94.2062 15.5315 93.04 15.9037 92.3204 16.251C91.3031 16.7969 90.9309 17.1443 90.5091 18.0376L89.988 19.1542L87.9037 17.1443C86.7622 16.0277 85.5712 14.9856 85.2734 14.8367C84.3553 14.3652 83.2387 14.5141 82.5688 15.1841C82.0229 15.73 81.9484 15.9533 82.0973 16.8466C82.1966 17.3925 82.544 18.6579 82.8913 19.6257C83.8591 22.3551 84.405 25.2831 84.8268 29.7991C85.199 33.67 85.199 33.9926 84.8268 34.4144C84.1816 35.1092 83.735 36.6228 83.7102 38.0372V39.3275L81.7996 39.4764C80.7326 39.5756 79.4671 39.6997 78.9708 39.7741C78.152 39.8982 78.0527 39.8486 77.9287 39.2034C77.7302 38.2605 76.4151 36.4739 75.4473 35.9032C75.0255 35.6303 74.0826 35.2829 73.363 35.134C71.1298 34.6378 68.6237 35.7544 67.4326 37.7891C66.2664 39.7493 66.3905 42.2306 67.7552 43.9924L68.3259 44.7616V60.1211V75.4806L67.4326 77.5897C66.9364 78.7559 66.4153 80.1207 66.2664 80.6169C66.0679 81.3117 65.7701 81.6343 65.0257 81.9817C62.3707 83.1727 60.9315 84.9841 60.7082 87.4406C60.6338 88.3091 60.336 89.3761 59.939 90.1205C59.2938 91.2867 59.269 91.5348 59.3186 94.4132C59.3683 97.1675 59.3186 97.5397 58.872 98.16C58.4006 98.8051 58.3757 99.1277 58.4502 102.85C58.5246 106.423 58.5742 106.894 59.0457 107.539C59.3186 107.912 59.8645 108.383 60.2119 108.557L60.8819 108.879L60.8074 123.569L60.7578 138.258L60.1375 139.127C59.5172 139.995 59.5172 140.02 59.5172 145.578C59.5172 149.003 59.4179 151.236 59.269 151.335C59.0457 151.509 53.1897 151.633 53.1897 151.459C53.1897 151.434 53.4627 150.615 53.8101 149.673C54.9019 146.596 54.5297 143.941 52.6438 141.087C51.3287 139.077 45.3983 133.122 42.1478 130.517C39.2943 128.234 36.1926 126.1 34.9767 125.604C33.9842 125.182 33.8353 124.859 33.8353 123.246C33.8353 121.832 33.8601 121.807 36.4903 121.807C38.6243 121.782 39.8898 121.286 41.9741 119.698C44.1825 117.986 46.6886 114.884 49.2196 110.716C49.8151 109.748 50.8573 108.408 51.5769 107.738C53.8845 105.505 56.2418 99.624 56.2666 95.9268C56.2914 94.3139 56.1922 93.8673 55.547 92.577C55.0011 91.51 54.5297 90.9641 53.8101 90.5671C52.0235 89.5498 50.5595 89.9716 48.9467 91.9566C48.3511 92.7259 47.9789 92.974 47.433 92.974C45.448 92.974 43.9592 95.5546 42.7433 101.038C42.247 103.247 41.7756 104.14 41.0808 104.14C40.8079 104.14 40.7582 103.942 40.8823 103.321C40.9567 102.899 41.0808 101.014 41.1801 99.1773C41.3786 95.2816 41.056 92.3785 40.1627 90.1949L39.592 88.7557L40.4605 88.0113C41.4282 87.1429 42.1974 87.0684 43.0659 87.7384C43.9344 88.4332 44.778 88.582 45.9194 88.2843C47.0608 87.9617 48.9218 86.4233 49.7159 85.1578C50.0881 84.5375 50.4355 84.2893 50.8573 84.2893C51.6017 84.2893 52.619 83.669 53.016 82.9494C53.1649 82.6516 53.3634 81.535 53.4379 80.4184C53.5619 78.5822 53.686 78.2845 54.5297 77.0934C55.0507 76.349 55.5966 75.3565 55.7207 74.885C55.8696 74.3888 56.341 73.5699 56.8125 73.0737C57.8547 71.9074 58.1028 70.7412 57.5321 69.575C57.3088 69.0787 56.8373 68.508 56.5147 68.2847C56.1922 68.0862 55.4229 67.1185 54.7778 66.1756C52.8175 63.1731 50.2618 61.4362 46.639 60.5677C45.051 60.1955 44.4802 60.1707 42.5696 60.4189C39.9394 60.7414 38.3017 61.461 36.9866 62.925C35.1256 64.9845 34.2075 67.6644 33.9346 71.8826C33.6864 75.5054 33.2894 76.1009 29.1456 78.9048C27.3094 80.1703 24.7536 82.1802 23.4633 83.396L21.1557 85.6292L21.2797 84.1404C21.3542 83.3464 21.4783 81.5598 21.5527 80.1951C22.2475 68.0366 24.8281 57.6398 29.5178 48.1859C39.7161 27.5411 57.1351 13.3231 80.1123 6.92122C84.802 5.60611 91.3775 4.43988 96.1169 4.06768C98.6975 3.86917 106.613 3.9188 109.268 4.14212ZM104.578 15.7796C103.958 17.5662 103.933 18.4346 104.405 20.246C105.199 23.1988 107.06 24.7372 110.112 24.9357C112.444 25.0598 114.156 24.4395 116.613 22.4544C117.829 21.5115 118.449 21.1393 118.374 21.437C118.3 21.6852 118.002 22.8266 117.705 23.9928C117.407 25.1342 117.035 26.1764 116.886 26.2756C116.712 26.3749 110.236 26.4493 102.444 26.3997L88.3255 26.3501L87.8788 24.4891C87.6307 23.4717 87.3329 22.2063 87.2089 21.6852C87.0848 21.1889 87.0352 20.7671 87.0848 20.7671C87.1096 20.7671 88.0277 21.4867 89.0947 22.3799C91.4271 24.3154 92.1467 24.6876 94.0822 24.8861C98.0771 25.3079 100.732 22.6777 101.005 17.988C101.129 16.1518 101.08 15.854 100.608 15.3329C100.31 15.0104 100.087 14.663 100.087 14.5637C100.087 14.4645 100.658 13.7945 101.352 13.0749L102.643 11.7846L103.883 13.0253L105.099 14.266L104.578 15.7796ZM97.2087 18.6828C97.6801 18.8564 97.7297 19.9731 97.2583 20.5686C96.8117 21.1641 95.1492 21.71 94.3799 21.5115C93.8589 21.3874 93.7596 21.2137 93.7596 20.3949C93.7596 19.4272 93.7844 19.4023 95.0003 18.9805C96.3898 18.5091 96.6628 18.4594 97.2087 18.6828ZM111.228 19.2038C111.948 19.7497 112.196 20.8415 111.724 21.437C111.476 21.71 111.104 21.7844 110.31 21.6852C109.119 21.5611 108.499 21.1145 107.928 19.9482C107.581 19.2286 107.581 19.1294 107.978 18.8316C108.548 18.385 110.385 18.6083 111.228 19.2038ZM116.91 30.2458L116.836 31.0646H102.692H88.5488L88.4744 30.2458L88.3999 29.4518H102.692H116.985L116.91 30.2458ZM115.918 43.2728C115.819 51.9823 115.819 52.1808 115.248 53.4711C114.528 55.084 113.089 56.3495 111.551 56.7465C110.186 57.0939 94.901 57.1187 93.71 56.7713C91.7249 56.2006 90.385 54.9599 89.8639 53.1982C89.5165 52.0567 89.3925 35.6551 89.715 34.8363C89.8887 34.4392 90.7572 34.4144 102.965 34.4144H116.017L115.918 43.2728ZM73.8345 39.1042L74.6533 39.8238L74.7277 51.3372L74.8022 62.8754L73.363 65.3319L71.9238 67.7884L71.7501 65.5552C71.6509 64.3146 71.5765 58.9549 71.5765 53.6448C71.6013 48.3099 71.6013 43.7939 71.5765 43.5706C71.5765 43.3472 71.2291 42.7517 70.8072 42.2306C69.9884 41.1885 69.8643 40.2704 70.4598 39.4267C71.3035 38.2109 72.7179 38.0868 73.8345 39.1042ZM134.602 39.1042C135.595 40.1215 135.545 41.0396 134.454 42.3547L133.585 43.3969L133.56 55.5802C133.56 65.1086 133.486 67.6892 133.262 67.3418C133.089 67.0936 132.493 66.1507 131.923 65.2575L130.856 63.6446V51.8582V40.0719L131.699 39.2282C132.766 38.1613 133.61 38.1364 134.602 39.1042ZM83.6358 45.4068C83.7102 48.434 84.008 49.3025 85.2982 50.0717C86.0426 50.4935 86.1419 50.7168 86.4148 52.2801C86.5637 53.223 86.9111 54.5629 87.1841 55.2577L87.6803 56.4983L86.9856 56.6472C83.9335 57.342 81.874 58.2353 79.616 59.8481C78.7475 60.4685 77.9783 60.9647 77.9039 60.9647C77.7302 60.9647 77.7054 44.2405 77.879 43.7691C78.0279 43.4217 79.1942 43.1487 82.0973 42.7765C83.6109 42.578 83.5861 42.5036 83.6358 45.4068ZM127.134 43.2232C127.282 43.3224 127.382 46.8956 127.382 52.3049V61.2625L126.34 60.3692C125.074 59.2774 121.079 57.2179 119.069 56.6224C118.25 56.3743 117.556 56.151 117.506 56.1013C117.456 56.0765 117.58 55.7043 117.804 55.3073C118.002 54.9103 118.374 53.5952 118.598 52.4041C119.02 50.3198 119.044 50.2454 119.913 49.898C121.253 49.3769 121.501 48.7814 121.699 45.5805C121.799 44.0172 121.898 42.7269 121.898 42.7269C122.121 42.6525 126.985 43.1239 127.134 43.2232ZM93.1889 60.2452C97.3327 61.858 99.5411 62.5032 101.576 62.6272C104.28 62.8009 105.819 62.5032 109.417 61.0888C112.519 59.873 113.983 59.5008 113.983 59.8978C113.983 60.2948 111.973 62.0565 110.732 62.7761C107.06 64.8853 100.782 65.2575 96.2161 63.595C94.5536 62.9746 91.576 60.9896 91.1542 60.2203C90.9309 59.7985 90.9805 59.7241 91.4023 59.7241C91.6753 59.7241 92.4693 59.9474 93.1889 60.2452ZM88.6481 61.734C90.8316 64.9597 95.0499 67.044 100.633 67.6892C102.568 67.8877 103.66 67.8877 105.025 67.6892C106.042 67.5403 106.886 67.441 106.96 67.4907C107.06 67.6147 105.472 68.6817 104.181 69.3517C98.1019 72.4285 88.8217 71.5352 84.132 67.4162C83.065 66.4733 80.7326 63.6942 80.7326 63.3468C80.7326 63.2724 81.1544 62.9994 81.7003 62.7265L82.6432 62.2302L83.4372 63.4461C85.1246 66.0515 88.7225 68.4832 91.8738 69.1283C93.7348 69.5254 94.0077 69.1283 92.4693 68.2599C90.1617 66.9448 87.4322 64.389 86.266 62.5032C85.5464 61.3618 85.5464 61.0144 86.266 60.7166C87.3826 60.27 87.7796 60.4437 88.6481 61.734ZM118.896 60.9151L119.466 61.3618L118.871 62.9746C116.886 68.2103 112.891 73.8677 106.563 80.3688C102.097 84.9593 97.9034 88.0113 92.2708 90.7408C89.8143 91.9318 85.9434 93.2221 84.802 93.2221C84.1072 93.2221 83.7598 92.6266 84.1816 92.1303C84.3305 91.9566 85.199 91.3611 86.1171 90.84C87.9285 89.7731 92.3949 85.7037 91.9979 85.4555C91.849 85.3811 90.2857 85.9766 88.4744 86.7955C86.663 87.5895 84.9757 88.2595 84.7027 88.2595C84.2561 88.2595 84.2065 88.0858 84.2065 86.4481C84.2065 82.1306 83.4621 74.8106 82.8913 73.7436C82.4199 72.8007 81.7003 72.627 80.8567 73.2722C80.3852 73.6196 80.3604 74.0166 80.2363 80.3688L80.1123 87.0684L79.1445 85.6789C78.0527 84.0908 76.961 83.1479 75.1 82.205C73.7848 81.5598 71.1298 81.0388 70.2613 81.2621C70.0132 81.3117 69.8147 81.2373 69.8147 81.0884C69.8147 80.6418 72.3209 74.8354 74.2067 70.8901C75.7699 67.6644 77.085 65.6793 77.6805 65.6793C77.7798 65.6793 78.7971 66.6222 79.9386 67.7636C86.6878 74.7114 95.2732 76.4235 104.38 72.6518C109.268 70.642 112.394 68.111 115.149 63.9424C117.456 60.4685 117.456 60.4685 117.903 60.4685C118.126 60.4685 118.573 60.667 118.896 60.9151ZM123.709 62.6024C125.124 63.3468 127.853 65.4312 128.573 66.3741C129.516 67.5403 132.394 73.3218 134.181 77.5649C135.57 80.8154 135.769 81.4606 135.372 81.2125C134.975 80.9643 131.749 81.6095 130.434 82.205C128.821 82.8998 126.563 84.9841 125.62 86.6466L124.9 87.8873V79.7733V71.6345L124.28 71.2375C123.56 70.766 123.089 70.8901 122.543 71.7089C121.948 72.6518 121.699 74.6617 121.278 82.4283C121.079 86.3736 120.831 90.3438 120.732 91.2371C120.558 92.8003 120.533 92.8499 119.814 92.9244C119.417 92.974 117.109 93.371 114.727 93.8425C112.345 94.2891 109.963 94.7357 109.417 94.8102L108.449 94.9343L110.31 93.0236C113.238 90.0212 114.801 87.2669 116.414 82.4035C116.96 80.7658 117.63 78.21 117.928 76.7212C118.771 72.503 119.094 71.3615 120.558 67.7388C121.302 65.9026 121.923 64.2649 121.923 64.1409C121.923 63.7935 122.618 62.2054 122.791 62.2054C122.866 62.2054 123.288 62.3791 123.709 62.6024ZM42.8178 70.8157C43.2644 71.3119 43.6118 72.9 43.5373 73.9173C43.5125 74.3143 43.5622 74.6121 43.6862 74.6121C43.8103 74.6121 44.5051 74.2151 45.2495 73.7436C45.9939 73.2722 46.7135 72.8752 46.8871 72.8752C47.036 72.8752 47.6067 72.5278 48.1278 72.106C49.2196 71.2375 50.0633 71.2623 51.2543 72.1308C51.6265 72.4037 52.2965 72.7015 52.7183 72.8007C53.4379 72.9248 53.4875 72.9992 53.3634 73.7684C53.1897 74.7858 52.495 75.8528 52.0235 75.8528C51.825 75.8528 51.3784 75.6294 51.031 75.3565C50.5843 75.0091 50.0136 74.8602 49.2196 74.8602C47.9541 74.8602 47.6564 75.1332 48.0037 76.0265C48.2767 76.7709 49.0955 77.1679 49.964 76.9694C50.8573 76.7709 51.0062 77.2175 50.9069 79.6988L50.8325 81.4358L49.7903 81.3613C48.7978 81.2869 48.6985 81.3365 48.3015 82.0809C47.7556 83.0486 46.0683 84.9593 45.448 85.3067C44.8276 85.6292 43.6366 84.9097 41.6019 82.9742C39.4928 80.9643 38.7732 81.2621 39.6665 83.7682L40.0138 84.8104L39.2198 85.2819C38.7732 85.5548 38.3513 85.7781 38.2769 85.7781C38.2025 85.7781 37.5821 84.9593 36.9122 83.9667C36.2422 82.999 35.2497 81.6839 34.679 81.0636L33.6616 79.947L35.4978 78.2349L37.3092 76.5475L38.3513 76.9694C39.5176 77.4408 40.7831 77.3168 41.3041 76.6716C41.5771 76.349 41.5771 76.2498 41.3289 76.1505C40.6094 75.9272 39.5672 74.8106 39.4183 74.1406C39.1702 73.024 39.5424 71.6097 40.2372 70.9645C40.9816 70.2698 42.2719 70.1953 42.8178 70.8157ZM163.957 71.163C164.775 72.106 164.825 73.694 164.106 75.1084C163.833 75.6543 163.609 76.2002 163.609 76.3242C163.609 76.8701 164.8 76.8701 165.867 76.3739C167.48 75.5798 167.927 75.6791 168.845 77.019C169.292 77.689 170.011 78.5326 170.483 78.9048C170.929 79.3018 171.301 79.7237 171.301 79.8725C171.301 79.9966 170.78 80.6914 170.16 81.411C169.515 82.1057 168.572 83.3216 168.026 84.1156L167.058 85.5548L166.314 85.0337C165.718 84.5871 165.594 84.3141 165.594 83.5201C165.594 82.5276 165.247 81.5598 164.9 81.5598C164.8 81.5598 163.932 82.3291 162.939 83.272C161.972 84.1901 160.83 85.1082 160.408 85.2819C159.465 85.6789 159.217 85.4804 157.257 82.875L155.892 81.0636L155.123 81.4606C154.676 81.6839 154.279 81.7584 154.155 81.6343C154.031 81.5102 153.858 80.4929 153.758 79.3763C153.634 77.7386 153.684 77.3416 153.957 77.3168C155.322 77.2423 156.463 76.6716 157.009 75.7535C157.381 75.1828 156.612 74.6121 155.47 74.6121C154.676 74.6121 153.138 75.4806 152.642 76.2002C152.418 76.5227 151.525 75.7287 151.054 74.8106C150.657 74.0414 150.781 73.5699 151.674 72.4533C152.443 71.4608 152.84 71.436 153.709 72.2796C154.329 72.8504 154.627 72.9496 156.537 73.024C158.374 73.0985 158.771 73.1729 159.391 73.7188C161.053 75.1084 161.723 74.7858 161.5 72.7015C161.401 71.6097 161.45 71.3119 161.872 70.8901C162.567 70.1953 163.212 70.2698 163.957 71.163ZM114.752 77.8627C113.164 83.9419 110.285 88.855 106.514 91.8822C102.469 95.1079 100.31 95.629 94.5536 94.8846L92.3452 94.5869L95.174 93.1229C98.623 91.3115 100.509 90.1453 103.561 87.9121C106.439 85.8029 111.055 81.2373 113.362 78.1604C114.305 76.8949 115.124 75.9024 115.149 75.952C115.198 75.9768 115 76.8453 114.752 77.8627ZM31.7758 82.602C33.0165 83.9171 35.5722 87.5151 36.3166 89.0039C37.1603 90.6664 37.8055 92.8003 37.7806 93.8177C37.7806 94.438 37.6814 94.2891 37.3092 93.0981C36.5896 90.8897 35.8204 89.5001 35.0264 89.1031C34.406 88.7805 34.3068 88.7805 34.1827 89.1279C34.0834 89.3264 34.1083 89.7483 34.1827 90.0708C35.3489 94.1402 35.9941 97.8622 36.4407 102.825C36.6144 104.562 36.5896 104.636 36.0189 104.86C35.0512 105.281 30.0637 106.423 29.0463 106.448C28.1282 106.497 28.0786 106.448 27.6568 105.381C27.235 104.264 26.5154 101.162 25.771 97.1923C25.3491 94.9839 24.7784 94.0162 24.0588 94.2891C23.0911 94.6613 22.9422 96.5719 23.5626 100.964C24.2822 106.224 25.5228 110.542 26.2176 110.269C26.8131 110.046 27.0861 110.443 27.756 112.577C28.4012 114.562 29.7411 117.39 30.8825 119.202C31.7014 120.492 31.4036 120.616 28.1779 120.418C25.0514 120.244 21.2549 119.549 18.5751 118.656C15.9449 117.787 13.3643 116.472 13.3891 116.05C13.5132 114.611 15.2501 107.291 16.2426 103.942C19.2202 94.1402 22.3219 88.582 27.1109 84.463C28.5004 83.272 30.5599 81.808 30.8577 81.808C30.9321 81.808 31.354 82.1802 31.7758 82.602ZM175.793 82.5276C179.068 84.5871 181.996 87.8624 183.832 91.4852C185.892 95.5794 188.174 105.257 188.969 113.371C189.291 116.745 189.316 116.72 187.207 117.787C184.601 119.078 179.266 120.269 175.991 120.269C174.924 120.269 174.006 120.169 173.907 120.045C173.832 119.897 174.229 119.202 174.775 118.482C175.321 117.763 176.165 116.1 176.661 114.81C178.472 110.095 178.572 109.897 179.664 109.797C180.606 109.723 180.606 109.723 181.053 108.11C182.79 101.708 182.939 94.7109 181.351 94.7109C180.805 94.7109 180.532 95.4057 179.986 98.4329C179.465 101.386 178.299 106.125 178.026 106.423C177.951 106.522 177.43 106.497 176.884 106.373C174.229 105.753 168.721 104.339 168.572 104.264C168.473 104.19 168.547 103.569 168.696 102.85C168.87 102.13 169.44 99.624 169.937 97.3163C170.433 94.9839 171.252 92.1055 171.723 90.8897C172.716 88.3587 172.641 87.9369 171.227 87.8128C170.433 87.7384 170.259 87.8376 169.738 88.6813C169.416 89.2024 168.894 90.3934 168.622 91.3611C167.058 96.6464 167.009 96.7704 166.81 96.2494C166.587 95.629 166.934 93.1229 167.505 91.3611C168.1 89.4753 168.721 88.3587 170.408 86.1999C171.227 85.133 172.17 83.8675 172.468 83.4208C173.038 82.5524 173.956 81.808 174.403 81.808C174.552 81.808 175.172 82.1306 175.793 82.5276ZM139.788 85.1578C140.136 85.3315 140.756 85.8526 141.153 86.2744C141.749 86.9195 141.798 87.0436 141.401 86.9443C138.027 85.9518 134.578 86.1007 132.196 87.3414C130.607 88.1602 128.846 90.7408 128.275 93.0484C128.151 93.5943 127.977 93.7432 127.555 93.6688C127.084 93.5943 127.01 93.4455 127.059 92.5274C127.183 89.8723 128.846 86.8203 130.732 85.7781C133.262 84.3638 137.704 84.066 139.788 85.1578ZM74.0578 85.3315C76.3158 86.6466 78.0527 89.5994 78.1024 92.1055C78.1272 93.2718 78.0527 93.5943 77.7302 93.6688C77.4324 93.7184 77.1843 93.2966 76.7873 92.0559C75.8444 89.1776 74.1322 87.4406 71.4772 86.6466C69.8643 86.1751 67.4326 86.1751 65.5468 86.6714C64.728 86.8699 63.9836 86.994 63.9091 86.9195C63.5617 86.5473 65.5716 85.1082 66.9364 84.7608C67.3582 84.6615 68.8718 84.5871 70.311 84.6119C72.6434 84.6615 73.0404 84.736 74.0578 85.3315ZM70.435 89.7731C72.8171 90.443 73.8345 92.0063 73.8841 95.0335C73.9089 96.7953 73.8593 97.0186 73.3134 97.4652C73.0156 97.7134 72.6682 97.887 72.5442 97.8126C72.4449 97.763 72.296 96.7456 72.2216 95.5546C72.1472 94.3635 71.9983 93.3462 71.9238 93.2718C71.502 92.8499 71.0306 94.0658 70.7824 96.0757C70.4598 98.9292 70.3606 99.351 69.8643 99.5495C69.244 99.7729 68.8222 99.0036 68.7974 97.5893C68.7725 95.9516 68.5988 94.8846 68.3011 94.5869C67.8793 94.165 67.6559 94.8102 67.4078 97.1426C67.2589 98.4081 67.0852 99.5247 66.986 99.5992C66.6634 99.9466 66.0927 99.0533 65.8446 97.7382C64.8272 92.8499 64.3558 92.4529 64.3558 96.5471C64.3558 99.351 64.3558 99.4255 63.8595 99.1277C62.6933 98.3833 61.9489 93.5943 62.7429 91.907C63.264 90.7904 63.9587 90.319 65.7949 89.8971C67.5567 89.4505 69.1447 89.4257 70.435 89.7731ZM139.838 89.7731C141.426 90.0956 142.667 90.8649 143.039 91.8078C143.51 92.9492 143.213 96.1253 142.443 97.7878C141.724 99.3758 141.203 99.5247 141.104 98.16C140.806 93.7928 140.334 93.5695 139.689 97.5397C139.416 99.1525 139.342 99.3014 138.746 99.3758C138.126 99.4503 138.101 99.4503 138.002 97.1923C137.903 95.1079 137.58 94.1154 137.133 94.5621C137.034 94.6613 136.811 95.8027 136.662 97.093C136.488 98.4081 136.29 99.5247 136.215 99.624C136.141 99.6984 135.793 99.624 135.471 99.4751C134.925 99.227 134.851 99.0036 134.726 97.2667C134.478 94.3884 134.329 93.6688 134.007 93.7928C133.833 93.8425 133.61 94.3139 133.511 94.8598C133.114 96.8201 132.816 98.0607 132.717 98.16C132.444 98.4081 131.873 97.5893 131.6 96.5719C131.054 94.5869 131.724 91.5348 132.94 90.5175C134.081 89.5498 137.208 89.2272 139.838 89.7731ZM50.8325 95.7283C49.4677 99.2518 49.4181 99.4751 49.9144 99.3758C50.1377 99.3262 50.9814 98.3089 51.8002 97.093C52.619 95.8772 53.3386 95.0087 53.3634 95.1328C53.4131 95.2568 52.892 96.299 52.222 97.4404C51.5272 98.5818 51.031 99.5992 51.1054 99.7232C51.2543 99.9466 52.8175 98.83 53.2146 98.2096C53.8101 97.2419 53.0409 99.2022 51.8498 101.659C50.8821 103.693 50.2618 104.587 49.0707 105.753C48.2519 106.572 47.0857 108.011 46.4901 108.979C43.8599 113.222 40.5349 117.117 38.7484 118.06C37.6566 118.631 35.8204 118.681 34.8527 118.184C33.8353 117.638 32.3713 115.902 31.7262 114.462C31.1307 113.073 30.0389 109.599 30.1629 109.45C30.2126 109.425 31.4284 109.103 32.8428 108.755C34.282 108.408 35.6963 108.061 35.9693 107.961C36.4655 107.837 36.5152 107.936 36.6888 109.252C36.9122 111.063 37.0114 111.336 37.5325 111.336C37.7558 111.336 39.3191 110.046 41.0312 108.458C44.5547 105.207 45.448 103.867 45.5969 101.659C45.6713 100.368 46.5149 97.8622 47.0608 97.3163C47.2345 97.1426 47.2345 97.1675 47.1105 97.3908C46.8871 97.8126 47.1849 99.4255 47.5075 99.4255C47.7308 99.4255 48.0286 99.0036 50.3114 95.2072C50.9565 94.0906 51.5521 93.2469 51.6265 93.2966C51.6761 93.371 51.3287 94.4628 50.8325 95.7283ZM155.768 96.8697C156.438 98.1352 157.108 99.1773 157.307 99.1773C157.704 99.1773 158.026 97.6885 157.803 96.7704C157.654 96.1005 157.654 96.1005 158.051 96.5719C158.92 97.6389 159.689 99.8225 159.887 101.857C160.21 104.785 160.086 104.636 166.81 110.79C167.133 111.088 167.53 111.311 167.679 111.261C168.051 111.137 168.547 109.649 168.547 108.532C168.572 108.036 168.671 107.614 168.77 107.614C169.143 107.614 173.634 108.631 174.478 108.879C174.899 109.028 175.272 109.227 175.272 109.351C175.272 109.723 173.733 113.916 173.237 114.934C172.641 116.125 171.425 117.44 170.507 117.936C170.135 118.135 169.217 118.284 168.473 118.284C167.232 118.284 166.984 118.184 165.545 117.093C163.808 115.777 160.979 112.279 158.895 108.879C157.927 107.316 157.257 106.522 156.612 106.125C155.57 105.53 154.428 104.016 153.585 102.081C153.262 101.361 152.642 100.071 152.22 99.2022C151.798 98.3089 151.451 97.5645 151.451 97.5148C151.451 97.4404 151.972 97.9367 152.592 98.6066L153.709 99.7977L153.609 99.0036L153.535 98.2096L154.528 99.1277C155.495 99.9962 155.545 99.9962 155.619 99.4999C155.694 98.9788 154.949 96.9193 154.031 95.1328C153.833 94.7357 153.684 94.1899 153.684 93.9169C153.684 93.4206 153.709 93.4206 154.131 93.9913C154.403 94.3139 155.123 95.629 155.768 96.8697ZM152.915 96.2494C153.659 97.7134 153.659 97.763 153.088 97.1178C152.741 96.7456 152.443 96.2494 152.443 96.0509C152.443 95.8523 152.344 95.7035 152.22 95.7035C152.096 95.7035 151.947 95.4801 151.873 95.2072C151.624 94.2395 152.121 94.7357 152.915 96.2494ZM123.784 97.4156C125.273 98.2096 126.513 99.7729 127.01 101.485C127.208 102.205 127.878 106.795 128.498 111.708C129.789 121.857 130.186 124.611 131.749 134.139C132.344 137.861 132.816 140.963 132.766 141.038C132.717 141.087 131.923 141.186 131.004 141.286C129.491 141.41 129.367 141.385 129.367 140.938C129.367 139.921 127.853 127.316 127.382 124.313C126.712 120.169 125.893 116.894 125.62 117.341C125.347 117.738 125.372 131.385 125.62 135.653C125.719 137.365 125.794 138.779 125.794 138.804C125.769 138.829 125.099 138.606 124.28 138.308C123.163 137.911 122.221 137.787 120.558 137.812C118.548 137.812 118.052 137.911 115.595 138.879C110.136 140.988 107.407 141.807 105.05 142.104C100.881 142.626 96.5883 141.807 91.2286 139.474C87.7051 137.936 85.3975 137.489 83.0154 137.837C82.0229 138.01 80.8815 138.308 80.4845 138.507C79.7897 138.854 79.7401 138.854 79.7152 138.457C79.6656 137.365 79.7897 130.566 79.8641 130.417C80.0874 130.095 80.2115 117.043 79.9882 117.043C79.2934 117.043 78.3009 122.452 76.688 135.033L75.894 141.236L74.3307 141.211C73.4871 141.186 72.7427 141.137 72.6682 141.062C72.5938 141.013 72.6682 140.293 72.7923 139.474C74.7774 127.316 76.2662 116.869 77.6309 105.902C78.2761 100.815 79.2934 98.8051 81.9236 97.5148C83.9831 96.4975 86.0923 96.5968 91.4271 97.9119C100.633 100.195 105.149 100.22 112.99 98.0359C119.094 96.3238 121.476 96.1997 123.784 97.4156ZM63.3136 102.254C63.9587 102.577 64.9513 102.924 65.5468 103.023C66.5641 103.197 66.589 103.222 66.589 104.165V105.133H64.2317H61.8744V103.396C61.8744 102.428 61.924 101.659 61.9985 101.659C62.0729 101.659 62.6685 101.932 63.3136 102.254ZM143.759 103.396V105.133H141.401H139.044V104.165C139.044 103.247 139.094 103.172 139.987 103.023C140.483 102.949 141.525 102.602 142.27 102.279C143.014 101.956 143.659 101.683 143.709 101.683C143.734 101.659 143.759 102.428 143.759 103.396ZM71.9735 114.487L71.8742 126.348L71.0802 130.814C69.5418 139.623 69.6162 140.219 69.5914 120.591L69.5666 102.924L70.5095 102.825C71.0057 102.775 71.5765 102.726 71.7501 102.701C72.0231 102.651 72.0727 104.76 71.9735 114.487ZM135.272 102.899H135.818V120.442C135.818 130.07 135.769 137.911 135.694 137.861C135.57 137.713 134.454 130.517 133.932 126.472C133.684 124.413 133.585 120.79 133.585 113.122V102.602L134.156 102.75C134.454 102.825 134.95 102.899 135.272 102.899ZM66.2416 108.606C66.5393 108.606 66.589 110.79 66.589 123.37V138.134L65.7949 138.184C65.3483 138.184 64.8024 138.234 64.6039 138.234C64.4054 138.258 64.1573 138.11 64.058 137.886C63.9587 137.688 63.8843 131.013 63.8843 123.073L63.8595 108.631L64.5543 108.532C64.9265 108.482 65.3731 108.482 65.5468 108.532C65.7453 108.557 66.0431 108.606 66.2416 108.606ZM140.979 108.507L141.525 108.656V123.544C141.525 137.018 141.476 138.432 141.128 138.283C140.905 138.209 140.359 138.134 139.888 138.134H139.044V123.246V108.358H139.739C140.111 108.358 140.657 108.433 140.979 108.507ZM15.9449 121.112C19.7413 122.626 25.1506 123.743 28.823 123.743H30.6096V124.934V126.149L28.5997 126.174C27.4831 126.199 26.4657 126.298 26.3417 126.422C26.2176 126.546 27.359 127.167 29.0463 127.911C34.9023 130.467 40.0138 134.115 45.3735 139.474C49.4181 143.519 50.2866 144.884 50.237 147.216C50.237 149.003 49.4677 150.615 48.1774 151.534C46.4901 152.774 45.845 152.873 40.659 152.7C38.0784 152.601 35.6219 152.476 35.2 152.427C34.803 152.352 33.1654 152.129 31.6021 151.906C25.9447 151.112 16.5404 148.978 15.8952 148.333C15.6223 148.06 17.2104 141.162 17.5826 141.038C17.7314 140.963 18.9721 141.31 20.312 141.782C26.565 143.916 31.9991 145.429 37.1107 146.422C38.8228 146.745 39.0461 146.72 39.0461 146.174C39.0461 145.479 33.8105 142.824 26.2672 139.747C19.6421 137.018 16.6645 135.355 14.8035 133.345C13.141 131.534 12.6199 130.194 12.5454 127.291C12.4462 124.363 13.0913 120.269 13.662 120.269C13.7365 120.269 14.7538 120.641 15.9449 121.112ZM190.234 122.576C190.507 123.569 190.755 125.678 190.83 127.365C190.954 129.996 190.904 130.492 190.482 131.46C189.366 133.966 186.835 135.802 181.326 138.11C177.902 139.549 176.264 140.243 170.929 142.526C167.108 144.164 164.354 145.926 164.354 146.745C164.354 147.166 164.279 147.191 167.828 146.323C171.872 145.33 175.42 144.214 182.194 141.807C185.247 140.74 187.877 139.896 188.026 139.946C188.299 140.07 189.192 143.593 189.539 145.975C189.688 146.993 189.688 146.993 188.621 147.39C178.919 150.913 161.525 153.767 158.2 152.377C156.016 151.484 154.801 149.524 154.825 146.943C154.825 144.685 155.421 143.568 158.746 139.871C162.294 135.876 167.033 131.956 170.979 129.698C173.014 128.532 177.48 126.646 179.44 126.149C180.16 125.976 180.755 125.728 180.755 125.579C180.78 125.182 178.721 124.958 175.941 125.058L173.262 125.157L173.336 124.388L173.411 123.619L176.264 123.445C181.053 123.147 185.817 122.204 188.423 121.038C189.018 120.765 189.589 120.616 189.663 120.666C189.738 120.74 189.986 121.609 190.234 122.576ZM12.4214 139.673C14.0591 140.144 14.2576 140.268 14.1087 140.715C14.0342 141.013 13.662 142.601 13.3147 144.263C12.7191 146.993 12.5951 147.315 12.1236 147.315C11.1807 147.315 8.82343 149.027 8.12866 150.194C7.55795 151.161 7.50832 151.409 7.75646 151.955L8.05422 152.601L6.24284 152.427C4.72922 152.303 4.33221 152.179 3.88557 151.633C2.84341 150.491 3.04191 149.871 5.69695 145.826C6.59023 144.487 7.75646 142.427 8.27754 141.261C9.41895 138.779 9.41895 138.804 12.4214 139.673ZM196.239 140.417C197.43 143.221 198.199 144.809 199.316 146.67C200.755 149.077 200.978 149.921 200.482 151.112C200.085 152.079 199.092 152.526 197.256 152.526C196.462 152.526 196.338 152.452 196.487 152.079C197.033 150.864 196.909 150.343 195.916 149.251C195.346 148.655 194.403 147.911 193.807 147.613L192.715 147.067L192.566 145.032C192.492 143.891 192.244 142.427 192.021 141.782C191.748 141.013 191.673 140.492 191.822 140.343C192.021 140.144 194.7 139.449 195.519 139.4C195.668 139.375 195.991 139.846 196.239 140.417ZM68.3259 146.447V151.534H65.7205H63.1151V146.447V141.36H65.7205H68.3259V146.447ZM142.146 146.447V151.409L139.615 151.484L137.059 151.558V146.447V141.335L139.615 141.41L142.146 141.484V146.447ZM86.4148 145.107C89.4669 145.752 91.5264 148.382 90.6083 150.417C90.0376 151.658 89.2932 151.782 81.8988 151.782C78.0527 151.782 75.0007 151.682 74.9263 151.558C74.7029 151.211 75.0255 150.566 75.621 150.243C75.9188 150.07 77.7798 149.896 80.2115 149.797L84.2809 149.673L83.4124 148.754C82.5191 147.787 81.1544 147.067 80.2115 147.067C78.8964 147.067 80.7822 145.752 82.9658 145.181C84.3802 144.784 84.9012 144.784 86.4148 145.107ZM123.858 145.851C124.702 146.273 125.397 146.695 125.397 146.819C125.397 146.918 124.925 147.067 124.354 147.166C122.965 147.39 121.6 148.184 121.079 149.077C120.856 149.474 120.682 149.797 120.732 149.797C120.781 149.797 122.816 149.821 125.273 149.871C129.491 149.921 129.789 149.946 130.558 150.491C130.98 150.814 131.352 151.236 131.352 151.434C131.352 151.955 117.109 151.955 115.844 151.434C113.164 150.293 114.801 146.422 118.449 145.305C118.796 145.206 119.814 145.107 120.707 145.107C122.072 145.082 122.593 145.206 123.858 145.851ZM192.244 150.764C192.492 151.137 191.301 152.005 190.16 152.253C189.539 152.402 187.653 152.501 185.941 152.501L182.84 152.476L184.452 152.104C185.346 151.906 187.008 151.484 188.174 151.161C190.383 150.566 192.021 150.392 192.244 150.764ZM13.538 151.534C14.2576 151.682 15.2005 151.856 15.5975 151.931C18.054 152.352 18.0292 152.476 15.4486 152.501C14.0094 152.526 12.471 152.402 12.0492 152.253C11.3792 152.03 11.3048 151.931 11.5529 151.534C11.7266 151.285 11.9251 151.112 12.0244 151.186C12.1236 151.236 12.7936 151.409 13.538 151.534Z" fill="#5046E4"/>
<path d="M94.7025 45.1338L91.9482 52.4041L93.6107 52.5282C94.504 52.6026 95.3477 52.5778 95.4717 52.4786C95.5958 52.3793 95.8936 51.759 96.1169 51.1138L96.5139 49.9228L99.293 49.8483L102.047 49.7739L102.444 51.1635L102.841 52.5282H104.702C105.72 52.5282 106.538 52.5034 106.538 52.4537C106.538 52.4041 105.695 50.1461 104.653 47.4166C103.611 44.712 102.419 41.4614 101.973 40.2456L101.179 38.0124L99.3178 37.9379L97.4568 37.8635L94.7025 45.1338ZM100.236 44.4638L101.03 46.573H99.293C98.0027 46.573 97.5809 46.4985 97.6553 46.2504C98.3253 44.3398 99.2186 42.1562 99.3178 42.2555C99.3922 42.3299 99.7893 43.3224 100.236 44.4638Z" fill="#5046E4"/>
<path d="M108.275 43.3969C108.275 46.4489 108.35 49.7739 108.449 50.7912L108.598 52.6523H110.36H112.122V45.3323L112.097 38.0124L110.186 37.9379L108.275 37.8635V43.3969Z" fill="#5046E4"/>
<path d="M112.866 100.592C111.303 101.559 107.06 103.52 105.199 104.14C103.859 104.587 102.941 104.686 100.98 104.686C98.1764 104.686 95.8936 104.115 92.1716 102.552C91.0053 102.056 90.0128 101.708 89.9632 101.783C89.715 102.031 91.0301 103.445 92.5934 104.611C96.2906 107.391 100.161 108.532 103.611 107.887C105.993 107.415 109.342 105.678 111.327 103.867C112.791 102.527 114.479 100.492 114.479 100.071C114.479 99.7729 113.834 99.9962 112.866 100.592Z" fill="#5046E4"/>
<path d="M87.6307 104.016C87.2089 104.81 89.1443 113.42 90.6579 117.415C93.313 124.487 96.0672 128.035 99.7396 129.102C100.98 129.45 102.568 129.4 102.568 129.003C102.568 128.904 101.65 127.862 100.509 126.695C97.4568 123.519 95.968 120.864 88.8466 106.001C88.251 104.785 87.7051 103.892 87.6307 104.016Z" fill="#5046E4"/>
<path d="M115.595 108.284C110.186 120.07 105.744 128.06 102.941 131.038C102.444 131.559 102.097 132.03 102.171 132.105C102.444 132.378 104.727 130.988 106.117 129.723C107.605 128.333 108.871 126.646 110.558 123.743C111.079 122.849 111.501 122.254 111.501 122.378C111.501 122.899 109.715 129.499 108.672 132.799C108.077 134.71 107.506 136.596 107.432 137.018C107.283 137.762 107.283 137.762 108.251 136.695C110.806 133.916 113.809 125.405 115.968 114.686C116.638 111.361 117.456 106.324 117.456 105.455C117.456 104.611 116.935 105.381 115.595 108.284Z" fill="#5046E4"/>
</svg>
