<svg width="482" height="442" viewBox="0 0 482 442" fill="none" xmlns="http://www.w3.org/2000/svg">
<path d="M271.186 1.54972e-06C269.833 1.49012e-06 268.736 0.633166 268.736 1.41422L268.736 14.1421C268.736 14.9232 269.833 15.5564 271.186 15.5564C272.539 15.5564 273.635 14.9232 273.635 14.1421L273.635 2.82843L293.231 2.82843C294.584 2.82843 295.681 2.19526 295.681 1.41422C295.681 0.633166 294.584 1.43051e-06 293.231 1.43051e-06L271.186 1.54972e-06ZM269.454 2.41422L271.186 3.41421L274.65 1.41421L272.918 0.414215L269.454 2.41422ZM274.65 5.41421L278.114 7.41421L281.578 5.41421L278.114 3.41421L274.65 5.41421ZM281.578 9.41421L285.042 11.4142L288.506 9.41421L285.042 7.41421L281.578 9.41421ZM288.506 13.4142L291.971 15.4142L295.435 13.4142L291.971 11.4142L288.506 13.4142ZM295.435 17.4142L298.899 19.4142L302.363 17.4142L298.899 15.4142L295.435 17.4142ZM302.363 21.4142L305.827 23.4142L309.291 21.4142L305.827 19.4142L302.363 21.4142ZM309.291 25.4142L312.755 27.4142L316.219 25.4142L312.755 23.4142L309.291 25.4142ZM316.219 29.4142L319.683 31.4142L323.147 29.4142L319.683 27.4142L316.219 29.4142ZM323.147 33.4142L326.611 35.4142L330.076 33.4142L326.611 31.4142L323.147 33.4142ZM330.076 37.4142L331.808 38.4142L335.272 36.4142L333.54 35.4142L330.076 37.4142Z" fill="#474C59"/>
<path d="M390.417 109.918L391.535 109.313C410.825 98.8714 440.986 99.1519 459.684 109.947L553.735 164.248" stroke="#474C59" stroke-width="4" stroke-dasharray="4 4"/>
<path d="M298.547 16.9142L391.5 70.5809C410.632 81.6266 410.632 99.5352 391.5 110.581L298.547 164.248" stroke="#474C59" stroke-width="4" stroke-dasharray="4 4"/>
<path d="M149.911 298.024L197.722 290.628L162.722 270.42L149.911 298.024ZM180.222 284.024L282.846 224.774L276.784 221.274L174.16 280.524L180.222 284.024Z" fill="#AC7FF0"/>
<path d="M640.02 339.654L639.519 339.942L535.596 399.92L535.096 400.208L534.596 399.92L118.952 159.724L118.452 159.435V78.2803L118.952 77.9922L222.875 18.0147L223.376 17.7266L223.876 18.0147L639.52 258.211L640.02 258.5V339.654Z" fill="#C0C9E0" stroke="#C0C9E0" stroke-width="2"/>
<path d="M223.375 18.7559L639.067 258.756L639.067 339.064L223.375 99.0643L223.375 18.7559Z" fill="#F5F5F5"/>
<path d="M119.452 78.9829L223.375 18.9829L223.375 98.9829L119.452 158.983L119.452 78.9829Z" fill="#F5F5F5"/>
<path d="M223.375 98.9829L639.067 338.983L535.144 398.983L119.452 158.983L223.375 98.9829Z" fill="#E8E8E8"/>
<path d="M118.827 159.358L223.827 98.6079M223.827 98.6079L639.364 339.139M223.827 98.6079V18.2329" stroke="#C0C9E0" stroke-width="2" stroke-linecap="square" stroke-dasharray="2 6"/>
<path d="M205.656 68.9174C213.755 68.9174 220.264 72.7254 232.388 79.725C238.473 83.2386 243.167 85.9453 246.321 88.3324C249.419 90.6763 251.509 93.053 251.509 96.0238V146.024C251.509 148.995 249.419 151.372 246.321 153.716C243.167 156.103 238.473 158.809 232.388 162.323C220.264 169.322 213.755 173.13 205.656 173.13C197.558 173.13 191.049 169.322 178.926 162.323C172.84 158.809 168.147 156.103 164.992 153.716C161.895 151.372 159.805 148.995 159.805 146.024V96.0238C159.805 93.053 161.895 90.6763 164.992 88.3324C168.147 85.9452 172.84 83.2387 178.926 79.725C191.049 72.7255 197.558 68.9175 205.656 68.9174Z" fill="#474C59" stroke="#474C59" stroke-width="3"/>
<path d="M250 123.024H161.282V146.024L161.305 146.024C161.305 150.417 167.428 153.953 179.676 161.024C191.923 168.095 198.047 171.631 205.657 171.631C213.266 171.631 219.39 168.095 231.637 161.024C243.885 153.953 250.009 150.417 250.009 146.024C250.009 145.931 250.006 145.839 250 145.747V123.024Z" fill="url(#paint0_linear_1_1292)"/>
<path d="M179.676 108.024C191.923 100.953 198.047 97.4174 205.657 97.4174C213.266 97.4174 219.39 100.953 231.637 108.024C243.885 115.095 250.008 118.631 250.008 123.024C250.008 127.417 243.885 130.953 231.637 138.024C219.39 145.095 213.266 148.631 205.657 148.631C198.047 148.631 191.923 145.095 179.676 138.024C167.428 130.953 161.305 127.417 161.305 123.024C161.305 118.631 167.428 115.095 179.676 108.024Z" fill="url(#paint1_linear_1_1292)"/>
<path fill-rule="evenodd" clip-rule="evenodd" d="M168.514 134.774C168.036 134.498 167.648 134.722 167.648 135.274V149.274C167.648 149.826 168.036 150.498 168.514 150.774L169.813 151.524C170.291 151.8 170.679 151.576 170.679 151.024L170.679 137.024C170.679 136.472 170.291 135.8 169.813 135.524L168.514 134.774ZM173.514 138.024C173.036 137.748 172.648 137.972 172.648 138.524L172.648 152.524C172.648 153.076 173.036 153.748 173.514 154.024L174.813 154.774C175.291 155.05 175.679 154.826 175.679 154.274L175.679 140.274C175.679 139.722 175.291 139.05 174.813 138.774L173.514 138.024ZM177.648 141.399C177.648 140.847 178.036 140.623 178.514 140.899L179.813 141.649C180.291 141.925 180.679 142.597 180.679 143.149L180.679 157.149C180.679 157.701 180.291 157.925 179.813 157.649L178.514 156.899C178.036 156.623 177.648 155.951 177.648 155.399V141.399ZM183.514 143.524C183.036 143.248 182.648 143.472 182.648 144.024V158.024C182.648 158.576 183.036 159.248 183.514 159.524L184.813 160.274C185.291 160.55 185.679 160.326 185.679 159.774V145.774C185.679 145.222 185.291 144.55 184.813 144.274L183.514 143.524Z" fill="#AC7FF0"/>
<path d="M250 96.024H161.282V119.524L161.305 119.524C161.305 123.917 167.428 127.453 179.676 134.524C191.923 141.595 198.047 145.131 205.657 145.131C213.266 145.131 219.39 141.595 231.637 134.524C243.885 127.453 250.009 123.917 250.009 119.524C250.009 119.431 250.006 119.339 250 119.247V96.024Z" fill="url(#paint2_linear_1_1292)"/>
<path d="M179.676 81.0239C191.923 73.9529 198.047 70.4173 205.657 70.4173C213.266 70.4173 219.39 73.9529 231.637 81.0239C243.885 88.095 250.009 91.6305 250.009 96.0239C250.009 100.417 243.885 103.953 231.637 111.024C219.39 118.095 213.266 121.631 205.657 121.631C198.047 121.631 191.923 118.095 179.676 111.024C167.428 103.953 161.305 100.417 161.305 96.0239C161.305 91.6306 167.428 88.095 179.676 81.0239Z" fill="url(#paint3_linear_1_1292)"/>
<path fill-rule="evenodd" clip-rule="evenodd" d="M203.059 77.024C204.493 77.8524 206.82 77.8524 208.255 77.024C209.69 76.1955 209.69 74.8524 208.255 74.024C206.82 73.1955 204.493 73.1955 203.059 74.024C201.624 74.8524 201.624 76.1955 203.059 77.024ZM168.081 97.524C169.516 98.3524 171.842 98.3524 173.277 97.524C174.712 96.6955 174.712 95.3524 173.277 94.524C171.842 93.6955 169.516 93.6955 168.081 94.524C166.646 95.3524 166.646 96.6955 168.081 97.524ZM239.331 97.524C240.766 98.3524 243.092 98.3524 244.527 97.524C245.962 96.6955 245.962 95.3524 244.527 94.524C243.092 93.6955 240.766 93.6955 239.331 94.524C237.896 95.3524 237.896 96.6955 239.331 97.524ZM208.255 116.774C206.82 117.602 204.493 117.602 203.059 116.774C201.624 115.946 201.624 114.602 203.059 113.774C204.493 112.946 206.82 112.946 208.255 113.774C209.69 114.602 209.69 115.946 208.255 116.774Z" fill="#AC7FF0"/>
<path d="M293.5 145.789C301.598 145.789 308.107 149.597 320.231 156.596C326.317 160.11 331.01 162.817 334.165 165.204C337.262 167.548 339.352 169.924 339.352 172.895V197.895C339.352 200.866 337.262 203.244 334.165 205.588C331.01 207.975 326.317 210.681 320.231 214.194C308.107 221.194 301.598 225.002 293.5 225.002C285.402 225.002 278.893 221.194 266.769 214.194C260.683 210.68 255.99 207.975 252.836 205.588C249.738 203.244 247.648 200.866 247.648 197.895V172.895C247.648 169.924 249.738 167.548 252.836 165.204C255.99 162.817 260.683 160.11 266.769 156.596C278.893 149.597 285.402 145.789 293.5 145.789Z" fill="#7B50C2" stroke="#7B50C2" stroke-width="3"/>
<path d="M337.844 172.895H249.125V197.895L249.148 197.895C249.148 202.289 255.272 205.824 267.519 212.895C279.767 219.966 285.89 223.502 293.5 223.502C301.11 223.502 307.233 219.966 319.481 212.895C331.728 205.824 337.852 202.289 337.852 197.895C337.852 197.803 337.849 197.71 337.844 197.618V172.895Z" fill="url(#paint4_linear_1_1292)"/>
<path d="M267.519 157.895C279.767 150.824 285.89 147.289 293.5 147.289C301.11 147.289 307.233 150.824 319.481 157.895C331.728 164.966 337.852 168.502 337.852 172.895C337.852 177.289 331.728 180.824 319.481 187.895C307.233 194.966 301.11 198.502 293.5 198.502C285.89 198.502 279.767 194.966 267.519 187.895C255.272 180.824 249.148 177.289 249.148 172.895C249.148 168.502 255.272 164.966 267.519 157.895Z" fill="url(#paint5_linear_1_1292)"/>
<path fill-rule="evenodd" clip-rule="evenodd" d="M296.364 158.575C295.567 158.115 294.275 158.115 293.477 158.575L289.147 161.075C288.35 161.535 288.35 162.282 289.147 162.742L297.808 167.742L293.477 170.242L287.704 166.908C287.283 166.665 286.698 166.54 286.104 166.567L276.722 166.983C276.594 166.989 276.47 167.001 276.35 167.02L274.714 166.075C273.916 165.615 272.624 165.615 271.827 166.075L266.053 169.408C265.256 169.869 265.256 170.615 266.053 171.075L271.827 174.408C272.624 174.869 273.916 174.869 274.714 174.408L280.487 171.075C281.284 170.615 281.284 169.869 280.487 169.408L280.12 169.196L285.481 168.958L290.591 171.908L287.704 173.575L286.261 172.742C285.463 172.282 284.171 172.282 283.374 172.742L277.6 176.075C276.803 176.535 276.803 177.282 277.6 177.742L283.374 181.075C284.171 181.535 285.463 181.535 286.261 181.075L292.034 177.742C292.831 177.282 292.831 176.535 292.034 176.075L290.591 175.242L293.477 173.575L298.57 176.516L298.169 179.617L297.808 179.408C297.01 178.948 295.718 178.948 294.921 179.408L289.147 182.742C288.35 183.202 288.35 183.948 289.147 184.408L294.921 187.742C295.718 188.202 297.01 188.202 297.808 187.742L303.581 184.408C304.378 183.948 304.378 183.202 303.581 182.742L301.945 181.797C301.977 181.727 301.998 181.654 302.008 181.58L302.711 176.152C302.756 175.81 302.539 175.474 302.119 175.231L296.364 171.908L300.694 169.408L309.355 174.408C310.152 174.869 311.444 174.869 312.241 174.408L316.571 171.908C317.369 171.448 317.369 170.702 316.571 170.242L296.364 158.575ZM284.817 175.242L287.704 176.908L284.817 178.575L281.93 176.908L284.817 175.242ZM310.798 171.908L312.241 171.075L294.921 161.075L293.477 161.908L310.798 171.908ZM270.383 170.242L273.27 168.575L276.157 170.242L273.27 171.908L270.383 170.242ZM293.477 183.575L296.364 181.908L299.251 183.575L296.364 185.242L293.477 183.575Z" fill="white"/>
<path d="M312.241 171.075L310.798 171.908L293.477 161.908L294.921 161.075L312.241 171.075Z" fill="white"/>
<path d="M273.27 168.575L270.383 170.242L273.27 171.908L276.157 170.242L273.27 168.575Z" fill="white"/>
<path d="M284.817 178.575L287.704 176.908L284.817 175.242L281.93 176.908L284.817 178.575Z" fill="white"/>
<path d="M296.364 181.908L293.477 183.575L296.364 185.242L299.251 183.575L296.364 181.908Z" fill="white"/>
<path d="M438.142 257.262L437.392 257.694L394.091 282.694L393.341 283.128L392.591 282.694L349.29 257.694L348.54 257.262V202.529L349.29 202.097L392.591 177.097L393.341 176.663L394.091 177.097L437.392 202.097L438.142 202.529V257.262Z" fill="#474C59" stroke="#474C59" stroke-width="3"/>
<path d="M350.04 231.395L393.341 256.395L393.341 281.395L350.04 256.395L350.04 231.395Z" fill="url(#paint6_linear_1_1292)"/>
<path d="M393.341 256.395L436.642 231.395L436.642 256.395L393.341 281.395L393.341 256.395Z" fill="url(#paint7_linear_1_1292)"/>
<path d="M393.341 206.395L436.642 231.395L393.341 256.395L350.04 231.395L393.341 206.395Z" fill="url(#paint8_linear_1_1292)"/>
<path fill-rule="evenodd" clip-rule="evenodd" d="M358.736 248.895C358.736 250.552 357.573 251.224 356.138 250.395C354.703 249.567 353.54 247.552 353.54 245.895C353.54 244.239 354.703 243.567 356.138 244.395C357.573 245.224 358.736 247.239 358.736 248.895ZM365.736 252.895C365.736 254.552 364.573 255.224 363.138 254.395C361.703 253.567 360.54 251.552 360.54 249.895C360.54 248.239 361.703 247.567 363.138 248.395C364.573 249.224 365.736 251.239 365.736 252.895ZM372.772 255.395C371.815 254.843 371.04 255.291 371.04 256.395C371.04 257.5 371.815 258.843 372.772 259.395L387.494 267.895C388.451 268.448 389.226 268 389.226 266.895C389.226 265.791 388.451 264.448 387.494 263.895L372.772 255.395Z" fill="#AC7FF0"/>
<path d="M350.04 203.395L393.341 228.395L393.341 253.395L350.04 228.395L350.04 203.395Z" fill="url(#paint9_linear_1_1292)"/>
<path d="M393.341 228.395L436.642 203.395L436.642 228.395L393.341 253.395L393.341 228.395Z" fill="url(#paint10_linear_1_1292)"/>
<path d="M393.341 178.395L436.642 203.395L393.341 228.395L350.04 203.395L393.341 178.395Z" fill="url(#paint11_linear_1_1292)"/>
<path fill-rule="evenodd" clip-rule="evenodd" d="M358.736 221.895C358.736 223.552 357.573 224.224 356.138 223.395C354.703 222.567 353.54 220.552 353.54 218.895C353.54 217.239 354.703 216.567 356.138 217.395C357.573 218.224 358.736 220.239 358.736 221.895ZM365.736 225.895C365.736 227.552 364.573 228.224 363.138 227.395C361.703 226.567 360.54 224.552 360.54 222.895C360.54 221.239 361.703 220.567 363.138 221.395C364.573 222.224 365.736 224.239 365.736 225.895ZM372.772 227.895C371.815 227.343 371.04 227.791 371.04 228.895C371.04 230 371.815 231.343 372.772 231.895L387.494 240.395C388.451 240.948 389.226 240.5 389.226 239.395C389.226 238.291 388.451 236.948 387.494 236.395L372.772 227.895Z" fill="#AC7FF0"/>
<g filter="url(#filter0_d_1_1292)">
<rect x="127.5" y="39.9142" width="114" height="40" rx="5.5" fill="white"/>
<rect x="127.5" y="39.9142" width="114" height="40" rx="5.5" stroke="#C0C9E0"/>
<path d="M150.881 66.4142L149.513 62.7062H144.545L143.177 66.4142H141.161L146.039 53.5082H148.055L152.915 66.4142H150.881ZM147.677 57.3962C147.641 57.2642 147.575 57.0662 147.479 56.8022C147.395 56.5262 147.311 56.2502 147.227 55.9742C147.143 55.6862 147.077 55.4522 147.029 55.2722C146.969 55.5122 146.897 55.7762 146.813 56.0642C146.741 56.3402 146.669 56.5982 146.597 56.8382C146.525 57.0662 146.465 57.2522 146.417 57.3962L145.121 61.0142H148.973L147.677 57.3962ZM156.34 66.4142H154.432V52.7342H156.34V66.4142ZM162.685 56.5322C163.309 56.5322 163.873 56.6522 164.377 56.8922C164.881 57.1322 165.307 57.4982 165.655 57.9902H165.745L165.961 56.7122H167.509V66.5402C167.509 67.4522 167.347 68.2202 167.023 68.8442C166.699 69.4682 166.201 69.9362 165.529 70.2482C164.869 70.5722 164.035 70.7342 163.027 70.7342C162.331 70.7342 161.689 70.6862 161.101 70.5902C160.513 70.4942 159.973 70.3442 159.481 70.1402V68.4662C159.829 68.6342 160.195 68.7722 160.579 68.8802C160.963 69.0002 161.371 69.0842 161.803 69.1322C162.235 69.1922 162.679 69.2222 163.135 69.2222C163.927 69.2222 164.539 68.9942 164.971 68.5382C165.403 68.0942 165.619 67.4642 165.619 66.6482V66.3242C165.619 66.1682 165.625 65.9642 165.637 65.7122C165.649 65.4482 165.661 65.2562 165.673 65.1362H165.601C165.265 65.6402 164.851 66.0122 164.359 66.2522C163.879 66.4802 163.321 66.5942 162.685 66.5942C161.461 66.5942 160.501 66.1562 159.805 65.2802C159.121 64.3922 158.779 63.1622 158.779 61.5902C158.779 60.5342 158.935 59.6342 159.247 58.8902C159.559 58.1342 160.003 57.5522 160.579 57.1442C161.167 56.7362 161.869 56.5322 162.685 56.5322ZM163.081 58.1162C162.577 58.1162 162.151 58.2542 161.803 58.5302C161.455 58.7942 161.191 59.1842 161.011 59.7002C160.831 60.2162 160.741 60.8522 160.741 61.6082C160.741 62.7362 160.939 63.5942 161.335 64.1822C161.743 64.7702 162.337 65.0642 163.117 65.0642C163.573 65.0642 163.957 65.0042 164.269 64.8842C164.593 64.7642 164.857 64.5782 165.061 64.3262C165.277 64.0742 165.433 63.7562 165.529 63.3722C165.637 62.9762 165.691 62.5022 165.691 61.9502V61.5902C165.691 60.7622 165.595 60.0962 165.403 59.5922C165.223 59.0762 164.941 58.7042 164.557 58.4762C164.173 58.2362 163.681 58.1162 163.081 58.1162ZM179.049 61.5542C179.049 62.3582 178.941 63.0722 178.725 63.6962C178.509 64.3202 178.203 64.8482 177.807 65.2802C177.411 65.7122 176.931 66.0422 176.367 66.2702C175.803 66.4862 175.167 66.5942 174.459 66.5942C173.811 66.5942 173.211 66.4862 172.659 66.2702C172.107 66.0422 171.627 65.7122 171.219 65.2802C170.823 64.8482 170.511 64.3202 170.283 63.6962C170.055 63.0722 169.941 62.3522 169.941 61.5362C169.941 60.4682 170.121 59.5622 170.481 58.8182C170.853 58.0742 171.381 57.5102 172.065 57.1262C172.761 56.7302 173.577 56.5322 174.513 56.5322C175.401 56.5322 176.181 56.7302 176.853 57.1262C177.537 57.5102 178.071 58.0742 178.455 58.8182C178.851 59.5622 179.049 60.4742 179.049 61.5542ZM171.903 61.5542C171.903 62.2742 171.993 62.8982 172.173 63.4262C172.353 63.9422 172.635 64.3382 173.019 64.6142C173.403 64.8902 173.895 65.0282 174.495 65.0282C175.095 65.0282 175.587 64.8902 175.971 64.6142C176.355 64.3382 176.637 63.9422 176.817 63.4262C176.997 62.8982 177.087 62.2742 177.087 61.5542C177.087 60.8102 176.991 60.1862 176.799 59.6822C176.619 59.1782 176.337 58.7942 175.953 58.5302C175.581 58.2542 175.089 58.1162 174.477 58.1162C173.577 58.1162 172.923 58.4162 172.515 59.0162C172.107 59.6162 171.903 60.4622 171.903 61.5542ZM186.256 56.5322C186.424 56.5322 186.61 56.5442 186.814 56.5682C187.018 56.5802 187.186 56.5982 187.318 56.6222L187.12 58.4042C186.988 58.3682 186.832 58.3382 186.652 58.3142C186.472 58.2902 186.304 58.2782 186.148 58.2782C185.788 58.2782 185.44 58.3502 185.104 58.4942C184.78 58.6262 184.486 58.8242 184.222 59.0882C183.958 59.3402 183.748 59.6522 183.592 60.0242C183.448 60.3962 183.376 60.8222 183.376 61.3022V66.4142H181.468V56.7122H182.98L183.232 58.4402H183.304C183.508 58.0922 183.754 57.7742 184.042 57.4862C184.33 57.1982 184.66 56.9702 185.032 56.8022C185.404 56.6222 185.812 56.5322 186.256 56.5322ZM191.022 56.7122V66.4142H189.114V56.7122H191.022ZM190.086 53.0222C190.374 53.0222 190.626 53.1062 190.842 53.2742C191.058 53.4422 191.166 53.7242 191.166 54.1202C191.166 54.5042 191.058 54.7862 190.842 54.9662C190.626 55.1342 190.374 55.2182 190.086 55.2182C189.774 55.2182 189.51 55.1342 189.294 54.9662C189.09 54.7862 188.988 54.5042 188.988 54.1202C188.988 53.7242 189.09 53.4422 189.294 53.2742C189.51 53.1062 189.774 53.0222 190.086 53.0222ZM197.51 65.0462C197.762 65.0462 198.02 65.0222 198.284 64.9742C198.548 64.9262 198.776 64.8722 198.968 64.8122V66.2522C198.764 66.3482 198.488 66.4262 198.14 66.4862C197.792 66.5582 197.444 66.5942 197.096 66.5942C196.568 66.5942 196.082 66.5042 195.638 66.3242C195.206 66.1442 194.858 65.8322 194.594 65.3882C194.33 64.9442 194.198 64.3262 194.198 63.5342V58.1702H192.848V57.3062L194.27 56.5862L194.936 54.5342H196.106V56.7122H198.878V58.1702H196.106V63.4982C196.106 64.0262 196.232 64.4162 196.484 64.6682C196.748 64.9202 197.09 65.0462 197.51 65.0462ZM202.817 56.3882C202.817 56.6882 202.805 56.9882 202.781 57.2882C202.757 57.5882 202.733 57.8342 202.709 58.0262H202.835C203.039 57.6902 203.291 57.4142 203.591 57.1982C203.903 56.9822 204.245 56.8202 204.617 56.7122C205.001 56.6042 205.391 56.5502 205.787 56.5502C206.555 56.5502 207.197 56.6762 207.713 56.9282C208.241 57.1682 208.637 57.5522 208.901 58.0802C209.177 58.5962 209.315 59.2682 209.315 60.0962V66.4142H207.425V60.3662C207.425 59.6102 207.263 59.0462 206.939 58.6742C206.627 58.2902 206.123 58.0982 205.427 58.0982C204.767 58.0982 204.245 58.2302 203.861 58.4942C203.489 58.7582 203.219 59.1482 203.051 59.6642C202.895 60.1682 202.817 60.7922 202.817 61.5362V66.4142H200.909V52.7342H202.817V56.3882ZM223.119 56.5322C224.211 56.5322 225.033 56.8142 225.585 57.3782C226.137 57.9422 226.413 58.8482 226.413 60.0962V66.4142H224.505V60.3482C224.505 59.6042 224.355 59.0462 224.055 58.6742C223.767 58.2902 223.311 58.0982 222.687 58.0982C221.823 58.0982 221.205 58.3682 220.833 58.9082C220.461 59.4362 220.275 60.2042 220.275 61.2122V66.4142H218.385V60.3482C218.385 59.8562 218.313 59.4422 218.169 59.1062C218.037 58.7702 217.839 58.5182 217.575 58.3502C217.311 58.1822 216.969 58.0982 216.549 58.0982C215.949 58.0982 215.475 58.2302 215.127 58.4942C214.779 58.7582 214.527 59.1482 214.371 59.6642C214.227 60.1682 214.155 60.7862 214.155 61.5182V66.4142H212.247V56.7122H213.759L214.029 58.0082H214.137C214.341 57.6722 214.587 57.3962 214.875 57.1802C215.175 56.9642 215.505 56.8022 215.865 56.6942C216.225 56.5862 216.597 56.5322 216.981 56.5322C217.713 56.5322 218.331 56.6642 218.835 56.9282C219.339 57.1802 219.705 57.5702 219.933 58.0982H220.077C220.389 57.5582 220.821 57.1622 221.373 56.9102C221.925 56.6582 222.507 56.5322 223.119 56.5322Z" fill="#2D3339"/>
<g filter="url(#filter1_i_1_1292)">
<path d="M183.793 86.7071C184.183 87.0976 184.817 87.0976 185.207 86.7071L192.5 79.4142H176.5L183.793 86.7071Z" fill="white"/>
</g>
</g>
<g filter="url(#filter2_d_1_1292)">
<g clip-path="url(#clip0_1_1292)">
<rect width="124" height="40" rx="20" transform="matrix(0.866025 0.5 -0.866025 0.5 184.468 215.233)" fill="#AC7FF0"/>
<path d="M185.132 242.616L182.516 241.106L192.701 235.226L189.341 233.286L191.523 232.026L200.859 237.416L198.677 238.676L195.316 236.736L185.132 242.616ZM204.242 242.529C204.369 242.603 204.513 242.693 204.675 242.799C204.836 242.906 204.957 242.996 205.038 243.069L202.423 244.359C202.365 244.299 202.261 244.219 202.111 244.119C201.984 244.019 201.863 243.936 201.747 243.869C201.413 243.676 201.043 243.516 200.639 243.389C200.246 243.256 199.831 243.169 199.392 243.129C198.965 243.096 198.52 243.126 198.058 243.219C197.619 243.313 197.175 243.489 196.724 243.749L191.909 246.529L189.329 245.039L198.786 239.579L200.743 240.709L199.53 241.849L199.652 241.919C200.16 241.839 200.685 241.803 201.228 241.809C201.77 241.816 202.302 241.876 202.821 241.989C203.352 242.109 203.826 242.289 204.242 242.529ZM210.383 246.055C211.653 246.788 212.346 247.508 212.461 248.215C212.6 248.922 212.103 249.602 210.972 250.255L204.667 253.895L202.866 252.855L203.645 251.825L203.576 251.785C202.975 251.825 202.421 251.825 201.913 251.785C201.417 251.752 200.937 251.655 200.476 251.495C200.014 251.348 199.517 251.122 198.986 250.815C198.432 250.495 198.033 250.145 197.791 249.765C197.571 249.385 197.554 248.995 197.739 248.595C197.935 248.188 198.374 247.788 199.055 247.395C200.06 246.815 201.151 246.592 202.329 246.725C203.518 246.852 204.84 247.308 206.295 248.095L207.993 249.015L208.408 248.775C208.905 248.488 209.136 248.202 209.101 247.915C209.078 247.635 208.836 247.362 208.374 247.095C207.912 246.828 207.392 246.608 206.815 246.435C206.249 246.255 205.649 246.095 205.014 245.955L205.914 244.455C206.688 244.595 207.456 244.798 208.218 245.065C208.991 245.338 209.713 245.668 210.383 246.055ZM205.447 249.325C204.592 248.858 203.865 248.612 203.264 248.585C202.664 248.558 202.138 248.675 201.688 248.935C201.295 249.162 201.128 249.392 201.186 249.625C201.255 249.852 201.474 250.072 201.844 250.285C202.398 250.605 203.027 250.782 203.732 250.815C204.448 250.842 205.106 250.682 205.706 250.335L206.486 249.885L205.447 249.325ZM222.308 252.96C223.324 253.547 223.861 254.177 223.919 254.85C223.988 255.517 223.417 256.2 222.204 256.9L216.038 260.46L213.458 258.97L218.983 255.78C219.664 255.387 220.051 255.024 220.143 254.69C220.247 254.35 220.034 254.027 219.502 253.72C218.717 253.267 217.909 253.114 217.078 253.26C216.258 253.4 215.345 253.76 214.341 254.34L209.89 256.91L207.309 255.42L216.766 249.96L218.74 251.1L217.874 252L218.013 252.08C218.544 252.014 219.058 252.01 219.554 252.07C220.062 252.124 220.547 252.23 221.009 252.39C221.483 252.544 221.916 252.734 222.308 252.96ZM228.097 264.182C227.462 264.549 226.769 264.776 226.019 264.862C225.28 264.942 224.495 264.876 223.663 264.662C222.832 264.449 221.972 264.086 221.082 263.572C220.424 263.192 219.905 262.839 219.524 262.512C219.131 262.192 218.796 261.839 218.519 261.452L220.649 260.222C220.927 260.649 221.285 261.076 221.723 261.502C222.162 261.929 222.607 262.272 223.057 262.532C223.565 262.826 223.998 262.989 224.356 263.022C224.726 263.062 225.032 263.012 225.274 262.872C225.436 262.779 225.534 262.669 225.568 262.542C225.615 262.422 225.574 262.232 225.447 261.972C225.32 261.712 225.078 261.332 224.72 260.832C224.385 260.346 224.148 259.922 224.01 259.562C223.883 259.196 223.9 258.859 224.062 258.552C224.235 258.239 224.587 257.929 225.118 257.622C225.996 257.116 226.995 256.932 228.115 257.072C229.235 257.212 230.361 257.609 231.492 258.262C232.081 258.602 232.583 258.959 232.999 259.332C233.415 259.706 233.773 260.132 234.073 260.612L231.44 261.232C231.267 260.972 231.088 260.729 230.903 260.502C230.718 260.276 230.516 260.066 230.297 259.872C230.089 259.686 229.841 259.509 229.552 259.342C229.171 259.122 228.831 258.986 228.53 258.932C228.242 258.886 227.993 258.922 227.786 259.042C227.635 259.129 227.543 259.236 227.508 259.362C227.497 259.489 227.56 259.672 227.699 259.912C227.849 260.159 228.086 260.509 228.409 260.962C228.732 261.402 228.969 261.806 229.119 262.172C229.281 262.532 229.287 262.876 229.137 263.202C229.01 263.529 228.663 263.856 228.097 264.182ZM240.05 265.643L237.815 264.353L230.298 268.693L227.717 267.203L235.235 262.863L233.814 262.043L235.061 261.323L237.174 261.743L237.867 261.343C238.676 260.876 239.432 260.593 240.136 260.493C240.864 260.393 241.568 260.433 242.249 260.613C242.942 260.8 243.629 261.09 244.311 261.483C244.819 261.776 245.234 262.063 245.558 262.343C245.892 262.63 246.135 262.876 246.285 263.083L243.739 263.793C243.6 263.646 243.439 263.493 243.254 263.333C243.081 263.166 242.844 262.996 242.544 262.823C242.186 262.616 241.811 262.526 241.418 262.553C241.037 262.586 240.679 262.7 240.344 262.893L239.755 263.233L241.99 264.523L240.05 265.643ZM247.527 267.52C248.405 268.027 248.988 268.557 249.277 269.11C249.577 269.67 249.583 270.234 249.294 270.8C249.005 271.367 248.399 271.917 247.475 272.45L246.228 273.17L240.131 269.65C239.427 270.084 239.069 270.537 239.058 271.01C239.058 271.49 239.421 271.94 240.149 272.36C240.761 272.714 241.373 273 241.985 273.22C242.608 273.434 243.313 273.62 244.098 273.78L242.106 274.93C241.413 274.797 240.755 274.61 240.131 274.37C239.508 274.144 238.832 273.82 238.105 273.4C237.158 272.854 236.494 272.27 236.113 271.65C235.744 271.024 235.709 270.384 236.009 269.73C236.309 269.077 237.002 268.437 238.088 267.81C239.196 267.17 240.299 266.747 241.396 266.54C242.516 266.334 243.595 266.317 244.635 266.49C245.674 266.664 246.638 267.007 247.527 267.52ZM245.709 268.59C245.212 268.304 244.635 268.157 243.977 268.15C243.33 268.15 242.637 268.33 241.898 268.69L245.518 270.78C245.899 270.56 246.17 270.324 246.332 270.07C246.505 269.824 246.546 269.574 246.453 269.32C246.361 269.067 246.113 268.824 245.709 268.59ZM259.146 274.229C259.273 274.302 259.418 274.392 259.579 274.499C259.741 274.605 259.862 274.695 259.943 274.769L257.328 276.059C257.27 275.999 257.166 275.919 257.016 275.819C256.889 275.719 256.768 275.635 256.652 275.569C256.317 275.375 255.948 275.215 255.544 275.089C255.151 274.955 254.735 274.869 254.296 274.829C253.869 274.795 253.425 274.825 252.963 274.919C252.524 275.012 252.079 275.189 251.629 275.449L246.814 278.229L244.233 276.739L253.69 271.279L255.647 272.409L254.435 273.549L254.556 273.619C255.064 273.539 255.59 273.502 256.132 273.509C256.675 273.515 257.206 273.575 257.726 273.689C258.257 273.809 258.731 273.989 259.146 274.229Z" fill="white"/>
</g>
<rect x="8.9407e-08" y="-1.5" width="127" height="43" rx="21.5" transform="matrix(0.866025 0.5 -0.866025 0.5 183.169 214.483)" stroke="white" stroke-width="3"/>
</g>
<g filter="url(#filter3_d_1_1292)">
<g clip-path="url(#clip1_1_1292)">
<rect width="159" height="40" rx="20" transform="matrix(0.866025 0.5 -0.866025 0.5 315.054 292.1)" fill="#DEE4F9"/>
<path fill-rule="evenodd" clip-rule="evenodd" d="M322.499 307.682C324.213 308.177 326.184 309.026 328.045 310.1C329.905 311.174 331.376 312.312 332.233 313.301C332.658 313.793 332.965 314.284 333.057 314.735C333.148 315.177 333.053 315.708 332.375 316.1L329.272 317.891C331.317 319.548 331.052 321.863 328.478 323.35C325.608 325.007 320.955 325.007 318.085 323.35C317.29 322.891 316.713 322.351 316.359 321.775C314.843 321.268 313.178 320.517 311.59 319.6C309.729 318.526 308.259 317.388 307.402 316.398C306.977 315.907 306.67 315.416 306.577 314.964C306.487 314.523 306.582 313.991 307.26 313.6L317.652 307.6C318.33 307.208 319.251 307.154 320.016 307.206C320.797 307.259 321.648 307.436 322.499 307.682ZM315.969 319.93C316.055 319.429 316.295 318.935 316.689 318.473C316.142 318.204 315.595 317.912 315.054 317.6C313.193 316.526 311.723 315.388 310.866 314.398C310.688 314.193 310.531 313.988 310.402 313.786L309.016 314.586C309.004 314.607 308.983 314.668 309.01 314.798C309.057 315.025 309.235 315.352 309.593 315.766C310.303 316.586 311.596 317.603 313.322 318.6C314.211 319.113 315.111 319.561 315.969 319.93ZM318.131 317.324C318.751 316.972 319.453 316.696 320.201 316.497C319.638 316.221 319.074 315.921 318.518 315.6C316.657 314.526 315.187 313.388 314.33 312.398C314.152 312.193 313.996 311.988 313.866 311.786L312.48 312.586C312.469 312.607 312.447 312.668 312.474 312.798C312.521 313.025 312.699 313.352 313.057 313.766C313.767 314.586 315.06 315.603 316.786 316.6C317.233 316.858 317.683 317.1 318.131 317.324ZM323.32 316.107C324.8 316.112 326.28 316.373 327.54 316.891L328.589 316.286C328.238 316.211 327.883 316.12 327.528 316.018C325.814 315.523 323.843 314.674 321.982 313.6C320.122 312.526 318.651 311.388 317.794 310.398C317.617 310.193 317.46 309.988 317.33 309.786L315.944 310.586C315.933 310.607 315.911 310.668 315.938 310.798C315.985 311.025 316.163 311.352 316.521 311.766C317.231 312.586 318.524 313.603 320.25 314.6C321.283 315.196 322.334 315.706 323.32 316.107ZM327.321 320.975C327.321 321.365 326.772 321.682 326.096 321.682L321.333 321.682C320.656 321.682 320.108 321.365 320.108 320.975L320.108 319.475C320.108 319.084 320.656 318.768 321.333 318.768C322.009 318.768 322.558 319.084 322.558 319.475L322.558 320.268L326.096 320.268C326.772 320.268 327.321 320.584 327.321 320.975Z" fill="#6E7CA5"/>
<path d="M351.358 332.78C349.972 333.58 348.546 334.097 347.08 334.33C345.613 334.563 344.135 334.523 342.646 334.21C341.168 333.903 339.718 333.34 338.298 332.52L334.799 330.5L347.166 323.36L351.046 325.6C352.339 326.347 353.228 327.127 353.713 327.94C354.21 328.76 354.268 329.58 353.887 330.4C353.529 331.22 352.686 332.013 351.358 332.78ZM348.569 331.25C349.481 330.723 350.099 330.213 350.423 329.72C350.746 329.227 350.78 328.747 350.526 328.28C350.296 327.813 349.799 327.36 349.037 326.92L347.634 326.11L339.58 330.76L340.706 331.41C341.987 332.15 343.281 332.503 344.586 332.47C345.89 332.437 347.218 332.03 348.569 331.25ZM360.94 334.452C362.21 335.186 362.903 335.906 363.019 336.612C363.157 337.319 362.661 337.999 361.529 338.652L355.224 342.292L353.423 341.252L354.202 340.222L354.133 340.182C353.533 340.222 352.978 340.222 352.47 340.182C351.974 340.149 351.495 340.052 351.033 339.892C350.571 339.746 350.074 339.519 349.543 339.212C348.989 338.892 348.591 338.542 348.348 338.162C348.129 337.782 348.111 337.392 348.296 336.992C348.492 336.586 348.931 336.186 349.613 335.792C350.617 335.212 351.708 334.989 352.886 335.122C354.075 335.249 355.398 335.706 356.853 336.492L358.55 337.412L358.966 337.172C359.462 336.886 359.693 336.599 359.658 336.312C359.635 336.032 359.393 335.759 358.931 335.492C358.469 335.226 357.949 335.006 357.372 334.832C356.806 334.652 356.206 334.492 355.571 334.352L356.471 332.852C357.245 332.992 358.013 333.196 358.775 333.462C359.549 333.736 360.27 334.066 360.94 334.452ZM356.004 337.722C355.149 337.256 354.422 337.009 353.821 336.982C353.221 336.956 352.696 337.072 352.245 337.332C351.853 337.559 351.685 337.789 351.743 338.022C351.812 338.249 352.032 338.469 352.401 338.682C352.955 339.002 353.585 339.179 354.289 339.212C355.005 339.239 355.663 339.079 356.264 338.732L357.043 338.282L356.004 337.722ZM363.738 345.027C364.026 345.194 364.332 345.337 364.656 345.457C364.979 345.577 365.314 345.691 365.66 345.797L363.738 346.907C363.345 346.814 362.901 346.671 362.404 346.477C361.907 346.297 361.417 346.067 360.932 345.787C360.366 345.461 359.95 345.114 359.685 344.747C359.431 344.387 359.396 344.001 359.581 343.587C359.789 343.174 360.297 342.734 361.105 342.267L365.66 339.637L364.43 338.927L365.522 338.297L367.808 338.617L370.545 337.897L372.19 338.847L370.181 340.007L372.831 341.537L370.891 342.657L368.241 341.127L363.686 343.757C363.328 343.964 363.16 344.181 363.183 344.407C363.218 344.627 363.403 344.834 363.738 345.027ZM378.903 344.823C380.174 345.557 380.866 346.277 380.982 346.983C381.12 347.69 380.624 348.37 379.492 349.023L373.188 352.663L371.386 351.623L372.166 350.593L372.096 350.553C371.496 350.593 370.942 350.593 370.434 350.553C369.937 350.52 369.458 350.423 368.996 350.263C368.534 350.117 368.038 349.89 367.507 349.583C366.952 349.263 366.554 348.913 366.311 348.533C366.092 348.153 366.075 347.763 366.259 347.363C366.456 346.957 366.895 346.557 367.576 346.163C368.58 345.583 369.672 345.36 370.849 345.493C372.039 345.62 373.361 346.077 374.816 346.863L376.513 347.783L376.929 347.543C377.425 347.257 377.656 346.97 377.622 346.683C377.599 346.403 377.356 346.13 376.894 345.863C376.432 345.597 375.913 345.377 375.335 345.203C374.77 345.023 374.169 344.863 373.534 344.723L374.435 343.223C375.208 343.363 375.976 343.567 376.738 343.833C377.512 344.107 378.234 344.437 378.903 344.823ZM373.967 348.093C373.113 347.627 372.385 347.38 371.785 347.353C371.184 347.327 370.659 347.443 370.209 347.703C369.816 347.93 369.648 348.16 369.706 348.393C369.775 348.62 369.995 348.84 370.364 349.053C370.919 349.373 371.548 349.55 372.252 349.583C372.968 349.61 373.626 349.45 374.227 349.103L375.006 348.653L373.967 348.093ZM388.508 349.848C388.15 350.055 387.786 350.252 387.417 350.438C387.047 350.625 386.753 350.768 386.533 350.868L386.637 350.928C387.284 350.848 387.954 350.855 388.646 350.948C389.351 351.035 390.044 351.275 390.725 351.668C391.787 352.282 392.232 353.018 392.059 353.878C391.897 354.732 391.014 355.622 389.409 356.548C388.335 357.168 387.272 357.602 386.222 357.848C385.194 358.095 384.224 358.168 383.312 358.068C382.4 357.968 381.58 357.708 380.852 357.288C380.159 356.888 379.732 356.502 379.571 356.128C379.432 355.755 379.392 355.405 379.449 355.078L379.276 354.978L377.804 355.328L375.829 354.188L388.993 346.588L391.574 348.078L388.508 349.848ZM387.832 352.378C387.382 352.118 386.932 351.965 386.481 351.918C386.031 351.872 385.552 351.922 385.044 352.068C384.559 352.215 384.028 352.448 383.45 352.768L383.173 352.928C382.261 353.455 381.689 353.938 381.458 354.378C381.251 354.818 381.505 355.245 382.221 355.658C382.752 355.965 383.416 356.068 384.212 355.968C385.021 355.862 385.887 355.542 386.81 355.008C387.734 354.475 388.265 353.982 388.404 353.528C388.566 353.075 388.375 352.692 387.832 352.378ZM400.317 357.187C401.587 357.92 402.28 358.64 402.396 359.347C402.534 360.053 402.038 360.733 400.906 361.387L394.601 365.027L392.8 363.987L393.58 362.957L393.51 362.917C392.91 362.957 392.356 362.957 391.848 362.917C391.351 362.883 390.872 362.787 390.41 362.627C389.948 362.48 389.452 362.253 388.92 361.947C388.366 361.627 387.968 361.277 387.725 360.897C387.506 360.517 387.489 360.127 387.673 359.727C387.87 359.32 388.308 358.92 388.99 358.527C389.994 357.947 391.085 357.723 392.263 357.857C393.453 357.983 394.775 358.44 396.23 359.227L397.927 360.147L398.343 359.907C398.839 359.62 399.07 359.333 399.036 359.047C399.012 358.767 398.77 358.493 398.308 358.227C397.846 357.96 397.327 357.74 396.749 357.567C396.183 357.387 395.583 357.227 394.948 357.087L395.849 355.587C396.622 355.727 397.39 355.93 398.152 356.197C398.926 356.47 399.648 356.8 400.317 357.187ZM395.381 360.457C394.526 359.99 393.799 359.743 393.199 359.717C392.598 359.69 392.073 359.807 391.622 360.067C391.23 360.293 391.062 360.523 391.12 360.757C391.189 360.983 391.409 361.203 391.778 361.417C392.332 361.737 392.962 361.913 393.666 361.947C394.382 361.973 395.04 361.813 395.641 361.467L396.42 361.017L395.381 360.457ZM406.648 368.742C406.013 369.108 405.32 369.335 404.57 369.422C403.831 369.502 403.045 369.435 402.214 369.222C401.383 369.008 400.522 368.645 399.633 368.132C398.975 367.752 398.456 367.398 398.074 367.072C397.682 366.752 397.347 366.398 397.07 366.012L399.2 364.782C399.477 365.208 399.835 365.635 400.274 366.062C400.713 366.488 401.158 366.832 401.608 367.092C402.116 367.385 402.549 367.548 402.907 367.582C403.276 367.622 403.582 367.572 403.825 367.432C403.987 367.338 404.085 367.228 404.119 367.102C404.166 366.982 404.125 366.792 403.998 366.532C403.871 366.272 403.629 365.892 403.271 365.392C402.936 364.905 402.699 364.482 402.561 364.122C402.433 363.755 402.451 363.418 402.612 363.112C402.786 362.798 403.138 362.488 403.669 362.182C404.547 361.675 405.545 361.492 406.665 361.632C407.786 361.772 408.911 362.168 410.043 362.822C410.632 363.162 411.134 363.518 411.55 363.892C411.966 364.265 412.324 364.692 412.624 365.172L409.991 365.792C409.818 365.532 409.639 365.288 409.454 365.062C409.269 364.835 409.067 364.625 408.848 364.432C408.64 364.245 408.392 364.068 408.103 363.902C407.722 363.682 407.381 363.545 407.081 363.492C406.792 363.445 406.544 363.482 406.336 363.602C406.186 363.688 406.094 363.795 406.059 363.922C406.048 364.048 406.111 364.232 406.25 364.472C406.4 364.718 406.637 365.068 406.96 365.522C407.283 365.962 407.52 366.365 407.67 366.732C407.832 367.092 407.837 367.435 407.687 367.762C407.56 368.088 407.214 368.415 406.648 368.742ZM419.38 368.212C420.258 368.719 420.841 369.249 421.129 369.802C421.43 370.362 421.435 370.926 421.147 371.492C420.858 372.059 420.252 372.609 419.328 373.142L418.081 373.862L411.984 370.342C411.28 370.776 410.922 371.229 410.91 371.702C410.91 372.182 411.274 372.632 412.001 373.052C412.613 373.406 413.225 373.692 413.837 373.912C414.461 374.126 415.165 374.312 415.95 374.472L413.959 375.622C413.266 375.489 412.608 375.302 411.984 375.062C411.361 374.836 410.685 374.512 409.958 374.092C409.011 373.546 408.347 372.962 407.966 372.342C407.596 371.716 407.562 371.076 407.862 370.422C408.162 369.769 408.855 369.129 409.94 368.502C411.049 367.862 412.152 367.439 413.248 367.232C414.369 367.026 415.448 367.009 416.487 367.182C417.527 367.356 418.491 367.699 419.38 368.212ZM417.561 369.282C417.065 368.996 416.487 368.849 415.829 368.842C415.183 368.842 414.49 369.022 413.751 369.382L417.371 371.472C417.752 371.252 418.023 371.016 418.185 370.762C418.358 370.516 418.398 370.266 418.306 370.012C418.214 369.759 417.965 369.516 417.561 369.282Z" fill="#2D3339"/>
</g>
<rect x="8.9407e-08" y="-1.5" width="162" height="43" rx="21.5" transform="matrix(0.866025 0.5 -0.866025 0.5 313.755 291.35)" stroke="white" stroke-width="3"/>
</g>
<path d="M144.161 410.16C144.139 410.057 144.126 409.952 144.126 409.845C144.126 409.386 144.125 406.622 144.125 403.982C144.125 402.661 144.126 401.368 144.127 400.405C144.127 399.924 144.128 399.525 144.129 399.245C144.129 399.106 144.129 398.994 144.13 398.916C144.13 398.878 144.131 398.844 144.132 398.818C144.132 398.807 144.132 398.789 144.133 398.771C144.133 398.764 144.134 398.741 144.136 398.713C144.136 398.709 144.138 398.697 144.139 398.68H144.138C144.139 398.662 144.143 398.645 144.144 398.628C144.145 398.622 144.145 398.615 144.146 398.608C144.147 398.606 144.148 398.603 144.148 398.6C144.296 397.313 145.186 396.31 146.31 395.661L212.995 357.161C214.233 356.446 215.762 356.132 217.209 356.132C218.656 356.132 220.184 356.446 221.423 357.161L254.285 376.135C255.435 376.799 256.341 377.833 256.457 379.159C256.458 379.169 256.459 379.177 256.46 379.183C256.463 379.217 256.464 379.244 256.465 379.25C256.465 379.268 256.466 379.284 256.466 379.289C256.466 379.302 256.467 379.316 256.467 379.327C256.467 379.351 256.466 379.382 256.467 379.42C256.467 379.496 256.467 379.607 256.468 379.746C256.468 380.025 256.469 380.425 256.47 380.906C256.47 381.869 256.47 383.162 256.471 384.483C256.471 387.124 256.47 389.886 256.47 390.345C256.47 390.48 256.45 390.611 256.416 390.736C256.418 390.729 256.421 390.722 256.422 390.718C256.426 390.701 256.429 390.688 256.43 390.682C256.43 390.685 256.429 390.688 256.429 390.692C256.419 390.74 256.402 390.818 256.375 390.916C256.321 391.112 256.231 391.371 256.077 391.661C255.763 392.255 255.214 392.92 254.285 393.456L187.601 431.956C186.363 432.671 184.834 432.985 183.387 432.985C181.939 432.985 180.411 432.671 179.173 431.956L146.31 412.983C145.365 412.438 144.809 411.762 144.496 411.151C144.343 410.853 144.257 410.586 144.206 410.382C144.18 410.279 144.165 410.196 144.155 410.139C144.155 410.135 144.155 410.132 144.154 410.129C144.155 410.136 144.158 410.147 144.161 410.16ZM145.486 411.338C145.531 411.342 145.578 411.345 145.626 411.345C145.579 411.345 145.532 411.342 145.486 411.338ZM144.923 411.169C145.067 411.246 145.242 411.309 145.449 411.333C145.264 411.311 145.086 411.256 144.923 411.169ZM144.422 410.739C144.426 410.745 144.433 410.751 144.439 410.759C144.426 410.742 144.414 410.725 144.401 410.707C144.408 410.717 144.414 410.729 144.422 410.739ZM144.232 410.398C144.233 410.4 144.234 410.402 144.235 410.403C144.232 410.396 144.23 410.389 144.227 410.382C144.229 410.387 144.23 410.393 144.232 410.398ZM255.98 391.449C255.99 391.44 256.001 391.434 256.01 391.426C256.014 391.422 256.017 391.416 256.021 391.412C256.008 391.425 255.994 391.437 255.98 391.449ZM144.149 410.106C144.148 410.096 144.149 410.099 144.149 410.102C144.15 410.104 144.15 410.111 144.152 410.121C144.151 410.115 144.15 410.11 144.149 410.106Z" fill="#474C59" stroke="#474C59" stroke-width="3" stroke-linejoin="round"/>
<path d="M213.745 369.27C215.658 368.165 218.76 368.165 220.673 369.27L238.218 379.399H254.969V390.202C254.97 390.229 254.97 390.257 254.969 390.284V390.431H254.959C254.884 391.091 254.409 391.738 253.535 392.243L186.851 430.743C184.938 431.848 181.836 431.848 179.923 430.743L147.06 411.77C146.174 411.259 145.699 410.6 145.633 409.931H145.626L145.626 409.811C145.625 409.784 145.625 409.756 145.626 409.729L145.626 398.899H162.424L213.745 369.27Z" fill="url(#paint12_linear_1_1292)"/>
<path d="M213.745 358.546C215.658 357.442 218.76 357.442 220.673 358.546L253.535 377.519C255.448 378.624 255.448 380.415 253.535 381.519L186.851 420.019C184.938 421.124 181.836 421.124 179.923 420.019L147.06 401.046C145.147 399.942 145.147 398.151 147.06 397.046L213.745 358.546Z" fill="url(#paint13_linear_1_1292)"/>
<path d="M214.866 363.487C216.226 362.702 218.431 362.702 219.792 363.487L244.311 377.643C245.671 378.428 245.671 379.702 244.311 380.487L196.409 408.143C195.049 408.928 192.843 408.928 191.483 408.143L166.964 393.987C165.604 393.202 165.604 391.928 166.964 391.143L214.866 363.487Z" fill="url(#paint14_linear_1_1292)"/>
<circle cx="5" cy="5" r="5" transform="matrix(0.866025 0.5 -0.866026 0.5 170.952 400.006)" fill="url(#paint15_linear_1_1292)"/>
<path d="M89.1744 279.792C90.6217 279.792 92.1509 280.107 93.3892 280.822L181.723 331.822C182.953 332.531 183.909 333.672 183.909 335.121L183.908 345.868C183.908 345.875 183.908 345.882 183.908 345.889C183.887 347.318 182.94 348.441 181.723 349.144L115.039 387.644C113.8 388.359 112.272 388.673 110.825 388.673C109.378 388.673 107.849 388.359 106.611 387.644L18.2759 336.644C17.193 336.019 16.328 335.066 16.1334 333.847C16.1077 333.737 16.0923 333.623 16.0923 333.505V322.474C16.0924 322.364 16.1049 322.255 16.1285 322.149C16.3131 320.916 17.184 319.952 18.2759 319.322L84.9605 280.822C86.1987 280.107 87.7272 279.792 89.1744 279.792Z" fill="#474C59" stroke="#474C59" stroke-width="3" stroke-linejoin="round"/>
<path d="M85.7108 292.93C87.624 291.826 90.7259 291.826 92.639 292.93L165.864 335.207H182.409V345.954C182.399 346.67 181.92 347.384 180.974 347.93L114.289 386.431C112.376 387.535 109.274 387.535 107.361 386.431L19.0264 335.431C18.1406 334.919 17.665 334.261 17.5994 333.591H17.5921L17.5921 333.471C17.5914 333.444 17.5914 333.417 17.5921 333.39L17.5921 322.56H34.3908L85.7108 292.93Z" fill="url(#paint16_linear_1_1292)"/>
<path d="M85.7108 282.207C87.624 281.102 90.7258 281.102 92.639 282.207L180.974 333.207C182.887 334.311 182.887 336.102 180.974 337.207L114.289 375.707C112.376 376.812 109.274 376.812 107.361 375.707L19.0264 324.707C17.1132 323.602 17.1132 321.812 19.0264 320.707L85.7108 282.207Z" fill="url(#paint17_linear_1_1292)"/>
<path d="M86.8319 287.148C88.1922 286.363 90.3977 286.363 91.758 287.148L172.135 333.554C173.496 334.339 173.496 335.613 172.135 336.398L113.409 370.304C112.048 371.089 109.843 371.089 108.483 370.304L28.1051 323.898C26.7448 323.113 26.7448 321.839 28.1051 321.054L86.8319 287.148Z" fill="url(#paint18_linear_1_1292)"/>
<defs>
<filter id="filter0_d_1_1292" x="121" y="31.4142" width="127" height="66" filterUnits="userSpaceOnUse" color-interpolation-filters="sRGB">
<feFlood flood-opacity="0" result="BackgroundImageFix"/>
<feColorMatrix in="SourceAlpha" type="matrix" values="0 0 0 0 0 0 0 0 0 0 0 0 0 0 0 0 0 0 127 0" result="hardAlpha"/>
<feOffset dy="2"/>
<feGaussianBlur stdDeviation="3"/>
<feColorMatrix type="matrix" values="0 0 0 0 0 0 0 0 0 0 0 0 0 0 0 0 0 0 0.15 0"/>
<feBlend mode="normal" in2="BackgroundImageFix" result="effect1_dropShadow_1_1292"/>
<feBlend mode="normal" in="SourceGraphic" in2="effect1_dropShadow_1_1292" result="shape"/>
</filter>
<filter id="filter1_i_1_1292" x="176.5" y="79.4142" width="16" height="7.58578" filterUnits="userSpaceOnUse" color-interpolation-filters="sRGB">
<feFlood flood-opacity="0" result="BackgroundImageFix"/>
<feBlend mode="normal" in="SourceGraphic" in2="BackgroundImageFix" result="shape"/>
<feColorMatrix in="SourceAlpha" type="matrix" values="0 0 0 0 0 0 0 0 0 0 0 0 0 0 0 0 0 0 127 0" result="hardAlpha"/>
<feOffset dy="-1.5"/>
<feComposite in2="hardAlpha" operator="arithmetic" k2="-1" k3="1"/>
<feColorMatrix type="matrix" values="0 0 0 0 0.752941 0 0 0 0 0.788235 0 0 0 0 0.878431 0 0 0 1 0"/>
<feBlend mode="normal" in2="shape" result="effect1_innerShadow_1_1292"/>
</filter>
<filter id="filter2_d_1_1292" x="143.827" y="211.233" width="154.028" height="94" filterUnits="userSpaceOnUse" color-interpolation-filters="sRGB">
<feFlood flood-opacity="0" result="BackgroundImageFix"/>
<feColorMatrix in="SourceAlpha" type="matrix" values="0 0 0 0 0 0 0 0 0 0 0 0 0 0 0 0 0 0 127 0" result="hardAlpha"/>
<feOffset dy="2"/>
<feGaussianBlur stdDeviation="3"/>
<feColorMatrix type="matrix" values="0 0 0 0 0 0 0 0 0 0 0 0 0 0 0 0 0 0 0.15 0"/>
<feBlend mode="normal" in2="BackgroundImageFix" result="effect1_dropShadow_1_1292"/>
<feBlend mode="normal" in="SourceGraphic" in2="effect1_dropShadow_1_1292" result="shape"/>
</filter>
<filter id="filter3_d_1_1292" x="274.413" y="288.1" width="184.339" height="111.5" filterUnits="userSpaceOnUse" color-interpolation-filters="sRGB">
<feFlood flood-opacity="0" result="BackgroundImageFix"/>
<feColorMatrix in="SourceAlpha" type="matrix" values="0 0 0 0 0 0 0 0 0 0 0 0 0 0 0 0 0 0 127 0" result="hardAlpha"/>
<feOffset dy="2"/>
<feGaussianBlur stdDeviation="3"/>
<feColorMatrix type="matrix" values="0 0 0 0 0 0 0 0 0 0 0 0 0 0 0 0 0 0 0.15 0"/>
<feBlend mode="normal" in2="BackgroundImageFix" result="effect1_dropShadow_1_1292"/>
<feBlend mode="normal" in="SourceGraphic" in2="effect1_dropShadow_1_1292" result="shape"/>
</filter>
<linearGradient id="paint0_linear_1_1292" x1="250.009" y1="151.311" x2="161.282" y2="151.311" gradientUnits="userSpaceOnUse">
<stop stop-color="#D1D8EF"/>
<stop offset="0.398949" stop-color="#D8E1FB"/>
<stop offset="0.607454" stop-color="#B5BED9"/>
<stop offset="1" stop-color="#B4BDD8"/>
</linearGradient>
<linearGradient id="paint1_linear_1_1292" x1="161.252" y1="97.4477" x2="205.525" y2="174.131" gradientUnits="userSpaceOnUse">
<stop stop-color="#9DA4B9"/>
<stop offset="1" stop-color="#808BAB"/>
</linearGradient>
<linearGradient id="paint2_linear_1_1292" x1="250.009" y1="124.602" x2="161.282" y2="124.602" gradientUnits="userSpaceOnUse">
<stop stop-color="#D1D8EF"/>
<stop offset="0.398949" stop-color="#D8E1FB"/>
<stop offset="0.607454" stop-color="#B5BED9"/>
<stop offset="1" stop-color="#B4BDD8"/>
</linearGradient>
<linearGradient id="paint3_linear_1_1292" x1="161.252" y1="70.4477" x2="164.688" y2="126.854" gradientUnits="userSpaceOnUse">
<stop stop-color="#EDF1FD"/>
<stop offset="1" stop-color="#E1E5F1"/>
</linearGradient>
<linearGradient id="paint4_linear_1_1292" x1="337.852" y1="202.346" x2="249.125" y2="202.346" gradientUnits="userSpaceOnUse">
<stop stop-color="#D087EF"/>
<stop offset="0.398949" stop-color="#C3A1F8"/>
<stop offset="0.607454" stop-color="#7B50C2"/>
<stop offset="1" stop-color="#AC7FF0"/>
</linearGradient>
<linearGradient id="paint5_linear_1_1292" x1="249.096" y1="147.319" x2="252.531" y2="203.726" gradientUnits="userSpaceOnUse">
<stop stop-color="#AC7FF0"/>
<stop offset="1" stop-color="#AC7FF0"/>
</linearGradient>
<linearGradient id="paint6_linear_1_1292" x1="373.994" y1="270.435" x2="380.689" y2="247.243" gradientUnits="userSpaceOnUse">
<stop stop-color="#CAD1E7"/>
<stop offset="1" stop-color="#B4BDD8"/>
</linearGradient>
<linearGradient id="paint7_linear_1_1292" x1="414.992" y1="244.145" x2="421.653" y2="267.222" gradientUnits="userSpaceOnUse">
<stop stop-color="#CFD8EF"/>
<stop offset="1" stop-color="#D5DAE9"/>
</linearGradient>
<linearGradient id="paint8_linear_1_1292" x1="393.29" y1="206.395" x2="393.29" y2="256.307" gradientUnits="userSpaceOnUse">
<stop stop-color="#9DA4B9"/>
<stop offset="1" stop-color="#808BAB"/>
</linearGradient>
<linearGradient id="paint9_linear_1_1292" x1="373.994" y1="242.435" x2="380.689" y2="219.243" gradientUnits="userSpaceOnUse">
<stop stop-color="#CAD1E7"/>
<stop offset="1" stop-color="#B4BDD8"/>
</linearGradient>
<linearGradient id="paint10_linear_1_1292" x1="414.992" y1="216.145" x2="421.653" y2="239.222" gradientUnits="userSpaceOnUse">
<stop stop-color="#CFD8EF"/>
<stop offset="1" stop-color="#D5DAE9"/>
</linearGradient>
<linearGradient id="paint11_linear_1_1292" x1="393.29" y1="178.395" x2="374.116" y2="219.438" gradientUnits="userSpaceOnUse">
<stop stop-color="#EDF1FD"/>
<stop offset="1" stop-color="#E1E5F1"/>
</linearGradient>
<linearGradient id="paint12_linear_1_1292" x1="254.97" y1="407.618" x2="145.625" y2="407.618" gradientUnits="userSpaceOnUse">
<stop stop-color="#D1D8EF"/>
<stop offset="0.610162" stop-color="#D8E1FB"/>
<stop offset="0.69247" stop-color="#B5BED9"/>
<stop offset="1" stop-color="#B4BDD8"/>
</linearGradient>
<linearGradient id="paint13_linear_1_1292" x1="145.561" y1="357.755" x2="149.796" y2="427.287" gradientUnits="userSpaceOnUse">
<stop stop-color="#EDF1FD"/>
<stop offset="1" stop-color="#E1E5F1"/>
</linearGradient>
<linearGradient id="paint14_linear_1_1292" x1="201.446" y1="362.835" x2="218.69" y2="400.847" gradientUnits="userSpaceOnUse">
<stop stop-color="#8495C7"/>
<stop offset="1" stop-color="#92A2D0"/>
</linearGradient>
<linearGradient id="paint15_linear_1_1292" x1="4.47208" y1="-0.0137766" x2="9.33012" y2="6.16919" gradientUnits="userSpaceOnUse">
<stop stop-color="#8495C7"/>
<stop offset="1" stop-color="#92A2D0"/>
</linearGradient>
<linearGradient id="paint16_linear_1_1292" x1="182.409" y1="331.279" x2="17.5915" y2="331.279" gradientUnits="userSpaceOnUse">
<stop stop-color="#D1D8EF"/>
<stop offset="0.400167" stop-color="#D8E1FB"/>
<stop offset="0.472975" stop-color="#B5BED9"/>
<stop offset="1" stop-color="#B4BDD8"/>
</linearGradient>
<linearGradient id="paint17_linear_1_1292" x1="17.4939" y1="281.435" x2="23.8775" y2="386.242" gradientUnits="userSpaceOnUse">
<stop stop-color="#EDF1FD"/>
<stop offset="1" stop-color="#E1E5F1"/>
</linearGradient>
<linearGradient id="paint18_linear_1_1292" x1="92.4089" y1="286.443" x2="124.137" y2="356.384" gradientUnits="userSpaceOnUse">
<stop stop-color="#8495C7"/>
<stop offset="1" stop-color="#92A2D0"/>
</linearGradient>
<clipPath id="clip0_1_1292">
<rect width="124" height="40" rx="20" transform="matrix(0.866025 0.5 -0.866025 0.5 184.468 215.233)" fill="white"/>
</clipPath>
<clipPath id="clip1_1_1292">
<rect width="159" height="40" rx="20" transform="matrix(0.866025 0.5 -0.866025 0.5 315.054 292.1)" fill="white"/>
</clipPath>
</defs>
</svg>
