<svg width="374" height="96" viewBox="0 0 374 96" fill="none" xmlns="http://www.w3.org/2000/svg">
<path fill-rule="evenodd" clip-rule="evenodd" d="M80 55.6096L79.9106 56.1185L79.9045 56.1475C79.7734 56.9026 79.6484 57.626 79.4949 58.3434C77.8994 65.805 73.7785 71.4347 67.0904 74.8404C58.935 78.9933 50.8323 78.4697 43.1372 73.4571C41.4085 72.331 39.8862 70.8333 38.4126 69.3593C35.063 66.0102 31.7348 62.6393 28.4065 59.2685L28.3852 59.2469C25.7124 56.5394 23.0396 53.8319 20.3557 51.1358C18.6514 49.4243 17.7663 47.4693 18.2033 45.0286C18.5955 42.8351 19.8953 41.33 21.9258 40.3119L21.2612 39.6292C20.7632 39.1156 20.2744 38.612 19.7734 38.122C18.8364 37.2053 18.0874 36.1802 17.7693 34.8722C16.9278 31.4155 18.8049 28.0922 22.1728 27.0837C22.2652 27.056 22.3567 27.025 22.4583 26.9906L22.6362 26.9311C22.3161 24.3108 23.1077 22.1325 25.2297 20.5767C27.3689 19.0092 29.6524 19.0077 31.9096 20.1053C32.0945 19.8614 32.2713 19.6098 32.4472 19.3585L32.4624 19.3349C32.8537 18.7733 33.2429 18.2151 33.7205 17.7512C36.1047 15.4387 39.8354 15.4 42.1931 17.7333C45.0986 20.6086 47.9654 23.5244 50.8313 26.4401C52.0335 27.6628 53.2358 28.8855 54.4411 30.1052C55.7906 31.4709 57.1402 32.836 58.4919 34.1997C58.6077 34.3173 58.7368 34.4225 58.9908 34.4737L58.8293 33.7623C58.7083 33.2297 58.5874 32.6963 58.4624 32.1648C58.2988 31.4709 58.128 30.7786 57.9563 30.0863C57.5955 28.6287 57.2348 27.171 56.9492 25.6985C56.248 22.0899 58.6169 18.5188 62.1311 17.7392C65.7795 16.9298 69.4035 19.113 70.2419 22.7495C71.4187 27.8508 72.9106 32.8401 75.066 37.6079C75.5356 38.6465 76.0335 39.6718 76.5325 40.6971C76.9817 41.6214 77.4309 42.5456 77.8587 43.4796C78.9929 45.9514 79.6413 48.5629 79.9502 51.2964C80 52.7279 80 54.1378 80 55.6096ZM49.3333 37.439C49.9197 38.0325 50.1392 38.7254 49.8913 39.5446C49.6636 40.2959 49.128 40.7107 48.3984 40.8483C47.6524 40.9887 47.063 40.662 46.5406 40.1307C41.2734 34.781 36 29.437 30.7246 24.0958C29.6301 22.987 28.1809 22.9597 27.1392 24.0056C26.122 25.0268 26.1687 26.5391 27.2581 27.6405L43.0935 43.6477C44.0051 44.5695 44.0884 45.7626 43.2967 46.5687C42.501 47.3796 41.3079 47.3298 40.4065 46.4294C39.187 45.2108 37.9776 43.981 36.7652 42.7555L32.4939 38.4407C30.2175 36.1405 27.9421 33.8406 25.6636 31.5433C24.6535 30.5257 23.2724 30.4527 22.2734 31.3387C21.0843 32.3935 21.1016 33.9703 22.3252 35.2066L29.0081 41.9575C32.2297 45.2107 35.4512 48.4638 38.6697 51.7193C39.5711 52.6301 39.6189 53.7758 38.8211 54.5874C38.0274 55.395 36.876 55.3674 35.9868 54.4937C35.3984 53.9159 34.8191 53.3281 34.2398 52.7401L33.4492 51.9374L31.2917 49.7597C29.5833 48.0364 27.875 46.3129 26.1728 44.5843C25.3882 43.7881 24.4766 43.5178 23.4441 43.9303C21.7774 44.5961 21.4116 46.6621 22.7215 47.9989C24.186 49.4934 25.6596 50.9785 27.1341 52.4635C27.936 53.2713 28.7378 54.0791 29.5376 54.8884C30.9207 56.2872 32.3008 57.6897 33.6799 59.0922C36.6169 62.0784 39.5539 65.0645 42.5264 68.0141C48.3841 73.8269 57.5285 75.2968 64.8415 71.6839C75.0457 66.643 79.0996 54.3572 73.8913 44.122C70.6169 37.6875 68.1026 30.9825 66.5752 23.9019C66.4766 23.4456 66.253 22.9811 65.9746 22.6074C65.1311 21.4772 63.6026 21.1509 62.3516 21.7708C61.0112 22.4354 60.4146 23.852 60.7947 25.4374C61.9929 30.4289 63.19 35.4205 64.373 40.4157C64.4563 40.7667 64.502 41.1671 64.4217 41.5103C64.1047 42.8723 62.4238 43.7505 61.0142 42.2931C59.5488 40.7783 58.0671 39.2802 56.5854 37.782L56.5732 37.771L54.9095 36.0871C49.8994 31.0071 44.8892 25.9274 39.878 20.8489C38.7215 19.6767 37.2957 19.6015 36.253 20.6501C35.2063 21.7018 35.2612 23.1635 36.4014 24.3227C38.5061 26.4626 40.6128 28.6001 42.748 30.7657L49.3333 37.439Z" fill="black"/>
<path d="M16 66.5482C16.062 66.4599 16.1209 66.3709 16.1789 66.2831L16.1819 66.2801C16.3902 65.9656 16.5884 65.6659 16.8587 65.4642C17.8506 64.7239 19.2063 65.1814 19.749 66.4238C20.6016 68.3714 21.7388 70.1208 23.19 71.66C25.1382 73.7268 27.438 75.249 30.0864 76.2332C30.878 76.5273 31.31 77.1369 31.3598 77.9766C31.4085 78.7991 31.0234 79.4234 30.3079 79.7991C29.7114 80.1128 29.0965 80.0222 28.4858 79.7796C22.8984 77.5616 18.8425 73.694 16.315 68.1757C16.2419 68.0167 16.1646 67.8601 16.0447 67.6893C16 67.3199 16 66.9638 16 66.5482Z" fill="black"/>
<path d="M34.8374 71.7098C34.8028 70.7484 34.2276 70.114 33 69.7127C31.2154 69.0014 29.6941 67.9807 28.3882 66.625C27.2703 65.4649 26.4258 64.1261 25.7612 62.6555C25.3242 61.6878 24.3567 61.2818 23.3831 61.5997C22.4959 61.8892 21.9461 62.8164 22.1311 63.7861C22.1961 64.1233 22.3526 64.4488 22.503 64.7617C24.5457 69.0088 27.7459 71.9533 32.1494 73.5259C33.5447 74.024 34.8872 73.1025 34.8374 71.7098Z" fill="black"/>
<path d="M107.156 70V61.9062H119.688C122.042 61.9062 123.844 61.4271 125.094 60.4688C126.365 59.4896 127 58.0938 127 56.2812V56.2188C127 55.0312 126.708 54.0208 126.125 53.1875C125.562 52.3542 124.708 51.7292 123.562 51.3125C122.438 50.8958 121.031 50.6875 119.344 50.6875H107.156V43.4375H118.5C120.792 43.4375 122.531 42.9688 123.719 42.0312C124.927 41.0729 125.531 39.75 125.531 38.0625V38C125.531 36.4375 124.979 35.2188 123.875 34.3438C122.771 33.4479 121.26 33 119.344 33H107.156V24.9062H122.406C125.385 24.9062 127.938 25.3646 130.062 26.2812C132.208 27.1979 133.854 28.5 135 30.1875C136.146 31.875 136.719 33.8958 136.719 36.25V36.3125C136.719 38.0208 136.323 39.5729 135.531 40.9688C134.74 42.3646 133.656 43.5208 132.281 44.4375C130.927 45.3333 129.396 45.8958 127.688 46.125V46.3438C129.75 46.4479 131.615 46.9792 133.281 47.9375C134.948 48.875 136.271 50.1354 137.25 51.7188C138.229 53.2812 138.719 55.0521 138.719 57.0312V57.0938C138.719 59.6979 138.073 61.9688 136.781 63.9062C135.49 65.8438 133.667 67.3438 131.312 68.4062C128.958 69.4688 126.167 70 122.938 70H107.156ZM101.406 70V24.9062H112.875V70H101.406ZM159.156 70.7188C155.573 70.7188 152.479 70.0208 149.875 68.625C147.271 67.2292 145.26 65.2083 143.844 62.5625C142.448 59.9167 141.75 56.7292 141.75 53V52.9375C141.75 49.2708 142.469 46.1146 143.906 43.4688C145.344 40.8021 147.365 38.7708 149.969 37.375C152.573 35.9583 155.635 35.25 159.156 35.25C162.698 35.25 165.771 35.9583 168.375 37.375C170.979 38.7708 173 40.7917 174.438 43.4375C175.875 46.0625 176.594 49.2292 176.594 52.9375V53C176.594 56.75 175.885 59.9479 174.469 62.5938C173.052 65.2396 171.042 67.2604 168.438 68.6562C165.854 70.0312 162.76 70.7188 159.156 70.7188ZM159.188 62.3125C160.458 62.3125 161.552 61.9583 162.469 61.25C163.385 60.5208 164.083 59.4583 164.562 58.0625C165.062 56.6667 165.312 54.9792 165.312 53V52.9375C165.312 50.9792 165.052 49.3125 164.531 47.9375C164.031 46.5417 163.323 45.4792 162.406 44.75C161.49 44.0208 160.406 43.6562 159.156 43.6562C157.927 43.6562 156.844 44.0208 155.906 44.75C154.99 45.4792 154.271 46.5417 153.75 47.9375C153.25 49.3125 153 50.9792 153 52.9375V53C153 54.9792 153.25 56.6667 153.75 58.0625C154.25 59.4583 154.958 60.5208 155.875 61.25C156.812 61.9583 157.917 62.3125 159.188 62.3125ZM180.906 70V35.9688H192V41.9688H192.219C193.094 39.8229 194.396 38.1667 196.125 37C197.854 35.8333 200 35.25 202.562 35.25C206.312 35.25 209.198 36.3854 211.219 38.6562C213.26 40.9062 214.281 44.0521 214.281 48.0938V70H203.188V50.4688C203.188 48.5312 202.729 47.0208 201.812 45.9375C200.896 44.8333 199.531 44.2812 197.719 44.2812C196.552 44.2812 195.542 44.5521 194.688 45.0938C193.833 45.6354 193.167 46.3854 192.688 47.3438C192.229 48.3021 192 49.4167 192 50.6875V70H180.906ZM217.594 81.0938C217.073 81.0938 216.49 81.0729 215.844 81.0312C215.177 81.0104 214.677 80.9792 214.344 80.9375V72.9688C214.531 72.9896 214.74 73 214.969 73C215.198 73.0208 215.427 73.0312 215.656 73.0312C217.031 73.0312 218.021 72.7917 218.625 72.3125C219.25 71.8333 219.562 71.0312 219.562 69.9062V35.9688H230.625V70.3438C230.625 73.8021 229.5 76.4583 227.25 78.3125C225 80.1667 221.781 81.0938 217.594 81.0938ZM225.094 32.3125C223.51 32.3125 222.167 31.7708 221.062 30.6875C219.979 29.6042 219.438 28.3229 219.438 26.8438C219.438 25.3438 219.979 24.0625 221.062 23C222.167 21.9167 223.51 21.375 225.094 21.375C226.698 21.375 228.042 21.9167 229.125 23C230.208 24.0625 230.75 25.3438 230.75 26.8438C230.75 28.3229 230.208 29.6042 229.125 30.6875C228.042 31.7708 226.698 32.3125 225.094 32.3125ZM252.406 70.7188C248.823 70.7188 245.729 70.0208 243.125 68.625C240.521 67.2292 238.51 65.2083 237.094 62.5625C235.698 59.9167 235 56.7292 235 53V52.9375C235 49.2708 235.719 46.1146 237.156 43.4688C238.594 40.8021 240.615 38.7708 243.219 37.375C245.823 35.9583 248.885 35.25 252.406 35.25C255.948 35.25 259.021 35.9583 261.625 37.375C264.229 38.7708 266.25 40.7917 267.688 43.4375C269.125 46.0625 269.844 49.2292 269.844 52.9375V53C269.844 56.75 269.135 59.9479 267.719 62.5938C266.302 65.2396 264.292 67.2604 261.688 68.6562C259.104 70.0312 256.01 70.7188 252.406 70.7188ZM252.438 62.3125C253.708 62.3125 254.802 61.9583 255.719 61.25C256.635 60.5208 257.333 59.4583 257.812 58.0625C258.312 56.6667 258.562 54.9792 258.562 53V52.9375C258.562 50.9792 258.302 49.3125 257.781 47.9375C257.281 46.5417 256.573 45.4792 255.656 44.75C254.74 44.0208 253.656 43.6562 252.406 43.6562C251.177 43.6562 250.094 44.0208 249.156 44.75C248.24 45.4792 247.521 46.5417 247 47.9375C246.5 49.3125 246.25 50.9792 246.25 52.9375V53C246.25 54.9792 246.5 56.6667 247 58.0625C247.5 59.4583 248.208 60.5208 249.125 61.25C250.062 61.9583 251.167 62.3125 252.438 62.3125ZM285.719 70.7188C283.24 70.7188 281.125 70.2083 279.375 69.1875C277.625 68.1667 276.292 66.6979 275.375 64.7812C274.458 62.8646 274 60.5625 274 57.875V35.9688H285.094V55.5C285.094 57.4375 285.552 58.9583 286.469 60.0625C287.385 61.1458 288.75 61.6875 290.562 61.6875C291.438 61.6875 292.229 61.5312 292.938 61.2188C293.646 60.9062 294.25 60.4688 294.75 59.9062C295.25 59.3438 295.625 58.6667 295.875 57.875C296.146 57.0833 296.281 56.2188 296.281 55.2812V35.9688H307.375V70H296.281V64H296.062C295.479 65.4167 294.708 66.6354 293.75 67.6562C292.792 68.6562 291.646 69.4167 290.312 69.9375C288.979 70.4583 287.448 70.7188 285.719 70.7188ZM312.719 70V35.9688H323.812V42H324.031C324.51 39.8333 325.396 38.1667 326.688 37C328 35.8333 329.667 35.25 331.688 35.25C332.208 35.25 332.708 35.2917 333.188 35.375C333.688 35.4375 334.146 35.5417 334.562 35.6875V45.1875C334.104 44.9792 333.562 44.8229 332.938 44.7188C332.333 44.6146 331.698 44.5625 331.031 44.5625C329.469 44.5625 328.146 44.8438 327.062 45.4062C326 45.9688 325.188 46.8021 324.625 47.9062C324.083 48.9896 323.812 50.3333 323.812 51.9375V70H312.719ZM341.5 54.75L340.531 24.9062H351.906L350.969 54.75H341.5ZM346.219 70.4062C344.594 70.4062 343.198 69.8646 342.031 68.7812C340.865 67.6979 340.281 66.3646 340.281 64.7812C340.281 63.2188 340.865 61.8958 342.031 60.8125C343.198 59.7292 344.594 59.1875 346.219 59.1875C347.844 59.1875 349.229 59.7292 350.375 60.8125C351.542 61.8958 352.125 63.2188 352.125 64.7812C352.125 66.3646 351.542 67.6979 350.375 68.7812C349.229 69.8646 347.844 70.4062 346.219 70.4062Z" fill="black"/>
</svg>
