<svg width="229" height="229" viewBox="0 0 229 229" fill="none" xmlns="http://www.w3.org/2000/svg">
<g clip-path="url(#clip0_2002_2)">
<path d="M114.788 85.0601C133.835 85.0601 149.273 100.918 149.273 120.483C149.273 140.047 133.835 155.909 114.788 155.909C95.741 155.909 80.3022 140.051 80.3022 120.487C80.3022 100.922 95.741 85.0601 114.788 85.0601ZM126.284 120.483C126.284 113.96 121.138 108.674 114.788 108.674C108.438 108.674 103.291 113.96 103.291 120.483C103.291 127.006 108.438 132.292 114.788 132.292C121.138 132.292 126.284 127.006 126.284 120.483Z" fill="#7B50C2"/>
<path d="M51.563 191.332C48.3897 191.332 45.8166 188.689 45.8166 185.429V149.416C30.2628 146.171 20.2111 130.59 23.37 114.613C25.6664 102.997 34.507 93.9158 45.8166 91.557V67.3487C45.813 65.7836 46.4167 64.2775 47.4949 63.1701L70.4877 39.5524C71.5694 38.445 73.032 37.8249 74.5558 37.8286L155.027 37.8286C156.551 37.8249 158.017 38.445 159.095 39.5524L182.088 63.1701C183.166 64.2812 183.77 65.7836 183.766 67.3487V91.557C199.32 94.8017 209.372 110.383 206.213 126.36C203.916 137.976 195.076 147.057 183.766 149.416V185.429C183.766 188.689 181.193 191.332 178.02 191.332H51.563ZM114.788 73.2513C89.3908 73.2513 68.8058 94.3993 68.8058 120.483C68.8058 146.566 89.3908 167.718 114.788 167.718C140.185 167.718 160.77 146.57 160.77 120.487C160.77 94.403 140.185 73.2513 114.788 73.2513Z" fill="#7B50C2"/>
</g>
<defs>
<clipPath id="clip0_2002_2">
<rect width="184" height="189" fill="white" transform="translate(22.7878 19.8957)"/>
</clipPath>
</defs>
</svg>
