<svg width="231" height="231" viewBox="0 0 231 231" fill="none" xmlns="http://www.w3.org/2000/svg">
<g clip-path="url(#clip0_1_2)">
<path d="M115.415 85.7807C134.462 85.7807 149.9 101.639 149.9 121.203C149.9 140.768 134.462 156.63 115.415 156.63C96.3678 156.63 80.9291 140.772 80.9291 121.207C80.9291 101.643 96.3678 85.7807 115.415 85.7807ZM126.911 121.203C126.911 114.681 121.765 109.395 115.415 109.395C109.065 109.395 103.918 114.681 103.918 121.203C103.918 127.726 109.065 133.012 115.415 133.012C121.765 133.012 126.911 127.726 126.911 121.203Z" fill="#7B50C2"/>
<path d="M52.1898 192.053C49.0165 192.053 46.4434 189.41 46.4434 186.15V150.137C30.8897 146.892 20.8379 131.31 23.9969 115.334C26.2933 103.717 35.1339 94.6364 46.4434 92.2776V68.0693C46.4398 66.5042 47.0436 64.9981 48.1217 63.8906L71.1145 40.273C72.1962 39.1656 73.6589 38.5454 75.1826 38.5491L155.654 38.5491C157.178 38.5454 158.644 39.1656 159.722 40.273L182.715 63.8906C183.793 65.0018 184.397 66.5042 184.393 68.0693V92.2776C199.947 95.5223 209.999 111.104 206.84 127.08C204.543 138.697 195.703 147.778 184.393 150.137V186.15C184.393 189.41 181.82 192.053 178.647 192.053H52.1898ZM115.415 73.9719C90.0176 73.9719 69.4326 95.1199 69.4326 121.203C69.4326 147.287 90.0176 168.439 115.415 168.439C140.812 168.439 161.397 147.291 161.397 121.207C161.397 95.1236 140.812 73.9719 115.415 73.9719Z" fill="#7B50C2"/>
</g>
<defs>
<clipPath id="clip0_1_2">
<rect width="184" height="189" fill="white" transform="translate(23.4147 20.6163)"/>
</clipPath>
</defs>
</svg>
