<svg width="185" height="190" viewBox="0 0 185 190" fill="none" xmlns="http://www.w3.org/2000/svg">
<g clip-path="url(#clip0_1_3)">
<path d="M92.7878 66.0601C111.835 66.0601 127.273 81.9184 127.273 101.483C127.273 121.047 111.835 136.909 92.7878 136.909C73.741 136.909 58.3022 121.051 58.3022 101.487C58.3022 81.9221 73.741 66.0601 92.7878 66.0601ZM104.284 101.483C104.284 94.9601 99.138 89.674 92.7878 89.674C86.4377 89.674 81.2914 94.9601 81.2914 101.483C81.2914 108.006 86.4377 113.292 92.7878 113.292C99.138 113.292 104.284 108.006 104.284 101.483Z" fill="#7B50C2"/>
<path d="M29.563 172.332C26.3897 172.332 23.8166 169.689 23.8166 166.429V130.416C8.26283 127.171 -1.78889 111.59 1.37002 95.6135C3.66643 83.9966 12.5071 74.9158 23.8166 72.557V48.3487C23.813 46.7836 24.4167 45.2775 25.4949 44.1701L48.4877 20.5524C49.5694 19.445 51.0321 18.8249 52.5558 18.8286L133.027 18.8286C134.551 18.8249 136.017 19.445 137.095 20.5524L160.088 44.1701C161.166 45.2812 161.77 46.7836 161.766 48.3487V72.557C177.32 75.8017 187.372 91.3831 184.213 107.36C181.916 118.976 173.076 128.057 161.766 130.416V166.429C161.766 169.689 159.193 172.332 156.02 172.332H29.563ZM92.7878 54.2513C67.3908 54.2513 46.8058 75.3993 46.8058 101.483C46.8058 127.566 67.3908 148.718 92.7878 148.718C118.185 148.718 138.77 127.57 138.77 101.487C138.77 75.403 118.185 54.2513 92.7878 54.2513Z" fill="#7B50C2"/>
</g>
<defs>
<clipPath id="clip0_1_3">
<rect width="184" height="189" fill="white" transform="translate(0.787842 0.895706)"/>
</clipPath>
</defs>
</svg>
