<?xml version="1.0" encoding="utf-8"?>
<!-- Generator: Adobe Illustrator 27.5.0, SVG Export Plug-In . SVG Version: 6.00 Build 0)  -->
<svg version="1.1" id="Layer_1" xmlns="http://www.w3.org/2000/svg" xmlns:xlink="http://www.w3.org/1999/xlink" x="0px" y="0px"
	 viewBox="0 0 512 512" style="enable-background:new 0 0 512 512;" xml:space="preserve">
<g>
	<path d="M256,176.53c53,0,95.96,42.96,95.96,95.96S309,368.46,256,368.46s-95.96-42.96-95.96-95.96S203,176.53,256,176.53z
		 M287.99,272.49c0-17.67-14.32-31.99-31.99-31.99s-31.99,14.32-31.99,31.99s14.32,31.99,31.99,31.99S287.99,290.16,287.99,272.49z"
		/>
	<path d="M80.07,464.42c-8.83,0-15.99-7.16-15.99-15.99v-97.56c-43.28-8.79-71.25-51-62.46-94.28
		c6.39-31.47,30.99-56.07,62.46-62.46v-65.58c-0.01-4.24,1.67-8.32,4.67-11.32l63.98-63.98c3.01-3,7.08-4.68,11.32-4.67h223.92
		c4.24-0.01,8.32,1.67,11.32,4.67l63.98,63.98c3,3.01,4.68,7.08,4.67,11.32v65.58c43.28,8.79,71.25,51,62.46,94.28
		c-6.39,31.47-30.99,56.07-62.46,62.46v97.56c0,8.83-7.16,15.99-15.99,15.99L80.07,464.42z M256,144.54
		c-70.67,0-127.95,57.29-127.95,127.95S185.33,400.45,256,400.45s127.95-57.29,127.95-127.95S326.67,144.54,256,144.54z"/>
</g>
</svg>
