<svg xmlns="http://www.w3.org/2000/svg" xmlns:xlink="http://www.w3.org/1999/xlink" width="365" zoomAndPan="magnify" viewBox="0 0 273.75 267.749983" height="357" preserveAspectRatio="xMidYMid meet" version="1.0"><defs><g/><clipPath id="ad4577a165"><path d="M 44.265625 142 L 89.632812 142 L 89.632812 155 L 44.265625 155 Z M 44.265625 142 " clip-rule="nonzero"/></clipPath><clipPath id="961bd588a9"><rect x="0" width="90" y="0" height="169"/></clipPath><clipPath id="1867564bf1"><path d="M 44.046875 142 L 89.59375 142 L 89.59375 155 L 44.046875 155 Z M 44.046875 142 " clip-rule="nonzero"/></clipPath><clipPath id="8c8d9c961f"><rect x="0" width="90" y="0" height="169"/></clipPath></defs><g transform="matrix(1, 0, 0, 1, 136, 49)"><g clip-path="url(#961bd588a9)"><g clip-path="url(#ad4577a165)"><path fill="#c1ff72" d="M 0.5 142.199219 L 89.335938 142.199219 L 89.335938 154.351562 L 0.5 154.351562 Z M 0.5 142.199219 " fill-opacity="1" fill-rule="nonzero"/></g><g fill="#c1ff72" fill-opacity="1"><g transform="translate(0.498437, 134.096748)"><g><path d="M 8.484375 28.71875 L 8.484375 -76.59375 L 29.421875 -76.59375 L 29.421875 -63.734375 L 30.375 -63.734375 C 31.332031 -65.828125 32.691406 -67.9375 34.453125 -70.0625 C 36.210938 -72.1875 38.539062 -73.972656 41.4375 -75.421875 C 44.332031 -76.867188 47.90625 -77.59375 52.15625 -77.59375 C 57.78125 -77.59375 62.9375 -76.132812 67.625 -73.21875 C 72.3125 -70.3125 76.070312 -65.941406 78.90625 -60.109375 C 81.75 -54.273438 83.171875 -46.972656 83.171875 -38.203125 C 83.171875 -29.648438 81.789062 -22.441406 79.03125 -16.578125 C 76.269531 -10.710938 72.546875 -6.273438 67.859375 -3.265625 C 63.179688 -0.253906 57.929688 1.25 52.109375 1.25 C 47.984375 1.25 44.484375 0.566406 41.609375 -0.796875 C 38.734375 -2.160156 36.390625 -3.878906 34.578125 -5.953125 C 32.765625 -8.035156 31.363281 -10.140625 30.375 -12.265625 L 29.71875 -12.265625 L 29.71875 28.71875 Z M 29.265625 -38.296875 C 29.265625 -31.484375 30.671875 -26.003906 33.484375 -21.859375 C 36.296875 -17.722656 40.257812 -15.65625 45.375 -15.65625 C 50.59375 -15.65625 54.582031 -17.757812 57.34375 -21.96875 C 60.101562 -26.175781 61.484375 -31.617188 61.484375 -38.296875 C 61.484375 -44.941406 60.109375 -50.332031 57.359375 -54.46875 C 54.617188 -58.613281 50.625 -60.6875 45.375 -60.6875 C 40.226562 -60.6875 36.253906 -58.664062 33.453125 -54.625 C 30.660156 -50.582031 29.265625 -45.140625 29.265625 -38.296875 Z M 29.265625 -38.296875 "/></g></g></g></g></g><g transform="matrix(1, 0, 0, 1, 49, 49)"><g clip-path="url(#8c8d9c961f)"><g clip-path="url(#1867564bf1)"><path fill="#c1ff72" d="M 0.28125 142.199219 L 89.117188 142.199219 L 89.117188 154.351562 L 0.28125 154.351562 Z M 0.28125 142.199219 " fill-opacity="1" fill-rule="nonzero"/></g><g fill="#c1ff72" fill-opacity="1"><g transform="translate(0.280113, 134.096748)"><g><path d="M 8.484375 28.71875 L 8.484375 -76.59375 L 29.421875 -76.59375 L 29.421875 -63.734375 L 30.375 -63.734375 C 31.332031 -65.828125 32.691406 -67.9375 34.453125 -70.0625 C 36.210938 -72.1875 38.539062 -73.972656 41.4375 -75.421875 C 44.332031 -76.867188 47.90625 -77.59375 52.15625 -77.59375 C 57.78125 -77.59375 62.9375 -76.132812 67.625 -73.21875 C 72.3125 -70.3125 76.070312 -65.941406 78.90625 -60.109375 C 81.75 -54.273438 83.171875 -46.972656 83.171875 -38.203125 C 83.171875 -29.648438 81.789062 -22.441406 79.03125 -16.578125 C 76.269531 -10.710938 72.546875 -6.273438 67.859375 -3.265625 C 63.179688 -0.253906 57.929688 1.25 52.109375 1.25 C 47.984375 1.25 44.484375 0.566406 41.609375 -0.796875 C 38.734375 -2.160156 36.390625 -3.878906 34.578125 -5.953125 C 32.765625 -8.035156 31.363281 -10.140625 30.375 -12.265625 L 29.71875 -12.265625 L 29.71875 28.71875 Z M 29.265625 -38.296875 C 29.265625 -31.484375 30.671875 -26.003906 33.484375 -21.859375 C 36.296875 -17.722656 40.257812 -15.65625 45.375 -15.65625 C 50.59375 -15.65625 54.582031 -17.757812 57.34375 -21.96875 C 60.101562 -26.175781 61.484375 -31.617188 61.484375 -38.296875 C 61.484375 -44.941406 60.109375 -50.332031 57.359375 -54.46875 C 54.617188 -58.613281 50.625 -60.6875 45.375 -60.6875 C 40.226562 -60.6875 36.253906 -58.664062 33.453125 -54.625 C 30.660156 -50.582031 29.265625 -45.140625 29.265625 -38.296875 Z M 29.265625 -38.296875 "/></g></g></g></g></g></svg>