<svg viewBox="600 100 850 400" xmlns="http://www.w3.org/2000/svg">
  <path d="M686.1 210.3c-4.1 9.4-13.8 31.6-21.6 49.2C625.8 346.6 620 359.9 620 361c0 .7 2.1 1 6.2.8l6.2-.3 10.2-23.5 10.1-23.5 48-.3 48-.2 3.6 8.2c2 4.6 6.7 15.3 10.5 23.8l6.8 15.5 6.2.3c4.7.2 6.2 0 6.2-1 0-.8-4.2-10.8-9.4-22.3-5.1-11.6-12.5-28.2-16.4-37-7.1-16.1-44.8-100.6-47.2-105.8-1.3-2.6-1.6-2.7-8.4-2.7l-7.1.1zm22.9 12.9c4 9.5 13.4 30.8 20.7 47.3S743 301 743 301.7c0 1-8.7 1.3-42.5 1.3-23.4 0-42.5-.2-42.5-.5s5.1-12.1 11.4-26.2c11.3-25.8 26.7-60.9 29.3-67.1.7-1.7 1.7-3.2 2.1-3.2s4.1 7.8 8.2 17.2m106 54.4v84.5l45.8-.3c44-.4 46-.5 53.2-2.7 9.7-2.9 16.3-6.5 22-12.1 16.1-15.7 15.3-44.5-1.8-60.1-5.2-4.7-15.9-10.9-18.9-10.9-2.7 0-1.1-2 3.4-4.2 11.2-5.5 19.8-18.3 21-31.1 1.7-18.2-6.8-33.4-23-41.2-12.1-5.7-19.5-6.5-63.3-6.5H815zm87.5-72.1c16.5 4.3 26.7 18.1 25.2 34.1-1.2 12-7.6 21.1-18.8 26.3-9.5 4.5-16.8 5.2-50.9 4.9l-30.5-.3-.3-33.3-.2-33.2h34.8c28.1 0 35.9.3 40.7 1.5m.8 77c18.4 3.9 30.3 16.2 31.5 32.6 1.2 17.4-9 30.4-27.2 34.4-5.9 1.3-13.4 1.5-43.6 1.3l-36.5-.3-.3-33.5c-.1-18.4 0-34.1.3-34.7.7-2 66.5-1.8 75.8.2m88.6-61.3c0 15.6-.1 53.5-.2 84.3l-.2 56 5.8.3 5.7.3.2-70.6c.2-38.8.3-76.7.3-84.3v-13.7l-5.7-.3-5.8-.3zm46.1-22.7v5.5h60v158h12V204l30.8-.2 30.7-.3v-10l-66.7-.3-66.8-.2zm196.7-4.8c-.5.7-5.4 12-21.4 48.3-15.4 35.1-27.9 63.3-39.5 89.4-7 15.9-12.8 29.3-12.8 29.7 0 .5 2.8.9 6.3.9h6.4l4.8-11.3c2.6-6.1 7.2-16.8 10.1-23.7l5.2-12.5 48.1-.3 48.1-.2 1.5 3.2c.8 1.8 5.5 12.5 10.4 23.8l8.9 20.5 6.6.3c3.7.2 6.6-.1 6.6-.7 0-.5-6.5-15.2-14.4-32.8-17.1-38-40.2-89.5-51.9-115.8l-8.4-19-7.1-.3c-3.8-.2-7.2.1-7.5.5m23.1 47c8.3 19.2 17.8 40.8 21.2 48.2 3.3 7.4 6 13.5 6 13.7s-19.2.4-42.6.4h-42.6l.6-2.5c.6-2.2 7.8-19 14.8-34.4 3-6.6 23.3-53.2 24.7-56.9.8-1.7 1.7-3.2 2.1-3.2.3 0 7.5 15.6 15.8 34.7m53.2-42.2v5.5h62v158h12l.2-78.8.3-78.7 31.3-.3 31.2-.2v-11h-137z" fill="#000000"/>
</svg>