<svg width="167" height="167" viewBox="0 0 167 167" fill="none" xmlns="http://www.w3.org/2000/svg">
<circle cx="83.0958" cy="83.0958" r="81.7447" stroke="#CDD0C3" stroke-width="2.7023"/>
<rect x="81.7446" y="12.8359" width="3.37788" height="24.9963" fill="#A1A3A5"/>
<rect x="81.7446" y="127.684" width="3.37788" height="24.9963" fill="#A1A3A5"/>
<circle cx="82.7582" cy="82.7581" r="46.277" fill="#CDD0C3"/>
<path fill-rule="evenodd" clip-rule="evenodd" d="M83.096 52.6949C81.9767 52.6949 81.0693 53.6023 81.0693 54.7217V58.1565C68.2385 59.0244 58.0997 69.7072 58.0997 82.7581C58.0997 86.4066 58.8921 89.8701 60.3142 92.9858L57.2957 94.7286C56.3263 95.2882 55.9942 96.5278 56.5539 97.4971C57.1135 98.4665 58.353 98.7986 59.3224 98.239L62.2957 96.5223C66.725 103.094 74.2368 107.417 82.7582 107.417C91.0364 107.417 98.3619 103.337 102.834 97.0792L105.856 98.824C106.826 99.3837 108.065 99.0516 108.625 98.0822C109.184 97.1128 108.852 95.8733 107.883 95.3136L104.912 93.5985C106.516 90.3268 107.417 86.6476 107.417 82.7581C107.417 69.9371 97.632 59.4015 85.1227 58.2115V54.7217C85.1227 53.6023 84.2153 52.6949 83.096 52.6949ZM82.7582 87.1966C80.3069 87.1966 78.3197 85.2094 78.3197 82.7581C78.3197 80.3067 80.3069 78.3195 82.7582 78.3195C85.2095 78.3195 87.1967 80.3067 87.1967 82.7581C87.1967 85.2094 85.2095 87.1966 82.7582 87.1966Z" fill="black"/>
</svg>
