<svg xmlns="http://www.w3.org/2000/svg" xmlns:xlink="http://www.w3.org/1999/xlink" width="480" zoomAndPan="magnify" viewBox="0 0 360 354.749987" height="473" preserveAspectRatio="xMidYMid meet" version="1.0"><defs><g/><clipPath id="91b2729f11"><path d="M 0.125 0 L 359.871094 0 L 359.871094 354.5 L 0.125 354.5 Z M 0.125 0 " clip-rule="nonzero"/></clipPath><clipPath id="704ec08fbd"><path d="M 13.742188 12 L 359.871094 12 L 359.871094 269.808594 L 13.742188 269.808594 Z M 13.742188 12 " clip-rule="nonzero"/></clipPath><clipPath id="2e3935e60a"><rect x="0" width="157" y="0" height="43"/></clipPath><clipPath id="60bee77074"><rect x="0" width="285" y="0" height="61"/></clipPath></defs><g clip-path="url(#91b2729f11)"><path fill="#ffffff" d="M 0.125 0 L 359.875 0 L 359.875 354.5 L 0.125 354.5 Z M 0.125 0 " fill-opacity="1" fill-rule="nonzero"/></g><path fill="#faf9f3" d="M 275.898438 261.339844 C 266.886719 260.007812 257.984375 258.144531 249.191406 255.746094 C 237.207031 242.417969 224.367188 229.972656 210.675781 218.402344 C 196.984375 206.835938 182.570312 196.253906 167.433594 186.65625 C 151.289062 176.511719 134.5 167.585938 117.0625 159.875 C 99.625 152.164062 81.722656 145.753906 63.355469 140.640625 C 58.457031 135.238281 53.875 129.738281 49.640625 124.207031 C 72.277344 120.191406 94.539062 114.664062 116.425781 107.628906 C 138.3125 100.589844 159.625 92.105469 180.359375 82.171875 C 192.082031 76.546875 203.777344 70.320312 215.125 63.746094 L 217.589844 62.292969 C 256.179688 39.695312 282.503906 24.492188 307.789062 0 C 290.375 31.097656 283.707031 61.21875 274.886719 105.464844 C 273.023438 115.988281 271.191406 126.703125 269.863281 137.324219 C 267.613281 158.019531 266.984375 178.765625 267.976562 199.5625 C 268.96875 220.359375 271.566406 240.949219 275.773438 261.339844 " fill-opacity="1" fill-rule="nonzero"/><g clip-path="url(#704ec08fbd)"><path fill="#faf9f3" d="M 298.117188 269.808594 C 291.769531 269.78125 285.449219 269.371094 279.15625 268.578125 C 268.164062 267.191406 257.335938 265.007812 246.664062 262.035156 C 227.863281 256.605469 209.566406 249.8125 191.777344 241.660156 C 173.984375 233.511719 156.894531 224.089844 140.503906 213.394531 C 110.367188 194.429688 83.175781 171.90625 58.933594 145.824219 C 52.699219 139.011719 46.839844 131.890625 41.359375 124.460938 C 14.339844 87.796875 6.941406 55.910156 20.46875 34.765625 C 44.300781 -2.65625 128.179688 7.269531 215.535156 57.742188 C 221.570312 61.21875 227.480469 64.820312 233.105469 68.425781 C 249.605469 78.980469 265.34375 90.570312 280.324219 103.191406 C 344.386719 157.203125 373.652344 215.101562 353.015625 247.242188 C 343.535156 262.097656 324.316406 269.9375 298.023438 269.9375 M 75.210938 19.785156 C 52.421875 19.785156 35.230469 26.105469 26.980469 38.746094 C 15.445312 56.886719 22.964844 86.4375 47.585938 119.875 C 52.90625 127.089844 58.59375 134.003906 64.652344 140.609375 C 88.425781 166.230469 115.101562 188.355469 144.675781 206.980469 C 160.726562 217.441406 177.460938 226.664062 194.882812 234.640625 C 212.300781 242.617188 230.214844 249.261719 248.625 254.578125 C 258.941406 257.445312 269.414062 259.554688 280.039062 260.898438 C 313.003906 264.941406 336.644531 258.558594 346.597656 242.945312 C 364.675781 214.5 335.347656 159.574219 275.332031 108.972656 C 260.625 96.589844 245.160156 85.242188 228.933594 74.933594 C 223.402344 71.394531 217.621094 67.855469 211.679688 64.441406 C 161.109375 35.300781 111.238281 19.785156 75.210938 19.785156 " fill-opacity="1" fill-rule="nonzero"/></g><g transform="matrix(1, 0, 0, 1, 12, 233)"><g clip-path="url(#2e3935e60a)"><g fill="#faf9f3" fill-opacity="1"><g transform="translate(1.726002, 33.684736)"><g><path d="M 24.546875 -18.59375 L 23.296875 -18.59375 C 23.222656 -20.039062 22.976562 -21.242188 22.5625 -22.203125 C 22.15625 -23.171875 21.675781 -23.742188 21.125 -23.921875 C 20.570312 -24.097656 19.457031 -24.1875 17.78125 -24.1875 L 16.6875 -24.1875 L 11.9375 -3.609375 C 11.875 -3.347656 11.84375 -3.140625 11.84375 -2.984375 C 11.84375 -2.378906 12.113281 -1.96875 12.65625 -1.75 C 13.195312 -1.53125 14.128906 -1.34375 15.453125 -1.1875 L 15.171875 0 L 3.125 0 L 3.421875 -1.1875 C 5.210938 -1.320312 6.375 -1.519531 6.90625 -1.78125 C 7.445312 -2.050781 7.835938 -2.613281 8.078125 -3.46875 L 12.859375 -24.1875 L 11.90625 -24.1875 C 10.1875 -24.1875 9.035156 -24.09375 8.453125 -23.90625 C 7.867188 -23.71875 7.070312 -23.078125 6.0625 -21.984375 C 5.0625 -20.898438 4.242188 -19.769531 3.609375 -18.59375 L 2.3125 -18.59375 L 3.9375 -25.5 L 26.140625 -25.5 Z M 24.546875 -18.59375 "/></g></g></g><g fill="#faf9f3" fill-opacity="1"><g transform="translate(26.08853, 33.684736)"><g><path d="M 19.390625 -0.921875 C 17.398438 -0.117188 15.957031 0.28125 15.0625 0.28125 C 13.144531 0.28125 12.1875 -0.570312 12.1875 -2.28125 C 12.1875 -2.894531 12.28125 -3.5625 12.46875 -4.28125 L 14.25 -10.96875 C 14.539062 -12.039062 14.6875 -12.847656 14.6875 -13.390625 C 14.6875 -15.140625 13.925781 -16.015625 12.40625 -16.015625 C 10.78125 -16.015625 9.101562 -15.066406 7.375 -13.171875 L 4.34375 0 L 0.984375 0 L 6.328125 -23.109375 C 6.484375 -23.785156 6.5625 -24.234375 6.5625 -24.453125 C 6.5625 -25.015625 6.421875 -25.4375 6.140625 -25.71875 C 5.859375 -26.007812 5.015625 -26.207031 3.609375 -26.3125 L 3.828125 -27.421875 L 10.53125 -27.828125 L 10.71875 -27.578125 L 7.796875 -15.140625 L 7.875 -15.140625 C 9.46875 -16.378906 10.71875 -17.191406 11.625 -17.578125 C 12.539062 -17.960938 13.5 -18.15625 14.5 -18.15625 C 15.65625 -18.15625 16.554688 -17.820312 17.203125 -17.15625 C 17.859375 -16.5 18.1875 -15.628906 18.1875 -14.546875 C 18.1875 -13.679688 18.035156 -12.742188 17.734375 -11.734375 L 16.234375 -5.96875 C 15.941406 -4.863281 15.796875 -4.039062 15.796875 -3.5 C 15.796875 -2.820312 15.941406 -2.351562 16.234375 -2.09375 C 16.535156 -1.84375 17.023438 -1.71875 17.703125 -1.71875 C 18.273438 -1.71875 18.929688 -1.847656 19.671875 -2.109375 Z M 19.390625 -0.921875 "/></g></g></g><g fill="#faf9f3" fill-opacity="1"><g transform="translate(48.383983, 33.684736)"><g><path d="M 4.8125 -7.328125 C 4.8125 -3.453125 6.191406 -1.515625 8.953125 -1.515625 C 11.085938 -1.515625 13.046875 -2.707031 14.828125 -5.09375 L 15.875 -4.3125 C 14.882812 -2.8125 13.660156 -1.628906 12.203125 -0.765625 C 10.753906 0.0859375 9.273438 0.515625 7.765625 0.515625 C 5.671875 0.515625 4.0625 -0.0703125 2.9375 -1.25 C 1.820312 -2.4375 1.265625 -4.128906 1.265625 -6.328125 C 1.265625 -9.492188 2.242188 -12.253906 4.203125 -14.609375 C 6.171875 -16.972656 8.625 -18.15625 11.5625 -18.15625 C 13.175781 -18.15625 14.425781 -17.820312 15.3125 -17.15625 C 16.195312 -16.5 16.640625 -15.578125 16.640625 -14.390625 C 16.640625 -12.335938 15.617188 -10.765625 13.578125 -9.671875 C 11.546875 -8.578125 8.625 -7.796875 4.8125 -7.328125 Z M 4.921875 -8.578125 C 8.234375 -8.984375 10.457031 -9.710938 11.59375 -10.765625 C 12.738281 -11.816406 13.3125 -13.171875 13.3125 -14.828125 C 13.3125 -16.179688 12.617188 -16.859375 11.234375 -16.859375 C 9.804688 -16.859375 8.476562 -16.082031 7.25 -14.53125 C 6.03125 -12.988281 5.253906 -11.003906 4.921875 -8.578125 Z M 4.921875 -8.578125 "/></g></g></g><g fill="#faf9f3" fill-opacity="1"><g transform="translate(67.336122, 33.684736)"><g/></g></g><g fill="#faf9f3" fill-opacity="1"><g transform="translate(77.78619, 33.684736)"><g><path d="M 19.46875 0 L -0.453125 0 L -0.1875 -1.1875 C 1.46875 -1.28125 2.5 -1.503906 2.90625 -1.859375 C 3.3125 -2.222656 3.59375 -2.726562 3.75 -3.375 L 7.984375 -21.828125 C 8.066406 -22.191406 8.109375 -22.410156 8.109375 -22.484375 C 8.109375 -23.421875 7.125 -24.039062 5.15625 -24.34375 L 5.40625 -25.5 L 16.203125 -25.5 L 15.9375 -24.34375 C 14.6875 -24.238281 13.753906 -24.050781 13.140625 -23.78125 C 12.535156 -23.507812 12.101562 -22.921875 11.84375 -22.015625 L 7.875 -4.671875 C 7.675781 -3.835938 7.578125 -3.210938 7.578125 -2.796875 C 7.578125 -2.203125 7.796875 -1.804688 8.234375 -1.609375 C 8.671875 -1.421875 9.695312 -1.328125 11.3125 -1.328125 C 12.59375 -1.328125 13.625 -1.410156 14.40625 -1.578125 C 15.1875 -1.742188 15.75 -1.957031 16.09375 -2.21875 C 16.445312 -2.488281 17.117188 -3.222656 18.109375 -4.421875 C 19.109375 -5.617188 19.910156 -6.671875 20.515625 -7.578125 L 21.75 -7.578125 Z M 19.46875 0 "/></g></g></g><g fill="#faf9f3" fill-opacity="1"><g transform="translate(101.591519, 33.684736)"><g><path d="M 19.734375 -0.921875 C 17.828125 -0.117188 16.378906 0.28125 15.390625 0.28125 C 14.535156 0.28125 13.847656 0.03125 13.328125 -0.46875 C 12.804688 -0.96875 12.535156 -1.597656 12.515625 -2.359375 L 12.359375 -2.359375 C 10.242188 -0.441406 8.40625 0.515625 6.84375 0.515625 C 5.101562 0.515625 3.738281 -0.101562 2.75 -1.34375 C 1.757812 -2.582031 1.265625 -4.289062 1.265625 -6.46875 C 1.265625 -9.488281 2.300781 -12.191406 4.375 -14.578125 C 6.457031 -16.960938 8.851562 -18.15625 11.5625 -18.15625 C 13.195312 -18.15625 14.617188 -17.769531 15.828125 -17 L 19.140625 -17.84375 L 19.328125 -17.59375 L 16.609375 -6 C 16.304688 -4.71875 16.15625 -3.875 16.15625 -3.46875 C 16.15625 -2.78125 16.300781 -2.316406 16.59375 -2.078125 C 16.894531 -1.835938 17.378906 -1.71875 18.046875 -1.71875 C 18.691406 -1.71875 19.335938 -1.832031 19.984375 -2.0625 Z M 15.09375 -13.734375 C 15.207031 -14.210938 15.039062 -14.851562 14.59375 -15.65625 C 14.15625 -16.457031 13.238281 -16.859375 11.84375 -16.859375 C 10.09375 -16.859375 8.507812 -15.796875 7.09375 -13.671875 C 5.675781 -11.546875 4.96875 -9.132812 4.96875 -6.4375 C 4.96875 -4.664062 5.226562 -3.398438 5.75 -2.640625 C 6.28125 -1.890625 7.101562 -1.515625 8.21875 -1.515625 C 9.570312 -1.515625 11.101562 -2.359375 12.8125 -4.046875 Z M 15.09375 -13.734375 "/></g></g></g><g fill="#faf9f3" fill-opacity="1"><g transform="translate(124.264432, 33.684736)"><g><path d="M 1.65625 -2.796875 L 6.296875 -23.109375 C 6.429688 -23.742188 6.5 -24.191406 6.5 -24.453125 C 6.5 -24.992188 6.363281 -25.410156 6.09375 -25.703125 C 5.820312 -26.003906 4.984375 -26.207031 3.578125 -26.3125 L 3.828125 -27.421875 L 10.5 -27.828125 L 10.671875 -27.578125 L 7.9375 -15.609375 L 8.015625 -15.609375 C 9.910156 -17.304688 11.65625 -18.15625 13.25 -18.15625 C 15.082031 -18.15625 16.519531 -17.53125 17.5625 -16.28125 C 18.613281 -15.039062 19.140625 -13.367188 19.140625 -11.265625 C 19.140625 -8.085938 18.09375 -5.320312 16 -2.96875 C 13.914062 -0.613281 11.515625 0.5625 8.796875 0.5625 C 5.378906 0.5625 3 -0.554688 1.65625 -2.796875 Z M 7.515625 -13.8125 L 5.125 -3.125 C 5.28125 -2.445312 5.679688 -1.878906 6.328125 -1.421875 C 6.984375 -0.960938 7.753906 -0.734375 8.640625 -0.734375 C 10.503906 -0.734375 12.097656 -1.75 13.421875 -3.78125 C 14.753906 -5.820312 15.421875 -8.296875 15.421875 -11.203125 C 15.421875 -14.503906 14.207031 -16.15625 11.78125 -16.15625 C 10.613281 -16.15625 9.191406 -15.375 7.515625 -13.8125 Z M 7.515625 -13.8125 "/></g></g></g><g fill="#faf9f3" fill-opacity="1"><g transform="translate(146.236325, 33.684736)"><g/></g></g></g></g><g transform="matrix(1, 0, 0, 1, 7, 277)"><g clip-path="url(#60bee77074)"><g fill="#faf9f3" fill-opacity="1"><g transform="translate(6.72326, 47.990708)"><g><path d="M 44.921875 -34.65625 C 43.847656 -34.570312 42.753906 -34.367188 41.640625 -34.046875 C 40.535156 -33.734375 39.796875 -32.867188 39.421875 -31.453125 L 33.359375 -4.984375 C 33.265625 -4.609375 33.21875 -4.3125 33.21875 -4.09375 C 33.21875 -2.707031 34.582031 -1.90625 37.3125 -1.6875 L 36.96875 0 L 21.859375 0 L 22.265625 -1.6875 C 24.640625 -1.8125 26.113281 -2.144531 26.6875 -2.6875 C 27.257812 -3.226562 27.640625 -3.898438 27.828125 -4.703125 L 30.8125 -17.8125 L 13.796875 -17.8125 L 10.859375 -4.984375 C 10.785156 -4.703125 10.75 -4.421875 10.75 -4.140625 C 10.75 -3.285156 11.070312 -2.695312 11.71875 -2.375 C 12.375 -2.050781 13.414062 -1.820312 14.84375 -1.6875 L 14.40625 0 L -0.640625 0 L -0.25 -1.6875 C 2.113281 -1.789062 3.578125 -2.109375 4.140625 -2.640625 C 4.703125 -3.179688 5.085938 -3.867188 5.296875 -4.703125 L 11.421875 -31.203125 C 11.503906 -31.578125 11.546875 -31.847656 11.546875 -32.015625 C 11.546875 -33.378906 10.144531 -34.257812 7.34375 -34.65625 L 7.703125 -36.328125 L 22.8125 -36.328125 L 22.453125 -34.65625 C 20.421875 -34.488281 19.054688 -34.1875 18.359375 -33.75 C 17.671875 -33.3125 17.195312 -32.546875 16.9375 -31.453125 L 14.3125 -19.96875 L 31.40625 -19.96875 L 33.921875 -31.203125 C 33.984375 -31.503906 34.015625 -31.773438 34.015625 -32.015625 C 34.015625 -32.859375 33.582031 -33.488281 32.71875 -33.90625 C 31.863281 -34.320312 30.914062 -34.570312 29.875 -34.65625 L 30.25 -36.328125 L 45.359375 -36.328125 Z M 44.921875 -34.65625 "/></g></g></g><g fill="#faf9f3" fill-opacity="1"><g transform="translate(51.677818, 47.990708)"><g><path d="M 28.109375 -1.3125 C 25.390625 -0.164062 23.320312 0.40625 21.90625 0.40625 C 20.695312 0.40625 19.71875 0.0507812 18.96875 -0.65625 C 18.226562 -1.375 17.84375 -2.273438 17.8125 -3.359375 L 17.609375 -3.359375 C 14.585938 -0.617188 11.96875 0.75 9.75 0.75 C 7.28125 0.75 5.335938 -0.132812 3.921875 -1.90625 C 2.503906 -3.675781 1.796875 -6.113281 1.796875 -9.21875 C 1.796875 -13.519531 3.273438 -17.367188 6.234375 -20.765625 C 9.191406 -24.160156 12.597656 -25.859375 16.453125 -25.859375 C 18.796875 -25.859375 20.828125 -25.3125 22.546875 -24.21875 L 27.265625 -25.421875 L 27.515625 -25.0625 L 23.65625 -8.546875 C 23.226562 -6.722656 23.015625 -5.519531 23.015625 -4.9375 C 23.015625 -3.96875 23.222656 -3.3125 23.640625 -2.96875 C 24.054688 -2.625 24.742188 -2.453125 25.703125 -2.453125 C 26.617188 -2.453125 27.539062 -2.613281 28.46875 -2.9375 Z M 21.5 -19.5625 C 21.65625 -20.238281 21.414062 -21.148438 20.78125 -22.296875 C 20.15625 -23.441406 18.851562 -24.015625 16.875 -24.015625 C 14.375 -24.015625 12.113281 -22.5 10.09375 -19.46875 C 8.070312 -16.4375 7.0625 -13 7.0625 -9.15625 C 7.0625 -6.632812 7.4375 -4.835938 8.1875 -3.765625 C 8.9375 -2.691406 10.109375 -2.15625 11.703125 -2.15625 C 13.628906 -2.15625 15.8125 -3.359375 18.25 -5.765625 Z M 21.5 -19.5625 "/></g></g></g><g fill="#faf9f3" fill-opacity="1"><g transform="translate(83.962786, 47.990708)"><g><path d="M 29.046875 -1.3125 C 26.128906 -0.164062 24.066406 0.40625 22.859375 0.40625 C 20.128906 0.40625 18.765625 -0.8125 18.765625 -3.25 C 18.765625 -4.15625 18.910156 -5.101562 19.203125 -6.09375 L 21.703125 -15.609375 C 22.109375 -17.160156 22.3125 -18.3125 22.3125 -19.0625 C 22.3125 -21.5625 21.226562 -22.8125 19.0625 -22.8125 C 16.695312 -22.8125 14.3125 -21.460938 11.90625 -18.765625 L 7.609375 0 L 2.84375 0 L 6.609375 -16.5625 C 7.035156 -18.4375 7.25 -19.664062 7.25 -20.25 C 7.25 -21.207031 7.078125 -21.847656 6.734375 -22.171875 C 6.390625 -22.492188 5.75 -22.65625 4.8125 -22.65625 C 4.09375 -22.65625 3.171875 -22.472656 2.046875 -22.109375 L 2.40625 -23.8125 C 4.96875 -24.945312 7.03125 -25.515625 8.59375 -25.515625 C 11.019531 -25.515625 12.273438 -24.144531 12.359375 -21.40625 L 12.515625 -21.40625 C 14.992188 -23.34375 16.847656 -24.566406 18.078125 -25.078125 C 19.304688 -25.597656 20.632812 -25.859375 22.0625 -25.859375 C 23.695312 -25.859375 24.976562 -25.382812 25.90625 -24.4375 C 26.84375 -23.5 27.3125 -22.253906 27.3125 -20.703125 C 27.3125 -19.472656 27.097656 -18.144531 26.671875 -16.71875 L 24.515625 -8.5 C 24.109375 -6.925781 23.90625 -5.753906 23.90625 -4.984375 C 23.90625 -4.015625 24.113281 -3.347656 24.53125 -2.984375 C 24.945312 -2.628906 25.644531 -2.453125 26.625 -2.453125 C 27.457031 -2.453125 28.382812 -2.632812 29.40625 -3 Z M 29.046875 -1.3125 "/></g></g></g><g fill="#faf9f3" fill-opacity="1"><g transform="translate(117.11799, 47.990708)"><g><path d="M 23.8125 -8.546875 C 23.382812 -6.691406 23.171875 -5.503906 23.171875 -4.984375 C 23.171875 -4.015625 23.378906 -3.347656 23.796875 -2.984375 C 24.210938 -2.628906 24.898438 -2.453125 25.859375 -2.453125 C 26.773438 -2.453125 27.691406 -2.613281 28.609375 -2.9375 L 28.265625 -1.3125 C 25.859375 -0.164062 23.789062 0.40625 22.0625 0.40625 C 19.382812 0.40625 18.046875 -0.894531 18.046875 -3.5 L 17.859375 -3.5 C 14.859375 -0.664062 12.15625 0.75 9.75 0.75 C 7.28125 0.75 5.335938 -0.132812 3.921875 -1.90625 C 2.503906 -3.675781 1.796875 -6.113281 1.796875 -9.21875 C 1.796875 -13.601562 3.234375 -17.472656 6.109375 -20.828125 C 8.984375 -24.179688 12.382812 -25.859375 16.3125 -25.859375 C 18.695312 -25.859375 20.828125 -25.3125 22.703125 -24.21875 L 24.703125 -32.921875 C 24.867188 -33.671875 24.953125 -34.316406 24.953125 -34.859375 C 24.953125 -36.296875 23.957031 -37.097656 21.96875 -37.265625 C 21.351562 -37.316406 20.671875 -37.382812 19.921875 -37.46875 L 20.296875 -39.0625 L 30.609375 -39.625 L 30.875 -39.265625 Z M 21.65625 -19.8125 C 21.769531 -20.34375 21.410156 -21.175781 20.578125 -22.3125 C 19.753906 -23.445312 18.445312 -24.015625 16.65625 -24.015625 C 14.101562 -24.015625 11.863281 -22.53125 9.9375 -19.5625 C 8.019531 -16.601562 7.0625 -13.132812 7.0625 -9.15625 C 7.0625 -6.632812 7.4375 -4.835938 8.1875 -3.765625 C 8.9375 -2.691406 10.109375 -2.15625 11.703125 -2.15625 C 13.691406 -2.15625 15.941406 -3.40625 18.453125 -5.90625 Z M 21.65625 -19.8125 "/></g></g></g><g fill="#faf9f3" fill-opacity="1"><g transform="translate(149.505344, 47.990708)"><g><path d="M 2.359375 -4 L 8.953125 -32.921875 C 9.160156 -33.828125 9.265625 -34.457031 9.265625 -34.8125 C 9.265625 -35.59375 9.066406 -36.191406 8.671875 -36.609375 C 8.285156 -37.035156 7.09375 -37.320312 5.09375 -37.46875 L 5.453125 -39.0625 L 14.953125 -39.625 L 15.203125 -39.265625 L 11.3125 -22.21875 L 11.421875 -22.21875 C 14.109375 -24.644531 16.585938 -25.859375 18.859375 -25.859375 C 21.472656 -25.859375 23.523438 -24.96875 25.015625 -23.1875 C 26.515625 -21.414062 27.265625 -19.035156 27.265625 -16.046875 C 27.265625 -11.523438 25.773438 -7.585938 22.796875 -4.234375 C 19.816406 -0.878906 16.390625 0.796875 12.515625 0.796875 C 7.648438 0.796875 4.265625 -0.800781 2.359375 -4 Z M 10.703125 -19.65625 L 7.296875 -4.453125 C 7.515625 -3.484375 8.085938 -2.671875 9.015625 -2.015625 C 9.953125 -1.367188 11.050781 -1.046875 12.3125 -1.046875 C 14.957031 -1.046875 17.226562 -2.492188 19.125 -5.390625 C 21.019531 -8.296875 21.96875 -11.816406 21.96875 -15.953125 C 21.96875 -20.660156 20.234375 -23.015625 16.765625 -23.015625 C 15.109375 -23.015625 13.085938 -21.894531 10.703125 -19.65625 Z M 10.703125 -19.65625 "/></g></g></g><g fill="#faf9f3" fill-opacity="1"><g transform="translate(180.792131, 47.990708)"><g><path d="M 11.265625 0.796875 C 8.453125 0.796875 6.160156 -0.117188 4.390625 -1.953125 C 2.617188 -3.785156 1.734375 -6.25 1.734375 -9.34375 C 1.734375 -13.914062 3.160156 -17.8125 6.015625 -21.03125 C 8.867188 -24.25 12.4375 -25.859375 16.71875 -25.859375 C 19.71875 -25.859375 22.082031 -24.9375 23.8125 -23.09375 C 25.550781 -21.257812 26.421875 -18.816406 26.421875 -15.765625 C 26.421875 -11.296875 25.003906 -7.414062 22.171875 -4.125 C 19.335938 -0.84375 15.703125 0.796875 11.265625 0.796875 Z M 16.203125 -24.015625 C 13.316406 -24.015625 11.046875 -22.457031 9.390625 -19.34375 C 7.734375 -16.226562 6.90625 -12.613281 6.90625 -8.5 C 6.90625 -3.53125 8.601562 -1.046875 12 -1.046875 C 14.75 -1.046875 16.972656 -2.578125 18.671875 -5.640625 C 20.367188 -8.703125 21.21875 -12.394531 21.21875 -16.71875 C 21.21875 -21.582031 19.546875 -24.015625 16.203125 -24.015625 Z M 16.203125 -24.015625 "/></g></g></g><g fill="#faf9f3" fill-opacity="1"><g transform="translate(211.183065, 47.990708)"><g><path d="M 11.265625 0.796875 C 8.453125 0.796875 6.160156 -0.117188 4.390625 -1.953125 C 2.617188 -3.785156 1.734375 -6.25 1.734375 -9.34375 C 1.734375 -13.914062 3.160156 -17.8125 6.015625 -21.03125 C 8.867188 -24.25 12.4375 -25.859375 16.71875 -25.859375 C 19.71875 -25.859375 22.082031 -24.9375 23.8125 -23.09375 C 25.550781 -21.257812 26.421875 -18.816406 26.421875 -15.765625 C 26.421875 -11.296875 25.003906 -7.414062 22.171875 -4.125 C 19.335938 -0.84375 15.703125 0.796875 11.265625 0.796875 Z M 16.203125 -24.015625 C 13.316406 -24.015625 11.046875 -22.457031 9.390625 -19.34375 C 7.734375 -16.226562 6.90625 -12.613281 6.90625 -8.5 C 6.90625 -3.53125 8.601562 -1.046875 12 -1.046875 C 14.75 -1.046875 16.972656 -2.578125 18.671875 -5.640625 C 20.367188 -8.703125 21.21875 -12.394531 21.21875 -16.71875 C 21.21875 -21.582031 19.546875 -24.015625 16.203125 -24.015625 Z M 16.203125 -24.015625 "/></g></g></g><g fill="#faf9f3" fill-opacity="1"><g transform="translate(241.573968, 47.990708)"><g><path d="M 20.859375 -20.765625 C 18.878906 -19.617188 16.832031 -18.03125 14.71875 -16 C 17.289062 -9.445312 18.992188 -5.523438 19.828125 -4.234375 C 20.671875 -2.941406 21.851562 -2.296875 23.375 -2.296875 C 24.3125 -2.296875 25.425781 -2.492188 26.71875 -2.890625 L 26.359375 -1.203125 C 23.765625 -0.128906 21.597656 0.40625 19.859375 0.40625 C 18.390625 0.40625 17.179688 -0.164062 16.234375 -1.3125 C 15.296875 -2.46875 13.671875 -6.171875 11.359375 -12.421875 L 8.390625 -9.859375 L 6.1875 0 L 1.40625 0 L 9.015625 -32.921875 C 9.234375 -33.867188 9.34375 -34.5 9.34375 -34.8125 C 9.34375 -35.613281 9.140625 -36.21875 8.734375 -36.625 C 8.335938 -37.039062 7.140625 -37.320312 5.140625 -37.46875 L 5.453125 -39.0625 L 15 -39.625 L 15.25 -39.265625 L 8.953125 -12.59375 L 9.0625 -12.59375 C 12 -15.726562 14.726562 -18.46875 17.25 -20.8125 C 19.78125 -23.164062 21.425781 -24.554688 22.1875 -24.984375 C 22.957031 -25.410156 23.734375 -25.625 24.515625 -25.625 C 26.441406 -25.625 27.40625 -24.71875 27.40625 -22.90625 C 27.40625 -22.101562 27.097656 -21.394531 26.484375 -20.78125 C 25.878906 -20.164062 25.15625 -19.859375 24.3125 -19.859375 C 23.375 -19.859375 22.222656 -20.160156 20.859375 -20.765625 Z M 20.859375 -20.765625 "/></g></g></g><g fill="#faf9f3" fill-opacity="1"><g transform="translate(271.478625, 47.990708)"><g/></g></g></g></g></svg>