<?xml version="1.0" standalone="no"?>
<svg xmlns="http://www.w3.org/2000/svg" width="1024" height="1024" viewBox="0 0 1024 1024"><defs><clipPath id="clip-path-dot-color"><circle cx="77.5" cy="418.5" r="15.5" transform="rotate(0,77.5,418.5)"/><circle cx="77.5" cy="511.5" r="15.5" transform="rotate(0,77.5,511.5)"/><circle cx="77.5" cy="542.5" r="15.5" transform="rotate(0,77.5,542.5)"/><circle cx="77.5" cy="573.5" r="15.5" transform="rotate(0,77.5,573.5)"/><circle cx="77.5" cy="635.5" r="15.5" transform="rotate(0,77.5,635.5)"/><circle cx="77.5" cy="697.5" r="15.5" transform="rotate(0,77.5,697.5)"/><circle cx="108.5" cy="325.5" r="15.5" transform="rotate(0,108.5,325.5)"/><circle cx="108.5" cy="449.5" r="15.5" transform="rotate(0,108.5,449.5)"/><circle cx="108.5" cy="573.5" r="15.5" transform="rotate(0,108.5,573.5)"/><circle cx="108.5" cy="635.5" r="15.5" transform="rotate(0,108.5,635.5)"/><circle cx="108.5" cy="666.5" r="15.5" transform="rotate(0,108.5,666.5)"/><circle cx="108.5" cy="697.5" r="15.5" transform="rotate(0,108.5,697.5)"/><circle cx="139.5" cy="325.5" r="15.5" transform="rotate(0,139.5,325.5)"/><circle cx="139.5" cy="356.5" r="15.5" transform="rotate(0,139.5,356.5)"/><circle cx="139.5" cy="449.5" r="15.5" transform="rotate(0,139.5,449.5)"/><circle cx="139.5" cy="511.5" r="15.5" transform="rotate(0,139.5,511.5)"/><circle cx="139.5" cy="542.5" r="15.5" transform="rotate(0,139.5,542.5)"/><circle cx="139.5" cy="697.5" r="15.5" transform="rotate(0,139.5,697.5)"/><circle cx="170.5" cy="387.5" r="15.5" transform="rotate(0,170.5,387.5)"/><circle cx="170.5" cy="511.5" r="15.5" transform="rotate(0,170.5,511.5)"/><circle cx="170.5" cy="542.5" r="15.5" transform="rotate(0,170.5,542.5)"/><circle cx="170.5" cy="604.5" r="15.5" transform="rotate(0,170.5,604.5)"/><circle cx="170.5" cy="666.5" r="15.5" transform="rotate(0,170.5,666.5)"/><circle cx="201.5" cy="356.5" r="15.5" transform="rotate(0,201.5,356.5)"/><circle cx="201.5" cy="387.5" r="15.5" transform="rotate(0,201.5,387.5)"/><circle cx="201.5" cy="449.5" r="15.5" transform="rotate(0,201.5,449.5)"/><circle cx="201.5" cy="480.5" r="15.5" transform="rotate(0,201.5,480.5)"/><circle cx="201.5" cy="511.5" r="15.5" transform="rotate(0,201.5,511.5)"/><circle cx="201.5" cy="604.5" r="15.5" transform="rotate(0,201.5,604.5)"/><circle cx="201.5" cy="635.5" r="15.5" transform="rotate(0,201.5,635.5)"/><circle cx="201.5" cy="666.5" r="15.5" transform="rotate(0,201.5,666.5)"/><circle cx="232.5" cy="387.5" r="15.5" transform="rotate(0,232.5,387.5)"/><circle cx="232.5" cy="418.5" r="15.5" transform="rotate(0,232.5,418.5)"/><circle cx="232.5" cy="573.5" r="15.5" transform="rotate(0,232.5,573.5)"/><circle cx="232.5" cy="666.5" r="15.5" transform="rotate(0,232.5,666.5)"/><circle cx="263.5" cy="325.5" r="15.5" transform="rotate(0,263.5,325.5)"/><circle cx="263.5" cy="387.5" r="15.5" transform="rotate(0,263.5,387.5)"/><circle cx="263.5" cy="449.5" r="15.5" transform="rotate(0,263.5,449.5)"/><circle cx="263.5" cy="511.5" r="15.5" transform="rotate(0,263.5,511.5)"/><circle cx="263.5" cy="573.5" r="15.5" transform="rotate(0,263.5,573.5)"/><circle cx="263.5" cy="635.5" r="15.5" transform="rotate(0,263.5,635.5)"/><circle cx="263.5" cy="697.5" r="15.5" transform="rotate(0,263.5,697.5)"/><circle cx="294.5" cy="418.5" r="15.5" transform="rotate(0,294.5,418.5)"/><circle cx="294.5" cy="480.5" r="15.5" transform="rotate(0,294.5,480.5)"/><circle cx="294.5" cy="542.5" r="15.5" transform="rotate(0,294.5,542.5)"/><circle cx="294.5" cy="573.5" r="15.5" transform="rotate(0,294.5,573.5)"/><circle cx="294.5" cy="604.5" r="15.5" transform="rotate(0,294.5,604.5)"/><circle cx="294.5" cy="635.5" r="15.5" transform="rotate(0,294.5,635.5)"/><circle cx="294.5" cy="666.5" r="15.5" transform="rotate(0,294.5,666.5)"/><circle cx="294.5" cy="697.5" r="15.5" transform="rotate(0,294.5,697.5)"/><circle cx="325.5" cy="108.5" r="15.5" transform="rotate(0,325.5,108.5)"/><circle cx="325.5" cy="139.5" r="15.5" transform="rotate(0,325.5,139.5)"/><circle cx="325.5" cy="170.5" r="15.5" transform="rotate(0,325.5,170.5)"/><circle cx="325.5" cy="232.5" r="15.5" transform="rotate(0,325.5,232.5)"/><circle cx="325.5" cy="263.5" r="15.5" transform="rotate(0,325.5,263.5)"/><circle cx="325.5" cy="356.5" r="15.5" transform="rotate(0,325.5,356.5)"/><circle cx="325.5" cy="387.5" r="15.5" transform="rotate(0,325.5,387.5)"/><circle cx="325.5" cy="418.5" r="15.5" transform="rotate(0,325.5,418.5)"/><circle cx="325.5" cy="480.5" r="15.5" transform="rotate(0,325.5,480.5)"/><circle cx="325.5" cy="542.5" r="15.5" transform="rotate(0,325.5,542.5)"/><circle cx="325.5" cy="666.5" r="15.5" transform="rotate(0,325.5,666.5)"/><circle cx="325.5" cy="883.5" r="15.5" transform="rotate(0,325.5,883.5)"/><circle cx="325.5" cy="914.5" r="15.5" transform="rotate(0,325.5,914.5)"/><circle cx="356.5" cy="108.5" r="15.5" transform="rotate(0,356.5,108.5)"/><circle cx="356.5" cy="170.5" r="15.5" transform="rotate(0,356.5,170.5)"/><circle cx="356.5" cy="201.5" r="15.5" transform="rotate(0,356.5,201.5)"/><circle cx="356.5" cy="294.5" r="15.5" transform="rotate(0,356.5,294.5)"/><circle cx="356.5" cy="387.5" r="15.5" transform="rotate(0,356.5,387.5)"/><circle cx="356.5" cy="480.5" r="15.5" transform="rotate(0,356.5,480.5)"/><circle cx="356.5" cy="511.5" r="15.5" transform="rotate(0,356.5,511.5)"/><circle cx="356.5" cy="573.5" r="15.5" transform="rotate(0,356.5,573.5)"/><circle cx="356.5" cy="604.5" r="15.5" transform="rotate(0,356.5,604.5)"/><circle cx="356.5" cy="728.5" r="15.5" transform="rotate(0,356.5,728.5)"/><circle cx="356.5" cy="759.5" r="15.5" transform="rotate(0,356.5,759.5)"/><circle cx="356.5" cy="790.5" r="15.5" transform="rotate(0,356.5,790.5)"/><circle cx="356.5" cy="821.5" r="15.5" transform="rotate(0,356.5,821.5)"/><circle cx="356.5" cy="945.5" r="15.5" transform="rotate(0,356.5,945.5)"/><circle cx="387.5" cy="77.5" r="15.5" transform="rotate(0,387.5,77.5)"/><circle cx="387.5" cy="170.5" r="15.5" transform="rotate(0,387.5,170.5)"/><circle cx="387.5" cy="201.5" r="15.5" transform="rotate(0,387.5,201.5)"/><circle cx="387.5" cy="263.5" r="15.5" transform="rotate(0,387.5,263.5)"/><circle cx="387.5" cy="356.5" r="15.5" transform="rotate(0,387.5,356.5)"/><circle cx="387.5" cy="387.5" r="15.5" transform="rotate(0,387.5,387.5)"/><circle cx="387.5" cy="480.5" r="15.5" transform="rotate(0,387.5,480.5)"/><circle cx="387.5" cy="604.5" r="15.5" transform="rotate(0,387.5,604.5)"/><circle cx="387.5" cy="697.5" r="15.5" transform="rotate(0,387.5,697.5)"/><circle cx="387.5" cy="759.5" r="15.5" transform="rotate(0,387.5,759.5)"/><circle cx="387.5" cy="790.5" r="15.5" transform="rotate(0,387.5,790.5)"/><circle cx="387.5" cy="821.5" r="15.5" transform="rotate(0,387.5,821.5)"/><circle cx="387.5" cy="852.5" r="15.5" transform="rotate(0,387.5,852.5)"/><circle cx="387.5" cy="883.5" r="15.5" transform="rotate(0,387.5,883.5)"/><circle cx="387.5" cy="914.5" r="15.5" transform="rotate(0,387.5,914.5)"/><circle cx="418.5" cy="77.5" r="15.5" transform="rotate(0,418.5,77.5)"/><circle cx="418.5" cy="139.5" r="15.5" transform="rotate(0,418.5,139.5)"/><circle cx="418.5" cy="170.5" r="15.5" transform="rotate(0,418.5,170.5)"/><circle cx="418.5" cy="232.5" r="15.5" transform="rotate(0,418.5,232.5)"/><circle cx="418.5" cy="387.5" r="15.5" transform="rotate(0,418.5,387.5)"/><circle cx="418.5" cy="418.5" r="15.5" transform="rotate(0,418.5,418.5)"/><circle cx="418.5" cy="449.5" r="15.5" transform="rotate(0,418.5,449.5)"/><circle cx="418.5" cy="542.5" r="15.5" transform="rotate(0,418.5,542.5)"/><circle cx="418.5" cy="573.5" r="15.5" transform="rotate(0,418.5,573.5)"/><circle cx="418.5" cy="635.5" r="15.5" transform="rotate(0,418.5,635.5)"/><circle cx="418.5" cy="852.5" r="15.5" transform="rotate(0,418.5,852.5)"/><circle cx="418.5" cy="945.5" r="15.5" transform="rotate(0,418.5,945.5)"/><circle cx="449.5" cy="170.5" r="15.5" transform="rotate(0,449.5,170.5)"/><circle cx="449.5" cy="201.5" r="15.5" transform="rotate(0,449.5,201.5)"/><circle cx="449.5" cy="263.5" r="15.5" transform="rotate(0,449.5,263.5)"/><circle cx="449.5" cy="356.5" r="15.5" transform="rotate(0,449.5,356.5)"/><circle cx="449.5" cy="511.5" r="15.5" transform="rotate(0,449.5,511.5)"/><circle cx="449.5" cy="542.5" r="15.5" transform="rotate(0,449.5,542.5)"/><circle cx="449.5" cy="573.5" r="15.5" transform="rotate(0,449.5,573.5)"/><circle cx="449.5" cy="604.5" r="15.5" transform="rotate(0,449.5,604.5)"/><circle cx="449.5" cy="635.5" r="15.5" transform="rotate(0,449.5,635.5)"/><circle cx="449.5" cy="697.5" r="15.5" transform="rotate(0,449.5,697.5)"/><circle cx="449.5" cy="728.5" r="15.5" transform="rotate(0,449.5,728.5)"/><circle cx="449.5" cy="790.5" r="15.5" transform="rotate(0,449.5,790.5)"/><circle cx="449.5" cy="852.5" r="15.5" transform="rotate(0,449.5,852.5)"/><circle cx="449.5" cy="883.5" r="15.5" transform="rotate(0,449.5,883.5)"/><circle cx="449.5" cy="914.5" r="15.5" transform="rotate(0,449.5,914.5)"/><circle cx="449.5" cy="945.5" r="15.5" transform="rotate(0,449.5,945.5)"/><circle cx="480.5" cy="108.5" r="15.5" transform="rotate(0,480.5,108.5)"/><circle cx="480.5" cy="139.5" r="15.5" transform="rotate(0,480.5,139.5)"/><circle cx="480.5" cy="201.5" r="15.5" transform="rotate(0,480.5,201.5)"/><circle cx="480.5" cy="325.5" r="15.5" transform="rotate(0,480.5,325.5)"/><circle cx="480.5" cy="449.5" r="15.5" transform="rotate(0,480.5,449.5)"/><circle cx="480.5" cy="542.5" r="15.5" transform="rotate(0,480.5,542.5)"/><circle cx="480.5" cy="666.5" r="15.5" transform="rotate(0,480.5,666.5)"/><circle cx="480.5" cy="759.5" r="15.5" transform="rotate(0,480.5,759.5)"/><circle cx="480.5" cy="790.5" r="15.5" transform="rotate(0,480.5,790.5)"/><circle cx="480.5" cy="852.5" r="15.5" transform="rotate(0,480.5,852.5)"/><circle cx="480.5" cy="883.5" r="15.5" transform="rotate(0,480.5,883.5)"/><circle cx="480.5" cy="914.5" r="15.5" transform="rotate(0,480.5,914.5)"/><circle cx="480.5" cy="945.5" r="15.5" transform="rotate(0,480.5,945.5)"/><circle cx="511.5" cy="201.5" r="15.5" transform="rotate(0,511.5,201.5)"/><circle cx="511.5" cy="232.5" r="15.5" transform="rotate(0,511.5,232.5)"/><circle cx="511.5" cy="263.5" r="15.5" transform="rotate(0,511.5,263.5)"/><circle cx="511.5" cy="387.5" r="15.5" transform="rotate(0,511.5,387.5)"/><circle cx="511.5" cy="480.5" r="15.5" transform="rotate(0,511.5,480.5)"/><circle cx="511.5" cy="511.5" r="15.5" transform="rotate(0,511.5,511.5)"/><circle cx="511.5" cy="542.5" r="15.5" transform="rotate(0,511.5,542.5)"/><circle cx="511.5" cy="573.5" r="15.5" transform="rotate(0,511.5,573.5)"/><circle cx="511.5" cy="604.5" r="15.5" transform="rotate(0,511.5,604.5)"/><circle cx="511.5" cy="635.5" r="15.5" transform="rotate(0,511.5,635.5)"/><circle cx="511.5" cy="666.5" r="15.5" transform="rotate(0,511.5,666.5)"/><circle cx="511.5" cy="697.5" r="15.5" transform="rotate(0,511.5,697.5)"/><circle cx="511.5" cy="728.5" r="15.5" transform="rotate(0,511.5,728.5)"/><circle cx="511.5" cy="759.5" r="15.5" transform="rotate(0,511.5,759.5)"/><circle cx="511.5" cy="790.5" r="15.5" transform="rotate(0,511.5,790.5)"/><circle cx="511.5" cy="821.5" r="15.5" transform="rotate(0,511.5,821.5)"/><circle cx="511.5" cy="852.5" r="15.5" transform="rotate(0,511.5,852.5)"/><circle cx="511.5" cy="914.5" r="15.5" transform="rotate(0,511.5,914.5)"/><circle cx="511.5" cy="945.5" r="15.5" transform="rotate(0,511.5,945.5)"/><circle cx="542.5" cy="77.5" r="15.5" transform="rotate(0,542.5,77.5)"/><circle cx="542.5" cy="108.5" r="15.5" transform="rotate(0,542.5,108.5)"/><circle cx="542.5" cy="201.5" r="15.5" transform="rotate(0,542.5,201.5)"/><circle cx="542.5" cy="232.5" r="15.5" transform="rotate(0,542.5,232.5)"/><circle cx="542.5" cy="294.5" r="15.5" transform="rotate(0,542.5,294.5)"/><circle cx="542.5" cy="356.5" r="15.5" transform="rotate(0,542.5,356.5)"/><circle cx="542.5" cy="387.5" r="15.5" transform="rotate(0,542.5,387.5)"/><circle cx="542.5" cy="511.5" r="15.5" transform="rotate(0,542.5,511.5)"/><circle cx="542.5" cy="573.5" r="15.5" transform="rotate(0,542.5,573.5)"/><circle cx="542.5" cy="604.5" r="15.5" transform="rotate(0,542.5,604.5)"/><circle cx="542.5" cy="635.5" r="15.5" transform="rotate(0,542.5,635.5)"/><circle cx="542.5" cy="821.5" r="15.5" transform="rotate(0,542.5,821.5)"/><circle cx="542.5" cy="852.5" r="15.5" transform="rotate(0,542.5,852.5)"/><circle cx="573.5" cy="77.5" r="15.5" transform="rotate(0,573.5,77.5)"/><circle cx="573.5" cy="139.5" r="15.5" transform="rotate(0,573.5,139.5)"/><circle cx="573.5" cy="170.5" r="15.5" transform="rotate(0,573.5,170.5)"/><circle cx="573.5" cy="263.5" r="15.5" transform="rotate(0,573.5,263.5)"/><circle cx="573.5" cy="325.5" r="15.5" transform="rotate(0,573.5,325.5)"/><circle cx="573.5" cy="387.5" r="15.5" transform="rotate(0,573.5,387.5)"/><circle cx="573.5" cy="573.5" r="15.5" transform="rotate(0,573.5,573.5)"/><circle cx="573.5" cy="604.5" r="15.5" transform="rotate(0,573.5,604.5)"/><circle cx="573.5" cy="635.5" r="15.5" transform="rotate(0,573.5,635.5)"/><circle cx="573.5" cy="728.5" r="15.5" transform="rotate(0,573.5,728.5)"/><circle cx="573.5" cy="821.5" r="15.5" transform="rotate(0,573.5,821.5)"/><circle cx="573.5" cy="852.5" r="15.5" transform="rotate(0,573.5,852.5)"/><circle cx="604.5" cy="201.5" r="15.5" transform="rotate(0,604.5,201.5)"/><circle cx="604.5" cy="294.5" r="15.5" transform="rotate(0,604.5,294.5)"/><circle cx="604.5" cy="418.5" r="15.5" transform="rotate(0,604.5,418.5)"/><circle cx="604.5" cy="449.5" r="15.5" transform="rotate(0,604.5,449.5)"/><circle cx="604.5" cy="573.5" r="15.5" transform="rotate(0,604.5,573.5)"/><circle cx="604.5" cy="604.5" r="15.5" transform="rotate(0,604.5,604.5)"/><circle cx="604.5" cy="697.5" r="15.5" transform="rotate(0,604.5,697.5)"/><circle cx="604.5" cy="790.5" r="15.5" transform="rotate(0,604.5,790.5)"/><circle cx="604.5" cy="852.5" r="15.5" transform="rotate(0,604.5,852.5)"/><circle cx="604.5" cy="883.5" r="15.5" transform="rotate(0,604.5,883.5)"/><circle cx="635.5" cy="77.5" r="15.5" transform="rotate(0,635.5,77.5)"/><circle cx="635.5" cy="170.5" r="15.5" transform="rotate(0,635.5,170.5)"/><circle cx="635.5" cy="263.5" r="15.5" transform="rotate(0,635.5,263.5)"/><circle cx="635.5" cy="294.5" r="15.5" transform="rotate(0,635.5,294.5)"/><circle cx="635.5" cy="325.5" r="15.5" transform="rotate(0,635.5,325.5)"/><circle cx="635.5" cy="356.5" r="15.5" transform="rotate(0,635.5,356.5)"/><circle cx="635.5" cy="387.5" r="15.5" transform="rotate(0,635.5,387.5)"/><circle cx="635.5" cy="418.5" r="15.5" transform="rotate(0,635.5,418.5)"/><circle cx="635.5" cy="480.5" r="15.5" transform="rotate(0,635.5,480.5)"/><circle cx="635.5" cy="511.5" r="15.5" transform="rotate(0,635.5,511.5)"/><circle cx="635.5" cy="542.5" r="15.5" transform="rotate(0,635.5,542.5)"/><circle cx="635.5" cy="573.5" r="15.5" transform="rotate(0,635.5,573.5)"/><circle cx="635.5" cy="604.5" r="15.5" transform="rotate(0,635.5,604.5)"/><circle cx="635.5" cy="697.5" r="15.5" transform="rotate(0,635.5,697.5)"/><circle cx="635.5" cy="759.5" r="15.5" transform="rotate(0,635.5,759.5)"/><circle cx="635.5" cy="852.5" r="15.5" transform="rotate(0,635.5,852.5)"/><circle cx="666.5" cy="139.5" r="15.5" transform="rotate(0,666.5,139.5)"/><circle cx="666.5" cy="170.5" r="15.5" transform="rotate(0,666.5,170.5)"/><circle cx="666.5" cy="294.5" r="15.5" transform="rotate(0,666.5,294.5)"/><circle cx="666.5" cy="325.5" r="15.5" transform="rotate(0,666.5,325.5)"/><circle cx="666.5" cy="356.5" r="15.5" transform="rotate(0,666.5,356.5)"/><circle cx="666.5" cy="449.5" r="15.5" transform="rotate(0,666.5,449.5)"/><circle cx="666.5" cy="480.5" r="15.5" transform="rotate(0,666.5,480.5)"/><circle cx="666.5" cy="604.5" r="15.5" transform="rotate(0,666.5,604.5)"/><circle cx="666.5" cy="697.5" r="15.5" transform="rotate(0,666.5,697.5)"/><circle cx="666.5" cy="728.5" r="15.5" transform="rotate(0,666.5,728.5)"/><circle cx="666.5" cy="759.5" r="15.5" transform="rotate(0,666.5,759.5)"/><circle cx="666.5" cy="852.5" r="15.5" transform="rotate(0,666.5,852.5)"/><circle cx="666.5" cy="883.5" r="15.5" transform="rotate(0,666.5,883.5)"/><circle cx="666.5" cy="945.5" r="15.5" transform="rotate(0,666.5,945.5)"/><circle cx="697.5" cy="108.5" r="15.5" transform="rotate(0,697.5,108.5)"/><circle cx="697.5" cy="139.5" r="15.5" transform="rotate(0,697.5,139.5)"/><circle cx="697.5" cy="263.5" r="15.5" transform="rotate(0,697.5,263.5)"/><circle cx="697.5" cy="294.5" r="15.5" transform="rotate(0,697.5,294.5)"/><circle cx="697.5" cy="387.5" r="15.5" transform="rotate(0,697.5,387.5)"/><circle cx="697.5" cy="480.5" r="15.5" transform="rotate(0,697.5,480.5)"/><circle cx="697.5" cy="511.5" r="15.5" transform="rotate(0,697.5,511.5)"/><circle cx="697.5" cy="573.5" r="15.5" transform="rotate(0,697.5,573.5)"/><circle cx="697.5" cy="604.5" r="15.5" transform="rotate(0,697.5,604.5)"/><circle cx="697.5" cy="635.5" r="15.5" transform="rotate(0,697.5,635.5)"/><circle cx="697.5" cy="666.5" r="15.5" transform="rotate(0,697.5,666.5)"/><circle cx="697.5" cy="697.5" r="15.5" transform="rotate(0,697.5,697.5)"/><circle cx="697.5" cy="728.5" r="15.5" transform="rotate(0,697.5,728.5)"/><circle cx="697.5" cy="759.5" r="15.5" transform="rotate(0,697.5,759.5)"/><circle cx="697.5" cy="790.5" r="15.5" transform="rotate(0,697.5,790.5)"/><circle cx="697.5" cy="821.5" r="15.5" transform="rotate(0,697.5,821.5)"/><circle cx="697.5" cy="852.5" r="15.5" transform="rotate(0,697.5,852.5)"/><circle cx="728.5" cy="325.5" r="15.5" transform="rotate(0,728.5,325.5)"/><circle cx="728.5" cy="356.5" r="15.5" transform="rotate(0,728.5,356.5)"/><circle cx="728.5" cy="418.5" r="15.5" transform="rotate(0,728.5,418.5)"/><circle cx="728.5" cy="511.5" r="15.5" transform="rotate(0,728.5,511.5)"/><circle cx="728.5" cy="635.5" r="15.5" transform="rotate(0,728.5,635.5)"/><circle cx="728.5" cy="666.5" r="15.5" transform="rotate(0,728.5,666.5)"/><circle cx="728.5" cy="697.5" r="15.5" transform="rotate(0,728.5,697.5)"/><circle cx="728.5" cy="821.5" r="15.5" transform="rotate(0,728.5,821.5)"/><circle cx="728.5" cy="852.5" r="15.5" transform="rotate(0,728.5,852.5)"/><circle cx="728.5" cy="914.5" r="15.5" transform="rotate(0,728.5,914.5)"/><circle cx="728.5" cy="945.5" r="15.5" transform="rotate(0,728.5,945.5)"/><circle cx="759.5" cy="387.5" r="15.5" transform="rotate(0,759.5,387.5)"/><circle cx="759.5" cy="418.5" r="15.5" transform="rotate(0,759.5,418.5)"/><circle cx="759.5" cy="449.5" r="15.5" transform="rotate(0,759.5,449.5)"/><circle cx="759.5" cy="480.5" r="15.5" transform="rotate(0,759.5,480.5)"/><circle cx="759.5" cy="511.5" r="15.5" transform="rotate(0,759.5,511.5)"/><circle cx="759.5" cy="573.5" r="15.5" transform="rotate(0,759.5,573.5)"/><circle cx="759.5" cy="604.5" r="15.5" transform="rotate(0,759.5,604.5)"/><circle cx="759.5" cy="666.5" r="15.5" transform="rotate(0,759.5,666.5)"/><circle cx="759.5" cy="697.5" r="15.5" transform="rotate(0,759.5,697.5)"/><circle cx="759.5" cy="759.5" r="15.5" transform="rotate(0,759.5,759.5)"/><circle cx="759.5" cy="821.5" r="15.5" transform="rotate(0,759.5,821.5)"/><circle cx="759.5" cy="883.5" r="15.5" transform="rotate(0,759.5,883.5)"/><circle cx="759.5" cy="914.5" r="15.5" transform="rotate(0,759.5,914.5)"/><circle cx="790.5" cy="325.5" r="15.5" transform="rotate(0,790.5,325.5)"/><circle cx="790.5" cy="418.5" r="15.5" transform="rotate(0,790.5,418.5)"/><circle cx="790.5" cy="480.5" r="15.5" transform="rotate(0,790.5,480.5)"/><circle cx="790.5" cy="542.5" r="15.5" transform="rotate(0,790.5,542.5)"/><circle cx="790.5" cy="635.5" r="15.5" transform="rotate(0,790.5,635.5)"/><circle cx="790.5" cy="697.5" r="15.5" transform="rotate(0,790.5,697.5)"/><circle cx="790.5" cy="821.5" r="15.5" transform="rotate(0,790.5,821.5)"/><circle cx="790.5" cy="914.5" r="15.5" transform="rotate(0,790.5,914.5)"/><circle cx="821.5" cy="356.5" r="15.5" transform="rotate(0,821.5,356.5)"/><circle cx="821.5" cy="418.5" r="15.5" transform="rotate(0,821.5,418.5)"/><circle cx="821.5" cy="449.5" r="15.5" transform="rotate(0,821.5,449.5)"/><circle cx="821.5" cy="480.5" r="15.5" transform="rotate(0,821.5,480.5)"/><circle cx="821.5" cy="635.5" r="15.5" transform="rotate(0,821.5,635.5)"/><circle cx="821.5" cy="697.5" r="15.5" transform="rotate(0,821.5,697.5)"/><circle cx="821.5" cy="728.5" r="15.5" transform="rotate(0,821.5,728.5)"/><circle cx="821.5" cy="759.5" r="15.5" transform="rotate(0,821.5,759.5)"/><circle cx="821.5" cy="790.5" r="15.5" transform="rotate(0,821.5,790.5)"/><circle cx="821.5" cy="821.5" r="15.5" transform="rotate(0,821.5,821.5)"/><circle cx="821.5" cy="852.5" r="15.5" transform="rotate(0,821.5,852.5)"/><circle cx="821.5" cy="883.5" r="15.5" transform="rotate(0,821.5,883.5)"/><circle cx="821.5" cy="945.5" r="15.5" transform="rotate(0,821.5,945.5)"/><circle cx="852.5" cy="325.5" r="15.5" transform="rotate(0,852.5,325.5)"/><circle cx="852.5" cy="418.5" r="15.5" transform="rotate(0,852.5,418.5)"/><circle cx="852.5" cy="480.5" r="15.5" transform="rotate(0,852.5,480.5)"/><circle cx="852.5" cy="573.5" r="15.5" transform="rotate(0,852.5,573.5)"/><circle cx="852.5" cy="635.5" r="15.5" transform="rotate(0,852.5,635.5)"/><circle cx="852.5" cy="666.5" r="15.5" transform="rotate(0,852.5,666.5)"/><circle cx="852.5" cy="821.5" r="15.5" transform="rotate(0,852.5,821.5)"/><circle cx="852.5" cy="852.5" r="15.5" transform="rotate(0,852.5,852.5)"/><circle cx="852.5" cy="914.5" r="15.5" transform="rotate(0,852.5,914.5)"/><circle cx="883.5" cy="325.5" r="15.5" transform="rotate(0,883.5,325.5)"/><circle cx="883.5" cy="356.5" r="15.5" transform="rotate(0,883.5,356.5)"/><circle cx="883.5" cy="511.5" r="15.5" transform="rotate(0,883.5,511.5)"/><circle cx="883.5" cy="542.5" r="15.5" transform="rotate(0,883.5,542.5)"/><circle cx="883.5" cy="573.5" r="15.5" transform="rotate(0,883.5,573.5)"/><circle cx="883.5" cy="697.5" r="15.5" transform="rotate(0,883.5,697.5)"/><circle cx="883.5" cy="790.5" r="15.5" transform="rotate(0,883.5,790.5)"/><circle cx="883.5" cy="852.5" r="15.5" transform="rotate(0,883.5,852.5)"/><circle cx="883.5" cy="945.5" r="15.5" transform="rotate(0,883.5,945.5)"/><circle cx="914.5" cy="325.5" r="15.5" transform="rotate(0,914.5,325.5)"/><circle cx="914.5" cy="356.5" r="15.5" transform="rotate(0,914.5,356.5)"/><circle cx="914.5" cy="387.5" r="15.5" transform="rotate(0,914.5,387.5)"/><circle cx="914.5" cy="418.5" r="15.5" transform="rotate(0,914.5,418.5)"/><circle cx="914.5" cy="449.5" r="15.5" transform="rotate(0,914.5,449.5)"/><circle cx="914.5" cy="511.5" r="15.5" transform="rotate(0,914.5,511.5)"/><circle cx="914.5" cy="573.5" r="15.5" transform="rotate(0,914.5,573.5)"/><circle cx="914.5" cy="697.5" r="15.5" transform="rotate(0,914.5,697.5)"/><circle cx="914.5" cy="821.5" r="15.5" transform="rotate(0,914.5,821.5)"/><circle cx="914.5" cy="852.5" r="15.5" transform="rotate(0,914.5,852.5)"/><circle cx="914.5" cy="914.5" r="15.5" transform="rotate(0,914.5,914.5)"/><circle cx="945.5" cy="356.5" r="15.5" transform="rotate(0,945.5,356.5)"/><circle cx="945.5" cy="418.5" r="15.5" transform="rotate(0,945.5,418.5)"/><circle cx="945.5" cy="449.5" r="15.5" transform="rotate(0,945.5,449.5)"/><circle cx="945.5" cy="480.5" r="15.5" transform="rotate(0,945.5,480.5)"/><circle cx="945.5" cy="511.5" r="15.5" transform="rotate(0,945.5,511.5)"/><circle cx="945.5" cy="542.5" r="15.5" transform="rotate(0,945.5,542.5)"/><circle cx="945.5" cy="635.5" r="15.5" transform="rotate(0,945.5,635.5)"/><circle cx="945.5" cy="666.5" r="15.5" transform="rotate(0,945.5,666.5)"/><circle cx="945.5" cy="697.5" r="15.5" transform="rotate(0,945.5,697.5)"/><circle cx="945.5" cy="728.5" r="15.5" transform="rotate(0,945.5,728.5)"/><circle cx="945.5" cy="759.5" r="15.5" transform="rotate(0,945.5,759.5)"/><circle cx="945.5" cy="790.5" r="15.5" transform="rotate(0,945.5,790.5)"/><circle cx="945.5" cy="914.5" r="15.5" transform="rotate(0,945.5,914.5)"/></clipPath><clipPath id="clip-path-corners-square-color-0-0"><path d="m 62 62 m 189.875 17.179 l -189.875 -17.179 l 18.083 189.875 c 0 9.946 8.137 18.083 18.083 18.083 h 171.792 v -172.696 c 0 -9.946 -8.137 -18.083 -18.083 -18.083 z m -9.494 163.202 h -121.61 c -7.233 0 -13.11 -5.877 -13.11 -13.11 l -9.946 -131.104 l 131.556 9.494 c 7.233 0 13.11 5.877 13.11 13.02 v 121.701 z"/></clipPath><clipPath id="clip-path-corners-dot-color-0-0"><path d="m 124 124 m 93 93 l -86.18 0 l -6.82 -93 l 93 6.82 z"/></clipPath><clipPath id="clip-path-corners-square-color-1-0"><path d="m 744 62 m 189.875 17.179 l -189.875 -17.179 l 18.083 189.875 c 0 9.946 8.137 18.083 18.083 18.083 h 171.792 v -172.696 c 0 -9.946 -8.137 -18.083 -18.083 -18.083 z m -9.494 163.202 h -121.61 c -7.233 0 -13.11 -5.877 -13.11 -13.11 l -9.946 -131.104 l 131.556 9.494 c 7.233 0 13.11 5.877 13.11 13.02 v 121.701 z"/></clipPath><clipPath id="clip-path-corners-dot-color-1-0"><path d="m 806 124 m 93 93 l -86.18 0 l -6.82 -93 l 93 6.82 z"/></clipPath><clipPath id="clip-path-corners-square-color-0-1"><path d="m 62 744 m 189.875 17.179 l -189.875 -17.179 l 18.083 189.875 c 0 9.946 8.137 18.083 18.083 18.083 h 171.792 v -172.696 c 0 -9.946 -8.137 -18.083 -18.083 -18.083 z m -9.494 163.202 h -121.61 c -7.233 0 -13.11 -5.877 -13.11 -13.11 l -9.946 -131.104 l 131.556 9.494 c 7.233 0 13.11 5.877 13.11 13.02 v 121.701 z"/></clipPath><clipPath id="clip-path-corners-dot-color-0-1"><path d="m 124 806 m 93 93 l -86.18 0 l -6.82 -93 l 93 6.82 z"/></clipPath></defs><rect x="0" y="0" height="1024" width="1024" clip-path="url('#clip-path-background-color')" fill="#ffffff"/><rect x="62" y="62" height="899" width="899" clip-path="url('#clip-path-dot-color')" fill="#fa5c21"/><rect x="62" y="62" height="217" width="217" clip-path="url('#clip-path-corners-square-color-0-0')" fill="#2e2f33"/><rect x="124" y="124" height="93" width="93" clip-path="url('#clip-path-corners-dot-color-0-0')" fill="#2e2f33"/><rect x="744" y="62" height="217" width="217" clip-path="url('#clip-path-corners-square-color-1-0')" fill="#2e2f33"/><rect x="806" y="124" height="93" width="93" clip-path="url('#clip-path-corners-dot-color-1-0')" fill="#2e2f33"/><rect x="62" y="744" height="217" width="217" clip-path="url('#clip-path-corners-square-color-0-1')" fill="#2e2f33"/><rect x="124" y="806" height="93" width="93" clip-path="url('#clip-path-corners-dot-color-0-1')" fill="#2e2f33"/></svg>