<svg width="310" height="310" viewBox="0 0 310 310" fill="none" xmlns="http://www.w3.org/2000/svg">
<path d="M40 79.7031C40 57.7757 57.7757 40 79.7031 40L229.78 40C251.708 40 269.483 57.7757 269.483 79.7031V229.78C269.483 251.708 251.708 269.483 229.78 269.483H79.7031C57.7757 269.483 40 251.708 40 229.78L40 79.7031Z" fill="#5046E4"/>
<path d="M147.543 59.0718C124.609 61.3141 104.073 70.7473 87.9073 86.5596C72.5535 101.637 63.0396 120.62 59.8683 142.772C58.9401 149.113 58.9401 161.561 59.8683 167.902C64.0064 196.627 79.1282 220.635 102.874 236.138C108.095 239.54 118.151 244.527 123.527 246.383C134.665 250.21 143.676 251.718 155.626 251.718C167.577 251.718 176.588 250.21 187.726 246.383C193.334 244.45 203.235 239.501 208.804 235.867C227.097 223.844 240.71 205.982 247.479 185.106C250.766 174.938 252.042 166.433 252.042 155.337C252.042 146.87 251.501 141.612 249.799 134.074C241.097 95.2196 209.152 65.7215 169.433 59.8064C163.477 58.9558 152.765 58.5692 147.543 59.0718ZM175.157 83.4281C198.323 87.1781 215.185 101.289 223.964 124.215C228.025 134.847 229.379 147.991 227.368 157.27C224.08 172.464 214.064 186.691 199.909 196.317C195.268 199.487 187.301 203.199 182.041 204.668L179.643 205.325L180.456 206.91C181.732 209.385 183.936 212.516 187.533 216.846C191.284 221.408 191.671 222.452 190.511 225.003C189.583 227.091 187.649 228.212 185.367 227.903C183.549 227.671 182.699 227.014 179.875 223.728C170.361 212.709 167.384 205.364 170.091 199.526C170.632 198.444 171.444 197.284 171.947 196.974C172.45 196.627 174.886 195.853 177.362 195.196C196.66 190.209 212.246 174.977 216.964 156.497C217.854 152.94 218.008 141.496 217.196 137.746C214.45 125.182 209.307 115.362 201.301 107.359C191.903 98.0031 181.19 93.5958 165.875 92.8613C160.577 92.5906 152.378 93.3252 147.698 94.485C140.466 96.2634 133.698 99.9362 129.482 104.382C124.184 109.988 121.438 115.478 119.311 124.911C118.731 127.424 118.189 128.893 117.609 129.434C117.145 129.898 112.582 132.45 107.477 135.156C95.8743 141.264 96.4544 140.916 97.3439 141.458C99.239 142.579 102.178 145.324 103.3 146.948C103.957 147.953 104.731 149.731 104.963 150.891C105.582 153.79 104.924 156.11 101.327 163.765C97.2279 172.502 95.6422 176.987 95.4102 180.273C95.1008 185.299 96.7638 186.497 106.355 188.005C120.974 190.286 123.565 191.369 129.947 197.67C135.786 203.431 139.925 210.312 142.864 219.088C143.947 222.259 144.063 222.954 143.676 224.153C142.748 227.246 139.112 228.908 136.367 227.478C134.781 226.666 134.201 225.738 132.847 221.795C131.223 217.078 129.908 214.333 127.626 210.815C124.88 206.64 122.792 204.397 120.007 202.542C116.913 200.493 113.974 199.603 105.968 198.405C102.333 197.864 98.1174 197.013 96.6091 196.549C86.9791 193.495 83.0343 185.415 85.8576 174.551C86.631 171.497 88.178 167.631 91.6587 160.131C93.2444 156.69 94.5207 153.52 94.5207 153.095C94.5207 152.012 92.5869 150.427 88.5261 148.185C83.305 145.246 81.7194 142.424 83.2664 138.945C83.8465 137.63 84.6586 136.78 86.8631 135.233C89.9957 133.03 96.3384 129.357 104.073 125.336L109.178 122.669L109.642 120.736C112.079 110.452 117.339 101.135 124.145 95.1809C127.665 92.088 129.714 90.7349 134.239 88.4926C142.632 84.3172 150.251 82.8095 163.361 82.6935C168.814 82.6548 171.599 82.8481 175.157 83.4281ZM158.334 109.369C159.455 109.601 161.002 110.336 161.93 111.032C163.477 112.23 163.864 112.308 167.461 112.54C175.699 113.042 181.538 115.594 183.549 119.537C184.594 121.586 184.787 121.702 187.456 121.702C191.362 121.702 193.798 123.287 196.66 127.617C200.218 133.068 201.92 140.607 201.224 147.914C200.798 152.515 199.561 155.453 196.97 157.85C194.108 160.517 192.213 161.213 187.03 161.445C182.699 161.639 182.66 161.639 182.08 162.721C181.77 163.34 180.185 164.731 178.599 165.814C174.229 168.752 172.914 170.067 168.466 176.02C164.831 180.853 162.201 185.26 162.201 186.497C162.201 186.768 161.582 187.503 160.848 188.16C158.488 190.209 154.853 189.706 153.267 187.155C151.45 184.216 153.151 179.345 158.566 172C161.234 168.404 161.466 167.979 160.848 167.631C159.301 166.742 157.057 164.384 156.207 162.682C155.162 160.633 154.466 157.27 154.466 154.332V152.283L152.842 151.857C144.527 149.77 138.339 145.826 135.902 141.071C134.355 137.978 133.853 135.04 134.123 130.207C134.239 127.772 134.587 124.756 134.897 123.558C136.831 115.787 141.704 111.612 151.218 109.563C154.544 108.867 155.82 108.828 158.334 109.369Z" fill="white"/>
</svg>
