<svg width="82" height="67" viewBox="0 0 82 67" fill="none" xmlns="http://www.w3.org/2000/svg">
<path d="M29.704 0L40.796 6.016C26.884 19.364 22.372 28.576 22.372 33.84C22.372 36.66 23.312 38.352 26.884 41.172L34.404 47.188L17.108 66.176L9.588 60.16C3.948 55.648 0 50.948 0 45.308C0 34.78 9.964 20.68 29.704 0ZM70.876 0L81.968 6.016C68.056 19.364 63.544 28.576 63.544 33.84C63.544 36.66 64.484 38.352 68.056 41.172L75.576 47.188L58.28 66.176L50.76 60.16C45.12 55.648 41.172 50.948 41.172 45.308C41.172 34.78 51.136 20.68 70.876 0Z" fill="#E9682E"/>
</svg>
