<svg xmlns="http://www.w3.org/2000/svg" xmlns:xlink="http://www.w3.org/1999/xlink" width="679" zoomAndPan="magnify" viewBox="0 0 509.25 513.000007" height="684" preserveAspectRatio="xMidYMid meet" version="1.0"><defs><clipPath id="6c59858bdc"><path d="M 0.121094 0 L 508.378906 0 L 508.378906 512 L 0.121094 512 Z M 0.121094 0 " clip-rule="nonzero"/></clipPath><clipPath id="92f37de81b"><path d="M 47 43 L 405 43 L 405 327 L 47 327 Z M 47 43 " clip-rule="nonzero"/></clipPath><clipPath id="3dd6eee058"><path d="M 0.121094 290.375 L 238.515625 -0.0898438 L 508.148438 221.207031 L 269.753906 511.671875 Z M 0.121094 290.375 " clip-rule="nonzero"/></clipPath><clipPath id="80d75cf0e6"><path d="M 0.121094 290.375 L 238.515625 -0.0898438 L 508.148438 221.207031 L 269.753906 511.671875 Z M 0.121094 290.375 " clip-rule="nonzero"/></clipPath><clipPath id="e6e8a9d949"><path d="M 0.121094 290.375 L 238.515625 -0.0898438 L 508.148438 221.207031 L 269.753906 511.671875 Z M 0.121094 290.375 " clip-rule="nonzero"/></clipPath><clipPath id="d15bf61924"><path d="M 0.121094 0 L 508.378906 0 L 508.378906 479 L 0.121094 479 Z M 0.121094 0 " clip-rule="nonzero"/></clipPath><clipPath id="f5dc6780c6"><path d="M 0.121094 290.375 L 238.515625 -0.0898438 L 508.148438 221.207031 L 269.753906 511.671875 Z M 0.121094 290.375 " clip-rule="nonzero"/></clipPath><clipPath id="b4aa0262e2"><path d="M 0.121094 290.375 L 238.515625 -0.0898438 L 508.148438 221.207031 L 269.753906 511.671875 Z M 0.121094 290.375 " clip-rule="nonzero"/></clipPath><clipPath id="c2dc6410c0"><path d="M 0.121094 290.375 L 238.515625 -0.0898438 L 508.148438 221.207031 L 269.753906 511.671875 Z M 0.121094 290.375 " clip-rule="nonzero"/></clipPath></defs><g clip-path="url(#6c59858bdc)"><path fill="#ffffff" d="M 0.121094 0 L 508.378906 0 L 508.378906 512 L 0.121094 512 Z M 0.121094 0 " fill-opacity="1" fill-rule="nonzero"/></g><g clip-path="url(#92f37de81b)"><g clip-path="url(#3dd6eee058)"><g clip-path="url(#80d75cf0e6)"><g clip-path="url(#e6e8a9d949)"><path fill="#000000" d="M 258.09375 56.6875 L 400.542969 283.039062 C 412.570312 302.148438 398.804688 327.023438 376.226562 326.992188 L 75.695312 326.578125 C 52.523438 326.546875 38.964844 300.460938 52.253906 281.472656 L 210.335938 55.53125 C 222.09375 38.726562 247.171875 39.335938 258.09375 56.6875 Z M 258.09375 56.6875 " fill-opacity="1" fill-rule="nonzero"/></g></g></g></g><g clip-path="url(#d15bf61924)"><g clip-path="url(#f5dc6780c6)"><g clip-path="url(#b4aa0262e2)"><g clip-path="url(#c2dc6410c0)"><path stroke-linecap="butt" transform="matrix(17.028089, -20.747496, 20.741038, 17.022789, 0.121421, 290.375765)" fill="none" stroke-linejoin="miter" d="M 12.827648 1.906462 L 9.675864 11.362019 C 9.409811 12.160327 8.368054 12.351903 7.835286 11.700726 L 0.743698 3.033124 C 0.196895 2.364841 0.627677 1.357468 1.488635 1.291347 L 11.732119 0.5033 C 12.493997 0.444695 13.069207 1.181563 12.827648 1.906462 Z M 12.827648 1.906462 " stroke="#000000" stroke-width="1" stroke-opacity="1" stroke-miterlimit="4"/></g></g></g></g></svg>