<svg xmlns="http://www.w3.org/2000/svg" fill="none" viewBox="0 0 100 40.43" height="40.43" width="100">
  <path fill-opacity="0.780392" fill="#D1CCC7" d="M9.118 15.195C10.651 15.195 11.968 15.485 13.069 16.065C14.191 16.628 15.051 17.463 15.649 18.57C16.264 19.66 16.571 20.967 16.571 22.59V24.877H6.316C6.355 25.987 6.7 26.874 7.352 27.539C8.004 28.204 8.923 28.537 10.119 28.537C11.165 28.537 12.111 28.433 12.957 28.225C13.803 28.017 14.671 27.688 15.561 27.138V30.807C14.794 31.228 13.976 31.528 13.107 31.707C12.238 31.903 11.041 32.001 9.716 32.001C8.075 32.001 6.619 31.707 5.348 31.119C4.094 30.531 3.089 29.615 2.333 28.371C1.594 27.11 1.224 25.589 1.224 23.708C1.224 21.776 1.573 20.201 2.272 18.983C2.92 17.748 3.836 16.853 5.019 16.298C6.202 15.727 7.584 15.195 9.118 15.195ZM9.206 18.655C8.468 18.655 7.8 18.895 7.286 19.375C6.789 19.838 6.507 20.608 6.406 21.685H11.983C11.983 21.094 11.87 20.571 11.644 20.116C11.434 19.661 11.111 19.308 10.675 19.057C10.239 18.789 9.69 18.655 9.206 18.655ZM16.6218 15.518H21.9745L24.8823 24.672C24.9677 24.913 25.0361 25.162 25.0875 25.419C25.1559 25.66 25.2158 25.918 25.2672 26.193C25.3186 26.451 25.3529 26.726 25.3701 27.018H25.4641C25.5325 26.526 25.6093 26.084 25.6949 25.692C25.7973 25.283 25.8999 24.924 26.0025 24.615L28.8761 15.518H34.0218L27.3165 33.294C26.8368 34.509 26.2547 35.512 25.5701 36.303C24.9025 37.111 24.1153 37.707 23.2085 38.091C22.3187 38.475 21.2925 38.667 20.1299 38.667C19.6161 38.667 19.1791 38.633 18.8189 38.565C18.4587 38.514 18.1497 38.454 17.8919 38.386V34.613C18.1155 34.647 18.3903 34.681 18.7163 34.715C19.0593 34.749 19.4109 34.766 19.7711 34.766C20.4387 34.766 20.9781 34.629 21.3895 34.355C21.8009 34.081 22.1269 33.721 22.3675 33.277C22.6081 32.85 22.7961 32.406 22.9315 31.945L23.1209 31.524L16.6218 15.518ZM42.5733 15.195C44.1063 15.195 45.4233 15.485 46.5243 16.065C47.6463 16.628 48.5063 17.463 49.1043 18.57C49.7193 19.66 50.0273 20.967 50.0273 22.59V24.877H39.7723C39.8113 25.987 40.1563 26.874 40.8083 27.539C41.4603 28.204 42.3793 28.537 43.5753 28.537C44.6213 28.537 45.5673 28.433 46.4133 28.225C47.2593 28.017 48.1273 27.688 49.0173 27.138V30.807C48.2503 31.228 47.4323 31.528 46.5633 31.707C45.6943 31.903 44.4973 32.001 43.1723 32.001C41.5313 32.001 40.0753 31.707 38.8043 31.119C37.5503 30.531 36.5453 29.615 35.7893 28.371C35.0503 27.11 34.6813 25.589 34.6813 23.708C34.6813 21.776 35.0303 20.201 35.7283 18.983C36.4263 17.748 37.3233 16.853 38.4193 16.298C39.5153 15.727 40.8973 15.195 42.5733 15.195ZM42.6623 18.655C41.9243 18.655 41.2563 18.895 40.7423 19.375C40.2453 19.838 39.9633 20.608 39.8623 21.685H45.4393C45.4393 21.094 45.3263 20.571 45.1003 20.116C44.8913 19.661 44.5683 19.308 44.1323 19.057C43.6963 18.789 43.1473 18.655 42.6623 18.655ZM72.5484 21.14C72.5484 22.768 72.3394 24.252 71.9214 25.592C71.5034 26.915 70.8514 28.051 69.9654 29.001C69.0794 29.951 67.9424 30.697 66.5544 31.239C65.1664 31.781 63.5094 32.001 61.5834 32.001C59.6744 32.001 58.0344 31.781 56.6634 31.239C55.2924 30.68 54.1554 29.934 53.2524 29.001C52.3494 28.051 51.6804 26.898 51.2454 25.542C50.8274 24.186 50.6184 22.717 50.6184 21.106C50.6184 18.911 51.0024 17.017 51.7704 15.424C52.5554 13.831 53.7514 12.573 55.3584 11.65C57.0004 10.744 59.0714 10.291 61.5714 10.291C64.0884 10.291 66.1424 10.744 67.7334 11.65C69.3414 12.573 70.5204 13.814 71.2704 15.373C72.0204 16.915 72.3954 18.809 72.3954 21.056L72.5484 21.14ZM57.5874 21.14C57.5874 22.503 57.7574 23.708 58.0974 24.755C58.4374 25.785 58.9664 26.589 59.6844 27.167C60.4194 27.745 61.3434 28.034 62.4564 28.034C63.6014 28.034 64.5424 27.745 65.2604 27.167C65.9784 26.589 66.5074 25.785 66.8474 24.755C67.2044 23.708 67.3834 22.503 67.3834 21.14C67.3834 19.036 66.9994 17.416 66.2314 16.28C65.4804 15.144 64.1554 14.576 62.2564 14.576C61.1604 14.576 60.2194 14.865 59.5014 15.443C58.8004 16.004 58.2714 16.826 57.9144 17.909C57.5574 18.975 57.3874 20.163 57.3874 21.473L57.5874 21.14ZM89.1844 25.592C89.1844 26.779 88.8614 27.884 88.2154 28.907C87.5694 29.913 86.6004 30.714 85.3084 31.31C84.0164 31.889 82.3934 32.179 80.4394 32.179C79.5534 32.179 78.7264 32.128 77.9584 32.026C77.1904 31.924 76.4564 31.78 75.7554 31.594C75.0714 31.39 74.4084 31.136 73.7664 30.832V26.123C75.0074 26.651 76.2654 27.076 77.5404 27.398C78.8324 27.72 80.0734 27.881 81.2634 27.881C81.9654 27.881 82.5294 27.796 82.9554 27.626C83.3984 27.439 83.7074 27.201 83.8824 26.912C84.0744 26.606 84.1704 26.266 84.1704 25.893C84.1704 25.419 83.9984 25.028 83.6544 24.72C83.3274 24.395 82.8384 24.079 82.1874 23.772C81.5364 23.449 80.7424 23.101 79.8054 22.728C79.1374 22.469 78.4784 22.176 77.8284 21.849C77.1954 21.505 76.6224 21.118 76.1094 20.688C75.6134 20.241 75.2184 19.717 74.9244 19.116C74.6474 18.498 74.5084 17.769 74.5084 16.929C74.5084 15.093 75.1094 13.687 76.3114 12.711C77.5304 11.718 79.2394 11.221 81.4384 11.221C82.7474 11.221 83.9634 11.374 85.0864 11.68C86.2094 11.986 87.3664 12.394 88.5574 12.904L87.1864 15.732C86.5524 15.314 85.8844 14.968 85.1824 14.694C84.4974 14.403 83.8294 14.257 83.1784 14.257C82.5614 14.257 82.0314 14.369 81.5884 14.593C81.1454 14.8 80.7984 15.102 80.5474 15.494C80.2964 15.869 80.1704 16.307 80.1704 16.808C80.1704 17.231 80.3254 17.611 80.6354 17.948C80.9454 18.268 81.4344 18.596 82.1024 18.932C82.7704 19.268 83.6564 19.663 84.7604 20.116C86.0354 20.62 87.1144 21.158 87.9974 21.73C88.8804 22.302 89.5484 22.975 90.0014 23.749C90.4544 24.506 90.6814 25.454 90.6814 26.593L89.1844 25.592Z"></path>
  <rect fill="#7B50C2" height="7.1032" width="7.1032" y="24.588" x="92.8968"></rect>
</svg>