<svg xmlns="http://www.w3.org/2000/svg" xmlns:xlink="http://www.w3.org/1999/xlink" width="621" zoomAndPan="magnify" viewBox="0 0 465.75 338.250003" height="451" preserveAspectRatio="xMidYMid meet" version="1.0"><defs><clipPath id="274071d907"><path d="M 171 108.34375 L 287 108.34375 L 287 226 L 171 226 Z M 171 108.34375 " clip-rule="nonzero"/></clipPath><clipPath id="6664bbc5b8"><path d="M 155.1875 113 L 310 113 L 310 228.824219 L 155.1875 228.824219 Z M 155.1875 113 " clip-rule="nonzero"/></clipPath><clipPath id="1f85684da3"><path d="M 0.390625 5 L 155 5 L 155 120.484375 L 0.390625 120.484375 Z M 0.390625 5 " clip-rule="nonzero"/></clipPath><clipPath id="a5a74708f0"><path d="M 326 216.683594 L 442 216.683594 L 442 334 L 326 334 Z M 326 216.683594 " clip-rule="nonzero"/></clipPath><clipPath id="9c80b81640"><path d="M 310 222 L 464.886719 222 L 464.886719 337.167969 L 310 337.167969 Z M 310 222 " clip-rule="nonzero"/></clipPath></defs><g clip-path="url(#274071d907)"><path fill="#ffffff" d="M 272.46875 225.042969 C 268.445312 224.449219 264.464844 223.617188 260.539062 222.542969 C 249.777344 210.585938 237.601562 200.304688 224.011719 191.695312 C 209.511719 182.585938 194.015625 175.734375 177.515625 171.144531 C 175.328125 168.730469 173.28125 166.277344 171.386719 163.804688 C 191.707031 160.203125 211.175781 153.945312 229.789062 145.035156 C 235.027344 142.523438 240.25 139.742188 245.320312 136.808594 L 246.421875 136.160156 C 263.660156 126.066406 275.421875 119.28125 286.71875 108.34375 C 278.9375 122.230469 275.957031 135.679688 272.019531 155.4375 C 271.1875 160.136719 270.367188 164.921875 269.773438 169.664062 C 267.753906 188.261719 268.632812 206.722656 272.414062 225.042969 " fill-opacity="1" fill-rule="nonzero"/></g><g clip-path="url(#6664bbc5b8)"><path fill="#ffffff" d="M 282.398438 228.824219 C 279.5625 228.8125 276.738281 228.628906 273.925781 228.273438 C 269.015625 227.65625 264.175781 226.679688 259.410156 225.351562 C 242.519531 220.476562 226.707031 213.234375 211.980469 203.632812 C 198.519531 195.164062 186.371094 185.105469 175.539062 173.460938 C 172.753906 170.417969 170.136719 167.238281 167.6875 163.917969 C 155.617188 147.546875 152.3125 133.308594 158.355469 123.867188 C 169.003906 107.15625 206.476562 111.589844 245.503906 134.125 C 248.199219 135.679688 250.839844 137.289062 253.351562 138.898438 C 260.722656 143.609375 267.753906 148.785156 274.449219 154.421875 C 303.066406 178.539062 316.140625 204.394531 306.921875 218.75 C 302.6875 225.382812 294.101562 228.882812 282.355469 228.882812 M 182.8125 117.175781 C 172.632812 117.175781 164.949219 120 161.265625 125.644531 C 156.109375 133.746094 159.472656 146.941406 170.472656 161.871094 C 172.847656 165.09375 175.390625 168.179688 178.09375 171.128906 C 188.714844 182.570312 200.632812 192.449219 213.847656 200.769531 C 228.265625 210.164062 243.746094 217.25 260.285156 222.023438 C 264.894531 223.304688 269.574219 224.246094 274.320312 224.84375 C 289.046875 226.652344 299.609375 223.800781 304.054688 216.828125 C 312.132812 204.128906 299.03125 179.597656 272.214844 157.003906 C 265.648438 151.472656 258.738281 146.40625 251.488281 141.804688 C 249.019531 140.222656 246.433594 138.644531 243.78125 137.117188 C 221.1875 124.105469 198.90625 117.175781 182.8125 117.175781 " fill-opacity="1" fill-rule="nonzero"/></g><path fill="#000000" d="M 117.585938 116.667969 C 113.5625 116.074219 109.589844 115.238281 105.664062 114.167969 C 94.910156 102.214844 82.746094 91.933594 69.164062 83.328125 C 54.675781 74.222656 39.191406 67.375 22.703125 62.785156 C 20.515625 60.371094 18.472656 57.917969 16.582031 55.449219 C 36.886719 51.847656 56.335938 45.589844 74.933594 36.683594 C 80.167969 34.171875 85.390625 31.390625 90.457031 28.457031 L 91.554688 27.808594 C 108.78125 17.722656 120.535156 10.933594 131.824219 0 C 124.046875 13.882812 121.070312 27.328125 117.136719 47.082031 C 116.300781 51.78125 115.484375 56.5625 114.890625 61.304688 C 112.871094 79.894531 113.75 98.351562 117.53125 116.667969 " fill-opacity="1" fill-rule="nonzero"/><g clip-path="url(#1f85684da3)"><path fill="#000000" d="M 127.503906 120.449219 C 124.671875 120.4375 121.851562 120.253906 119.039062 119.898438 C 114.132812 119.277344 109.300781 118.304688 104.535156 116.976562 C 87.65625 112.101562 71.859375 104.863281 57.144531 95.261719 C 43.691406 86.796875 31.550781 76.742188 20.730469 65.097656 C 17.945312 62.058594 15.332031 58.878906 12.882812 55.5625 C 0.820312 39.195312 -2.480469 24.957031 3.558594 15.519531 C 14.195312 -1.183594 51.640625 3.246094 90.636719 25.777344 C 93.332031 27.328125 95.972656 28.9375 98.484375 30.546875 C 105.847656 35.257812 112.875 40.433594 119.5625 46.066406 C 148.160156 70.179688 161.226562 96.023438 152.011719 110.375 C 147.78125 117.003906 139.203125 120.503906 127.460938 120.503906 M 27.996094 8.832031 C 17.824219 8.832031 10.148438 11.652344 6.464844 17.296875 C 1.316406 25.394531 4.671875 38.585938 15.664062 53.515625 C 18.039062 56.734375 20.578125 59.820312 23.28125 62.769531 C 33.894531 74.207031 45.804688 84.085938 59.007812 92.398438 C 73.414062 101.792969 88.882812 108.875 105.410156 113.648438 C 110.015625 114.929688 114.691406 115.871094 119.433594 116.46875 C 134.148438 118.273438 144.703125 115.425781 149.148438 108.457031 C 157.21875 95.757812 144.125 71.234375 117.332031 48.648438 C 110.769531 43.121094 103.863281 38.054688 96.621094 33.453125 C 94.152344 31.871094 91.570312 30.292969 88.917969 28.769531 C 66.34375 15.757812 44.078125 8.832031 27.996094 8.832031 " fill-opacity="1" fill-rule="nonzero"/></g><g clip-path="url(#a5a74708f0)"><path fill="#ff4c00" d="M 427.175781 333.351562 C 423.152344 332.757812 419.179688 331.925781 415.253906 330.851562 C 404.503906 318.898438 392.335938 308.617188 378.757812 300.011719 C 364.269531 290.90625 348.78125 284.058594 332.296875 279.46875 C 330.109375 277.054688 328.0625 274.601562 326.171875 272.132812 C 346.476562 268.53125 365.929688 262.277344 384.527344 253.367188 C 389.761719 250.855469 394.980469 248.078125 400.046875 245.140625 L 401.148438 244.492188 C 418.375 234.40625 430.125 227.617188 441.414062 216.683594 C 433.640625 230.566406 430.664062 244.011719 426.726562 263.765625 C 425.894531 268.464844 425.074219 273.246094 424.484375 277.988281 C 422.460938 296.578125 423.34375 315.035156 427.121094 333.351562 " fill-opacity="1" fill-rule="nonzero"/></g><g clip-path="url(#9c80b81640)"><path fill="#ff4c00" d="M 437.097656 337.132812 C 434.261719 337.121094 431.441406 336.9375 428.632812 336.582031 C 423.726562 335.960938 418.890625 334.988281 414.125 333.660156 C 397.246094 328.785156 381.449219 321.546875 366.734375 311.949219 C 353.28125 303.480469 341.144531 293.425781 330.320312 281.78125 C 327.535156 278.742188 324.921875 275.5625 322.476562 272.246094 C 310.414062 255.878906 307.109375 241.644531 313.148438 232.203125 C 323.789062 215.5 361.234375 219.929688 400.230469 242.460938 C 402.925781 244.011719 405.5625 245.621094 408.074219 247.230469 C 415.4375 251.941406 422.464844 257.117188 429.152344 262.75 C 457.75 286.863281 470.816406 312.710938 461.601562 327.058594 C 457.371094 333.6875 448.792969 337.1875 437.054688 337.1875 M 337.585938 225.515625 C 327.414062 225.515625 319.738281 228.339844 316.054688 233.980469 C 310.90625 242.078125 314.265625 255.273438 325.253906 270.199219 C 327.628906 273.417969 330.167969 276.503906 332.875 279.453125 C 343.488281 290.890625 355.394531 300.769531 368.597656 309.082031 C 383.007812 318.476562 398.476562 325.558594 415 330.332031 C 419.609375 331.613281 424.28125 332.554688 429.027344 333.152344 C 443.742188 334.960938 454.296875 332.109375 458.738281 325.140625 C 466.808594 312.441406 453.714844 287.917969 426.921875 265.332031 C 420.359375 259.804688 413.457031 254.738281 406.210938 250.136719 C 403.742188 248.554688 401.160156 246.976562 398.507812 245.453125 C 375.933594 232.445312 353.671875 225.515625 337.585938 225.515625 " fill-opacity="1" fill-rule="nonzero"/></g></svg>