<svg xmlns="http://www.w3.org/2000/svg" xmlns:xlink="http://www.w3.org/1999/xlink" width="765" zoomAndPan="magnify" viewBox="0 0 573.75 248.999984" height="332" preserveAspectRatio="xMidYMid meet" version="1.0"><defs><clipPath id="1870d46ebb"><path d="M 0 44.511719 L 573.480469 44.511719 L 573.480469 203.914062 L 0 203.914062 Z M 0 44.511719 " clip-rule="nonzero"/></clipPath><clipPath id="4ac03931c6"><path d="M 573.34375 138.414062 L 573.34375 110.015625 L 0 44.511719 L 0 203.914062 Z M 573.34375 138.414062 " clip-rule="nonzero"/></clipPath><clipPath id="9513721584"><path d="M 0 0.511719 L 573.351562 0.511719 L 573.351562 159.914062 L 0 159.914062 Z M 0 0.511719 " clip-rule="nonzero"/></clipPath><clipPath id="61e109529a"><path d="M 573.34375 94.414062 L 573.34375 66.015625 L 0 0.511719 L 0 159.914062 Z M 573.34375 94.414062 " clip-rule="nonzero"/></clipPath><clipPath id="874df26c1f"><rect x="0" width="574" y="0" height="160"/></clipPath><clipPath id="f429bb3d54"><path d="M 325.011719 0.0546875 L 573.339844 0.0546875 L 573.339844 248.382812 L 325.011719 248.382812 Z M 325.011719 0.0546875 " clip-rule="nonzero"/></clipPath><clipPath id="f4c026c79f"><path d="M 449.175781 0.0546875 C 380.601562 0.0546875 325.011719 55.644531 325.011719 124.21875 C 325.011719 192.792969 380.601562 248.382812 449.175781 248.382812 C 517.75 248.382812 573.339844 192.792969 573.339844 124.21875 C 573.339844 55.644531 517.75 0.0546875 449.175781 0.0546875 Z M 449.175781 0.0546875 " clip-rule="nonzero"/></clipPath><clipPath id="9cfb913cc5"><path d="M 0.0117188 0.0546875 L 248.339844 0.0546875 L 248.339844 248.382812 L 0.0117188 248.382812 Z M 0.0117188 0.0546875 " clip-rule="nonzero"/></clipPath><clipPath id="727f58297e"><path d="M 124.175781 0.0546875 C 55.601562 0.0546875 0.0117188 55.644531 0.0117188 124.21875 C 0.0117188 192.792969 55.601562 248.382812 124.175781 248.382812 C 192.75 248.382812 248.339844 192.792969 248.339844 124.21875 C 248.339844 55.644531 192.75 0.0546875 124.175781 0.0546875 Z M 124.175781 0.0546875 " clip-rule="nonzero"/></clipPath><clipPath id="fbdf545790"><rect x="0" width="249" y="0" height="249"/></clipPath><clipPath id="49b3cd022b"><path d="M 171.125 64.386719 L 449.175781 64.386719 L 449.175781 184.050781 L 171.125 184.050781 Z M 171.125 64.386719 " clip-rule="nonzero"/></clipPath><clipPath id="ef5ddd9ce4"><path d="M 0.125 0.386719 L 278.175781 0.386719 L 278.175781 120.050781 L 0.125 120.050781 Z M 0.125 0.386719 " clip-rule="nonzero"/></clipPath><clipPath id="f9018c46d1"><rect x="0" width="279" y="0" height="121"/></clipPath><clipPath id="ff83fe5630"><path d="M 418.410156 93.449219 L 479.945312 93.449219 L 479.945312 154.988281 L 418.410156 154.988281 Z M 418.410156 93.449219 " clip-rule="nonzero"/></clipPath><clipPath id="cc4fb12ec8"><path d="M 449.175781 93.449219 C 432.183594 93.449219 418.410156 107.226562 418.410156 124.21875 C 418.410156 141.210938 432.183594 154.988281 449.175781 154.988281 C 466.171875 154.988281 479.945312 141.210938 479.945312 124.21875 C 479.945312 107.226562 466.171875 93.449219 449.175781 93.449219 Z M 449.175781 93.449219 " clip-rule="nonzero"/></clipPath><clipPath id="1e5ae028f0"><path d="M 0.410156 0.449219 L 61.945312 0.449219 L 61.945312 61.988281 L 0.410156 61.988281 Z M 0.410156 0.449219 " clip-rule="nonzero"/></clipPath><clipPath id="026cb8e66e"><path d="M 31.175781 0.449219 C 14.183594 0.449219 0.410156 14.226562 0.410156 31.21875 C 0.410156 48.210938 14.183594 61.988281 31.175781 61.988281 C 48.171875 61.988281 61.945312 48.210938 61.945312 31.21875 C 61.945312 14.226562 48.171875 0.449219 31.175781 0.449219 Z M 31.175781 0.449219 " clip-rule="nonzero"/></clipPath><clipPath id="2f46b7917f"><rect x="0" width="62" y="0" height="62"/></clipPath></defs><g clip-path="url(#1870d46ebb)"><g clip-path="url(#4ac03931c6)"><g transform="matrix(1, 0, 0, 1, 0, 44)"><g clip-path="url(#874df26c1f)"><g clip-path="url(#9513721584)"><g clip-path="url(#61e109529a)"><path fill="#eeeeee" d="M 0 159.914062 L 0 0.511719 L 573.480469 0.511719 L 573.480469 159.914062 Z M 0 159.914062 " fill-opacity="1" fill-rule="nonzero"/></g></g></g></g></g></g><g clip-path="url(#f429bb3d54)"><g clip-path="url(#f4c026c79f)"><g transform="matrix(1, 0, 0, 1, 325, -0.00000000000002344)"><g clip-path="url(#fbdf545790)"><g clip-path="url(#9cfb913cc5)"><g clip-path="url(#727f58297e)"><path fill="#eeeeee" d="M 0.0117188 0.0546875 L 248.339844 0.0546875 L 248.339844 248.382812 L 0.0117188 248.382812 Z M 0.0117188 0.0546875 " fill-opacity="1" fill-rule="nonzero"/></g></g></g></g></g></g><g clip-path="url(#49b3cd022b)"><g transform="matrix(1, 0, 0, 1, 171, 64)"><g clip-path="url(#f9018c46d1)"><g clip-path="url(#ef5ddd9ce4)"><path fill="#eeeeee" d="M 0.125 0.386719 L 278.253906 0.386719 L 278.253906 120.050781 L 0.125 120.050781 Z M 0.125 0.386719 " fill-opacity="1" fill-rule="nonzero"/></g></g></g></g><g clip-path="url(#ff83fe5630)"><g clip-path="url(#cc4fb12ec8)"><g transform="matrix(1, 0, 0, 1, 418, 93)"><g clip-path="url(#2f46b7917f)"><g clip-path="url(#1e5ae028f0)"><g clip-path="url(#026cb8e66e)"><path fill="#ed6c35" d="M 0.410156 0.449219 L 61.945312 0.449219 L 61.945312 61.988281 L 0.410156 61.988281 Z M 0.410156 0.449219 " fill-opacity="1" fill-rule="nonzero"/></g></g></g></g></g></g></svg>