<svg xmlns="http://www.w3.org/2000/svg" xmlns:xlink="http://www.w3.org/1999/xlink" width="633" zoomAndPan="magnify" viewBox="0 0 474.75 237" height="316" preserveAspectRatio="xMidYMid meet" version="1.0"><defs><g/><clipPath id="8e7413e82a"><path d="M 39.03125 180.605469 L 439 180.605469 L 439 236 L 39.03125 236 Z M 39.03125 180.605469 " clip-rule="nonzero"/></clipPath><clipPath id="23af86a9f5"><rect x="0" width="255" y="0" height="192"/></clipPath></defs><g clip-path="url(#8e7413e82a)"><path fill="#eae8e1" d="M 58.171875 234.785156 L 39.59375 234.785156 L 39.671875 234.03125 L 41.261719 234.03125 C 42.425781 234.03125 43.410156 233.628906 44.21875 232.824219 C 45.027344 232.023438 45.433594 231.066406 45.433594 229.960938 L 45.433594 190.550781 C 45.433594 189.195312 45.105469 188.191406 44.449219 187.535156 C 43.789062 186.882812 42.855469 186.558594 41.640625 186.558594 L 39.0625 186.558594 L 39.0625 185.804688 C 40.074219 185.652344 41.136719 185.476562 42.25 185.277344 C 43.359375 185.074219 44.472656 184.824219 45.585938 184.523438 C 46.695312 184.171875 47.757812 183.71875 48.769531 183.167969 C 49.832031 182.5625 50.792969 181.835938 51.652344 180.980469 L 52.410156 180.980469 L 52.410156 230.039062 C 52.410156 231.144531 52.8125 232.097656 53.625 232.902344 C 54.484375 233.65625 55.46875 234.03125 56.582031 234.03125 L 58.171875 234.03125 Z M 73.5 180.90625 L 119 227.324219 L 119.757812 235.839844 L 74.257812 189.496094 Z M 73.730469 229.433594 L 73.730469 234.785156 L 67.433594 234.785156 L 67.433594 234.03125 C 67.433594 234.03125 67.660156 234.03125 68.117188 234.03125 C 68.570312 234.03125 68.824219 234.03125 68.875 234.03125 C 70.140625 234.03125 71.226562 233.578125 72.136719 232.675781 C 73.046875 231.769531 73.5 230.691406 73.5 229.433594 Z M 79.417969 229.433594 C 79.417969 230.691406 79.871094 231.769531 80.78125 232.675781 C 81.691406 233.578125 82.777344 234.03125 84.042969 234.03125 C 84.09375 234.03125 84.34375 234.03125 84.800781 234.03125 C 85.253906 234.03125 85.484375 234.03125 85.484375 234.03125 L 85.484375 234.785156 L 79.1875 234.785156 L 79.1875 229.433594 Z M 73.5 180.90625 L 79.339844 187.535156 L 79.417969 234.785156 L 73.5 234.785156 L 73.5 190.324219 C 73.5 187.664062 73.375 185.425781 73.121094 183.617188 C 72.871094 181.808594 72.742188 180.90625 72.742188 180.90625 Z M 119.683594 182.035156 L 119.683594 226.195312 C 119.683594 227.902344 119.734375 229.511719 119.835938 231.015625 C 119.988281 232.472656 120.113281 233.65625 120.214844 234.558594 C 120.367188 235.414062 120.441406 235.839844 120.441406 235.839844 L 119.757812 235.839844 L 113.84375 229.132812 L 113.84375 182.035156 Z M 125.75 182.035156 L 125.75 182.789062 C 125.75 182.789062 125.523438 182.789062 125.066406 182.789062 C 124.613281 182.789062 124.386719 182.789062 124.386719 182.789062 C 123.121094 182.789062 122.035156 183.242188 121.125 184.144531 C 120.214844 185 119.734375 186.078125 119.683594 187.386719 L 119.457031 187.386719 L 119.457031 182.035156 Z M 107.703125 182.035156 L 113.996094 182.035156 L 113.996094 187.386719 L 113.84375 187.386719 C 113.792969 186.078125 113.3125 185 112.402344 184.144531 C 111.542969 183.242188 110.457031 182.789062 109.144531 182.789062 C 109.144531 182.789062 108.914062 182.789062 108.460938 182.789062 C 108.003906 182.789062 107.753906 182.789062 107.703125 182.789062 Z M 146.960938 182.035156 L 146.960938 234.785156 L 139.90625 234.785156 L 139.90625 182.035156 Z M 164.171875 207.507812 L 164.171875 210.070312 L 146.730469 210.070312 L 146.730469 207.507812 Z M 167.585938 182.035156 L 167.585938 184.671875 L 146.730469 184.671875 L 146.730469 182.035156 Z M 164.171875 209.917969 L 164.171875 215.644531 L 163.414062 215.644531 L 163.414062 214.664062 C 163.414062 213.410156 162.984375 212.328125 162.125 211.425781 C 161.265625 210.519531 160.179688 210.070312 158.867188 210.070312 L 158.867188 209.917969 Z M 164.171875 201.929688 L 164.171875 207.65625 L 158.867188 207.65625 L 158.867188 207.507812 C 160.179688 207.457031 161.265625 206.980469 162.125 206.074219 C 162.984375 205.171875 163.414062 204.089844 163.414062 202.835938 L 163.414062 201.929688 Z M 167.585938 184.445312 L 167.585938 190.625 L 166.828125 190.625 L 166.828125 189.570312 C 166.828125 188.164062 166.347656 187.007812 165.386719 186.105469 C 164.476562 185.152344 163.3125 184.671875 161.898438 184.671875 L 161.898438 184.445312 Z M 167.585938 180.679688 L 167.585938 182.863281 L 158.335938 182.035156 C 159.445312 182.035156 160.609375 181.960938 161.824219 181.808594 C 163.085938 181.660156 164.25 181.484375 165.3125 181.28125 C 166.371094 181.082031 167.132812 180.878906 167.585938 180.679688 Z M 140.136719 229.285156 L 140.136719 234.785156 L 134.066406 234.785156 L 134.066406 234.03125 C 134.066406 234.03125 134.21875 234.03125 134.523438 234.03125 C 134.878906 234.03125 135.054688 234.03125 135.054688 234.03125 C 136.367188 234.03125 137.480469 233.578125 138.390625 232.675781 C 139.351562 231.722656 139.855469 230.589844 139.90625 229.285156 Z M 140.136719 187.535156 L 139.90625 187.535156 C 139.90625 186.230469 139.425781 185.125 138.464844 184.222656 C 137.507812 183.265625 136.367188 182.789062 135.054688 182.789062 C 135.054688 182.789062 134.902344 182.789062 134.597656 182.789062 C 134.296875 182.789062 134.144531 182.789062 134.144531 182.789062 L 134.066406 182.035156 L 140.136719 182.035156 Z M 146.730469 229.285156 L 146.960938 229.285156 C 147.011719 230.589844 147.492188 231.722656 148.402344 232.675781 C 149.359375 233.578125 150.5 234.03125 151.8125 234.03125 C 151.8125 234.03125 151.964844 234.03125 152.269531 234.03125 C 152.570312 234.03125 152.75 234.03125 152.796875 234.03125 L 152.796875 234.785156 L 146.730469 234.785156 Z M 197.796875 180.980469 C 201.738281 180.980469 205.101562 182.109375 207.882812 184.371094 C 210.714844 186.582031 212.886719 189.746094 214.402344 193.867188 C 215.96875 197.9375 216.753906 202.785156 216.753906 208.410156 C 216.753906 214.039062 215.96875 218.910156 214.402344 223.03125 C 212.886719 227.097656 210.714844 230.265625 207.882812 232.523438 C 205.101562 234.734375 201.738281 235.839844 197.796875 235.839844 C 193.851562 235.839844 190.464844 234.734375 187.632812 232.523438 C 184.804688 230.265625 182.605469 227.097656 181.035156 223.03125 C 179.519531 218.910156 178.761719 214.039062 178.761719 208.410156 C 178.761719 202.785156 179.519531 197.9375 181.035156 193.867188 C 182.605469 189.746094 184.804688 186.582031 187.632812 184.371094 C 190.464844 182.109375 193.851562 180.980469 197.796875 180.980469 Z M 197.796875 183.542969 C 194.15625 183.542969 191.324219 185.726562 189.304688 190.097656 C 187.28125 194.46875 186.269531 200.574219 186.269531 208.410156 C 186.269531 216.246094 187.28125 222.351562 189.304688 226.722656 C 191.324219 231.09375 194.15625 233.277344 197.796875 233.277344 C 201.386719 233.277344 204.191406 231.09375 206.214844 226.722656 C 208.234375 222.351562 209.246094 216.246094 209.246094 208.410156 C 209.246094 200.574219 208.234375 194.46875 206.214844 190.097656 C 204.191406 185.726562 201.386719 183.542969 197.796875 183.542969 Z M 250.804688 182.261719 L 250.804688 234.785156 L 243.75 234.785156 L 243.75 182.261719 Z M 269.988281 181.960938 L 269.988281 184.523438 L 224.566406 184.523438 L 224.566406 181.960938 Z M 269.988281 184.296875 L 269.988281 191.304688 L 269.230469 191.230469 L 269.230469 190.097656 C 269.230469 188.492188 268.699219 187.183594 267.640625 186.179688 C 266.628906 185.125 265.3125 184.574219 263.695312 184.523438 L 263.695312 184.296875 Z M 269.988281 180.605469 L 269.988281 182.789062 L 260.738281 181.960938 C 261.851562 181.960938 263.011719 181.886719 264.226562 181.734375 C 265.492188 181.582031 266.652344 181.40625 267.714844 181.207031 C 268.777344 181.007812 269.535156 180.804688 269.988281 180.605469 Z M 243.980469 229.285156 L 243.980469 234.785156 L 237.914062 234.785156 L 237.914062 234.03125 C 237.914062 234.03125 238.0625 234.03125 238.367188 234.03125 C 238.722656 234.03125 238.898438 234.03125 238.898438 234.03125 C 240.210938 234.03125 241.324219 233.578125 242.234375 232.675781 C 243.195312 231.722656 243.703125 230.589844 243.75 229.285156 Z M 250.578125 229.285156 L 250.804688 229.285156 C 250.855469 230.589844 251.335938 231.722656 252.246094 232.675781 C 253.207031 233.578125 254.34375 234.03125 255.65625 234.03125 C 255.65625 234.03125 255.808594 234.03125 256.113281 234.03125 C 256.464844 234.03125 256.644531 234.03125 256.644531 234.03125 L 256.644531 234.785156 L 250.578125 234.785156 Z M 230.859375 184.296875 L 230.859375 184.523438 C 229.242188 184.574219 227.902344 185.125 226.839844 186.179688 C 225.828125 187.183594 225.324219 188.492188 225.324219 190.097656 L 225.324219 191.230469 L 224.566406 191.304688 L 224.566406 184.296875 Z M 224.566406 180.605469 C 225.070312 180.804688 225.828125 181.007812 226.839844 181.207031 C 227.902344 181.40625 229.066406 181.582031 230.328125 181.734375 C 231.59375 181.886719 232.757812 181.960938 233.816406 181.960938 L 224.566406 182.789062 Z M 290.355469 182.035156 L 290.355469 234.785156 L 283.304688 234.785156 L 283.304688 182.035156 Z M 310.679688 232.148438 L 311.285156 234.785156 L 290.128906 234.785156 L 290.128906 232.148438 Z M 307.570312 207.507812 L 307.570312 210.070312 L 290.128906 210.070312 L 290.128906 207.507812 Z M 310.984375 182.035156 L 310.984375 184.671875 L 290.128906 184.671875 L 290.128906 182.035156 Z M 315.609375 221.523438 L 311.511719 234.785156 L 298.167969 234.785156 L 300.898438 232.148438 C 303.527344 232.148438 305.726562 231.722656 307.496094 230.867188 C 309.265625 229.960938 310.730469 228.707031 311.894531 227.097656 C 313.054688 225.492188 314.042969 223.632812 314.851562 221.523438 Z M 307.570312 209.917969 L 307.570312 215.644531 L 306.8125 215.644531 L 306.8125 214.664062 C 306.8125 213.410156 306.382812 212.328125 305.523438 211.425781 C 304.664062 210.519531 303.578125 210.070312 302.261719 210.070312 L 302.261719 209.917969 Z M 307.570312 201.929688 L 307.570312 207.65625 L 302.261719 207.65625 L 302.261719 207.507812 C 303.578125 207.457031 304.664062 206.980469 305.523438 206.074219 C 306.382812 205.171875 306.8125 204.089844 306.8125 202.835938 L 306.8125 201.929688 Z M 310.984375 184.445312 L 310.984375 191.378906 L 310.222656 191.378906 L 310.222656 190.175781 C 310.222656 188.617188 309.695312 187.3125 308.632812 186.253906 C 307.621094 185.199219 306.304688 184.648438 304.6875 184.597656 L 304.6875 184.445312 Z M 310.984375 180.679688 L 310.984375 182.863281 L 301.730469 182.035156 C 302.84375 182.035156 304.007812 181.960938 305.21875 181.808594 C 306.484375 181.660156 307.644531 181.484375 308.707031 181.28125 C 309.769531 181.082031 310.527344 180.878906 310.984375 180.679688 Z M 283.53125 229.285156 L 283.53125 234.785156 L 277.464844 234.785156 L 277.464844 234.03125 C 277.464844 234.03125 277.617188 234.03125 277.917969 234.03125 C 278.273438 234.03125 278.449219 234.03125 278.449219 234.03125 C 279.765625 234.03125 280.878906 233.578125 281.789062 232.675781 C 282.746094 231.722656 283.253906 230.589844 283.304688 229.285156 Z M 283.53125 187.535156 L 283.304688 187.535156 C 283.304688 186.230469 282.824219 185.125 281.863281 184.222656 C 280.902344 183.265625 279.765625 182.789062 278.449219 182.789062 C 278.449219 182.789062 278.300781 182.789062 277.996094 182.789062 C 277.691406 182.789062 277.539062 182.789062 277.539062 182.789062 L 277.464844 182.035156 L 283.53125 182.035156 Z M 373.535156 212.78125 L 373.15625 224.988281 C 371.890625 227.046875 370.273438 228.90625 368.304688 230.566406 C 366.382812 232.171875 364.054688 233.453125 361.328125 234.410156 C 358.597656 235.363281 355.4375 235.839844 351.847656 235.839844 C 346.285156 235.789062 341.355469 234.660156 337.058594 232.449219 C 332.8125 230.1875 329.5 227.023438 327.125 222.953125 C 324.75 218.835938 323.5625 213.960938 323.5625 208.335938 C 323.5625 202.808594 324.722656 198.011719 327.050781 193.941406 C 329.425781 189.824219 332.738281 186.632812 336.984375 184.371094 C 341.28125 182.109375 346.363281 180.980469 352.226562 180.980469 C 356.070312 180.980469 359.53125 181.457031 362.617188 182.414062 C 365.699219 183.316406 368.328125 184.445312 370.503906 185.804688 L 371.5625 197.183594 L 370.882812 197.183594 C 369.667969 192.5625 367.394531 189.144531 364.054688 186.933594 C 360.769531 184.671875 356.929688 183.542969 352.53125 183.542969 C 348.183594 183.542969 344.441406 184.574219 341.304688 186.632812 C 338.171875 188.640625 335.746094 191.503906 334.027344 195.222656 C 332.308594 198.890625 331.449219 203.234375 331.449219 208.261719 C 331.449219 213.234375 332.28125 217.578125 333.949219 221.296875 C 335.667969 225.015625 338.046875 227.929688 341.078125 230.039062 C 344.164062 232.097656 347.753906 233.175781 351.847656 233.277344 C 355.539062 233.277344 358.847656 232.625 361.78125 231.320312 C 364.714844 230.011719 367.140625 227.878906 369.0625 224.914062 C 370.980469 221.898438 372.269531 217.855469 372.929688 212.78125 Z M 432.488281 182.035156 L 432.488281 234.785156 L 425.433594 234.785156 L 425.433594 182.035156 Z M 396.542969 182.035156 L 396.542969 234.785156 L 389.492188 234.785156 L 389.492188 182.035156 Z M 426.117188 207.355469 L 426.117188 209.917969 L 395.785156 209.917969 L 395.785156 207.355469 Z M 389.71875 229.285156 L 389.71875 234.785156 L 383.652344 234.785156 L 383.652344 234.03125 C 383.652344 234.03125 383.804688 234.03125 384.105469 234.03125 C 384.460938 234.03125 384.636719 234.03125 384.636719 234.03125 C 385.953125 234.03125 387.0625 233.578125 387.972656 232.675781 C 388.933594 231.722656 389.441406 230.589844 389.492188 229.285156 Z M 389.71875 187.535156 L 389.492188 187.535156 C 389.441406 186.230469 388.933594 185.125 387.972656 184.222656 C 387.0625 183.265625 385.953125 182.789062 384.636719 182.789062 C 384.636719 182.789062 384.460938 182.789062 384.105469 182.789062 C 383.804688 182.789062 383.652344 182.789062 383.652344 182.789062 L 383.652344 182.035156 L 389.71875 182.035156 Z M 396.316406 229.285156 L 396.542969 229.285156 C 396.59375 230.589844 397.074219 231.722656 397.984375 232.675781 C 398.945312 233.578125 400.082031 234.03125 401.394531 234.03125 C 401.394531 234.03125 401.546875 234.03125 401.851562 234.03125 C 402.15625 234.03125 402.332031 234.03125 402.382812 234.03125 L 402.382812 234.785156 L 396.316406 234.785156 Z M 396.316406 187.535156 L 396.316406 182.035156 L 402.382812 182.035156 L 402.382812 182.789062 C 402.332031 182.789062 402.15625 182.789062 401.851562 182.789062 C 401.546875 182.789062 401.394531 182.789062 401.394531 182.789062 C 400.082031 182.789062 398.945312 183.265625 397.984375 184.222656 C 397.074219 185.125 396.59375 186.230469 396.542969 187.535156 Z M 425.664062 229.285156 L 425.664062 234.785156 L 419.597656 234.785156 L 419.597656 234.03125 C 419.648438 234.03125 419.824219 234.03125 420.128906 234.03125 C 420.429688 234.03125 420.582031 234.03125 420.582031 234.03125 C 421.898438 234.03125 423.035156 233.578125 423.996094 232.675781 C 424.957031 231.722656 425.433594 230.589844 425.433594 229.285156 Z M 425.664062 187.535156 L 425.433594 187.535156 C 425.433594 186.230469 424.957031 185.125 423.996094 184.222656 C 423.035156 183.265625 421.898438 182.789062 420.582031 182.789062 C 420.582031 182.789062 420.429688 182.789062 420.128906 182.789062 C 419.824219 182.789062 419.648438 182.789062 419.597656 182.789062 L 419.597656 182.035156 L 425.664062 182.035156 Z M 432.261719 229.285156 L 432.488281 229.285156 C 432.539062 230.589844 433.019531 231.722656 433.929688 232.675781 C 434.890625 233.578125 436.027344 234.03125 437.339844 234.03125 C 437.339844 234.03125 437.492188 234.03125 437.796875 234.03125 C 438.148438 234.03125 438.328125 234.03125 438.328125 234.03125 L 438.328125 234.785156 L 432.261719 234.785156 Z M 432.261719 187.535156 L 432.261719 182.035156 L 438.328125 182.035156 L 438.328125 182.789062 C 438.328125 182.789062 438.148438 182.789062 437.796875 182.789062 C 437.492188 182.789062 437.339844 182.789062 437.339844 182.789062 C 436.027344 182.789062 434.890625 183.265625 433.929688 184.222656 C 433.019531 185.125 432.539062 186.230469 432.488281 187.535156 Z M 432.261719 187.535156 " fill-opacity="1" fill-rule="nonzero"/></g><g transform="matrix(1, 0, 0, 1, 109, 20)"><g clip-path="url(#23af86a9f5)"><g fill="#eae8e0" fill-opacity="1"><g transform="translate(1.512085, 149.936119)"><g><path d="M 12.96875 -81.046875 C 13.050781 -81.128906 13.265625 -81.171875 13.609375 -81.171875 C 14.210938 -81.171875 15.253906 -81 16.734375 -80.65625 C 20.359375 -79.875 23.597656 -78.75 26.453125 -77.28125 C 29.304688 -75.8125 31.335938 -74.320312 32.546875 -72.8125 C 33.753906 -71.300781 34.359375 -69.894531 34.359375 -68.59375 C 34.359375 -68.070312 34.273438 -67.597656 34.109375 -67.171875 C 33.929688 -65.609375 33.300781 -64.632812 32.21875 -64.25 C 31.144531 -63.863281 30.175781 -63.671875 29.3125 -63.671875 C 28.53125 -63.671875 27.664062 -63.800781 26.71875 -64.0625 C 25.851562 -64.40625 25.289062 -64.835938 25.03125 -65.359375 C 24.507812 -67.429688 23.1875 -69.785156 21.0625 -72.421875 C 18.945312 -75.054688 16.722656 -77.28125 14.390625 -79.09375 C 13.097656 -79.957031 12.453125 -80.453125 12.453125 -80.578125 C 12.453125 -80.710938 12.625 -80.867188 12.96875 -81.046875 Z M 107.234375 -78.703125 C 108.535156 -79.828125 109.316406 -80.410156 109.578125 -80.453125 C 109.835938 -80.503906 110.007812 -80.53125 110.09375 -80.53125 C 110.613281 -80.53125 111.691406 -80.050781 113.328125 -79.09375 C 117.648438 -76.59375 119.8125 -74.953125 119.8125 -74.171875 C 119.644531 -73.910156 119.429688 -73.738281 119.171875 -73.65625 C 118.648438 -73.394531 111.429688 -73.265625 97.515625 -73.265625 L 76.640625 -73.265625 L 76.125 -70.9375 C 75.257812 -66.957031 74.519531 -63.800781 73.90625 -61.46875 L 73.78125 -60.953125 L 93.875 -60.953125 L 96.09375 -62.375 C 97.207031 -63.238281 97.9375 -63.734375 98.28125 -63.859375 C 98.632812 -63.992188 98.894531 -64.0625 99.0625 -64.0625 C 99.414062 -64.0625 99.847656 -63.972656 100.359375 -63.796875 C 101.054688 -63.628906 102.375 -63.113281 104.3125 -62.25 C 106.257812 -61.382812 107.664062 -60.644531 108.53125 -60.03125 C 109.570312 -59.519531 110.09375 -59.046875 110.09375 -58.609375 C 110.09375 -58.609375 110.046875 -58.476562 109.953125 -58.21875 C 109.867188 -57.957031 109.09375 -57.484375 107.625 -56.796875 L 106.078125 -55.890625 L 105.9375 -48.890625 L 105.9375 -41.625 L 106.984375 -41.625 C 107.671875 -41.625 108.226562 -41.773438 108.65625 -42.078125 C 109.09375 -42.378906 110.132812 -43.179688 111.78125 -44.484375 C 112.726562 -45.347656 113.503906 -45.78125 114.109375 -45.78125 C 114.804688 -45.78125 116.515625 -44.976562 119.234375 -43.375 C 121.953125 -41.769531 123.359375 -40.710938 123.453125 -40.203125 C 123.535156 -40.023438 123.578125 -39.847656 123.578125 -39.671875 C 123.578125 -39.421875 123.445312 -39.25 123.1875 -39.15625 C 121.894531 -38.988281 108.0625 -38.90625 81.6875 -38.90625 L 40.203125 -38.90625 L 40.203125 -41.5 L 49.140625 -41.5 C 55.109375 -41.5 58.132812 -41.539062 58.21875 -41.625 C 58.476562 -42.144531 59.773438 -47.203125 62.109375 -56.796875 C 62.203125 -57.140625 62.25 -57.398438 62.25 -57.578125 C 62.25 -57.835938 62.160156 -58.007812 61.984375 -58.09375 C 61.804688 -58.175781 61.113281 -58.21875 59.90625 -58.21875 C 58.613281 -58.21875 56.800781 -58.175781 54.46875 -58.09375 L 47.078125 -58.09375 L 47.078125 -60.953125 L 63.015625 -60.953125 L 63.28125 -62.25 C 63.539062 -63.363281 64.015625 -65.265625 64.703125 -67.953125 C 65.304688 -70.804688 65.695312 -72.40625 65.875 -72.75 C 65.875 -72.914062 65.65625 -73.046875 65.21875 -73.140625 C 64.613281 -73.222656 60.984375 -73.265625 54.328125 -73.265625 L 42.65625 -73.265625 L 42.65625 -76.125 L 73 -76.125 C 93.488281 -76.125 103.863281 -76.25 104.125 -76.5 C 104.5625 -76.59375 105.597656 -77.328125 107.234375 -78.703125 Z M 94.921875 -58.09375 L 84.15625 -58.09375 C 76.8125 -58.09375 73.09375 -58.050781 73 -57.96875 C 72.914062 -57.707031 72.242188 -55.023438 70.984375 -49.921875 C 69.734375 -44.816406 69.109375 -42.09375 69.109375 -41.75 C 69.109375 -41.664062 73.390625 -41.625 81.953125 -41.625 L 94.921875 -41.625 Z M 24.125 -59.125 C 25.070312 -59.820312 25.847656 -60.171875 26.453125 -60.171875 C 26.535156 -60.171875 26.625 -60.171875 26.71875 -60.171875 C 28.007812 -59.992188 30.382812 -58.910156 33.84375 -56.921875 C 34.789062 -56.234375 35.414062 -55.738281 35.71875 -55.4375 C 36.019531 -55.132812 36.171875 -54.851562 36.171875 -54.59375 C 36.171875 -54.507812 36.109375 -54.378906 35.984375 -54.203125 C 35.859375 -54.023438 35.363281 -53.722656 34.5 -53.296875 C 33.375 -52.859375 32.722656 -52.507812 32.546875 -52.25 C 32.367188 -52 32.28125 -45.953125 32.28125 -34.109375 C 32.28125 -22.347656 32.367188 -16.46875 32.546875 -16.46875 C 32.722656 -16.550781 34.238281 -16.984375 37.09375 -17.765625 C 39.507812 -18.546875 42.316406 -19.410156 45.515625 -20.359375 C 48.285156 -21.222656 49.796875 -21.65625 50.046875 -21.65625 C 50.046875 -21.65625 50.066406 -21.632812 50.109375 -21.59375 C 50.160156 -21.550781 50.226562 -21.3125 50.3125 -20.875 C 50.3125 -20.789062 50.265625 -20.703125 50.171875 -20.609375 C 50.085938 -20.523438 49.828125 -20.3125 49.390625 -19.96875 C 48.960938 -19.625 48.40625 -19.210938 47.71875 -18.734375 C 47.03125 -18.265625 46.078125 -17.640625 44.859375 -16.859375 C 37.773438 -12.273438 31.597656 -8.425781 26.328125 -5.3125 C 24.421875 -4.363281 23.46875 -3.757812 23.46875 -3.5 C 23.382812 -3.15625 23.171875 -2.59375 22.828125 -1.8125 C 22.566406 -1.207031 22.265625 -0.90625 21.921875 -0.90625 C 21.660156 -0.90625 21.398438 -1.035156 21.140625 -1.296875 C 20.796875 -1.898438 19.84375 -3.585938 18.28125 -6.359375 C 16.550781 -9.640625 15.6875 -11.410156 15.6875 -11.671875 C 15.6875 -11.753906 16.640625 -12.097656 18.546875 -12.703125 L 21.265625 -13.21875 L 21.265625 -54.078125 L 5.96875 -54.078125 L 5.96875 -56.921875 L 13.09375 -56.921875 C 17.414062 -56.921875 19.96875 -56.984375 20.75 -57.109375 C 21.53125 -57.242188 22.65625 -57.914062 24.125 -59.125 Z M 103.484375 -32.671875 C 103.734375 -32.847656 104.03125 -32.9375 104.375 -32.9375 C 104.726562 -32.9375 105.960938 -32.414062 108.078125 -31.375 C 110.203125 -30.34375 111.820312 -29.476562 112.9375 -28.78125 C 113.800781 -28.269531 114.296875 -27.90625 114.421875 -27.6875 C 114.554688 -27.46875 114.625 -27.226562 114.625 -26.96875 C 114.539062 -26.363281 114.109375 -25.890625 113.328125 -25.546875 C 113.160156 -25.460938 112.925781 -25.332031 112.625 -25.15625 C 112.320312 -24.976562 112.082031 -24.847656 111.90625 -24.765625 C 111.726562 -24.679688 111.597656 -24.640625 111.515625 -24.640625 C 110.828125 -24.378906 110.4375 -23.664062 110.34375 -22.5 C 110.257812 -21.332031 110.21875 -17.722656 110.21875 -11.671875 L 110.21875 -0.265625 L 99.84375 -0.265625 L 99.84375 -5.3125 L 81.828125 -5.3125 L 63.671875 -5.1875 L 63.671875 -0.265625 L 53.421875 -0.265625 L 53.421875 -1.296875 C 53.421875 -1.296875 53.421875 -2.007812 53.421875 -3.4375 C 53.421875 -4.863281 53.398438 -6.9375 53.359375 -9.65625 C 53.316406 -12.382812 53.296875 -14.914062 53.296875 -17.25 C 53.296875 -27.363281 53.296875 -32.421875 53.296875 -32.421875 C 53.378906 -32.421875 55.066406 -31.988281 58.359375 -31.125 L 63.28125 -29.828125 L 97.390625 -29.828125 C 98.253906 -29.828125 98.859375 -29.847656 99.203125 -29.890625 C 99.546875 -29.929688 100.191406 -30.34375 101.140625 -31.125 C 102.265625 -31.988281 103.046875 -32.503906 103.484375 -32.671875 Z M 99.84375 -26.96875 L 63.671875 -26.96875 L 63.671875 -8.171875 L 99.84375 -8.171875 Z M 99.84375 -26.96875 "/></g></g></g><g fill="#eae8e0" fill-opacity="1"><g transform="translate(124.68848, 149.936119)"><g><path d="M 16.984375 -82.21875 L 23.078125 -80.921875 C 28.097656 -79.878906 30.734375 -79.1875 30.984375 -78.84375 C 31.242188 -78.582031 31.375 -78.320312 31.375 -78.0625 C 31.375 -77.632812 30.597656 -77.242188 29.046875 -76.890625 C 28.960938 -76.890625 28.875 -76.890625 28.78125 -76.890625 C 28.09375 -76.804688 27.679688 -76.675781 27.546875 -76.5 C 27.421875 -76.332031 27.144531 -75.859375 26.71875 -75.078125 C 25.59375 -73.179688 24.8125 -71.800781 24.375 -70.9375 C 23.507812 -69.375 23.078125 -68.550781 23.078125 -68.46875 C 23.078125 -68.46875 23.554688 -68.46875 24.515625 -68.46875 C 25.546875 -68.46875 27.53125 -68.488281 30.46875 -68.53125 C 33.40625 -68.570312 35.050781 -68.722656 35.40625 -68.984375 C 36.007812 -69.421875 36.875 -70.15625 38 -71.1875 C 39.375 -72.226562 40.238281 -72.75 40.59375 -72.75 C 41.101562 -72.75 42.070312 -72.359375 43.5 -71.578125 C 44.925781 -70.796875 46.332031 -69.929688 47.71875 -68.984375 C 49.101562 -68.035156 49.96875 -67.390625 50.3125 -67.046875 C 50.394531 -66.953125 50.4375 -66.820312 50.4375 -66.65625 C 50.4375 -66.476562 50.367188 -66.28125 50.234375 -66.0625 C 50.109375 -65.851562 45.164062 -65.703125 35.40625 -65.609375 L 21 -65.609375 L 18.9375 -62.5 C 17.289062 -60.25 15.816406 -58.347656 14.515625 -56.796875 L 12.453125 -54.203125 L 21.53125 -54.203125 C 27.664062 -54.203125 30.90625 -54.332031 31.25 -54.59375 C 31.6875 -54.757812 32.59375 -55.453125 33.96875 -56.671875 C 35.4375 -57.878906 36.476562 -58.484375 37.09375 -58.484375 C 38.207031 -58.484375 40.625 -57.1875 44.34375 -54.59375 C 45.726562 -53.644531 46.421875 -52.929688 46.421875 -52.453125 C 46.421875 -51.972656 46.207031 -51.691406 45.78125 -51.609375 C 45.601562 -51.523438 43.140625 -51.484375 38.390625 -51.484375 L 31.125 -51.484375 L 31.25 -44.09375 L 31.25 -36.5625 L 31.90625 -36.5625 C 32.070312 -36.5625 32.242188 -36.5625 32.421875 -36.5625 C 33.710938 -36.5625 35.3125 -37.296875 37.21875 -38.765625 C 38.851562 -40.066406 39.847656 -40.71875 40.203125 -40.71875 C 40.890625 -40.71875 42.613281 -39.914062 45.375 -38.3125 C 48.144531 -36.71875 49.578125 -35.703125 49.671875 -35.265625 C 49.753906 -35.097656 49.796875 -34.925781 49.796875 -34.75 C 49.796875 -34.40625 49.535156 -34.191406 49.015625 -34.109375 L 40.203125 -33.96875 L 31.125 -33.96875 L 31.125 -24.515625 C 31.125 -18.023438 31.207031 -14.78125 31.375 -14.78125 C 31.976562 -14.78125 37.082031 -16.207031 46.6875 -19.0625 C 48.0625 -19.488281 48.878906 -19.703125 49.140625 -19.703125 C 49.398438 -19.703125 49.617188 -19.578125 49.796875 -19.328125 C 49.796875 -19.234375 49.796875 -19.1875 49.796875 -19.1875 C 49.796875 -18.925781 49.535156 -18.601562 49.015625 -18.21875 C 48.492188 -17.832031 46.804688 -16.816406 43.953125 -15.171875 C 38.160156 -11.710938 32.929688 -8.773438 28.265625 -6.359375 C 26.015625 -5.234375 24.671875 -4.492188 24.234375 -4.140625 C 23.804688 -3.796875 23.550781 -3.410156 23.46875 -2.984375 C 23.207031 -2.378906 22.90625 -1.90625 22.5625 -1.5625 C 22.382812 -1.300781 22.210938 -1.171875 22.046875 -1.171875 C 21.960938 -1.171875 21.875 -1.210938 21.78125 -1.296875 C 21.351562 -1.554688 20.316406 -3.242188 18.671875 -6.359375 L 16.34375 -10.890625 L 17.640625 -11.546875 C 19.191406 -11.972656 20.054688 -12.1875 20.234375 -12.1875 L 21.140625 -12.453125 L 21.140625 -33.96875 L 4.796875 -33.96875 L 4.796875 -36.4375 L 21.140625 -36.4375 L 21.140625 -51.484375 L 11.9375 -51.484375 L 11.9375 -53.546875 L 9.34375 -51.09375 C 7.351562 -49.28125 6.25 -48.304688 6.03125 -48.171875 C 5.8125 -48.046875 5.617188 -47.984375 5.453125 -47.984375 C 5.273438 -47.984375 5.054688 -48.066406 4.796875 -48.234375 C 4.367188 -48.492188 4.15625 -48.710938 4.15625 -48.890625 C 4.15625 -48.972656 4.15625 -49.015625 4.15625 -49.015625 C 4.320312 -49.191406 5.1875 -50.75 6.75 -53.6875 C 10.8125 -61.8125 14.140625 -70.929688 16.734375 -81.046875 Z M 78.1875 -77.03125 C 78.1875 -80.488281 78.273438 -82.21875 78.453125 -82.21875 C 78.972656 -82.21875 81.113281 -81.957031 84.875 -81.4375 C 88.632812 -80.914062 90.644531 -80.613281 90.90625 -80.53125 C 91.332031 -80.351562 91.546875 -80.132812 91.546875 -79.875 C 91.546875 -79.53125 91.15625 -79.054688 90.375 -78.453125 C 89.769531 -78.109375 89.359375 -77.675781 89.140625 -77.15625 C 88.929688 -76.632812 88.828125 -75.679688 88.828125 -74.296875 L 89.078125 -72.09375 L 96.09375 -71.84375 C 100.757812 -71.84375 103.394531 -71.972656 104 -72.234375 C 104.6875 -72.398438 105.679688 -73.046875 106.984375 -74.171875 C 108.453125 -75.472656 109.316406 -76.207031 109.578125 -76.375 C 109.742188 -76.457031 109.914062 -76.5 110.09375 -76.5 C 110.957031 -76.5 112.296875 -75.984375 114.109375 -74.953125 C 117.910156 -72.703125 119.941406 -71.316406 120.203125 -70.796875 C 120.203125 -70.710938 120.203125 -70.582031 120.203125 -70.40625 C 120.203125 -70.0625 119.941406 -69.804688 119.421875 -69.640625 C 118.390625 -69.378906 114.546875 -69.25 107.890625 -69.25 L 96.21875 -69.25 L 101.40625 -67.5625 C 104.164062 -66.601562 105.890625 -65.953125 106.578125 -65.609375 C 107.273438 -65.265625 107.625 -64.921875 107.625 -64.578125 C 107.625 -63.890625 106.847656 -63.546875 105.296875 -63.546875 C 104.515625 -63.546875 103.429688 -63.066406 102.046875 -62.109375 C 100.578125 -61.160156 98.632812 -60.035156 96.21875 -58.734375 L 92.453125 -56.796875 L 100.359375 -56.796875 C 105.640625 -56.796875 108.535156 -56.882812 109.046875 -57.0625 C 109.398438 -57.144531 110.351562 -57.878906 111.90625 -59.265625 C 113.550781 -60.640625 114.585938 -61.328125 115.015625 -61.328125 C 115.535156 -61.328125 117.046875 -60.65625 119.546875 -59.3125 C 122.054688 -57.976562 123.742188 -56.921875 124.609375 -56.140625 C 124.867188 -55.890625 125 -55.546875 125 -55.109375 C 125 -54.679688 124.867188 -54.378906 124.609375 -54.203125 C 124.347656 -54.023438 111.425781 -53.9375 85.84375 -53.9375 L 47.84375 -53.9375 L 47.84375 -56.796875 L 58.21875 -56.796875 C 65.132812 -56.796875 68.59375 -56.835938 68.59375 -56.921875 C 68.59375 -57.015625 68.378906 -57.492188 67.953125 -58.359375 C 66.910156 -60.773438 65.265625 -63.109375 63.015625 -65.359375 C 61.804688 -66.734375 61.203125 -67.550781 61.203125 -67.8125 C 61.203125 -67.90625 61.203125 -67.953125 61.203125 -67.953125 C 61.460938 -68.035156 61.851562 -68.078125 62.375 -68.078125 C 63.15625 -68.078125 64.40625 -67.945312 66.125 -67.6875 C 67.851562 -67.425781 69.539062 -66.992188 71.1875 -66.390625 C 73.78125 -65.347656 75.441406 -64.179688 76.171875 -62.890625 C 76.910156 -61.597656 77.28125 -60.5625 77.28125 -59.78125 C 77.28125 -58.914062 76.976562 -58.132812 76.375 -57.4375 L 75.46875 -56.796875 L 87.78125 -56.796875 L 89.078125 -58.609375 C 89.597656 -59.472656 90.332031 -60.722656 91.28125 -62.359375 C 92.238281 -64.003906 93.082031 -65.5 93.8125 -66.84375 C 94.550781 -68.1875 94.921875 -68.941406 94.921875 -69.109375 C 94.921875 -69.203125 87.703125 -69.25 73.265625 -69.25 L 51.734375 -69.25 L 51.734375 -71.84375 L 78.1875 -71.84375 Z M 105.296875 -50.703125 C 105.460938 -50.785156 105.722656 -50.828125 106.078125 -50.828125 C 107.285156 -50.828125 109.316406 -50.007812 112.171875 -48.375 C 115.191406 -46.644531 116.703125 -45.390625 116.703125 -44.609375 C 116.703125 -44.171875 115.925781 -43.738281 114.375 -43.3125 C 113.507812 -43.050781 113.007812 -42.46875 112.875 -41.5625 C 112.75 -40.65625 112.6875 -37.609375 112.6875 -32.421875 C 112.6875 -31.816406 112.6875 -31.335938 112.6875 -30.984375 L 112.6875 -19.96875 L 102.3125 -19.96875 L 102.3125 -22.4375 L 100.109375 -22.5625 C 99.328125 -22.644531 98.722656 -22.6875 98.296875 -22.6875 C 97.859375 -22.6875 97.597656 -22.644531 97.515625 -22.5625 C 97.515625 -22.476562 97.515625 -20.316406 97.515625 -16.078125 C 97.515625 -15.816406 97.515625 -15.382812 97.515625 -14.78125 C 97.515625 -11.238281 97.878906 -9.1875 98.609375 -8.625 C 99.347656 -8.0625 101.789062 -7.78125 105.9375 -7.78125 C 106.539062 -7.78125 107.0625 -7.78125 107.5 -7.78125 C 112.34375 -7.78125 115.019531 -7.820312 115.53125 -7.90625 C 116.75 -8.34375 117.570312 -9.125 118 -10.25 C 118.175781 -11.28125 118.609375 -13.09375 119.296875 -15.6875 C 120.078125 -18.71875 120.597656 -20.234375 120.859375 -20.234375 C 121.117188 -20.234375 121.25 -18.847656 121.25 -16.078125 C 121.25 -13.484375 121.351562 -11.863281 121.5625 -11.21875 C 121.78125 -10.570312 122.28125 -10.117188 123.0625 -9.859375 C 123.832031 -9.679688 124.457031 -9.351562 124.9375 -8.875 C 125.414062 -8.40625 125.65625 -7.738281 125.65625 -6.875 C 125.65625 -5.226562 125.046875 -3.882812 123.828125 -2.84375 C 122.617188 -1.8125 120.847656 -1.035156 118.515625 -0.515625 C 117.566406 -0.253906 114.109375 -0.125 108.140625 -0.125 C 102.179688 -0.125 98.289062 -0.253906 96.46875 -0.515625 C 92.238281 -1.035156 89.5625 -2.332031 88.4375 -4.40625 C 87.65625 -6.050781 87.265625 -9.851562 87.265625 -15.8125 L 87.265625 -22.5625 L 86.875 -22.5625 C 86.269531 -22.738281 85.148438 -22.828125 83.515625 -22.828125 L 80.921875 -22.5625 L 80.140625 -20.234375 C 79.179688 -17.460938 77.882812 -15 76.25 -12.84375 C 73.65625 -9.382812 69.566406 -6.460938 63.984375 -4.078125 C 58.410156 -1.703125 51.257812 0.175781 42.53125 1.5625 C 40.882812 1.90625 39.890625 2.078125 39.546875 2.078125 C 39.203125 2.078125 38.898438 1.773438 38.640625 1.171875 C 38.378906 0.816406 38.25 0.597656 38.25 0.515625 C 38.25 0.429688 38.296875 0.390625 38.390625 0.390625 C 38.390625 0.304688 39.597656 -0.125 42.015625 -0.90625 C 50.054688 -3.414062 56.039062 -5.835938 59.96875 -8.171875 C 63.90625 -10.503906 66.695312 -13.3125 68.34375 -16.59375 C 69.375 -18.84375 69.890625 -20.617188 69.890625 -21.921875 C 69.890625 -22.347656 69.375 -22.5625 68.34375 -22.5625 C 67.21875 -22.738281 66.394531 -22.828125 65.875 -22.828125 C 65.351562 -22.648438 65.070312 -22.515625 65.03125 -22.421875 C 64.988281 -22.335938 64.96875 -21.953125 64.96875 -21.265625 L 64.828125 -19.96875 L 54.71875 -19.96875 L 54.71875 -35.140625 C 54.71875 -45.171875 54.757812 -50.1875 54.84375 -50.1875 C 54.9375 -50.1875 56.492188 -49.753906 59.515625 -48.890625 L 63.796875 -47.59375 L 82.21875 -47.59375 C 94.664062 -47.59375 101.0625 -47.722656 101.40625 -47.984375 C 101.832031 -48.242188 102.476562 -48.675781 103.34375 -49.28125 C 104.382812 -50.050781 105.035156 -50.523438 105.296875 -50.703125 Z M 102.3125 -44.859375 L 64.828125 -44.859375 L 64.828125 -36.4375 L 102.3125 -36.4375 Z M 102.3125 -33.96875 L 64.828125 -33.96875 L 64.828125 -30.984375 C 64.828125 -30.296875 64.828125 -29.5625 64.828125 -28.78125 C 64.828125 -28.09375 64.828125 -27.40625 64.828125 -26.71875 L 64.96875 -25.421875 L 102.3125 -25.421875 Z M 102.3125 -33.96875 "/></g></g></g></g></g></svg>