<svg xmlns="http://www.w3.org/2000/svg" xmlns:xlink="http://www.w3.org/1999/xlink" width="633" zoomAndPan="magnify" viewBox="0 0 474.75 364.499989" height="486" preserveAspectRatio="xMidYMid meet" version="1.0"><defs><g/><clipPath id="b6b77bdb72"><rect x="0" width="255" y="0" height="192"/></clipPath><clipPath id="1c939795c7"><rect x="0" width="255" y="0" height="192"/></clipPath></defs><g transform="matrix(1, 0, 0, 1, 109, 152)"><g clip-path="url(#b6b77bdb72)"><g fill="#eae8e0" fill-opacity="1"><g transform="translate(1.61916, 149.608598)"><g><path d="M 12.953125 -80.984375 C 13.035156 -81.066406 13.253906 -81.109375 13.609375 -81.109375 C 14.210938 -81.109375 15.25 -80.9375 16.71875 -80.59375 C 20.34375 -79.8125 23.578125 -78.6875 26.421875 -77.21875 C 29.273438 -75.75 31.304688 -74.257812 32.515625 -72.75 C 33.722656 -71.238281 34.328125 -69.832031 34.328125 -68.53125 C 34.328125 -68.019531 34.242188 -67.546875 34.078125 -67.109375 C 33.898438 -65.554688 33.269531 -64.582031 32.1875 -64.1875 C 31.113281 -63.800781 30.144531 -63.609375 29.28125 -63.609375 C 28.5 -63.609375 27.632812 -63.738281 26.6875 -64 C 25.820312 -64.34375 25.257812 -64.773438 25 -65.296875 C 24.488281 -67.367188 23.171875 -69.722656 21.046875 -72.359375 C 18.929688 -74.992188 16.707031 -77.21875 14.375 -79.03125 C 13.082031 -79.894531 12.4375 -80.390625 12.4375 -80.515625 C 12.4375 -80.648438 12.609375 -80.804688 12.953125 -80.984375 Z M 107.140625 -78.640625 C 108.441406 -79.765625 109.222656 -80.347656 109.484375 -80.390625 C 109.742188 -80.429688 109.914062 -80.453125 110 -80.453125 C 110.519531 -80.453125 111.597656 -79.976562 113.234375 -79.03125 C 117.554688 -76.53125 119.71875 -74.890625 119.71875 -74.109375 C 119.539062 -73.847656 119.320312 -73.675781 119.0625 -73.59375 C 118.550781 -73.332031 111.34375 -73.203125 97.4375 -73.203125 L 76.578125 -73.203125 L 76.046875 -70.875 C 75.179688 -66.894531 74.445312 -63.738281 73.84375 -61.40625 L 73.71875 -60.890625 L 93.796875 -60.890625 L 96 -62.3125 C 97.125 -63.175781 97.859375 -63.671875 98.203125 -63.796875 C 98.554688 -63.929688 98.816406 -64 98.984375 -64 C 99.328125 -64 99.757812 -63.914062 100.28125 -63.75 C 100.96875 -63.570312 102.28125 -63.050781 104.21875 -62.1875 C 106.164062 -61.320312 107.570312 -60.585938 108.4375 -59.984375 C 109.476562 -59.460938 110 -58.988281 110 -58.5625 C 110 -58.5625 109.953125 -58.429688 109.859375 -58.171875 C 109.773438 -57.910156 109 -57.4375 107.53125 -56.75 L 105.984375 -55.84375 L 105.859375 -48.84375 L 105.859375 -41.59375 L 106.890625 -41.59375 C 107.578125 -41.59375 108.132812 -41.742188 108.5625 -42.046875 C 109 -42.347656 110.039062 -43.144531 111.6875 -44.4375 C 112.632812 -45.300781 113.410156 -45.734375 114.015625 -45.734375 C 114.703125 -45.734375 116.40625 -44.929688 119.125 -43.328125 C 121.851562 -41.734375 123.257812 -40.679688 123.34375 -40.171875 C 123.425781 -39.992188 123.46875 -39.816406 123.46875 -39.640625 C 123.46875 -39.378906 123.335938 -39.207031 123.078125 -39.125 C 121.785156 -38.957031 107.96875 -38.875 81.625 -38.875 L 40.171875 -38.875 L 40.171875 -41.453125 L 49.109375 -41.453125 C 55.066406 -41.453125 58.085938 -41.5 58.171875 -41.59375 C 58.429688 -42.101562 59.726562 -47.15625 62.0625 -56.75 C 62.144531 -57.09375 62.1875 -57.351562 62.1875 -57.53125 C 62.1875 -57.789062 62.101562 -57.960938 61.9375 -58.046875 C 61.757812 -58.128906 61.066406 -58.171875 59.859375 -58.171875 C 58.566406 -58.171875 56.753906 -58.128906 54.421875 -58.046875 L 47.03125 -58.046875 L 47.03125 -60.890625 L 62.96875 -60.890625 L 63.21875 -62.1875 C 63.476562 -63.3125 63.957031 -65.210938 64.65625 -67.890625 C 65.257812 -70.742188 65.644531 -72.34375 65.8125 -72.6875 C 65.8125 -72.851562 65.597656 -72.984375 65.171875 -73.078125 C 64.566406 -73.160156 60.9375 -73.203125 54.28125 -73.203125 L 42.625 -73.203125 L 42.625 -76.046875 L 72.9375 -76.046875 C 93.414062 -76.046875 103.78125 -76.175781 104.03125 -76.4375 C 104.46875 -76.53125 105.503906 -77.265625 107.140625 -78.640625 Z M 94.84375 -58.046875 L 84.09375 -58.046875 C 76.75 -58.046875 73.03125 -58.003906 72.9375 -57.921875 C 72.851562 -57.660156 72.1875 -54.976562 70.9375 -49.875 C 69.6875 -44.78125 69.0625 -42.0625 69.0625 -41.71875 C 69.0625 -41.632812 73.335938 -41.59375 81.890625 -41.59375 L 94.84375 -41.59375 Z M 24.09375 -59.078125 C 25.050781 -59.765625 25.832031 -60.109375 26.4375 -60.109375 C 26.519531 -60.109375 26.601562 -60.109375 26.6875 -60.109375 C 27.988281 -59.941406 30.363281 -58.863281 33.8125 -56.875 C 34.757812 -56.1875 35.382812 -55.691406 35.6875 -55.390625 C 35.988281 -55.085938 36.140625 -54.804688 36.140625 -54.546875 C 36.140625 -54.460938 36.078125 -54.332031 35.953125 -54.15625 C 35.828125 -53.976562 35.332031 -53.675781 34.46875 -53.25 C 33.34375 -52.820312 32.691406 -52.476562 32.515625 -52.21875 C 32.347656 -51.957031 32.265625 -45.910156 32.265625 -34.078125 C 32.265625 -22.328125 32.347656 -16.453125 32.515625 -16.453125 C 32.691406 -16.535156 34.207031 -16.96875 37.0625 -17.75 C 39.476562 -18.53125 42.28125 -19.394531 45.46875 -20.34375 C 48.238281 -21.207031 49.753906 -21.640625 50.015625 -21.640625 C 50.015625 -21.640625 50.035156 -21.613281 50.078125 -21.5625 C 50.117188 -21.519531 50.179688 -21.285156 50.265625 -20.859375 C 50.265625 -20.773438 50.222656 -20.6875 50.140625 -20.59375 C 50.054688 -20.507812 49.796875 -20.296875 49.359375 -19.953125 C 48.929688 -19.609375 48.367188 -19.195312 47.671875 -18.71875 C 46.984375 -18.25 46.035156 -17.625 44.828125 -16.84375 C 37.742188 -12.257812 31.566406 -8.414062 26.296875 -5.3125 C 24.398438 -4.363281 23.453125 -3.757812 23.453125 -3.5 C 23.367188 -3.15625 23.148438 -2.59375 22.796875 -1.8125 C 22.546875 -1.207031 22.242188 -0.90625 21.890625 -0.90625 C 21.628906 -0.90625 21.375 -1.035156 21.125 -1.296875 C 20.769531 -1.898438 19.816406 -3.582031 18.265625 -6.34375 C 16.535156 -9.625 15.671875 -11.394531 15.671875 -11.65625 C 15.671875 -11.75 16.625 -12.097656 18.53125 -12.703125 L 21.25 -13.21875 L 21.25 -54.03125 L 5.953125 -54.03125 L 5.953125 -56.875 L 13.078125 -56.875 C 17.398438 -56.875 19.945312 -56.9375 20.71875 -57.0625 C 21.5 -57.195312 22.625 -57.867188 24.09375 -59.078125 Z M 103.390625 -32.65625 C 103.648438 -32.820312 103.953125 -32.90625 104.296875 -32.90625 C 104.640625 -32.90625 105.867188 -32.382812 107.984375 -31.34375 C 110.109375 -30.3125 111.726562 -29.453125 112.84375 -28.765625 C 113.707031 -28.242188 114.203125 -27.875 114.328125 -27.65625 C 114.460938 -27.445312 114.53125 -27.210938 114.53125 -26.953125 C 114.445312 -26.347656 114.015625 -25.875 113.234375 -25.53125 C 113.066406 -25.4375 112.832031 -25.300781 112.53125 -25.125 C 112.226562 -24.957031 111.988281 -24.828125 111.8125 -24.734375 C 111.632812 -24.648438 111.503906 -24.609375 111.421875 -24.609375 C 110.734375 -24.359375 110.34375 -23.648438 110.25 -22.484375 C 110.164062 -21.316406 110.125 -17.707031 110.125 -11.65625 L 110.125 -0.265625 L 99.765625 -0.265625 L 99.765625 -5.3125 L 81.75 -5.3125 L 63.609375 -5.1875 L 63.609375 -0.265625 L 53.375 -0.265625 L 53.375 -1.296875 C 53.375 -1.296875 53.375 -2.007812 53.375 -3.4375 C 53.375 -4.863281 53.351562 -6.9375 53.3125 -9.65625 C 53.269531 -12.375 53.25 -14.898438 53.25 -17.234375 C 53.25 -27.335938 53.25 -32.390625 53.25 -32.390625 C 53.332031 -32.390625 55.015625 -31.957031 58.296875 -31.09375 L 63.21875 -29.796875 L 97.296875 -29.796875 C 98.160156 -29.796875 98.765625 -29.816406 99.109375 -29.859375 C 99.460938 -29.898438 100.113281 -30.3125 101.0625 -31.09375 C 102.1875 -31.957031 102.960938 -32.476562 103.390625 -32.65625 Z M 99.765625 -26.953125 L 63.609375 -26.953125 L 63.609375 -8.15625 L 99.765625 -8.15625 Z M 99.765625 -26.953125 "/></g></g></g><g fill="#eae8e0" fill-opacity="1"><g transform="translate(124.691591, 149.608598)"><g><path d="M 16.96875 -82.140625 L 23.0625 -80.84375 C 28.070312 -79.8125 30.707031 -79.125 30.96875 -78.78125 C 31.226562 -78.519531 31.359375 -78.257812 31.359375 -78 C 31.359375 -77.5625 30.578125 -77.171875 29.015625 -76.828125 C 28.929688 -76.828125 28.847656 -76.828125 28.765625 -76.828125 C 28.066406 -76.742188 27.65625 -76.613281 27.53125 -76.4375 C 27.40625 -76.269531 27.125 -75.796875 26.6875 -75.015625 C 25.5625 -73.117188 24.785156 -71.738281 24.359375 -70.875 C 23.492188 -69.3125 23.0625 -68.488281 23.0625 -68.40625 C 23.0625 -68.40625 23.535156 -68.40625 24.484375 -68.40625 C 25.523438 -68.40625 27.515625 -68.425781 30.453125 -68.46875 C 33.390625 -68.507812 35.03125 -68.660156 35.375 -68.921875 C 35.976562 -69.359375 36.84375 -70.09375 37.96875 -71.125 C 39.34375 -72.164062 40.203125 -72.6875 40.546875 -72.6875 C 41.066406 -72.6875 42.039062 -72.296875 43.46875 -71.515625 C 44.894531 -70.742188 46.296875 -69.878906 47.671875 -68.921875 C 49.054688 -67.972656 49.921875 -67.328125 50.265625 -66.984375 C 50.359375 -66.898438 50.40625 -66.769531 50.40625 -66.59375 C 50.40625 -66.425781 50.335938 -66.234375 50.203125 -66.015625 C 50.078125 -65.796875 45.132812 -65.644531 35.375 -65.5625 L 20.984375 -65.5625 L 18.921875 -62.453125 C 17.273438 -60.203125 15.804688 -58.300781 14.515625 -56.75 L 12.4375 -54.15625 L 21.5 -54.15625 C 27.632812 -54.15625 30.875 -54.285156 31.21875 -54.546875 C 31.65625 -54.722656 32.566406 -55.414062 33.953125 -56.625 C 35.410156 -57.832031 36.445312 -58.4375 37.0625 -58.4375 C 38.175781 -58.4375 40.59375 -57.140625 44.3125 -54.546875 C 45.695312 -53.597656 46.390625 -52.882812 46.390625 -52.40625 C 46.390625 -51.9375 46.171875 -51.65625 45.734375 -51.5625 C 45.554688 -51.476562 43.09375 -51.4375 38.34375 -51.4375 L 31.09375 -51.4375 L 31.21875 -44.046875 L 31.21875 -36.53125 L 31.875 -36.53125 C 32.039062 -36.53125 32.210938 -36.53125 32.390625 -36.53125 C 33.679688 -36.53125 35.28125 -37.265625 37.1875 -38.734375 C 38.820312 -40.035156 39.816406 -40.6875 40.171875 -40.6875 C 40.859375 -40.6875 42.582031 -39.882812 45.34375 -38.28125 C 48.113281 -36.6875 49.539062 -35.671875 49.625 -35.234375 C 49.707031 -35.066406 49.75 -34.894531 49.75 -34.71875 C 49.75 -34.375 49.488281 -34.160156 48.96875 -34.078125 L 40.171875 -33.953125 L 31.09375 -33.953125 L 31.09375 -24.484375 C 31.09375 -18.003906 31.179688 -14.765625 31.359375 -14.765625 C 31.960938 -14.765625 37.054688 -16.191406 46.640625 -19.046875 C 48.023438 -19.472656 48.847656 -19.6875 49.109375 -19.6875 C 49.367188 -19.6875 49.582031 -19.5625 49.75 -19.3125 C 49.75 -19.21875 49.75 -19.171875 49.75 -19.171875 C 49.75 -18.910156 49.488281 -18.585938 48.96875 -18.203125 C 48.457031 -17.816406 46.773438 -16.800781 43.921875 -15.15625 C 38.128906 -11.695312 32.90625 -8.757812 28.25 -6.34375 C 26 -5.226562 24.65625 -4.492188 24.21875 -4.140625 C 23.789062 -3.796875 23.535156 -3.410156 23.453125 -2.984375 C 23.191406 -2.378906 22.890625 -1.90625 22.546875 -1.5625 C 22.367188 -1.300781 22.195312 -1.171875 22.03125 -1.171875 C 21.9375 -1.171875 21.847656 -1.210938 21.765625 -1.296875 C 21.335938 -1.554688 20.300781 -3.238281 18.65625 -6.34375 L 16.328125 -10.890625 L 17.625 -11.53125 C 19.175781 -11.957031 20.039062 -12.171875 20.21875 -12.171875 L 21.125 -12.4375 L 21.125 -33.953125 L 4.796875 -33.953125 L 4.796875 -36.40625 L 21.125 -36.40625 L 21.125 -51.4375 L 11.921875 -51.4375 L 11.921875 -53.515625 L 9.328125 -51.046875 C 7.335938 -49.234375 6.234375 -48.257812 6.015625 -48.125 C 5.804688 -48 5.613281 -47.9375 5.4375 -47.9375 C 5.269531 -47.9375 5.054688 -48.023438 4.796875 -48.203125 C 4.359375 -48.460938 4.140625 -48.675781 4.140625 -48.84375 C 4.140625 -48.925781 4.140625 -48.96875 4.140625 -48.96875 C 4.316406 -49.144531 5.179688 -50.703125 6.734375 -53.640625 C 10.796875 -61.753906 14.125 -70.867188 16.71875 -80.984375 Z M 78.125 -76.953125 C 78.125 -80.410156 78.210938 -82.140625 78.390625 -82.140625 C 78.898438 -82.140625 81.035156 -81.878906 84.796875 -81.359375 C 88.554688 -80.847656 90.566406 -80.546875 90.828125 -80.453125 C 91.253906 -80.285156 91.46875 -80.070312 91.46875 -79.8125 C 91.46875 -79.46875 91.082031 -78.992188 90.3125 -78.390625 C 89.695312 -78.035156 89.28125 -77.597656 89.0625 -77.078125 C 88.851562 -76.566406 88.75 -75.617188 88.75 -74.234375 L 89.015625 -72.03125 L 96 -71.78125 C 100.664062 -71.78125 103.300781 -71.910156 103.90625 -72.171875 C 104.601562 -72.335938 105.597656 -72.984375 106.890625 -74.109375 C 108.359375 -75.398438 109.222656 -76.132812 109.484375 -76.3125 C 109.648438 -76.394531 109.820312 -76.4375 110 -76.4375 C 110.863281 -76.4375 112.203125 -75.921875 114.015625 -74.890625 C 117.816406 -72.640625 119.847656 -71.253906 120.109375 -70.734375 C 120.109375 -70.648438 120.109375 -70.523438 120.109375 -70.359375 C 120.109375 -70.003906 119.847656 -69.742188 119.328125 -69.578125 C 118.285156 -69.316406 114.441406 -69.1875 107.796875 -69.1875 L 96.140625 -69.1875 L 101.3125 -67.5 C 104.082031 -66.550781 105.8125 -65.90625 106.5 -65.5625 C 107.1875 -65.21875 107.53125 -64.867188 107.53125 -64.515625 C 107.53125 -63.828125 106.753906 -63.484375 105.203125 -63.484375 C 104.421875 -63.484375 103.34375 -63.007812 101.96875 -62.0625 C 100.5 -61.113281 98.554688 -59.988281 96.140625 -58.6875 L 92.375 -56.75 L 100.28125 -56.75 C 105.550781 -56.75 108.445312 -56.832031 108.96875 -57 C 109.3125 -57.09375 110.257812 -57.828125 111.8125 -59.203125 C 113.457031 -60.585938 114.492188 -61.28125 114.921875 -61.28125 C 115.441406 -61.28125 116.953125 -60.609375 119.453125 -59.265625 C 121.960938 -57.929688 123.648438 -56.875 124.515625 -56.09375 C 124.765625 -55.84375 124.890625 -55.5 124.890625 -55.0625 C 124.890625 -54.632812 124.757812 -54.332031 124.5 -54.15625 C 124.25 -53.976562 111.335938 -53.890625 85.765625 -53.890625 L 47.8125 -53.890625 L 47.8125 -56.75 L 58.171875 -56.75 C 65.078125 -56.75 68.53125 -56.789062 68.53125 -56.875 C 68.53125 -56.957031 68.316406 -57.429688 67.890625 -58.296875 C 66.859375 -60.722656 65.21875 -63.054688 62.96875 -65.296875 C 61.757812 -66.679688 61.15625 -67.503906 61.15625 -67.765625 C 61.15625 -67.847656 61.15625 -67.890625 61.15625 -67.890625 C 61.414062 -67.972656 61.800781 -68.015625 62.3125 -68.015625 C 63.09375 -68.015625 64.347656 -67.882812 66.078125 -67.625 C 67.804688 -67.375 69.488281 -66.945312 71.125 -66.34375 C 73.71875 -65.300781 75.378906 -64.128906 76.109375 -62.828125 C 76.847656 -61.535156 77.21875 -60.503906 77.21875 -59.734375 C 77.21875 -58.867188 76.914062 -58.085938 76.3125 -57.390625 L 75.40625 -56.75 L 87.71875 -56.75 L 89.015625 -58.5625 C 89.523438 -59.425781 90.253906 -60.675781 91.203125 -62.3125 C 92.160156 -63.957031 93.003906 -65.445312 93.734375 -66.78125 C 94.472656 -68.125 94.84375 -68.882812 94.84375 -69.0625 C 94.84375 -69.144531 87.628906 -69.1875 73.203125 -69.1875 L 51.703125 -69.1875 L 51.703125 -71.78125 L 78.125 -71.78125 Z M 105.203125 -50.65625 C 105.378906 -50.738281 105.640625 -50.78125 105.984375 -50.78125 C 107.191406 -50.78125 109.222656 -49.960938 112.078125 -48.328125 C 115.097656 -46.597656 116.609375 -45.34375 116.609375 -44.5625 C 116.609375 -44.132812 115.832031 -43.707031 114.28125 -43.28125 C 113.414062 -43.019531 112.914062 -42.4375 112.78125 -41.53125 C 112.65625 -40.625 112.59375 -37.578125 112.59375 -32.390625 C 112.59375 -31.785156 112.59375 -31.3125 112.59375 -30.96875 L 112.59375 -19.953125 L 102.21875 -19.953125 L 102.21875 -22.421875 L 100.015625 -22.546875 C 99.242188 -22.628906 98.640625 -22.671875 98.203125 -22.671875 C 97.773438 -22.671875 97.519531 -22.628906 97.4375 -22.546875 C 97.4375 -22.460938 97.4375 -20.300781 97.4375 -16.0625 C 97.4375 -15.800781 97.4375 -15.367188 97.4375 -14.765625 C 97.4375 -11.222656 97.800781 -9.171875 98.53125 -8.609375 C 99.269531 -8.054688 101.710938 -7.78125 105.859375 -7.78125 C 106.460938 -7.78125 106.976562 -7.78125 107.40625 -7.78125 C 112.238281 -7.78125 114.914062 -7.820312 115.4375 -7.90625 C 116.644531 -8.332031 117.46875 -9.109375 117.90625 -10.234375 C 118.070312 -11.273438 118.503906 -13.085938 119.203125 -15.671875 C 119.972656 -18.703125 120.488281 -20.21875 120.75 -20.21875 C 121.007812 -20.21875 121.140625 -18.832031 121.140625 -16.0625 C 121.140625 -13.46875 121.242188 -11.847656 121.453125 -11.203125 C 121.671875 -10.554688 122.171875 -10.101562 122.953125 -9.84375 C 123.734375 -9.675781 124.359375 -9.351562 124.828125 -8.875 C 125.304688 -8.394531 125.546875 -7.722656 125.546875 -6.859375 C 125.546875 -5.222656 124.941406 -3.882812 123.734375 -2.84375 C 122.523438 -1.8125 120.753906 -1.035156 118.421875 -0.515625 C 117.472656 -0.253906 114.015625 -0.125 108.046875 -0.125 C 102.085938 -0.125 98.203125 -0.253906 96.390625 -0.515625 C 92.160156 -1.035156 89.484375 -2.332031 88.359375 -4.40625 C 87.585938 -6.039062 87.203125 -9.84375 87.203125 -15.8125 L 87.203125 -22.546875 L 86.8125 -22.546875 C 86.207031 -22.710938 85.082031 -22.796875 83.4375 -22.796875 L 80.84375 -22.546875 L 80.0625 -20.21875 C 79.113281 -17.445312 77.820312 -14.984375 76.1875 -12.828125 C 73.59375 -9.367188 69.507812 -6.453125 63.9375 -4.078125 C 58.363281 -1.703125 51.21875 0.175781 42.5 1.5625 C 40.851562 1.90625 39.859375 2.078125 39.515625 2.078125 C 39.171875 2.078125 38.867188 1.773438 38.609375 1.171875 C 38.347656 0.816406 38.21875 0.597656 38.21875 0.515625 C 38.21875 0.429688 38.257812 0.390625 38.34375 0.390625 C 38.34375 0.304688 39.554688 -0.125 41.984375 -0.90625 C 50.015625 -3.414062 55.992188 -5.832031 59.921875 -8.15625 C 63.847656 -10.488281 66.632812 -13.296875 68.28125 -16.578125 C 69.3125 -18.828125 69.828125 -20.597656 69.828125 -21.890625 C 69.828125 -22.328125 69.3125 -22.546875 68.28125 -22.546875 C 67.15625 -22.710938 66.332031 -22.796875 65.8125 -22.796875 C 65.300781 -22.628906 65.019531 -22.5 64.96875 -22.40625 C 64.925781 -22.320312 64.90625 -21.9375 64.90625 -21.25 L 64.78125 -19.953125 L 54.671875 -19.953125 L 54.671875 -35.109375 C 54.671875 -45.128906 54.710938 -50.140625 54.796875 -50.140625 C 54.890625 -50.140625 56.445312 -49.707031 59.46875 -48.84375 L 63.75 -47.546875 L 82.140625 -47.546875 C 94.578125 -47.546875 100.96875 -47.675781 101.3125 -47.9375 C 101.75 -48.195312 102.398438 -48.628906 103.265625 -49.234375 C 104.296875 -50.015625 104.941406 -50.488281 105.203125 -50.65625 Z M 102.21875 -44.828125 L 64.78125 -44.828125 L 64.78125 -36.40625 L 102.21875 -36.40625 Z M 102.21875 -33.953125 L 64.78125 -33.953125 L 64.78125 -30.96875 C 64.78125 -30.269531 64.78125 -29.535156 64.78125 -28.765625 C 64.78125 -28.066406 64.78125 -27.375 64.78125 -26.6875 L 64.90625 -25.390625 L 102.21875 -25.390625 Z M 102.21875 -33.953125 "/></g></g></g></g></g><g transform="matrix(1, 0, 0, 1, 109, 20)"><g clip-path="url(#1c939795c7)"><g fill="#eae8e0" fill-opacity="1"><g transform="translate(1.61916, 149.730363)"><g><path d="M 12.953125 -80.984375 C 13.035156 -81.066406 13.253906 -81.109375 13.609375 -81.109375 C 14.210938 -81.109375 15.25 -80.9375 16.71875 -80.59375 C 20.34375 -79.8125 23.578125 -78.6875 26.421875 -77.21875 C 29.273438 -75.75 31.304688 -74.257812 32.515625 -72.75 C 33.722656 -71.238281 34.328125 -69.832031 34.328125 -68.53125 C 34.328125 -68.019531 34.242188 -67.546875 34.078125 -67.109375 C 33.898438 -65.554688 33.269531 -64.582031 32.1875 -64.1875 C 31.113281 -63.800781 30.144531 -63.609375 29.28125 -63.609375 C 28.5 -63.609375 27.632812 -63.738281 26.6875 -64 C 25.820312 -64.34375 25.257812 -64.773438 25 -65.296875 C 24.488281 -67.367188 23.171875 -69.722656 21.046875 -72.359375 C 18.929688 -74.992188 16.707031 -77.21875 14.375 -79.03125 C 13.082031 -79.894531 12.4375 -80.390625 12.4375 -80.515625 C 12.4375 -80.648438 12.609375 -80.804688 12.953125 -80.984375 Z M 107.140625 -78.640625 C 108.441406 -79.765625 109.222656 -80.347656 109.484375 -80.390625 C 109.742188 -80.429688 109.914062 -80.453125 110 -80.453125 C 110.519531 -80.453125 111.597656 -79.976562 113.234375 -79.03125 C 117.554688 -76.53125 119.71875 -74.890625 119.71875 -74.109375 C 119.539062 -73.847656 119.320312 -73.675781 119.0625 -73.59375 C 118.550781 -73.332031 111.34375 -73.203125 97.4375 -73.203125 L 76.578125 -73.203125 L 76.046875 -70.875 C 75.179688 -66.894531 74.445312 -63.738281 73.84375 -61.40625 L 73.71875 -60.890625 L 93.796875 -60.890625 L 96 -62.3125 C 97.125 -63.175781 97.859375 -63.671875 98.203125 -63.796875 C 98.554688 -63.929688 98.816406 -64 98.984375 -64 C 99.328125 -64 99.757812 -63.914062 100.28125 -63.75 C 100.96875 -63.570312 102.28125 -63.050781 104.21875 -62.1875 C 106.164062 -61.320312 107.570312 -60.585938 108.4375 -59.984375 C 109.476562 -59.460938 110 -58.988281 110 -58.5625 C 110 -58.5625 109.953125 -58.429688 109.859375 -58.171875 C 109.773438 -57.910156 109 -57.4375 107.53125 -56.75 L 105.984375 -55.84375 L 105.859375 -48.84375 L 105.859375 -41.59375 L 106.890625 -41.59375 C 107.578125 -41.59375 108.132812 -41.742188 108.5625 -42.046875 C 109 -42.347656 110.039062 -43.144531 111.6875 -44.4375 C 112.632812 -45.300781 113.410156 -45.734375 114.015625 -45.734375 C 114.703125 -45.734375 116.40625 -44.929688 119.125 -43.328125 C 121.851562 -41.734375 123.257812 -40.679688 123.34375 -40.171875 C 123.425781 -39.992188 123.46875 -39.816406 123.46875 -39.640625 C 123.46875 -39.378906 123.335938 -39.207031 123.078125 -39.125 C 121.785156 -38.957031 107.96875 -38.875 81.625 -38.875 L 40.171875 -38.875 L 40.171875 -41.453125 L 49.109375 -41.453125 C 55.066406 -41.453125 58.085938 -41.5 58.171875 -41.59375 C 58.429688 -42.101562 59.726562 -47.15625 62.0625 -56.75 C 62.144531 -57.09375 62.1875 -57.351562 62.1875 -57.53125 C 62.1875 -57.789062 62.101562 -57.960938 61.9375 -58.046875 C 61.757812 -58.128906 61.066406 -58.171875 59.859375 -58.171875 C 58.566406 -58.171875 56.753906 -58.128906 54.421875 -58.046875 L 47.03125 -58.046875 L 47.03125 -60.890625 L 62.96875 -60.890625 L 63.21875 -62.1875 C 63.476562 -63.3125 63.957031 -65.210938 64.65625 -67.890625 C 65.257812 -70.742188 65.644531 -72.34375 65.8125 -72.6875 C 65.8125 -72.851562 65.597656 -72.984375 65.171875 -73.078125 C 64.566406 -73.160156 60.9375 -73.203125 54.28125 -73.203125 L 42.625 -73.203125 L 42.625 -76.046875 L 72.9375 -76.046875 C 93.414062 -76.046875 103.78125 -76.175781 104.03125 -76.4375 C 104.46875 -76.53125 105.503906 -77.265625 107.140625 -78.640625 Z M 94.84375 -58.046875 L 84.09375 -58.046875 C 76.75 -58.046875 73.03125 -58.003906 72.9375 -57.921875 C 72.851562 -57.660156 72.1875 -54.976562 70.9375 -49.875 C 69.6875 -44.78125 69.0625 -42.0625 69.0625 -41.71875 C 69.0625 -41.632812 73.335938 -41.59375 81.890625 -41.59375 L 94.84375 -41.59375 Z M 24.09375 -59.078125 C 25.050781 -59.765625 25.832031 -60.109375 26.4375 -60.109375 C 26.519531 -60.109375 26.601562 -60.109375 26.6875 -60.109375 C 27.988281 -59.941406 30.363281 -58.863281 33.8125 -56.875 C 34.757812 -56.1875 35.382812 -55.691406 35.6875 -55.390625 C 35.988281 -55.085938 36.140625 -54.804688 36.140625 -54.546875 C 36.140625 -54.460938 36.078125 -54.332031 35.953125 -54.15625 C 35.828125 -53.976562 35.332031 -53.675781 34.46875 -53.25 C 33.34375 -52.820312 32.691406 -52.476562 32.515625 -52.21875 C 32.347656 -51.957031 32.265625 -45.910156 32.265625 -34.078125 C 32.265625 -22.328125 32.347656 -16.453125 32.515625 -16.453125 C 32.691406 -16.535156 34.207031 -16.96875 37.0625 -17.75 C 39.476562 -18.53125 42.28125 -19.394531 45.46875 -20.34375 C 48.238281 -21.207031 49.753906 -21.640625 50.015625 -21.640625 C 50.015625 -21.640625 50.035156 -21.613281 50.078125 -21.5625 C 50.117188 -21.519531 50.179688 -21.285156 50.265625 -20.859375 C 50.265625 -20.773438 50.222656 -20.6875 50.140625 -20.59375 C 50.054688 -20.507812 49.796875 -20.296875 49.359375 -19.953125 C 48.929688 -19.609375 48.367188 -19.195312 47.671875 -18.71875 C 46.984375 -18.25 46.035156 -17.625 44.828125 -16.84375 C 37.742188 -12.257812 31.566406 -8.414062 26.296875 -5.3125 C 24.398438 -4.363281 23.453125 -3.757812 23.453125 -3.5 C 23.367188 -3.15625 23.148438 -2.59375 22.796875 -1.8125 C 22.546875 -1.207031 22.242188 -0.90625 21.890625 -0.90625 C 21.628906 -0.90625 21.375 -1.035156 21.125 -1.296875 C 20.769531 -1.898438 19.816406 -3.582031 18.265625 -6.34375 C 16.535156 -9.625 15.671875 -11.394531 15.671875 -11.65625 C 15.671875 -11.75 16.625 -12.097656 18.53125 -12.703125 L 21.25 -13.21875 L 21.25 -54.03125 L 5.953125 -54.03125 L 5.953125 -56.875 L 13.078125 -56.875 C 17.398438 -56.875 19.945312 -56.9375 20.71875 -57.0625 C 21.5 -57.195312 22.625 -57.867188 24.09375 -59.078125 Z M 103.390625 -32.65625 C 103.648438 -32.820312 103.953125 -32.90625 104.296875 -32.90625 C 104.640625 -32.90625 105.867188 -32.382812 107.984375 -31.34375 C 110.109375 -30.3125 111.726562 -29.453125 112.84375 -28.765625 C 113.707031 -28.242188 114.203125 -27.875 114.328125 -27.65625 C 114.460938 -27.445312 114.53125 -27.210938 114.53125 -26.953125 C 114.445312 -26.347656 114.015625 -25.875 113.234375 -25.53125 C 113.066406 -25.4375 112.832031 -25.300781 112.53125 -25.125 C 112.226562 -24.957031 111.988281 -24.828125 111.8125 -24.734375 C 111.632812 -24.648438 111.503906 -24.609375 111.421875 -24.609375 C 110.734375 -24.359375 110.34375 -23.648438 110.25 -22.484375 C 110.164062 -21.316406 110.125 -17.707031 110.125 -11.65625 L 110.125 -0.265625 L 99.765625 -0.265625 L 99.765625 -5.3125 L 81.75 -5.3125 L 63.609375 -5.1875 L 63.609375 -0.265625 L 53.375 -0.265625 L 53.375 -1.296875 C 53.375 -1.296875 53.375 -2.007812 53.375 -3.4375 C 53.375 -4.863281 53.351562 -6.9375 53.3125 -9.65625 C 53.269531 -12.375 53.25 -14.898438 53.25 -17.234375 C 53.25 -27.335938 53.25 -32.390625 53.25 -32.390625 C 53.332031 -32.390625 55.015625 -31.957031 58.296875 -31.09375 L 63.21875 -29.796875 L 97.296875 -29.796875 C 98.160156 -29.796875 98.765625 -29.816406 99.109375 -29.859375 C 99.460938 -29.898438 100.113281 -30.3125 101.0625 -31.09375 C 102.1875 -31.957031 102.960938 -32.476562 103.390625 -32.65625 Z M 99.765625 -26.953125 L 63.609375 -26.953125 L 63.609375 -8.15625 L 99.765625 -8.15625 Z M 99.765625 -26.953125 "/></g></g></g><g fill="#eae8e0" fill-opacity="1"><g transform="translate(124.691591, 149.730363)"><g><path d="M 16.96875 -82.140625 L 23.0625 -80.84375 C 28.070312 -79.8125 30.707031 -79.125 30.96875 -78.78125 C 31.226562 -78.519531 31.359375 -78.257812 31.359375 -78 C 31.359375 -77.5625 30.578125 -77.171875 29.015625 -76.828125 C 28.929688 -76.828125 28.847656 -76.828125 28.765625 -76.828125 C 28.066406 -76.742188 27.65625 -76.613281 27.53125 -76.4375 C 27.40625 -76.269531 27.125 -75.796875 26.6875 -75.015625 C 25.5625 -73.117188 24.785156 -71.738281 24.359375 -70.875 C 23.492188 -69.3125 23.0625 -68.488281 23.0625 -68.40625 C 23.0625 -68.40625 23.535156 -68.40625 24.484375 -68.40625 C 25.523438 -68.40625 27.515625 -68.425781 30.453125 -68.46875 C 33.390625 -68.507812 35.03125 -68.660156 35.375 -68.921875 C 35.976562 -69.359375 36.84375 -70.09375 37.96875 -71.125 C 39.34375 -72.164062 40.203125 -72.6875 40.546875 -72.6875 C 41.066406 -72.6875 42.039062 -72.296875 43.46875 -71.515625 C 44.894531 -70.742188 46.296875 -69.878906 47.671875 -68.921875 C 49.054688 -67.972656 49.921875 -67.328125 50.265625 -66.984375 C 50.359375 -66.898438 50.40625 -66.769531 50.40625 -66.59375 C 50.40625 -66.425781 50.335938 -66.234375 50.203125 -66.015625 C 50.078125 -65.796875 45.132812 -65.644531 35.375 -65.5625 L 20.984375 -65.5625 L 18.921875 -62.453125 C 17.273438 -60.203125 15.804688 -58.300781 14.515625 -56.75 L 12.4375 -54.15625 L 21.5 -54.15625 C 27.632812 -54.15625 30.875 -54.285156 31.21875 -54.546875 C 31.65625 -54.722656 32.566406 -55.414062 33.953125 -56.625 C 35.410156 -57.832031 36.445312 -58.4375 37.0625 -58.4375 C 38.175781 -58.4375 40.59375 -57.140625 44.3125 -54.546875 C 45.695312 -53.597656 46.390625 -52.882812 46.390625 -52.40625 C 46.390625 -51.9375 46.171875 -51.65625 45.734375 -51.5625 C 45.554688 -51.476562 43.09375 -51.4375 38.34375 -51.4375 L 31.09375 -51.4375 L 31.21875 -44.046875 L 31.21875 -36.53125 L 31.875 -36.53125 C 32.039062 -36.53125 32.210938 -36.53125 32.390625 -36.53125 C 33.679688 -36.53125 35.28125 -37.265625 37.1875 -38.734375 C 38.820312 -40.035156 39.816406 -40.6875 40.171875 -40.6875 C 40.859375 -40.6875 42.582031 -39.882812 45.34375 -38.28125 C 48.113281 -36.6875 49.539062 -35.671875 49.625 -35.234375 C 49.707031 -35.066406 49.75 -34.894531 49.75 -34.71875 C 49.75 -34.375 49.488281 -34.160156 48.96875 -34.078125 L 40.171875 -33.953125 L 31.09375 -33.953125 L 31.09375 -24.484375 C 31.09375 -18.003906 31.179688 -14.765625 31.359375 -14.765625 C 31.960938 -14.765625 37.054688 -16.191406 46.640625 -19.046875 C 48.023438 -19.472656 48.847656 -19.6875 49.109375 -19.6875 C 49.367188 -19.6875 49.582031 -19.5625 49.75 -19.3125 C 49.75 -19.21875 49.75 -19.171875 49.75 -19.171875 C 49.75 -18.910156 49.488281 -18.585938 48.96875 -18.203125 C 48.457031 -17.816406 46.773438 -16.800781 43.921875 -15.15625 C 38.128906 -11.695312 32.90625 -8.757812 28.25 -6.34375 C 26 -5.226562 24.65625 -4.492188 24.21875 -4.140625 C 23.789062 -3.796875 23.535156 -3.410156 23.453125 -2.984375 C 23.191406 -2.378906 22.890625 -1.90625 22.546875 -1.5625 C 22.367188 -1.300781 22.195312 -1.171875 22.03125 -1.171875 C 21.9375 -1.171875 21.847656 -1.210938 21.765625 -1.296875 C 21.335938 -1.554688 20.300781 -3.238281 18.65625 -6.34375 L 16.328125 -10.890625 L 17.625 -11.53125 C 19.175781 -11.957031 20.039062 -12.171875 20.21875 -12.171875 L 21.125 -12.4375 L 21.125 -33.953125 L 4.796875 -33.953125 L 4.796875 -36.40625 L 21.125 -36.40625 L 21.125 -51.4375 L 11.921875 -51.4375 L 11.921875 -53.515625 L 9.328125 -51.046875 C 7.335938 -49.234375 6.234375 -48.257812 6.015625 -48.125 C 5.804688 -48 5.613281 -47.9375 5.4375 -47.9375 C 5.269531 -47.9375 5.054688 -48.023438 4.796875 -48.203125 C 4.359375 -48.460938 4.140625 -48.675781 4.140625 -48.84375 C 4.140625 -48.925781 4.140625 -48.96875 4.140625 -48.96875 C 4.316406 -49.144531 5.179688 -50.703125 6.734375 -53.640625 C 10.796875 -61.753906 14.125 -70.867188 16.71875 -80.984375 Z M 78.125 -76.953125 C 78.125 -80.410156 78.210938 -82.140625 78.390625 -82.140625 C 78.898438 -82.140625 81.035156 -81.878906 84.796875 -81.359375 C 88.554688 -80.847656 90.566406 -80.546875 90.828125 -80.453125 C 91.253906 -80.285156 91.46875 -80.070312 91.46875 -79.8125 C 91.46875 -79.46875 91.082031 -78.992188 90.3125 -78.390625 C 89.695312 -78.035156 89.28125 -77.597656 89.0625 -77.078125 C 88.851562 -76.566406 88.75 -75.617188 88.75 -74.234375 L 89.015625 -72.03125 L 96 -71.78125 C 100.664062 -71.78125 103.300781 -71.910156 103.90625 -72.171875 C 104.601562 -72.335938 105.597656 -72.984375 106.890625 -74.109375 C 108.359375 -75.398438 109.222656 -76.132812 109.484375 -76.3125 C 109.648438 -76.394531 109.820312 -76.4375 110 -76.4375 C 110.863281 -76.4375 112.203125 -75.921875 114.015625 -74.890625 C 117.816406 -72.640625 119.847656 -71.253906 120.109375 -70.734375 C 120.109375 -70.648438 120.109375 -70.523438 120.109375 -70.359375 C 120.109375 -70.003906 119.847656 -69.742188 119.328125 -69.578125 C 118.285156 -69.316406 114.441406 -69.1875 107.796875 -69.1875 L 96.140625 -69.1875 L 101.3125 -67.5 C 104.082031 -66.550781 105.8125 -65.90625 106.5 -65.5625 C 107.1875 -65.21875 107.53125 -64.867188 107.53125 -64.515625 C 107.53125 -63.828125 106.753906 -63.484375 105.203125 -63.484375 C 104.421875 -63.484375 103.34375 -63.007812 101.96875 -62.0625 C 100.5 -61.113281 98.554688 -59.988281 96.140625 -58.6875 L 92.375 -56.75 L 100.28125 -56.75 C 105.550781 -56.75 108.445312 -56.832031 108.96875 -57 C 109.3125 -57.09375 110.257812 -57.828125 111.8125 -59.203125 C 113.457031 -60.585938 114.492188 -61.28125 114.921875 -61.28125 C 115.441406 -61.28125 116.953125 -60.609375 119.453125 -59.265625 C 121.960938 -57.929688 123.648438 -56.875 124.515625 -56.09375 C 124.765625 -55.84375 124.890625 -55.5 124.890625 -55.0625 C 124.890625 -54.632812 124.757812 -54.332031 124.5 -54.15625 C 124.25 -53.976562 111.335938 -53.890625 85.765625 -53.890625 L 47.8125 -53.890625 L 47.8125 -56.75 L 58.171875 -56.75 C 65.078125 -56.75 68.53125 -56.789062 68.53125 -56.875 C 68.53125 -56.957031 68.316406 -57.429688 67.890625 -58.296875 C 66.859375 -60.722656 65.21875 -63.054688 62.96875 -65.296875 C 61.757812 -66.679688 61.15625 -67.503906 61.15625 -67.765625 C 61.15625 -67.847656 61.15625 -67.890625 61.15625 -67.890625 C 61.414062 -67.972656 61.800781 -68.015625 62.3125 -68.015625 C 63.09375 -68.015625 64.347656 -67.882812 66.078125 -67.625 C 67.804688 -67.375 69.488281 -66.945312 71.125 -66.34375 C 73.71875 -65.300781 75.378906 -64.128906 76.109375 -62.828125 C 76.847656 -61.535156 77.21875 -60.503906 77.21875 -59.734375 C 77.21875 -58.867188 76.914062 -58.085938 76.3125 -57.390625 L 75.40625 -56.75 L 87.71875 -56.75 L 89.015625 -58.5625 C 89.523438 -59.425781 90.253906 -60.675781 91.203125 -62.3125 C 92.160156 -63.957031 93.003906 -65.445312 93.734375 -66.78125 C 94.472656 -68.125 94.84375 -68.882812 94.84375 -69.0625 C 94.84375 -69.144531 87.628906 -69.1875 73.203125 -69.1875 L 51.703125 -69.1875 L 51.703125 -71.78125 L 78.125 -71.78125 Z M 105.203125 -50.65625 C 105.378906 -50.738281 105.640625 -50.78125 105.984375 -50.78125 C 107.191406 -50.78125 109.222656 -49.960938 112.078125 -48.328125 C 115.097656 -46.597656 116.609375 -45.34375 116.609375 -44.5625 C 116.609375 -44.132812 115.832031 -43.707031 114.28125 -43.28125 C 113.414062 -43.019531 112.914062 -42.4375 112.78125 -41.53125 C 112.65625 -40.625 112.59375 -37.578125 112.59375 -32.390625 C 112.59375 -31.785156 112.59375 -31.3125 112.59375 -30.96875 L 112.59375 -19.953125 L 102.21875 -19.953125 L 102.21875 -22.421875 L 100.015625 -22.546875 C 99.242188 -22.628906 98.640625 -22.671875 98.203125 -22.671875 C 97.773438 -22.671875 97.519531 -22.628906 97.4375 -22.546875 C 97.4375 -22.460938 97.4375 -20.300781 97.4375 -16.0625 C 97.4375 -15.800781 97.4375 -15.367188 97.4375 -14.765625 C 97.4375 -11.222656 97.800781 -9.171875 98.53125 -8.609375 C 99.269531 -8.054688 101.710938 -7.78125 105.859375 -7.78125 C 106.460938 -7.78125 106.976562 -7.78125 107.40625 -7.78125 C 112.238281 -7.78125 114.914062 -7.820312 115.4375 -7.90625 C 116.644531 -8.332031 117.46875 -9.109375 117.90625 -10.234375 C 118.070312 -11.273438 118.503906 -13.085938 119.203125 -15.671875 C 119.972656 -18.703125 120.488281 -20.21875 120.75 -20.21875 C 121.007812 -20.21875 121.140625 -18.832031 121.140625 -16.0625 C 121.140625 -13.46875 121.242188 -11.847656 121.453125 -11.203125 C 121.671875 -10.554688 122.171875 -10.101562 122.953125 -9.84375 C 123.734375 -9.675781 124.359375 -9.351562 124.828125 -8.875 C 125.304688 -8.394531 125.546875 -7.722656 125.546875 -6.859375 C 125.546875 -5.222656 124.941406 -3.882812 123.734375 -2.84375 C 122.523438 -1.8125 120.753906 -1.035156 118.421875 -0.515625 C 117.472656 -0.253906 114.015625 -0.125 108.046875 -0.125 C 102.085938 -0.125 98.203125 -0.253906 96.390625 -0.515625 C 92.160156 -1.035156 89.484375 -2.332031 88.359375 -4.40625 C 87.585938 -6.039062 87.203125 -9.84375 87.203125 -15.8125 L 87.203125 -22.546875 L 86.8125 -22.546875 C 86.207031 -22.710938 85.082031 -22.796875 83.4375 -22.796875 L 80.84375 -22.546875 L 80.0625 -20.21875 C 79.113281 -17.445312 77.820312 -14.984375 76.1875 -12.828125 C 73.59375 -9.367188 69.507812 -6.453125 63.9375 -4.078125 C 58.363281 -1.703125 51.21875 0.175781 42.5 1.5625 C 40.851562 1.90625 39.859375 2.078125 39.515625 2.078125 C 39.171875 2.078125 38.867188 1.773438 38.609375 1.171875 C 38.347656 0.816406 38.21875 0.597656 38.21875 0.515625 C 38.21875 0.429688 38.257812 0.390625 38.34375 0.390625 C 38.34375 0.304688 39.554688 -0.125 41.984375 -0.90625 C 50.015625 -3.414062 55.992188 -5.832031 59.921875 -8.15625 C 63.847656 -10.488281 66.632812 -13.296875 68.28125 -16.578125 C 69.3125 -18.828125 69.828125 -20.597656 69.828125 -21.890625 C 69.828125 -22.328125 69.3125 -22.546875 68.28125 -22.546875 C 67.15625 -22.710938 66.332031 -22.796875 65.8125 -22.796875 C 65.300781 -22.628906 65.019531 -22.5 64.96875 -22.40625 C 64.925781 -22.320312 64.90625 -21.9375 64.90625 -21.25 L 64.78125 -19.953125 L 54.671875 -19.953125 L 54.671875 -35.109375 C 54.671875 -45.128906 54.710938 -50.140625 54.796875 -50.140625 C 54.890625 -50.140625 56.445312 -49.707031 59.46875 -48.84375 L 63.75 -47.546875 L 82.140625 -47.546875 C 94.578125 -47.546875 100.96875 -47.675781 101.3125 -47.9375 C 101.75 -48.195312 102.398438 -48.628906 103.265625 -49.234375 C 104.296875 -50.015625 104.941406 -50.488281 105.203125 -50.65625 Z M 102.21875 -44.828125 L 64.78125 -44.828125 L 64.78125 -36.40625 L 102.21875 -36.40625 Z M 102.21875 -33.953125 L 64.78125 -33.953125 L 64.78125 -30.96875 C 64.78125 -30.269531 64.78125 -29.535156 64.78125 -28.765625 C 64.78125 -28.066406 64.78125 -27.375 64.78125 -26.6875 L 64.90625 -25.390625 L 102.21875 -25.390625 Z M 102.21875 -33.953125 "/></g></g></g></g></g></svg>